<svg width="216" height="222" viewBox="0 0 216 222" fill="none" xmlns="http://www.w3.org/2000/svg">
<path d="M202.844 173.142C198.659 175.147 193.918 175.715 189.307 174.764L151.118 167.172C147.945 166.533 144.687 166.938 141.815 168.329C138.942 169.719 136.604 172.024 135.137 174.909L117.406 209.574C115.268 213.755 111.871 217.093 107.703 219.112C103.535 221.13 98.8096 221.724 94.2038 220.808C89.598 219.893 85.3485 217.515 82.064 214.016C78.7795 210.517 76.6287 206.076 75.92 201.329L70.0488 161.972C69.5667 158.699 68.0873 155.636 65.824 153.224C63.5606 150.812 60.6302 149.175 57.4549 148.549L19.2655 140.957C14.6598 140.041 10.4106 137.663 7.12656 134.163C3.84254 130.664 1.69243 126.222 0.984373 121.475C0.276317 116.729 1.04671 111.92 3.18504 107.74C5.32338 103.559 8.71986 100.22 12.8879 98.2021L47.4478 81.4703C50.3226 80.0852 52.6656 77.7863 54.1392 74.9054C55.6128 72.0245 56.1407 68.7103 55.6471 65.4401L49.7758 26.0823C49.067 21.3351 49.8371 16.5264 51.9754 12.345C54.1137 8.16367 57.5106 4.82446 61.6791 2.80632C65.8477 0.788167 70.5737 0.194713 75.1799 1.11077C79.7861 2.02683 84.0358 4.40532 87.3199 7.90562L114.55 36.9228C116.809 39.3382 119.737 40.9794 122.911 41.6102C126.085 42.241 129.342 41.8289 132.211 40.4327L166.771 23.7009C170.939 21.6831 175.665 21.0895 180.271 22.0052C184.876 22.9209 189.126 25.2989 192.41 28.7983C195.695 32.2978 197.845 36.7392 198.553 41.4858C199.262 46.2325 198.492 51.0406 196.354 55.2216L178.623 89.8869C177.143 92.7655 176.609 96.0797 177.098 99.3515C177.586 102.623 179.071 105.684 181.339 108.092L208.57 137.108C211.899 140.58 214.081 145.026 214.79 149.785C215.5 154.545 214.701 159.364 212.51 163.53C210.398 167.736 207.013 171.103 202.844 173.142Z" fill="white" fill-opacity="0.05"/>
</svg>
