<svg width="381" height="333" viewBox="0 0 381 333" fill="none" xmlns="http://www.w3.org/2000/svg">
<path d="M237.844 263.142C233.659 265.147 228.918 265.715 224.307 264.764L186.118 257.172C182.945 256.533 179.687 256.938 176.815 258.329C173.942 259.719 171.604 262.024 170.137 264.909L152.406 299.574C150.268 303.755 146.871 307.093 142.703 309.112C138.535 311.13 133.81 311.724 129.204 310.808C124.598 309.893 120.348 307.515 117.064 304.016C113.779 300.517 111.629 296.076 110.92 291.329L105.049 251.972C104.567 248.699 103.087 245.636 100.824 243.224C98.5606 240.812 95.6302 239.175 92.4549 238.549L54.2655 230.957C49.6598 230.041 45.4106 227.663 42.1266 224.163C38.8425 220.664 36.6924 216.222 35.9844 211.475C35.2763 206.729 36.0467 201.92 38.185 197.74C40.3234 193.559 43.7199 190.22 47.8879 188.202L82.4478 171.47C85.3226 170.085 87.6656 167.786 89.1392 164.905C90.6128 162.025 91.1407 158.71 90.6471 155.44L84.7758 116.082C84.067 111.335 84.8371 106.526 86.9754 102.345C89.1137 98.1637 92.5106 94.8245 96.6791 92.8063C100.848 90.7882 105.574 90.1947 110.18 91.1108C114.786 92.0268 119.036 94.4053 122.32 97.9056L149.55 126.923C151.809 129.338 154.737 130.979 157.911 131.61C161.085 132.241 164.342 131.829 167.211 130.433L201.771 113.701C205.939 111.683 210.665 111.09 215.271 112.005C219.876 112.921 224.126 115.299 227.41 118.798C230.695 122.298 232.845 126.739 233.553 131.486C234.262 136.233 233.492 141.041 231.354 145.222L213.623 179.887C212.143 182.766 211.609 186.08 212.098 189.351C212.586 192.623 214.071 195.684 216.339 198.092L243.57 227.108C246.899 230.58 249.081 235.026 249.79 239.785C250.5 244.545 249.701 249.364 247.51 253.53C245.398 257.736 242.013 261.103 237.844 263.142Z" fill="white" fill-opacity="0.25"/>
<path d="M305.01 112.63C302.782 112.024 300.791 110.777 299.324 109.069L287.089 95.0164C286.075 93.8462 284.702 92.9941 283.168 92.5831C281.635 92.1721 280.02 92.2236 278.556 92.7301L260.934 98.7824C258.809 99.5124 256.465 99.5844 254.24 98.9882C252.014 98.3919 250.021 97.1581 248.545 95.4633C247.07 93.7686 246.187 91.7001 246.025 89.5542C245.863 87.4082 246.429 85.295 247.642 83.5174L257.703 68.7801C258.541 67.5566 258.933 66.1003 258.822 64.6213C258.71 63.1422 258.101 61.7166 257.082 60.5501L244.847 46.4974C243.371 44.8025 242.489 42.7339 242.327 40.5879C242.165 38.442 242.732 36.3289 243.945 34.5515C245.158 32.7741 246.957 31.4236 249.082 30.6937C251.207 29.9637 253.55 29.8917 255.776 30.4879L274.229 35.4323C275.761 35.8458 277.377 35.7975 278.841 35.2945C280.306 34.7915 281.544 33.8598 282.378 32.6335L292.438 17.896C293.652 16.1183 295.45 14.7676 297.575 14.0374C299.701 13.3073 302.044 13.2352 304.27 13.8315C306.496 14.4279 308.489 15.6621 309.965 17.3572C311.441 19.0523 312.323 21.1211 312.484 23.2673L313.828 41.0606C313.937 42.5395 314.544 43.9656 315.561 45.1335C316.578 46.3014 317.952 47.1508 319.487 47.5591L337.939 52.5035C340.165 53.0999 342.158 54.3339 343.634 56.0287C345.109 57.7235 345.991 59.7921 346.153 61.9381C346.315 64.0841 345.749 66.1972 344.536 67.9747C343.323 69.7522 341.525 71.1026 339.4 71.8327L321.777 77.8851C320.311 78.3856 319.071 79.3156 318.234 80.5407C317.398 81.7658 317.009 83.2229 317.124 84.7019L318.468 102.495C318.656 104.646 318.1 106.77 316.883 108.552C315.667 110.334 313.854 111.679 311.713 112.389C309.59 113.135 307.242 113.219 305.01 112.63Z" fill="white" fill-opacity="0.25"/>
<path d="M330.111 314.793C328.692 313.973 327.551 312.756 326.855 311.318L321.006 299.455C320.522 298.468 319.734 297.634 318.756 297.074C317.778 296.514 316.66 296.256 315.564 296.339L302.372 297.297C300.781 297.413 299.16 297.037 297.741 296.225C296.322 295.412 295.177 294.204 294.472 292.773C293.766 291.342 293.536 289.763 293.813 288.261C294.091 286.758 294.863 285.411 296.018 284.411L305.594 276.12C306.392 275.433 306.925 274.504 307.117 273.469C307.308 272.434 307.149 271.345 306.661 270.36L300.812 258.497C300.106 257.066 299.876 255.486 300.154 253.984C300.432 252.482 301.204 251.134 302.359 250.135C303.514 249.135 304.993 248.534 306.584 248.418C308.175 248.303 309.796 248.678 311.215 249.491L322.983 256.23C323.96 256.792 325.077 257.051 326.173 256.972C327.27 256.892 328.289 256.477 329.083 255.787L338.66 247.496C339.815 246.496 341.294 245.895 342.885 245.78C344.476 245.664 346.098 246.039 347.517 246.852C348.937 247.665 350.081 248.874 350.786 250.304C351.492 251.735 351.722 253.315 351.444 254.817L349.14 267.273C348.946 268.307 349.104 269.396 349.59 270.382C350.077 271.368 350.866 272.2 351.845 272.759L363.613 279.498C365.032 280.311 366.176 281.519 366.882 282.95C367.587 284.38 367.817 285.96 367.54 287.462C367.262 288.964 366.49 290.312 365.335 291.312C364.18 292.312 362.701 292.913 361.11 293.028L347.919 293.987C346.822 294.065 345.802 294.478 345.006 295.167C344.209 295.856 343.678 296.786 343.489 297.822L341.185 310.277C340.924 311.787 340.158 313.144 339 314.147C337.841 315.149 336.353 315.744 334.756 315.842C333.163 315.969 331.537 315.602 330.111 314.793Z" fill="white" fill-opacity="0.25"/>
</svg>
