<svg width="105" height="101" viewBox="0 0 105 101" fill="none" xmlns="http://www.w3.org/2000/svg">
<path d="M63.0099 99.6302C60.7818 99.0243 58.7906 97.7772 57.3245 96.0691L45.0893 82.0164C44.0753 80.8462 42.7022 79.9941 41.1685 79.5831C39.6347 79.1721 38.0197 79.2236 36.5564 79.7301L18.934 85.7824C16.8087 86.5124 14.4654 86.5844 12.2399 85.9882C10.0144 85.3919 8.02101 84.1581 6.54531 82.4633C5.0696 80.7686 4.18741 78.7001 4.02511 76.5542C3.86281 74.4082 4.42876 72.295 5.64186 70.5174L15.7026 55.7801C16.5414 54.5566 16.9332 53.1003 16.8217 51.6213C16.7101 50.1422 16.101 48.7166 15.0819 47.5501L2.84664 33.4974C1.37119 31.8025 0.489262 29.7339 0.327301 27.5879C0.165339 25.442 0.731643 23.3289 1.94503 21.5515C3.15842 19.7741 4.95663 18.4236 7.08193 17.6937C9.20723 16.9637 11.5505 16.8917 13.776 17.4879L32.2286 22.4323C33.7614 22.8458 35.3766 22.7975 36.8411 22.2945C38.3057 21.7915 39.544 20.8598 40.3777 19.6335L50.4384 4.89601C51.6517 3.11827 53.4499 1.76758 55.5754 1.03742C57.7009 0.307263 60.0445 0.235169 62.2702 0.831544C64.4959 1.42792 66.4894 2.66214 67.965 4.35721C69.4406 6.05228 70.3226 8.12113 70.4844 10.2673L71.8278 28.0606C71.9368 29.5395 72.5436 30.9656 73.5606 32.1335C74.5775 33.3014 75.9522 34.1508 77.4866 34.5591L95.9392 39.5035C98.1646 40.0999 100.158 41.3339 101.634 43.0287C103.109 44.7235 103.991 46.7921 104.153 48.9381C104.315 51.0841 103.749 53.1972 102.536 54.9747C101.323 56.7522 99.5248 58.1026 97.3995 58.8327L79.7771 64.8851C78.3111 65.3856 77.0706 66.3156 76.2343 67.5407C75.3979 68.7658 75.0091 70.2229 75.1238 71.7019L76.468 89.4952C76.6557 91.646 76.1 93.7699 74.8833 95.5519C73.6667 97.334 71.8537 98.6794 69.7133 99.3887C67.5899 100.135 65.2422 100.219 63.0099 99.6302Z" fill="white" fill-opacity="0.25"/>
</svg>
