<svg width="489" height="328" viewBox="0 0 489 328" fill="none" xmlns="http://www.w3.org/2000/svg">
<g clip-path="url(#clip0)">
<path d="M401.375 196.375C401.699 196.278 402.029 196.207 402.364 196.163L415.717 168.984L411.64 162.862L420.059 155.492L430.643 168.465L409.088 199.89C409.618 201.078 409.774 202.4 409.536 203.68C409.298 204.96 408.677 206.137 407.755 207.054C406.833 207.972 405.654 208.586 404.375 208.816C403.096 209.046 401.777 208.88 400.594 208.341C399.411 207.802 398.42 206.915 397.753 205.798C397.086 204.681 396.774 203.386 396.858 202.087C396.943 200.788 397.421 199.546 398.228 198.526C399.035 197.505 400.132 196.755 401.375 196.375V196.375Z" fill="#A0616A"/>
<path d="M424.17 159.247C423.988 159.439 423.779 159.604 423.55 159.736L409.888 167.67C409.56 167.86 409.195 167.981 408.818 168.023C408.441 168.066 408.059 168.029 407.697 167.916C407.334 167.803 406.999 167.616 406.712 167.367C406.426 167.118 406.194 166.811 406.032 166.468L399.387 152.405C399.104 151.814 399.043 151.14 399.216 150.507C399.388 149.874 399.781 149.324 400.324 148.957L408.793 143.186C409.322 142.826 409.96 142.662 410.597 142.723C411.233 142.784 411.829 143.065 412.28 143.519L424.118 155.418C424.621 155.924 424.908 156.607 424.918 157.322C424.928 158.036 424.659 158.727 424.17 159.247H424.17Z" fill="#CCCCCC"/>
<path d="M443.353 314.983L436.139 316.949L425.136 290.015L435.783 287.113L443.353 314.983Z" fill="#A0616A"/>
<path d="M430.426 316.289L444.337 312.498L446.721 321.272L424.05 327.45C423.737 326.298 423.654 325.095 423.805 323.911C423.956 322.726 424.338 321.583 424.93 320.547C425.522 319.511 426.313 318.601 427.255 317.871C428.198 317.14 429.276 316.603 430.426 316.289V316.289Z" fill="#2F2E41"/>
<path d="M381.687 320.497L374.212 320.496L370.655 291.613L381.688 291.613L381.687 320.497Z" fill="#A0616A"/>
<path d="M368.872 318.357H383.289V327.45H359.794C359.794 326.256 360.029 325.073 360.485 323.97C360.942 322.867 361.61 321.865 362.453 321.02C363.296 320.176 364.297 319.506 365.398 319.049C366.499 318.592 367.68 318.357 368.872 318.357Z" fill="#2F2E41"/>
<path d="M389.563 133.598C397.834 133.598 404.54 126.882 404.54 118.596C404.54 110.311 397.834 103.594 389.563 103.594C381.292 103.594 374.587 110.311 374.587 118.596C374.587 126.882 381.292 133.598 389.563 133.598Z" fill="#A0616A"/>
<path d="M381.229 299.903H371.014C370.315 299.902 369.644 299.635 369.135 299.156C368.626 298.677 368.317 298.022 368.272 297.324C365.228 248.85 367.009 214.078 373.876 187.897C373.906 187.782 373.943 187.67 373.987 187.56L374.534 186.19C374.736 185.679 375.088 185.24 375.542 184.932C375.997 184.624 376.533 184.46 377.082 184.462H398.09C398.485 184.461 398.877 184.547 399.236 184.713C399.596 184.878 399.916 185.12 400.173 185.422L403.026 188.757C403.082 188.822 403.134 188.888 403.184 188.958C416.051 206.931 427.582 242.069 440.936 289.299C441.133 289.985 441.055 290.722 440.718 291.351C440.381 291.98 439.812 292.453 439.132 292.668L428.153 296.188C427.523 296.386 426.843 296.352 426.236 296.091C425.628 295.829 425.135 295.358 424.846 294.763L396.356 235.572C396.157 235.159 395.83 234.82 395.423 234.607C395.017 234.394 394.553 234.318 394.1 234.389C393.648 234.461 393.23 234.677 392.909 235.005C392.588 235.333 392.381 235.756 392.319 236.211L383.948 297.527C383.856 298.184 383.531 298.786 383.031 299.223C382.532 299.659 381.892 299.901 381.229 299.903V299.903Z" fill="#2F2E41"/>
<path d="M401.875 189C401.846 189 401.817 189 401.788 188.999L376.271 188.192C375.615 188.174 374.987 187.92 374.503 187.476C374.018 187.033 373.709 186.43 373.631 185.777C370.397 159.548 379.268 152.522 383.232 150.719C383.564 150.569 383.851 150.336 384.066 150.042C384.281 149.749 384.416 149.405 384.459 149.043L384.802 146.294C384.861 145.808 385.048 145.347 385.345 144.959C391.56 136.893 400.048 134.311 404.554 133.489C404.919 133.423 405.294 133.433 405.656 133.517C406.018 133.6 406.359 133.757 406.658 133.977C406.958 134.197 407.209 134.475 407.398 134.796C407.587 135.116 407.708 135.472 407.756 135.84L408.27 139.788C408.322 140.165 408.472 140.521 408.705 140.821C421.667 157.797 407.226 182.861 404.2 187.713C403.952 188.107 403.609 188.431 403.203 188.657C402.796 188.882 402.339 189 401.875 189Z" fill="#CCCCCC"/>
<path d="M419.779 120.285C416.438 115.573 412.432 111.371 407.885 107.812C404.106 104.855 399.899 102.329 395.258 101.12C390.616 99.9118 385.49 100.117 381.255 102.372C377.02 104.626 372.642 109.106 372.615 113.91C372.607 115.453 372.999 117.541 374.516 117.274L374.955 117.332C378.615 116.592 382.275 115.851 385.935 115.111C387.494 120.53 389.053 125.949 390.611 131.367C390.94 132.51 391.381 133.787 392.463 134.274C393.482 134.733 394.661 134.3 395.692 133.869C395.862 133.798 397.319 130.521 397.319 130.521C397.356 130.418 397.419 130.328 397.502 130.258C397.585 130.188 397.686 130.142 397.793 130.124C397.9 130.106 398.01 130.117 398.111 130.156C398.213 130.195 398.302 130.26 398.37 130.345L399.236 131.429C399.401 131.636 399.629 131.783 399.886 131.849C400.142 131.915 400.413 131.895 400.658 131.793C406.626 129.297 412.595 126.801 418.564 124.305C419.388 123.96 420.31 123.51 420.55 122.647C420.779 121.82 420.274 120.985 419.779 120.285Z" fill="#2F2E41"/>
<path d="M488.39 328H304.852C304.69 328 304.535 327.936 304.421 327.821C304.306 327.707 304.242 327.551 304.242 327.389C304.242 327.227 304.306 327.072 304.421 326.957C304.535 326.843 304.69 326.778 304.852 326.778H488.39C488.552 326.778 488.707 326.843 488.821 326.957C488.936 327.072 489 327.227 489 327.389C489 327.551 488.936 327.707 488.821 327.821C488.707 327.936 488.552 328 488.39 328Z" fill="#3F3D56"/>
<path d="M388.887 232.815C388.473 232.814 388.069 232.68 387.736 232.433L384.96 230.413C384.73 230.245 384.452 230.154 384.167 230.154C383.881 230.154 383.604 230.245 383.373 230.413L380.598 232.433C380.263 232.677 379.86 232.808 379.446 232.808C379.032 232.808 378.629 232.677 378.294 232.433C377.96 232.19 377.711 231.846 377.583 231.452C377.455 231.058 377.455 230.633 377.582 230.239L378.643 226.971C378.731 226.699 378.732 226.406 378.644 226.135C378.555 225.863 378.383 225.627 378.152 225.459L375.377 223.439C375.042 223.195 374.793 222.852 374.665 222.457C374.537 222.063 374.537 221.639 374.665 221.244C374.793 220.85 375.042 220.507 375.377 220.263C375.712 220.019 376.115 219.888 376.528 219.888H379.959C380.244 219.889 380.522 219.799 380.753 219.631C380.984 219.463 381.155 219.226 381.243 218.954L382.303 215.686C382.431 215.291 382.68 214.948 383.015 214.704C383.35 214.461 383.753 214.329 384.167 214.329C384.58 214.329 384.984 214.461 385.318 214.704C385.653 214.948 385.902 215.291 386.03 215.686L387.09 218.954C387.178 219.226 387.349 219.463 387.58 219.631C387.811 219.799 388.089 219.889 388.374 219.888H391.805C392.218 219.888 392.622 220.019 392.956 220.263C393.291 220.507 393.54 220.85 393.668 221.244C393.796 221.639 393.796 222.063 393.668 222.457C393.54 222.852 393.291 223.195 392.956 223.439L390.181 225.459C389.95 225.626 389.778 225.863 389.69 226.135C389.602 226.406 389.602 226.699 389.691 226.971L390.751 230.239C390.883 230.633 390.886 231.059 390.757 231.454C390.629 231.849 390.377 232.193 390.039 232.433C389.705 232.68 389.302 232.814 388.887 232.815Z" fill="#F9A826"/>
<path d="M399.495 226.281C400.279 225.73 400.932 225.014 401.41 224.182C401.888 223.351 402.178 222.425 402.26 221.469C402.342 220.513 402.213 219.551 401.883 218.651C401.554 217.75 401.031 216.933 400.352 216.256L405.092 158.919L390.98 160.864L390.711 216.572C389.652 217.79 389.076 219.355 389.092 220.97C389.108 222.585 389.715 224.138 390.798 225.334C391.88 226.531 393.364 227.289 394.967 227.463C396.569 227.637 398.181 227.217 399.495 226.281V226.281Z" fill="#A0616A"/>
<path d="M406.014 167.176C405.75 167.176 405.487 167.138 405.233 167.062L390.083 162.599C389.719 162.492 389.381 162.31 389.091 162.065C388.8 161.82 388.564 161.518 388.396 161.177C388.228 160.836 388.133 160.463 388.116 160.084C388.099 159.704 388.162 159.324 388.299 158.97L393.905 144.461C394.139 143.848 394.585 143.34 395.162 143.029C395.739 142.718 396.408 142.626 397.047 142.768L407.056 144.948C407.681 145.084 408.239 145.434 408.633 145.939C409.027 146.443 409.234 147.069 409.216 147.709L408.75 164.502C408.731 165.216 408.434 165.895 407.923 166.394C407.412 166.893 406.728 167.173 406.014 167.176H406.014Z" fill="#CCCCCC"/>
</g>
<defs>
<clipPath id="clip0">
<rect width="489" height="328" fill="white"/>
</clipPath>
</defs>
</svg>
