<svg width="162" height="24" viewBox="0 0 162 24" fill="none" xmlns="http://www.w3.org/2000/svg">
<path d="M17.669 23.4858C17.161 23.4838 16.6668 23.3199 16.258 23.0178L12.8577 20.5432C12.5755 20.3369 12.2352 20.2256 11.8859 20.2256C11.5366 20.2256 11.1963 20.3369 10.9141 20.5432L7.51385 23.0178C7.10377 23.3163 6.6099 23.477 6.10301 23.477C5.59613 23.4771 5.10224 23.3164 4.69214 23.0179C4.28204 22.7195 3.97678 22.2987 3.82009 21.8158C3.66341 21.3329 3.66333 20.8128 3.81991 20.3298L5.11876 16.3259C5.22734 15.9932 5.22769 15.6346 5.11976 15.3018C5.01183 14.969 4.80119 14.679 4.51821 14.4738L1.11792 11.9992C0.707821 11.7008 0.402559 11.2799 0.245909 10.797C0.0892591 10.3141 0.0892556 9.79391 0.245891 9.311C0.402526 8.82808 0.707775 8.40724 1.11786 8.10878C1.52795 7.81032 2.02184 7.6496 2.52874 7.6496H6.73183C7.08112 7.65024 7.42159 7.53975 7.70418 7.3341C7.98677 7.12844 8.19688 6.83823 8.30423 6.50528L9.60287 2.50126C9.75949 2.01828 10.0647 1.5974 10.4749 1.29889C10.885 1.00039 11.3789 0.8396 11.8859 0.8396C12.3928 0.8396 12.8868 1.00039 13.2969 1.29889C13.707 1.5974 14.0123 2.01828 14.1689 2.50126L15.4675 6.50528C15.5749 6.83823 15.785 7.12844 16.0676 7.3341C16.3502 7.53975 16.6907 7.65024 17.0399 7.6496H21.243C21.7499 7.64962 22.2438 7.81036 22.6539 8.10882C23.0639 8.40728 23.3692 8.82813 23.5258 9.31104C23.6824 9.79394 23.6824 10.3141 23.5258 10.797C23.3692 11.2799 23.0639 11.7008 22.6538 11.9992L19.2536 14.4738C18.9706 14.679 18.7599 14.969 18.652 15.3018C18.5441 15.6346 18.5444 15.9932 18.653 16.3259L19.9518 20.3298C20.1142 20.8123 20.1171 21.3343 19.96 21.8184C19.8029 22.3026 19.4942 22.7232 19.0798 23.0178C18.671 23.3199 18.1769 23.4838 17.669 23.4858V23.4858Z" fill="#F9A826"/>
<path d="M52.1253 23.4858C51.6173 23.4838 51.1231 23.3199 50.7143 23.0178L47.314 20.5432C47.0319 20.3369 46.6916 20.2256 46.3423 20.2256C45.9929 20.2256 45.6526 20.3369 45.3705 20.5432L41.9702 23.0178C41.5601 23.3163 41.0663 23.477 40.5594 23.477C40.0525 23.4771 39.5586 23.3164 39.1485 23.0179C38.7384 22.7195 38.4331 22.2987 38.2765 21.8158C38.1198 21.3329 38.1197 20.8128 38.2763 20.3298L39.5751 16.3259C39.6837 15.9932 39.6841 15.6346 39.5761 15.3018C39.4682 14.969 39.2576 14.679 38.9746 14.4738L35.5743 11.9992C35.1642 11.7007 34.859 11.2799 34.7024 10.797C34.5458 10.3141 34.5458 9.7939 34.7025 9.311C34.8591 8.8281 35.1644 8.40727 35.5744 8.10882C35.9845 7.81037 36.4784 7.64961 36.9853 7.6496H41.1882C41.5375 7.65024 41.878 7.53975 42.1605 7.3341C42.4431 7.12844 42.6532 6.83823 42.7606 6.50528L44.0594 2.50126C44.216 2.01829 44.5212 1.5974 44.9313 1.29889C45.3415 1.00039 45.8354 0.8396 46.3423 0.8396C46.8493 0.8396 47.3432 1.00039 47.7533 1.29889C48.1634 1.5974 48.4686 2.01829 48.6252 2.50126L49.9239 6.50528C50.0313 6.83825 50.2414 7.12844 50.524 7.3341C50.8067 7.53975 51.1472 7.65024 51.4965 7.6496H55.6994C56.2063 7.64961 56.7001 7.81037 57.1102 8.10882C57.5203 8.40727 57.8255 8.8281 57.9822 9.311C58.1388 9.7939 58.1389 10.3141 57.9823 10.797C57.8256 11.2799 57.5204 11.7007 57.1104 11.9992L53.7101 14.4738C53.427 14.679 53.2163 14.9689 53.1084 15.3018C53.0004 15.6346 53.0008 15.9932 53.1094 16.3259L54.4082 20.3298C54.5705 20.8123 54.5734 21.3343 54.4163 21.8184C54.2592 22.3026 53.9506 22.7232 53.5361 23.0178C53.1274 23.3199 52.6332 23.4838 52.1253 23.4858V23.4858Z" fill="#F9A826"/>
<path d="M86.5821 23.4858C86.0741 23.4838 85.58 23.3199 85.1713 23.0178L81.771 20.5432C81.4886 20.3374 81.1484 20.2265 80.7991 20.2265C80.4499 20.2265 80.1096 20.3374 79.8273 20.5432L76.427 23.0178C76.0169 23.3163 75.5231 23.477 75.0162 23.477C74.5093 23.4771 74.0154 23.3164 73.6053 23.0179C73.1952 22.7195 72.89 22.2987 72.7333 21.8158C72.5767 21.3329 72.5766 20.8127 72.7333 20.3298L74.0319 16.3259C74.1405 15.9932 74.1408 15.6346 74.0329 15.3018C73.925 14.969 73.7144 14.679 73.4314 14.4738L70.0311 11.9992C69.621 11.7007 69.3158 11.2799 69.1592 10.797C69.0026 10.3141 69.0026 9.7939 69.1592 9.311C69.3159 8.8281 69.6211 8.40727 70.0312 8.10882C70.4413 7.81037 70.9352 7.64961 71.4421 7.6496H75.645C75.9943 7.65024 76.3347 7.53975 76.6173 7.3341C76.8999 7.12844 77.11 6.83823 77.2174 6.50528L78.5162 2.50126C78.6728 2.01829 78.978 1.5974 79.3881 1.29889C79.7982 1.00039 80.2922 0.8396 80.7991 0.8396C81.3061 0.8396 81.8 1.00039 82.2101 1.29889C82.6202 1.5974 82.9254 2.01829 83.082 2.50126L84.3809 6.50528C84.4882 6.83823 84.6983 7.12844 84.9809 7.3341C85.2635 7.53975 85.604 7.65024 85.9533 7.6496H90.1562C90.6631 7.64961 91.1569 7.81037 91.567 8.10882C91.9771 8.40727 92.2823 8.8281 92.439 9.311C92.5956 9.7939 92.5956 10.3141 92.439 10.797C92.2824 11.2799 91.9772 11.7007 91.5671 11.9992L88.1669 14.4738C87.8839 14.679 87.6732 14.969 87.5653 15.3018C87.4574 15.6346 87.4577 15.9932 87.5663 16.3259L88.865 20.3298C89.0273 20.8122 89.0302 21.3342 88.8731 21.8184C88.7161 22.3025 88.4075 22.7231 87.9931 23.0178C87.5842 23.3199 87.0901 23.4838 86.5821 23.4858V23.4858Z" fill="#F9A826"/>
<path d="M121.039 23.4857C120.531 23.4837 120.037 23.3198 119.628 23.0177L116.228 20.5431C115.945 20.3368 115.605 20.2256 115.256 20.2256C114.906 20.2256 114.566 20.3368 114.284 20.5431L110.884 23.0177C110.474 23.3162 109.98 23.477 109.473 23.477C108.966 23.477 108.472 23.3163 108.062 23.0179C107.652 22.7195 107.347 22.2986 107.19 21.8157C107.033 21.3329 107.033 20.8127 107.19 20.3298L108.489 16.3258C108.597 15.9932 108.598 15.6346 108.49 15.3018C108.382 14.969 108.171 14.6792 107.888 14.4741L104.488 11.9992C104.078 11.7007 103.772 11.2798 103.616 10.7969C103.459 10.314 103.459 9.79384 103.616 9.31094C103.772 8.82804 104.078 8.40721 104.488 8.10876C104.898 7.81031 105.392 7.64956 105.899 7.64955H110.102C110.451 7.65019 110.791 7.53973 111.074 7.33408C111.357 7.12843 111.567 6.8382 111.674 6.50523L112.973 2.50125C113.129 2.01828 113.435 1.59736 113.845 1.29886C114.255 1.00035 114.749 0.8396 115.256 0.8396C115.763 0.8396 116.257 1.00035 116.667 1.29886C117.077 1.59736 117.382 2.01828 117.539 2.50125L118.837 6.50523C118.945 6.83818 119.155 7.12843 119.437 7.33408C119.72 7.53973 120.061 7.65018 120.41 7.64955H124.613C125.12 7.64956 125.613 7.81031 126.024 8.10876C126.434 8.40721 126.739 8.82804 126.896 9.31094C127.052 9.79384 127.052 10.314 126.896 10.7969C126.739 11.2798 126.434 11.7007 126.024 11.9992L122.623 14.4738C122.34 14.679 122.13 14.9689 122.022 15.3018C121.914 15.6346 121.914 15.9932 122.023 16.3258L123.322 20.3298C123.484 20.8122 123.487 21.3342 123.33 21.8184C123.173 22.3025 122.864 22.7231 122.45 23.0177C122.041 23.3198 121.547 23.4837 121.039 23.4857V23.4857Z" fill="#F9A826"/>
<path d="M155.081 23.6661C154.573 23.664 154.079 23.5001 153.67 23.198L150.27 20.7234C149.988 20.5171 149.648 20.4058 149.298 20.4058C148.949 20.4058 148.609 20.5171 148.326 20.7234L144.926 23.198C144.516 23.4965 144.022 23.6572 143.515 23.6573C143.008 23.6573 142.515 23.4966 142.104 23.1982C141.694 22.8997 141.389 22.4789 141.232 21.9961C141.076 21.5132 141.076 20.993 141.232 20.5101L142.531 16.5061C142.64 16.1734 142.64 15.8149 142.532 15.482C142.424 15.1492 142.214 14.8593 141.931 14.654L138.53 12.1795C138.12 11.881 137.815 11.4602 137.658 10.9773C137.502 10.4943 137.502 9.97416 137.658 9.49125C137.815 9.00833 138.12 8.58747 138.53 8.28901C138.94 7.99055 139.434 7.82981 139.941 7.82981H144.144C144.493 7.83045 144.834 7.71998 145.117 7.51433C145.399 7.30867 145.609 7.01847 145.717 6.68551L147.015 2.68149C147.172 2.19852 147.477 1.77763 147.887 1.47913C148.297 1.18063 148.791 1.01984 149.298 1.01984C149.805 1.01984 150.299 1.18063 150.709 1.47913C151.119 1.77763 151.425 2.19852 151.581 2.68149L152.88 6.68551C152.987 7.01847 153.197 7.30868 153.48 7.51433C153.763 7.71998 154.103 7.83045 154.452 7.82981H158.655C159.162 7.82983 159.656 7.99059 160.066 8.28905C160.476 8.58751 160.782 9.00836 160.938 9.49127C161.095 9.97417 161.095 10.4944 160.938 10.9773C160.782 11.4602 160.476 11.881 160.066 12.1795L156.666 14.654C156.383 14.8593 156.172 15.1492 156.064 15.482C155.956 15.8149 155.957 16.1734 156.065 16.5061L157.364 20.5101C157.527 20.9925 157.529 21.5145 157.372 21.9986C157.215 22.4828 156.907 22.9034 156.492 23.198C156.083 23.5001 155.589 23.664 155.081 23.6661Z" fill="#F9A826"/>
</svg>
