<svg width="75" height="71" viewBox="0 0 75 71" fill="none" xmlns="http://www.w3.org/2000/svg">
<path d="M37.1113 69.7928C35.692 68.973 34.5515 67.756 33.855 66.3179L28.0058 54.455C27.5221 53.468 26.7343 52.6342 25.7562 52.0741C24.778 51.5139 23.6603 51.2564 22.5642 51.3387L9.37237 52.2973C7.78141 52.4129 6.16015 52.0375 4.74088 51.2247C3.32161 50.412 2.17722 49.2038 1.4717 47.7731C0.766188 46.3425 0.535782 44.7629 0.813485 43.2606C1.09119 41.7584 1.86276 40.4107 3.01762 39.4107L12.5945 31.1205C13.392 30.4329 13.925 29.5045 14.1166 28.4692C14.3082 27.4338 14.1486 26.345 13.6607 25.3596L7.81151 13.4967C7.10621 12.0659 6.87599 10.4864 7.15393 8.9842C7.43187 7.48204 8.20367 6.13447 9.35869 5.13463C10.5137 4.1348 11.9927 3.53403 13.5837 3.41839C15.1746 3.30275 16.7959 3.67818 18.2152 4.49091L29.9829 11.23C30.9599 11.7917 32.0772 12.0514 33.1735 11.9718C34.2698 11.8921 35.2886 11.4772 36.0831 10.7867L45.6601 2.4964C46.815 1.49629 48.2941 0.895346 49.8852 0.77961C51.4763 0.663874 53.0978 1.03933 54.5172 1.85218C55.9366 2.66503 57.081 3.87353 57.7864 5.30443C58.4918 6.73533 58.722 8.31511 58.4439 9.8174L56.1397 22.2726C55.9464 23.3074 56.1042 24.3962 56.5904 25.3821C57.0766 26.368 57.8661 27.2003 58.8451 27.7587L70.6128 34.4978C72.032 35.3106 73.1763 36.5189 73.8817 37.9496C74.5871 39.3803 74.8174 40.96 74.5396 42.4622C74.2618 43.9644 73.4901 45.312 72.3352 46.3119C71.1802 47.3118 69.7013 47.9127 68.1104 48.0284L54.9186 48.987C53.8217 49.0647 52.8017 49.478 52.0056 50.1672C51.2095 50.8563 50.6784 51.7859 50.489 52.8217L48.1853 65.2772C47.9242 66.7873 47.1577 68.1442 45.9996 69.1466C44.8414 70.1491 43.3533 70.7437 41.7557 70.8424C40.1631 70.9695 38.5365 70.6018 37.1113 69.7928Z" fill="white" fill-opacity="0.25"/>
</svg>
