<svg width="305" height="216" viewBox="0 0 305 216" fill="none" xmlns="http://www.w3.org/2000/svg">
<g clip-path="url(#clip0)">
<path opacity="0.1" d="M101.4 215.879C116.253 215.879 128.294 213.945 128.294 211.56C128.294 209.175 116.253 207.241 101.4 207.241C86.5466 207.241 74.5056 209.175 74.5056 211.56C74.5056 213.945 86.5466 215.879 101.4 215.879Z" fill="#36ADEF"/>
<path opacity="0.1" d="M247.593 216C266.128 216 281.153 214.066 281.153 211.681C281.153 209.296 266.128 207.363 247.593 207.363C229.059 207.363 214.033 209.296 214.033 211.681C214.033 214.066 229.059 216 247.593 216Z" fill="#36ADEF"/>
<path opacity="0.1" d="M3.81995 93.3275H31.832V131.5H5.87069C5.80168 131.892 5.73544 132.287 5.66368 132.681H31.832V163.467C31.7851 163.453 31.7437 163.436 31.6995 163.42C30.9598 163.127 30.2256 162.818 29.4915 162.487L29.0222 162.275C28.2862 161.927 27.5502 161.559 26.8142 161.171C26.5575 161.036 26.3008 160.895 26.0469 160.751C21.9608 158.463 18.2488 155.563 15.0397 152.153C14.9458 152.062 14.8575 151.965 14.7637 151.877C14.3165 151.391 13.8777 150.9 13.4526 150.398L12.9834 149.846C12.4811 149.23 11.9953 148.598 11.5233 147.958C11.4543 147.864 11.3881 147.77 11.3163 147.682C9.39682 145.021 7.80302 142.14 6.56899 139.1C6.53035 139.009 6.49723 138.91 6.46134 138.824C6.08229 137.849 5.74648 136.865 5.45391 135.871C5.32695 135.455 5.20551 135.043 5.10062 134.61C5.06198 134.483 5.02886 134.359 4.9985 134.235C3.43077 128.117 3.24585 121.762 3.24585 115.451C3.24585 114.714 3.24585 113.974 3.24585 113.243C3.24585 110.691 3.27621 108.121 3.32037 105.555C3.32037 104.89 3.34797 104.228 3.36177 103.56C3.40041 101.866 3.45562 100.171 3.52738 98.4768C3.54394 98.005 3.56602 97.5358 3.59086 97.0667C3.59086 96.7963 3.60466 96.5259 3.63226 96.2554C3.6985 95.273 3.7537 94.2989 3.81995 93.3275Z" fill="#36ADEF"/>
<path opacity="0.1" d="M31.832 50.8252H16.4667C18.9644 46.9165 21.6935 43.1605 24.6393 39.5773C26.9219 36.7736 29.3314 34.0417 31.832 31.4091V50.8252Z" fill="#36ADEF"/>
<path opacity="0.1" d="M31.8321 52.0062V92.1465H3.90833C3.90833 92.0305 3.92765 91.9119 3.93593 91.796C3.96077 91.4786 3.98561 91.1613 4.01321 90.8467C4.04357 90.4769 4.07669 90.1044 4.11257 89.7429C4.14845 89.3814 4.18709 88.9399 4.22849 88.5397C4.2699 88.1396 4.30854 87.7339 4.35546 87.3338C4.40238 86.9337 4.44378 86.5336 4.49346 86.1362C4.54314 85.7388 4.58731 85.3359 4.63975 84.9385C4.68115 84.6074 4.72531 84.279 4.76947 83.9479C4.83295 83.4815 4.89919 83.0124 4.97096 82.5488C4.97096 82.4798 4.99028 82.408 5.00132 82.3418C5.50508 78.948 6.1915 75.5839 7.05758 72.264C7.96415 68.7814 9.12181 65.3691 10.5215 62.0537C12.0091 58.5854 13.7508 55.2318 15.7325 52.02L31.8321 52.0062Z" fill="#36ADEF"/>
<path opacity="0.1" d="M38.5197 93.3248V131.5H98.3499V93.3248H38.5197ZM38.5197 132.679V165.462C38.8619 165.534 39.2014 165.603 39.5381 165.661C39.9963 165.749 40.4517 165.829 40.9182 165.898C41.0065 165.912 41.0976 165.925 41.1942 165.934C41.3763 165.964 41.564 165.989 41.7462 166.014C42.2071 166.077 42.6653 166.13 43.1262 166.171C43.3443 166.193 43.5651 166.212 43.7859 166.229L44.3186 166.27C44.6084 166.292 44.8954 166.309 45.1797 166.317C45.3564 166.317 45.533 166.334 45.7152 166.339C45.8532 166.339 45.9912 166.339 46.1347 166.339C46.2782 166.339 46.4825 166.339 46.6564 166.339C46.8937 166.339 47.1311 166.339 47.3657 166.339H47.6831C47.9205 166.339 48.1579 166.339 48.3925 166.317H48.409C48.5719 166.317 48.7375 166.317 48.9031 166.295C48.949 166.298 48.9951 166.298 49.0411 166.295C49.1791 166.295 49.3171 166.295 49.4496 166.276H49.5462L50.4708 166.204C50.7744 166.177 51.0808 166.141 51.3899 166.108L52.0192 166.033C54.5794 165.674 57.1111 165.136 59.5956 164.421C65.1765 162.865 70.636 160.688 76.2141 159.093C83.4262 157.037 91.3945 156.027 98.3637 158.541V132.679H38.5197ZM98.3499 50.8251V0.00274288C91.7995 -0.0682113 85.2669 0.697782 78.9107 2.28212C63.7606 6.08752 50.1672 14.3413 38.5197 24.8827V50.8224H41.5226V52.0007H38.5197V92.1464H98.3499V52.0035H53.8519V50.8251H98.3499ZM175.199 33.6581C171.451 33.5256 167.725 32.339 164.355 30.5067C157.91 27.0021 152.762 21.5906 147.01 17.0236C135.059 7.51144 120.237 1.77161 105.032 0.347685V50.8251H190.443L190.655 50.6016L175.199 33.6581ZM182.98 32.2783L191.229 41.3296V29.9051C188.467 30.2473 186.046 31.0613 182.991 32.2673L182.98 32.2783ZM191.229 173.602V132.679H173.65C173.604 132.505 173.557 132.328 173.501 132.151C173.554 132.328 173.598 132.505 173.648 132.679H105.043V162.275C105.695 162.757 106.338 163.265 106.975 163.781C107.662 164.333 108.341 164.915 109.023 165.487L109.71 166.055C110.039 166.331 110.37 166.607 110.704 166.866C111.366 167.404 112.035 167.933 112.711 168.456C113.045 168.732 113.387 168.98 113.726 169.24C119.116 173.36 124.801 177.077 130.737 180.363C132.067 181.099 133.409 181.818 134.764 182.519C135.666 182.979 136.574 183.437 137.485 183.882C138.854 184.55 140.234 185.193 141.625 185.813C154.45 191.569 168.012 195.519 181.922 197.55C185.012 198.006 188.113 198.365 191.227 198.626V173.6H191.503L191.229 173.602ZM105.043 52.0035V92.1464H191.24V52.0035H105.043ZM105.043 93.3248V131.5H191.24V93.3248H105.043ZM197.931 29.8554V42.599L208.461 31.0475C204.972 30.4846 201.462 30.0826 197.931 29.8416V29.8554ZM197.931 93.3386V131.5H281.768V93.3248L197.931 93.3386ZM281.462 176.632L281.757 132.679H197.931V199.065C203.331 199.292 208.739 199.227 214.133 198.872H214.226C216.802 198.71 219.367 198.474 221.919 198.165H221.977C235.592 196.581 248.906 193.029 261.501 187.621L281.462 176.632ZM297.934 99.611C297.62 98.8687 297.291 98.1319 296.957 97.4034C296.333 96.0236 295.674 94.6825 294.995 93.3413H288.453V131.5H304.992C304.983 120.694 302.248 109.656 297.942 99.5972L297.934 99.611ZM288.453 132.692V170.498C293.112 166.033 297.048 160.925 299.883 155.086C303.291 148.055 304.851 140.441 304.978 132.687L288.453 132.692ZM288.453 82.2149V92.1492H294.382C292.588 88.7294 290.612 85.4085 288.462 82.2011L288.453 82.2149ZM231.596 37.3448C231.16 37.1792 230.723 37.0109 230.285 36.8481C225.656 35.1392 220.926 33.7181 216.123 32.5929L200.009 50.2732L199.7 50.6016L199.907 50.8279H257.256C249.269 45.331 240.658 40.8004 231.604 37.331L231.596 37.3448ZM258.937 52.0173H199.107L197.931 53.0935V92.1464H208.237H208.254H281.779V73.2298C275.128 65.1874 267.451 58.0511 258.945 52.0035L258.937 52.0173Z" fill="#36ADEF"/>
<path opacity="0.1" d="M31.8321 72.253V92.1465H3.90833C3.90833 92.0306 3.92765 91.9119 3.93593 91.796C3.96077 91.4787 3.98561 91.1613 4.01321 90.8467C4.04357 90.4769 4.07669 90.1044 4.11257 89.7429C4.14845 89.3814 4.18709 88.9399 4.22849 88.5398C4.2699 88.1396 4.30854 87.734 4.35546 87.3338C4.40238 86.9337 4.44378 86.5336 4.49346 86.1362C4.54314 85.7388 4.58731 85.3359 4.63975 84.9386C4.68115 84.6074 4.72531 84.279 4.76947 83.9479C4.83295 83.4815 4.89919 83.0124 4.97096 82.5488C4.97096 82.4798 4.99028 82.4081 5.00132 82.3418C5.50508 78.948 6.1915 75.5839 7.05758 72.264L31.8321 72.253Z" fill="#36ADEF"/>
<path opacity="0.1" d="M3.81995 93.3275H31.832V131.5H5.87069C5.80168 131.892 5.73544 132.287 5.66368 132.681H31.832V163.467C31.7851 163.453 31.7437 163.436 31.6995 163.42C30.9598 163.127 30.2256 162.818 29.4915 162.487L29.0222 162.275C28.2862 161.927 27.5502 161.559 26.8142 161.171C26.5575 161.036 26.3008 160.895 26.0469 160.751C21.9608 158.463 18.2488 155.563 15.0397 152.153C14.9458 152.062 14.8575 151.965 14.7637 151.877C14.3165 151.391 13.8777 150.9 13.4526 150.398L12.9834 149.846C12.4811 149.23 11.9953 148.598 11.5233 147.958C11.4543 147.864 11.3881 147.77 11.3163 147.682C9.39682 145.021 7.80302 142.14 6.56899 139.1C6.53035 139.009 6.49723 138.91 6.46134 138.824C6.08229 137.849 5.74648 136.865 5.45391 135.871C5.32695 135.455 5.20551 135.043 5.10062 134.61C5.06198 134.483 5.02886 134.359 4.9985 134.235C3.43077 128.117 3.24585 121.762 3.24585 115.451C3.24585 114.714 3.24585 113.974 3.24585 113.243C3.24585 110.691 3.27621 108.121 3.32037 105.555C3.32037 104.89 3.34797 104.228 3.36177 103.56C3.40041 101.866 3.45562 100.171 3.52738 98.4768C3.54394 98.005 3.56602 97.5358 3.59086 97.0667C3.59086 96.7963 3.60466 96.5259 3.63226 96.2554C3.6985 95.273 3.7537 94.2989 3.81995 93.3275Z" fill="#36ADEF"/>
<path opacity="0.1" d="M59.5818 57.7516V92.1465H38.5197V57.7516H41.5226V46.1064H53.8491V57.7516H59.5818Z" fill="#36ADEF"/>
<path opacity="0.1" d="M59.5819 93.3248H38.5225V131.497H59.5819V93.3248Z" fill="#36ADEF"/>
<path opacity="0.1" d="M38.5197 132.681H59.5818V164.416C57.0973 165.13 54.5656 165.667 52.0054 166.025L51.3761 166.102C51.067 166.138 50.7606 166.168 50.457 166.199C50.1534 166.229 49.8387 166.251 49.5324 166.27H49.4358C49.3033 166.27 49.1598 166.287 49.03 166.29H48.8893C48.7237 166.29 48.5581 166.306 48.3925 166.312C48.1579 166.326 47.9233 166.328 47.6831 166.331C47.581 166.331 47.4844 166.331 47.3823 166.331C47.1449 166.331 46.9103 166.331 46.6729 166.331H46.1513C46.0105 166.331 45.8753 166.331 45.729 166.331L45.1963 166.312C44.9203 166.312 44.6222 166.281 44.3351 166.262L43.8052 166.223L43.1455 166.163C42.6819 166.121 42.2209 166.069 41.7655 166.005L41.2135 165.928L40.9375 165.89C40.4765 165.818 40.0211 165.741 39.5574 165.652C39.218 165.594 38.8812 165.523 38.539 165.454L38.5197 132.681Z" fill="#36ADEF"/>
<path opacity="0.1" d="M191.24 53.6895H173.874V92.1437H191.24V53.6895Z" fill="#36ADEF"/>
<path opacity="0.1" d="M191.243 93.3248V131.5H105.043V115.034H150.957V124.748H173.874V93.3248H191.243Z" fill="#36ADEF"/>
<path opacity="0.1" d="M191.516 173.611H191.24V198.654C188.131 198.39 185.03 198.033 181.939 197.58C168.022 195.543 154.454 191.585 141.625 185.819C137.921 184.152 134.293 182.333 130.739 180.361C124.804 177.073 119.118 173.355 113.726 169.237C112.372 168.199 111.035 167.138 109.716 166.052C108.802 165.299 107.894 164.526 106.975 163.776C106.338 163.26 105.694 162.752 105.043 162.266V132.681H173.645C173.598 132.505 173.551 132.328 173.501 132.154C173.554 132.328 173.604 132.505 173.65 132.681H191.24V173.594C191.334 173.597 191.425 173.605 191.516 173.611Z" fill="#36ADEF"/>
<path opacity="0.1" d="M236.533 50.8252H225.217V47.3095H230.29V36.8371C230.73 36.9971 231.168 37.1618 231.604 37.331V47.3095H236.533V50.8252Z" fill="#36ADEF"/>
<path opacity="0.1" d="M263.798 92.1465H208.243C208.243 92.1465 208.243 92.1465 208.262 92.1603L208.237 92.1465H197.931V53.6923H200.851V82.1155H214.196V65.2824H225.22V52.0062H236.536V65.2934H247.56V82.1266H263.798V92.1465Z" fill="#36ADEF"/>
<path opacity="0.1" d="M197.931 93.3248V131.5H263.798V93.3248H197.931ZM281.677 176.437L281.768 146.22H263.798V132.698H197.931V199.065C203.331 199.292 208.739 199.227 214.133 198.872H214.226C216.803 198.71 219.367 198.474 221.919 198.165H221.977C235.592 196.581 248.906 193.029 261.501 187.621" fill="#36ADEF"/>
<path opacity="0.1" d="M289.624 132.681H304.989C304.854 140.433 303.297 148.046 299.891 155.078C297.056 160.92 293.118 166.028 288.464 170.49V146.206H289.624V132.681Z" fill="#36ADEF"/>
<path opacity="0.1" d="M304.997 131.5H289.624V99.5972H297.942C302.248 109.656 304.983 120.694 304.997 131.5Z" fill="#36ADEF"/>
<path opacity="0.1" d="M191.243 64.38H181.939V76.4364H191.243V64.38Z" fill="#36ADEF"/>
<path opacity="0.1" d="M191.243 89.3704H181.939V92.1465H191.243V89.3704Z" fill="#36ADEF"/>
<path opacity="0.1" d="M191.243 93.3248H181.939V101.424H191.243V93.3248Z" fill="#36ADEF"/>
<path opacity="0.1" d="M191.243 114.361H181.939V126.417H191.243V114.361Z" fill="#36ADEF"/>
<path opacity="0.1" d="M191.243 139.351H181.939V151.408H191.243V139.351Z" fill="#36ADEF"/>
<path opacity="0.1" d="M191.241 173.594C191.334 173.594 191.425 173.594 191.517 173.611H191.241V176.412H181.939V164.341H191.241V173.594Z" fill="#36ADEF"/>
<path opacity="0.1" d="M191.241 189.326V198.64C188.131 198.377 185.03 198.019 181.939 197.566V189.326H191.241Z" fill="#36ADEF"/>
<path opacity="0.1" d="M144.918 130.614H105.043V131.5H144.918V130.614Z" fill="#36ADEF"/>
<path opacity="0.1" d="M144.918 132.679H105.043V136.073H144.918V132.679Z" fill="#36ADEF"/>
<path opacity="0.1" d="M144.918 147.199H105.043V152.658H144.918V147.199Z" fill="#36ADEF"/>
<path opacity="0.1" d="M144.915 163.784V169.242H113.726C112.372 168.208 111.034 167.147 109.713 166.058C108.8 165.305 107.894 164.532 106.972 163.784H144.915Z" fill="#36ADEF"/>
<path opacity="0.1" d="M144.915 180.366V185.819H141.622C137.922 184.15 134.294 182.33 130.74 180.358L144.915 180.366Z" fill="#36ADEF"/>
<path opacity="0.1" d="M221.985 97.0253H214.135V104.873H221.985V97.0253Z" fill="#36ADEF"/>
<path opacity="0.1" d="M52.0247 60.4587H44.175V68.3068H52.0247V60.4587Z" fill="#36ADEF"/>
<path opacity="0.1" d="M52.0247 78.6882H44.175V86.5363H52.0247V78.6882Z" fill="#36ADEF"/>
<path opacity="0.1" d="M52.0247 96.9177H44.175V104.766H52.0247V96.9177Z" fill="#36ADEF"/>
<path opacity="0.1" d="M52.0247 115.144H44.175V122.993H52.0247V115.144Z" fill="#36ADEF"/>
<path opacity="0.1" d="M52.0247 133.374H44.175V141.222H52.0247V133.374Z" fill="#36ADEF"/>
<path opacity="0.1" d="M52.0247 151.603H44.175V159.452H52.0247V151.603Z" fill="#36ADEF"/>
<path opacity="0.1" d="M251.951 97.0253H244.102V104.873H251.951V97.0253Z" fill="#36ADEF"/>
<path opacity="0.1" d="M221.985 116.383H214.135V124.232H221.985V116.383Z" fill="#36ADEF"/>
<path opacity="0.1" d="M251.951 116.383H244.102V124.232H251.951V116.383Z" fill="#36ADEF"/>
<path opacity="0.1" d="M221.985 135.739H214.135V143.587H221.985V135.739Z" fill="#36ADEF"/>
<path opacity="0.1" d="M251.951 135.739H244.102V143.587H251.951V135.739Z" fill="#36ADEF"/>
<path opacity="0.1" d="M221.985 155.097H214.135V162.945H221.985V155.097Z" fill="#36ADEF"/>
<path opacity="0.1" d="M251.951 155.097H244.102V162.945H251.951V155.097Z" fill="#36ADEF"/>
<path opacity="0.1" d="M221.985 174.455H214.135V182.303H221.985V174.455Z" fill="#36ADEF"/>
<path opacity="0.1" d="M251.951 174.455H244.102V182.303H251.951V174.455Z" fill="#36ADEF"/>
<path opacity="0.1" d="M214.135 198.872V193.811H221.982V198.151L214.135 198.872Z" fill="#36ADEF"/>
<path opacity="0.1" d="M4.96814 82.3363V86.826H31.832V82.3363H4.96814ZM7.64542 86.5446H5.45391V82.6123H7.66198L7.64542 86.5446ZM10.3199 86.5446H8.11187V82.6123H10.3199V86.5446ZM12.9889 86.5446H10.7809V82.6123H12.9889V86.5446ZM15.6635 86.5446H13.4581V82.6123H15.6662L15.6635 86.5446ZM18.3352 86.5446H16.1271V82.6123H18.3352V86.5446ZM21.0097 86.5446H18.8017V82.6123H21.0097V86.5446ZM23.6842 86.5446H21.4762V82.6123H23.6842V86.5446ZM26.356 86.5446H24.1479V82.6123H26.356V86.5446ZM29.0278 86.5446H26.8197V82.6123H29.0278V86.5446ZM31.6995 86.5446H29.4915V82.6123H31.6995V86.5446Z" fill="#36ADEF"/>
<path opacity="0.1" d="M4.96814 95.4V99.8897H31.832V95.4H4.96814ZM7.64542 99.6055H5.45391V95.6842H7.66198L7.64542 99.6055ZM10.3199 99.6055H8.11187V95.6842H10.3199V99.6055ZM12.9889 99.6055H10.7809V95.6842H12.9889V99.6055ZM15.6635 99.6055H13.4581V95.6842H15.6662L15.6635 99.6055ZM18.3352 99.6055H16.1271V95.6842H18.3352V99.6055ZM21.0097 99.6055H18.8017V95.6842H21.0097V99.6055ZM23.6842 99.6055H21.4762V95.6842H23.6842V99.6055ZM26.356 99.6055H24.1479V95.6842H26.356V99.6055ZM29.0278 99.6055H26.8197V95.6842H29.0278V99.6055ZM31.6995 99.6055H29.4915V95.6842H31.6995V99.6055Z" fill="#36ADEF"/>
<path opacity="0.1" d="M4.96814 108.469V112.967H31.832V108.469H4.96814ZM7.64542 112.675H5.45391V108.751H7.66198L7.64542 112.675ZM10.3199 112.675H8.11187V108.751H10.3199V112.675ZM12.9889 112.675H10.7809V108.751H12.9889V112.675ZM15.6635 112.675H13.4581V108.751H15.6662L15.6635 112.675ZM18.3352 112.675H16.1271V108.751H18.3352V112.675ZM21.0097 112.675H18.8017V108.751H21.0097V112.675ZM23.6842 112.675H21.4762V108.751H23.6842V112.675ZM26.356 112.675H24.1479V108.751H26.356V112.675ZM29.0278 112.675H26.8197V108.751H29.0278V112.675ZM31.6995 112.675H29.4915V108.751H31.6995V112.675Z" fill="#36ADEF"/>
<path opacity="0.1" d="M4.96814 121.538V126.023H31.832V121.538H4.96814ZM7.64542 125.744H5.45391V121.817H7.66198L7.64542 125.744ZM10.3199 125.744H8.11187V121.817H10.3199V125.744ZM12.9889 125.744H10.7809V121.817H12.9889V125.744ZM15.6635 125.744H13.4581V121.817H15.6662L15.6635 125.744ZM18.3352 125.744H16.1271V121.817H18.3352V125.744ZM21.0097 125.744H18.8017V121.817H21.0097V125.744ZM23.6842 125.744H21.4762V121.817H23.6842V125.744ZM26.356 125.744H24.1479V121.817H26.356V125.744ZM29.0278 125.744H26.8197V121.817H29.0278V125.744ZM31.6995 125.744H29.4915V121.817H31.6995V125.744Z" fill="#36ADEF"/>
<path opacity="0.1" d="M5.08411 134.605C5.19175 135.027 5.31319 135.449 5.44015 135.866V134.886H7.64822V138.81H6.46691C6.50279 138.901 6.53867 139.001 6.57455 139.086H31.8321V134.605H5.08411ZM10.3283 138.81H8.1202V134.886H10.3283V138.81ZM12.9973 138.81H10.7892V134.886H12.9973V138.81ZM15.6718 138.81H13.4582V134.886H15.6663L15.6718 138.81ZM18.3435 138.81H16.1355V134.886H18.3435V138.81ZM21.0181 138.81H18.81V134.886H21.0181V138.81ZM23.6926 138.81H21.4845V134.886H23.6926V138.81ZM26.3643 138.81H24.1563V134.886H26.3643V138.81ZM29.0361 138.81H26.828V134.886H29.0361V138.81ZM31.7078 138.81H29.4998V134.886H31.7078V138.81Z" fill="#36ADEF"/>
<path opacity="0.1" d="M11.3218 147.674C11.3908 147.762 11.457 147.862 11.5288 147.95H12.9889V149.835C13.1462 150.022 13.3008 150.21 13.4608 150.386V147.939H15.6689V151.877H14.7746C14.863 151.968 14.9485 152.064 15.0506 152.153H31.8402V147.674H11.3218ZM18.3351 151.877H16.1271V147.955H18.3351V151.877ZM21.0097 151.877H18.8016V147.955H21.0097V151.877ZM23.6842 151.877H21.4761V147.955H23.6842V151.877ZM26.3559 151.877H24.1479V147.955H26.3559V151.877ZM29.0277 151.877H26.8196V147.955H29.0277V151.877ZM31.6995 151.877H29.4914V147.955H31.6995V151.877Z" fill="#36ADEF"/>
<path opacity="0.1" d="M26.0579 160.74C26.309 160.884 26.5657 161.016 26.8252 161.16V161.022H29.0332V162.264L29.5024 162.482V161.022H31.7105V163.409C31.7528 163.43 31.7972 163.446 31.843 163.458V160.74H26.0579Z" fill="#36ADEF"/>
<path opacity="0.1" d="M208.243 92.1465H208.259H208.243ZM191.241 173.591H191.517H191.241ZM173.501 132.151C173.554 132.328 173.598 132.505 173.648 132.679C173.604 132.505 173.557 132.328 173.501 132.151ZM208.243 92.1382H208.259H208.243ZM41.5337 50.8169V51.9952H53.863V50.8169H41.5337ZM191.241 173.591H191.517H191.241ZM173.501 132.151C173.554 132.328 173.598 132.505 173.648 132.679C173.604 132.505 173.557 132.328 173.501 132.151ZM208.243 92.1382H208.259H208.243ZM191.241 173.583H191.517H191.241ZM173.501 132.151C173.554 132.328 173.598 132.505 173.648 132.679C173.604 132.505 173.557 132.328 173.501 132.151Z" fill="#36ADEF"/>
<path d="M127.405 104.771C127.405 104.771 126.318 104.62 126.318 103.036C126.318 101.452 125.54 98.4934 125.54 98.4934C125.54 98.4796 124.866 93.3413 123.936 92.5245C123.006 91.7077 121.811 86.9116 121.811 86.9116C121.811 86.9116 121.606 84.3094 121.19 83.7492C120.773 83.189 120.21 81.8175 119.379 79.861C118.548 77.9045 115.084 76.5496 115.084 76.5496C115.084 76.5496 108.822 72.918 107.047 71.7342C106.886 71.6369 106.735 71.5231 106.597 71.3947C106.288 70.9891 104.941 70.9808 104.941 70.9808C104.8 70.0922 104.665 69.0712 104.621 68.1468C104.621 68.0474 104.621 67.9481 104.607 67.8487C106.586 66.6792 108.077 64.8352 108.805 62.6553C108.838 62.5504 108.866 62.44 108.896 62.3352C109.015 62.2961 109.124 62.2328 109.217 62.1491C109.309 62.0655 109.384 61.9634 109.434 61.8495C109.595 61.4935 109.597 61.0768 109.796 60.7457C110.028 60.3538 110.47 60.1441 110.817 59.8488C111.695 59.1038 111.921 57.8482 111.88 56.7057C111.852 55.7813 111.703 54.8486 111.761 53.9296L111.778 53.6978C111.794 53.5598 111.814 53.4219 111.839 53.2894C111.974 52.6051 112.269 51.9593 112.435 51.2805C112.6 50.6016 112.617 49.8372 112.23 49.2522C111.665 48.394 110.486 48.2229 109.451 48.1346C108.278 48.0353 107.229 48.165 106.478 47.1908C106.127 46.6817 105.732 46.2043 105.297 45.7642C105.143 45.6207 103.641 44.7045 103.641 44.6438C102.176 43.9652 100.515 43.8378 98.9627 44.285C98.1844 44.5113 97.4502 44.8811 96.6608 45.066C94.9579 45.4689 92.9982 45.0329 91.5519 46.007C90.746 46.5589 90.263 47.4364 89.8103 48.2919C89.4423 48.9965 89.0688 49.7002 88.6897 50.4029C88.0797 51.5592 87.4587 52.7347 87.202 54.0152C87.1481 54.2938 87.1149 54.576 87.1027 54.8596V54.8734C87.1027 54.9755 87.1027 55.0776 87.1027 55.1797V55.3094C87.1027 55.406 87.1027 55.4998 87.1192 55.5853C87.1358 55.6709 87.133 55.6985 87.1413 55.7564C87.1496 55.8144 87.1634 55.9441 87.18 56.0324C87.1965 56.1207 87.2296 56.2752 87.2628 56.3967C87.2766 56.4491 87.2959 56.4988 87.3124 56.5484C87.34 56.6422 87.3732 56.7333 87.409 56.8244C87.4284 56.8713 87.4477 56.921 87.4698 56.9679C87.5112 57.0645 87.5609 57.1583 87.6105 57.2438C87.6326 57.2825 87.6492 57.3183 87.6713 57.3542C87.7483 57.4825 87.8331 57.606 87.9252 57.724C88.5158 58.4608 89.3853 58.9299 90.0284 59.6198C90.0284 59.6474 90.0284 59.675 90.0284 59.6998C90.0284 59.7771 90.0284 59.8516 90.0284 59.9289C90.0625 61.4674 90.4721 62.9744 91.2215 64.3186C91.971 65.6629 93.0376 66.8036 94.3286 67.6418C94.3286 67.7466 94.3424 67.8542 94.3479 67.9591C94.4017 68.7782 94.3916 69.6003 94.3175 70.4179C94.2051 70.2855 94.0644 70.1801 93.9058 70.1094C93.7472 70.0387 93.5748 70.0046 93.4012 70.0094C93.2826 70.0037 93.1638 70.0139 93.0479 70.0398L93.023 70.0205V70.0453C92.4158 70.1943 91.6678 70.8263 90.953 72.6227C90.953 72.6227 88.778 75.0732 87.122 74.9711C85.466 74.869 81.2734 77.5209 81.2734 77.5209C81.2734 77.5209 77.1829 80.1756 76.3052 82.8799C75.8146 84.4134 75.2265 85.914 74.5443 87.3725L69.4878 97.7897L68.5549 106.055C68.5549 106.055 69.0711 109.73 68.9689 110.29C68.8668 110.851 71.0914 115.903 71.0914 115.903C71.0914 115.903 78.4415 128.815 81.4445 129.477L81.6598 129.326C81.7883 129.393 81.9246 129.444 82.0655 129.477L82.6838 129.041C82.7209 129.527 82.7052 130.016 82.6369 130.499C82.2229 131.773 82.7914 140.093 83.5146 141.724C84.2377 143.355 83.981 164.739 83.981 164.739L83.8789 166.626C83.8789 166.626 83.8789 166.687 83.9037 166.792L83.8789 167.239L83.9534 167.278C84.0308 167.876 84.0056 168.484 83.8789 169.074C83.6195 169.902 83.5146 172.242 83.5146 172.242C83.5146 172.242 81.4473 185.455 82.4271 188.109C83.4069 190.764 84.2405 193.673 84.2405 193.673C84.2405 193.673 85.2755 196.984 84.2902 197.55C83.3048 198.115 80.5033 199.065 81.0802 200.444C81.6046 201.719 83.5946 205.136 83.8899 205.635L83.8651 205.897L83.4594 210.293C83.5251 210.874 83.6825 211.44 83.9258 211.971C84.3702 212.929 85.2341 213.922 86.8763 213.814C87.1524 213.795 87.4725 213.762 87.7817 213.721C90.7874 213.318 94.4886 211.977 94.4886 211.977C94.2965 211.855 94.1203 211.709 93.9642 211.543C93.8165 211.4 93.6994 211.229 93.6202 211.039C93.5409 210.849 93.5012 210.645 93.5033 210.44C93.5475 209.639 92.0487 205.826 91.6761 204.887C91.6182 204.752 91.5878 204.675 91.5878 204.675C91.5878 204.675 95.0048 201.104 94.4362 197.939C94.4362 197.939 90.6549 195.731 91.8997 194.52C93.1445 193.308 95.3691 189.829 95.3691 189.829C95.3691 189.829 95.4712 176.817 95.3691 174.875C95.2626 173.526 95.3266 172.17 95.5596 170.837C95.601 170.636 95.6506 170.44 95.7031 170.247C97.4246 170.504 99.1625 170.636 100.903 170.641C101.538 170.641 102.184 170.641 102.835 170.603C102.835 170.787 102.843 170.986 102.86 171.199C103.004 174.422 103.271 180.074 103.489 182.174C103.798 185.184 105.507 193.297 105.507 193.297C105.507 193.297 102.247 195.389 106.075 200.544C106.075 200.544 106.075 202.412 105.822 202.682C105.55 203.567 105.332 204.466 105.167 205.376C105.007 206.347 104.941 207.33 105.201 207.84C105.822 209.06 109.548 208.96 109.548 208.96L109.639 208.944C110.342 208.871 111.053 208.939 111.73 209.143C112.407 209.347 113.037 209.684 113.583 210.133C114.999 211.27 120.373 210.771 123.282 210.409C124.422 210.266 125.184 210.133 125.184 210.133C125.22 210.004 125.234 209.87 125.222 209.736C125.192 209.021 124.631 207.454 120.834 206.055C120.834 206.055 117.262 203.654 117.312 201.562H117.237H116.823C117.124 201.546 117.317 201.562 117.317 201.562C117.317 201.562 115.918 196.457 116.489 196.043C117.061 195.629 115.349 189.972 115.349 189.972C115.349 189.972 114.37 180.479 114.317 179.814C114.319 179.243 114.406 178.676 114.574 178.131L114.317 172.926C114.317 172.926 114.267 171.196 114.317 170.633C114.309 170.145 114.269 169.657 114.198 169.173C114.174 168.98 114.149 168.779 114.121 168.58C115.46 168.241 116.329 167.926 116.329 167.926L116.175 149.81C117.312 147.602 117.522 142.759 117.516 139.324C117.516 137.116 117.417 135.482 117.417 135.482L118.971 132.946C118.971 132.946 119.329 129.911 118.761 129.246C118.51 128.945 118.623 128.633 118.83 128.376C118.937 128.291 119.051 128.214 119.169 128.145C119.169 128.145 119.153 128.12 119.133 128.084C119.242 127.993 119.357 127.911 119.478 127.838C119.478 127.838 118.926 126.983 119.42 126.621C119.884 126.936 120.298 127.173 120.613 127.366C120.591 127.568 120.569 127.684 120.569 127.684L120.701 127.408C121.005 127.579 121.19 127.684 121.19 127.684C121.19 127.684 123.624 122.835 123.572 122.121C123.519 121.406 125.228 118.395 125.228 118.395C125.228 118.395 125.435 116.814 126.368 116.152C127.3 115.489 127.091 110.691 127.091 110.691C127.091 110.691 127.35 108.19 127.971 107.169C128.592 106.148 127.405 104.771 127.405 104.771ZM80.8262 102.644L80.8732 103.8C80.5972 103.356 80.3984 103.036 80.3984 103.036L80.8262 102.644Z" fill="url(#paint0_linear)"/>
<path d="M121.322 125.589L120.726 128.128C120.726 128.128 115.951 125.691 115.09 122.595C114.229 119.499 116.531 118.323 116.531 118.323L120.98 120.208L121.322 125.589Z" fill="white"/>
<path opacity="0.1" d="M121.322 125.589L120.726 128.128C120.726 128.128 115.951 125.691 115.09 122.595C114.229 119.499 116.531 118.323 116.531 118.323L120.98 120.208L121.322 125.589Z" fill="black"/>
<path d="M94.5245 211.993C94.5245 211.993 90.1084 213.616 87.0723 213.82C85.4604 213.928 84.6131 212.94 84.177 211.988C83.9387 211.458 83.7851 210.895 83.7216 210.318L84.1162 205.944L84.326 203.615L90.7763 201.94L91.6899 204.733L91.7755 204.945C92.1426 205.878 93.6137 209.672 93.5695 210.464C93.5677 210.667 93.6069 210.868 93.6847 211.056C93.7624 211.243 93.8772 211.413 94.0222 211.554C94.1703 211.721 94.3391 211.869 94.5245 211.993Z" fill="white"/>
<path d="M124.689 209.769C124.701 209.902 124.687 210.035 124.651 210.164C124.651 210.164 115.206 211.739 113.274 210.164C112.729 209.703 112.094 209.362 111.41 209.161C110.725 208.961 110.006 208.906 109.299 208.999C109.299 208.999 105.645 209.098 105.035 207.895C104.781 207.39 104.847 206.411 105.005 205.445C105.165 204.54 105.379 203.645 105.645 202.765L105.791 202.649L106.661 201.951L116.84 201.65H116.917C116.867 203.731 120.373 206.118 120.373 206.118C124.096 207.498 124.645 209.057 124.689 209.769Z" fill="white"/>
<path opacity="0.1" d="M124.689 209.769C124.699 209.902 124.685 210.036 124.648 210.164C124.648 210.164 115.206 211.739 113.274 210.164C112.729 209.704 112.095 209.362 111.411 209.162C110.727 208.961 110.009 208.906 109.302 208.999C109.302 208.999 105.645 209.098 105.038 207.895C104.784 207.387 104.847 206.411 105.005 205.445C106.412 205.585 108.634 205.936 109.506 206.772C110.826 208.044 113.061 209.314 114.433 209.413C115.507 209.482 121.929 209.686 124.689 209.769Z" fill="black"/>
<path opacity="0.1" d="M94.5245 211.993C94.5245 211.993 90.1083 213.616 87.0722 213.82C85.4604 213.928 84.613 212.94 84.1797 211.985C85.303 212.363 86.8625 212.76 87.6822 212.396C88.6538 211.966 92.0984 211.687 94.0304 211.568C94.1775 211.729 94.3433 211.872 94.5245 211.993Z" fill="black"/>
<path d="M101.077 81.2325C97.4337 79.8168 92.747 75.1394 93.9173 72.9539C94.1772 72.4024 94.3317 71.8071 94.3727 71.1988C94.448 70.3731 94.4591 69.5427 94.4059 68.7152C94.3238 67.36 94.1607 66.011 93.9173 64.6753C93.9173 64.6753 105.292 64.9319 104.629 66.6069C104.436 67.0981 104.406 67.9508 104.458 68.9056C104.511 69.8604 104.649 70.9394 104.792 71.8528C104.991 73.1056 105.189 74.0604 105.189 74.0604C105.189 74.0604 104.494 75.0346 104.085 75.087C103.677 75.1394 106.305 83.2497 101.077 81.2325Z" fill="#CF6F80"/>
<path opacity="0.1" d="M91.7671 204.945L91.6816 205.039C88.2812 200.927 84.1686 206.052 84.1686 206.052L84.1079 205.944L84.3177 203.615L90.768 201.94L91.6816 204.733L91.7671 204.945Z" fill="black"/>
<path opacity="0.1" d="M116.92 201.94C116.92 201.94 114.436 201.888 113.111 203.058C111.786 204.228 105.383 203.312 105.659 203.058C105.74 202.932 105.79 202.788 105.802 202.638L106.672 201.94L116.851 201.639C116.889 201.824 116.92 201.94 116.92 201.94Z" fill="black"/>
<path d="M95.9985 169.651C95.8134 170.108 95.673 170.582 95.5789 171.066C95.3488 172.393 95.2848 173.742 95.3885 175.084C95.4906 177.016 95.3885 189.961 95.3885 189.961C95.3885 189.961 93.2053 193.413 91.9881 194.63C90.7709 195.847 94.4721 198.033 94.4721 198.033C95.0242 201.179 91.6789 204.733 91.6789 204.733C88.2785 200.621 84.166 205.748 84.166 205.748C84.166 205.748 81.9303 201.885 81.3728 200.505C80.8153 199.125 83.556 198.171 84.5193 197.61C85.4826 197.05 84.4724 193.747 84.4724 193.747C84.4724 193.747 83.6581 190.852 82.6921 188.211C81.7261 185.571 83.7575 172.424 83.7575 172.424C83.7575 172.424 83.8624 170.09 84.1136 169.276C84.2403 168.688 84.2655 168.083 84.1881 167.487C84.1715 167.286 84.1522 167.118 84.1384 167.004C84.1246 166.891 84.1136 166.839 84.1136 166.839L84.1522 166.773L85.5322 164.201C85.5322 164.201 96.6609 168.031 95.9985 169.651Z" fill="#006DAA"/>
<path d="M116.92 201.637C116.92 201.637 114.436 201.584 113.111 202.74C111.786 203.897 105.383 202.994 105.659 202.74C105.935 202.487 105.913 200.607 105.913 200.607C102.156 195.48 105.361 193.399 105.361 193.399C105.361 193.399 103.682 185.328 103.379 182.334C103.166 180.242 102.904 174.621 102.763 171.411C102.703 170.032 102.667 169.082 102.667 169.082L105.736 168.464L106.131 168.384L113.533 166.9C113.533 166.9 113.737 168.279 113.875 169.408C113.944 169.89 113.983 170.376 113.991 170.862C113.942 171.414 113.991 173.142 113.991 173.142L114.243 178.321C114.078 178.865 113.994 179.429 113.991 179.996C114.041 180.656 115.004 190.099 115.004 190.099C115.004 190.099 116.68 195.734 116.108 196.14C115.537 196.545 116.92 201.637 116.92 201.637Z" fill="#006DAA"/>
<path opacity="0.1" d="M104.629 66.6069C104.436 67.0981 104.406 67.9508 104.458 68.9056C102.934 69.8229 101.183 70.2919 99.4049 70.2587C97.6267 70.2255 95.894 69.6915 94.4058 68.718C94.3238 67.3619 94.1607 66.0119 93.9172 64.6753C93.9172 64.6753 105.292 64.9264 104.629 66.6069Z" fill="black"/>
<path d="M109.026 60.5084C109.028 61.5028 108.872 62.4912 108.562 63.4362C107.871 65.5538 106.453 67.3588 104.559 68.5322C102.665 69.7056 100.417 70.1718 98.2129 69.8485C96.0085 69.5252 93.9894 68.4332 92.5124 66.7654C91.0354 65.0977 90.1956 62.9616 90.1415 60.7346C90.1415 60.6574 90.1415 60.5856 90.1415 60.5084C90.1201 59.2549 90.3485 58.0097 90.8135 56.8454C91.2784 55.6811 91.9706 54.621 92.8497 53.727C93.7287 52.8329 94.777 52.1229 95.9334 51.6381C97.0898 51.1534 98.3312 50.9038 99.5851 50.9038C100.839 50.9038 102.08 51.1534 103.237 51.6381C104.393 52.1229 105.442 52.8329 106.321 53.727C107.2 54.621 107.892 55.6811 108.357 56.8454C108.822 58.0097 109.05 59.2549 109.029 60.5084H109.026Z" fill="#CF6F80"/>
<path opacity="0.1" d="M101.077 81.2325C97.4337 79.8169 92.747 75.1394 93.9173 72.9539C94.1772 72.4024 94.3317 71.8071 94.3727 71.1988L99.3602 75.2967L102.446 77.8272L104.792 71.8556C104.991 73.1084 105.189 74.0632 105.189 74.0632C105.189 74.0632 104.494 75.0373 104.085 75.0898C103.677 75.1422 106.305 83.2497 101.077 81.2325Z" fill="black"/>
<path d="M113.975 99.3433L109.81 169.298L104.378 169.654L90.3126 129.091L92.6201 80.9345L93.1058 70.76L99.3602 75.8955L102.449 78.426L104.864 72.2805L109.354 76.1936L113.975 99.3433Z" fill="#006DAA"/>
<path opacity="0.1" d="M95.9984 169.651C95.8133 170.108 95.6729 170.582 95.5788 171.066C91.6264 170.456 87.7877 169.257 84.1907 167.509L84.1162 167.471L84.1411 167.026L84.1549 166.795L85.5349 164.223C85.5349 164.223 96.6608 168.031 95.9984 169.651Z" fill="black"/>
<path opacity="0.1" d="M105.799 171.078C104.789 171.249 103.77 171.365 102.747 171.425C102.686 170.045 102.65 169.096 102.65 169.096L105.719 168.478L105.799 171.078Z" fill="black"/>
<path opacity="0.1" d="M113.859 169.422C111.897 169.932 108.866 170.506 106.153 170.148L106.114 168.398L113.517 166.913C113.517 166.913 113.721 168.279 113.859 169.422Z" fill="black"/>
<path opacity="0.1" d="M106.103 170.468C94.7867 172.399 84.4226 166.861 84.4226 166.861L84.5219 164.984C84.5219 164.984 84.7786 143.711 84.0665 142.08C83.3544 140.449 82.7996 132.179 83.2026 130.91C83.6056 129.64 81.7315 110.605 81.7315 110.605L81.4279 102.878L70.3158 98.3775L75.2839 88.0237C75.955 86.5721 76.5321 85.0788 77.0118 83.5533C77.8757 80.8655 81.8861 78.2246 81.8861 78.2246C81.8861 78.2246 85.9986 75.5865 87.6243 75.6858C89.2499 75.7852 91.3807 73.3513 91.3807 73.3513C92.954 69.3416 94.3782 71.1574 94.3782 71.1574C94.3782 71.3478 94.3782 71.1574 94.3009 71.7507C93.7489 76.1522 103.227 90.0602 103.362 90.3058L104.265 112.288L105.178 140.107L106.103 170.468Z" fill="black"/>
<path d="M105.799 170.468C94.4831 172.399 84.1162 166.861 84.1162 166.861L84.2183 164.984C84.2183 164.984 84.475 143.711 83.7601 142.08C83.0453 140.449 82.4933 132.179 82.899 130.91C83.3047 129.64 81.4279 110.605 81.4279 110.605L81.1215 102.878L70.0039 98.3609L74.9721 88.0071C75.6416 86.5549 76.2187 85.0618 76.6999 83.5367C77.561 80.8489 81.5742 78.208 81.5742 78.208C81.5742 78.208 85.6867 75.5699 87.3096 75.6692C88.9325 75.7686 91.0661 73.3347 91.0661 73.3347C92.6421 69.3251 94.3782 71.1408 94.3782 71.1408C94.3782 71.3313 94.2126 71.4168 94.3009 71.7341C95.5153 76.0031 102.923 90.0437 103.059 90.2893L103.972 112.272L104.886 140.091L105.799 170.468Z" fill="white"/>
<path opacity="0.1" d="M102.75 90.9157C101.532 90.4079 95.0848 83.0483 95.0848 83.0483V81.3732C94.8502 80.8213 93.4563 81.158 92.3247 81.5443L92.8105 71.3699L93.3625 71.828C94.5714 76.0942 102.609 90.6701 102.75 90.9157Z" fill="black"/>
<path d="M103.056 90.3058C101.836 89.7981 95.3884 82.4384 95.3884 82.4384V80.7634C95.1538 80.2115 93.7599 80.5481 92.6283 80.9345L93.1168 70.76L93.6688 71.2181C94.8805 75.4844 102.921 90.063 103.056 90.3058Z" fill="white"/>
<path opacity="0.1" d="M84.4225 127.01C84.5743 127.01 92.2915 126.199 92.2915 126.199C92.2915 126.199 96.9643 135.386 96.658 137.621C96.3516 139.856 95.7968 141.835 93.9172 141.484C92.0376 141.134 83.8015 141.76 83.8015 141.76L84.4225 127.01Z" fill="black"/>
<path d="M84.1163 126.401C84.2681 126.401 91.9852 125.589 91.9852 125.589C91.9852 125.589 96.6553 134.779 96.3517 137.011C96.0481 139.243 95.4878 141.225 93.6109 140.874C91.7341 140.524 83.4952 141.15 83.4952 141.15L84.1163 126.401Z" fill="white"/>
<path d="M89.9317 122.087C89.9317 122.087 97.0141 125.893 97.1659 127.055C97.3177 128.216 93.5612 126.547 92.7497 126.345C92.2157 126.217 91.672 126.132 91.1241 126.092L85.7115 126.238L89.9317 122.087Z" fill="#CF6F80"/>
<path opacity="0.1" d="M100.773 91.3903C101.185 91.3903 101.519 91.0568 101.519 90.6453C101.519 90.2338 101.185 89.9002 100.773 89.9002C100.362 89.9002 100.028 90.2338 100.028 90.6453C100.028 91.0568 100.362 91.3903 100.773 91.3903Z" fill="black"/>
<path d="M100.773 91.0868C101.185 91.0868 101.519 90.7532 101.519 90.3417C101.519 89.9302 101.185 89.5966 100.773 89.5966C100.362 89.5966 100.028 89.9302 100.028 90.3417C100.028 90.7532 100.362 91.0868 100.773 91.0868Z" fill="#3F3D56"/>
<path opacity="0.1" d="M102.145 123.644C102.557 123.644 102.89 123.31 102.89 122.899C102.89 122.487 102.557 122.154 102.145 122.154C101.734 122.154 101.4 122.487 101.4 122.899C101.4 123.31 101.734 123.644 102.145 123.644Z" fill="black"/>
<path d="M102.145 123.338C102.557 123.338 102.89 123.004 102.89 122.592C102.89 122.181 102.557 121.847 102.145 121.847C101.734 121.847 101.4 122.181 101.4 122.592C101.4 123.004 101.734 123.338 102.145 123.338Z" fill="#3F3D56"/>
<path opacity="0.1" d="M101.516 107.517C101.927 107.517 102.261 107.183 102.261 106.772C102.261 106.361 101.927 106.027 101.516 106.027C101.104 106.027 100.771 106.361 100.771 106.772C100.771 107.183 101.104 107.517 101.516 107.517Z" fill="black"/>
<path d="M101.516 107.214C101.927 107.214 102.261 106.88 102.261 106.468C102.261 106.057 101.927 105.723 101.516 105.723C101.104 105.723 100.771 106.057 100.771 106.468C100.771 106.88 101.104 107.214 101.516 107.214Z" fill="#3F3D56"/>
<path d="M118.694 125.937C118.694 125.937 119.202 126.699 118.694 127.055C118.187 127.411 118.744 128.272 118.744 128.272C118.744 128.272 117.477 129.014 118.035 129.682C118.592 130.35 118.239 133.366 118.239 133.366L116.716 135.888C116.716 135.888 116.807 137.513 116.812 139.71C116.812 143.137 116.611 147.955 115.496 150.152L115.65 168.174C115.65 168.174 110.315 170.123 105.849 169.529L105.187 140.609C105.187 140.609 106.153 124.21 106.509 121.064C106.717 119.43 106.802 117.784 106.763 116.138C106.763 116.138 106.611 111.215 106.1 108.93C106.1 108.93 105.548 99.0315 105.493 96.2913C105.468 94.9805 105.537 91.1558 105.614 87.5187C105.7 83.5422 105.797 79.792 105.797 79.792L104.789 71.8225C104.789 71.8225 105.797 71.7204 106.1 72.126C106.236 72.253 106.384 72.3667 106.542 72.4655C108.281 73.641 114.425 77.256 114.425 77.256C114.425 77.256 117.825 78.6082 118.639 80.5454C119.454 82.4826 120.019 83.8568 120.414 84.4087C120.809 84.9606 121.024 87.5546 121.024 87.5546C121.024 87.5546 122.194 92.3286 123.108 93.1372C124.021 93.9457 124.689 99.0895 124.689 99.0895L116.616 105.436C116.616 105.436 115.907 115.994 115.755 116.403C115.603 116.811 118.694 125.937 118.694 125.937Z" fill="white"/>
<path d="M119.001 125.937C119.001 125.937 119.506 126.699 119.001 127.055C118.496 127.411 119.048 128.272 119.048 128.272C119.048 128.272 117.789 129.022 118.341 129.69C118.893 130.358 118.545 133.374 118.545 133.374L117.022 135.896C117.022 135.896 117.113 137.522 117.121 139.718C117.121 143.145 116.92 147.964 115.805 150.16L115.957 168.183C115.957 168.183 110.613 170.131 106.153 169.538L105.493 140.618C105.493 140.618 106.459 124.218 106.815 121.072C107.024 119.439 107.108 117.792 107.066 116.146C107.066 116.146 106.914 111.223 106.407 108.938C106.407 108.938 105.855 99.0398 105.797 96.2996C105.772 94.9888 105.844 91.1641 105.918 87.527C106.004 83.5505 106.1 79.8003 106.1 79.8003L104.77 71.7231C104.77 71.7231 106.1 71.7231 106.407 72.1343C106.541 72.2628 106.689 72.3766 106.848 72.4737C108.587 73.6493 114.734 77.2643 114.734 77.2643C114.734 77.2643 118.131 78.6165 118.946 80.5537C119.76 82.4909 120.326 83.8651 120.723 84.417C121.121 84.9689 121.33 87.5629 121.33 87.5629C121.33 87.5629 122.501 92.3369 123.414 93.1454C124.328 93.954 124.987 99.0867 124.987 99.0867L116.914 105.434C116.914 105.434 116.205 115.992 116.05 116.4C115.896 116.808 119.001 125.937 119.001 125.937Z" fill="white"/>
<path opacity="0.1" d="M109.332 82.1431L110.061 84.268L106.224 88.1313C106.31 84.1576 106.407 80.4046 106.407 80.4046L105.076 72.3275C105.076 72.3275 106.407 72.3275 106.713 72.7386C106.847 72.8668 106.995 72.9797 107.155 73.0753L110.417 82.4853L109.332 82.1431Z" fill="black"/>
<path d="M109.026 81.5333L109.757 83.6581L105.921 87.5215C106.006 83.545 106.103 79.7948 106.103 79.7948L104.77 71.7176C104.77 71.7176 106.103 71.7176 106.407 72.1288C106.542 72.2565 106.69 72.3702 106.848 72.4682L110.113 81.8754L109.026 81.5333Z" fill="white"/>
<path opacity="0.1" d="M109.026 60.5084C109.028 61.5028 108.872 62.4912 108.562 63.4362C108.51 63.4444 108.457 63.442 108.406 63.4292C108.354 63.4164 108.306 63.3934 108.264 63.3617C108.192 60.8781 106.97 58.5463 105.465 56.5622C105.043 55.9632 104.531 55.4326 103.947 54.9893C103.357 54.5461 102.623 54.3386 101.888 54.407C101.06 54.5202 100.329 55.0831 99.4927 55.1549C98.3886 55.2459 97.4005 54.4815 96.3048 54.4429C95.8593 54.4471 95.4199 54.5463 95.0158 54.7338C94.6117 54.9213 94.2523 55.1928 93.9615 55.5302C93.3858 56.211 92.9581 57.0042 92.7056 57.8592C92.2717 59.1558 92.0353 60.5102 92.0046 61.8771C91.9908 62.6498 91.9163 63.6184 91.1986 63.8998C91.2527 63.3316 91.1881 62.7583 91.0089 62.2163C90.8298 61.6743 90.5401 61.1754 90.1581 60.7512L90.1415 60.7346C90.1415 60.6574 90.1415 60.5856 90.1415 60.5084C90.1201 59.2549 90.3485 58.0097 90.8135 56.8454C91.2784 55.6811 91.9706 54.621 92.8497 53.727C93.7287 52.8329 94.777 52.1229 95.9334 51.6381C97.0898 51.1534 98.3312 50.9038 99.5851 50.9038C100.839 50.9038 102.08 51.1534 103.237 51.6381C104.393 52.1229 105.442 52.8329 106.321 53.727C107.2 54.621 107.892 55.6811 108.357 56.8454C108.822 58.0097 109.05 59.2549 109.029 60.5084H109.026Z" fill="black"/>
<path d="M103.495 45.5158C102.061 44.8413 100.429 44.7137 98.9075 45.1571C98.143 45.3834 97.4226 45.7504 96.647 45.9353C94.991 46.3354 93.0589 45.9021 91.6375 46.8707C90.8481 47.4227 90.3734 48.2947 89.9318 49.1418L88.8277 51.2446C88.226 52.3953 87.6188 53.5654 87.3676 54.832C87.1165 56.0986 87.2683 57.517 88.0715 58.5353C88.6566 59.2776 89.5205 59.744 90.1553 60.4421C90.5356 60.8668 90.8241 61.3654 91.0027 61.9068C91.1813 62.4481 91.2461 63.0205 91.1931 63.588C91.9135 63.3121 91.9825 62.3407 91.9991 61.568C92.0298 60.2012 92.2662 58.8467 92.7001 57.5501C92.952 56.6949 93.3798 55.9016 93.956 55.2211C94.247 54.884 94.6065 54.6127 95.0105 54.4252C95.4145 54.2378 95.8539 54.1384 96.2993 54.1338C97.4033 54.1725 98.3942 54.9341 99.4872 54.843C100.315 54.7741 101.049 54.2084 101.883 54.098C102.618 54.0284 103.352 54.2361 103.942 54.6802C104.525 55.1229 105.037 55.6536 105.457 56.2532C106.964 58.2373 108.187 60.5636 108.259 63.0527C108.571 63.2817 109.02 62.9837 109.175 62.6305C109.33 62.2772 109.335 61.8633 109.531 61.5266C109.757 61.1375 110.191 60.9306 110.53 60.6381C111.391 59.8958 111.607 58.6457 111.574 57.5115C111.54 56.3773 111.32 55.2266 111.535 54.1118C111.665 53.4274 111.957 52.7872 112.117 52.1111C112.277 51.435 112.297 50.6761 111.919 50.0939C111.367 49.2384 110.205 49.0701 109.192 48.9901C108.041 48.8907 107.011 49.0177 106.277 48.0491C105.932 47.5436 105.544 47.069 105.118 46.6307C104.971 46.4872 103.495 45.5765 103.495 45.5158Z" fill="#512E4E"/>
<path opacity="0.1" d="M73.4954 103.709L70.6111 98.3775L69.6975 106.604C69.6975 106.604 70.2054 110.257 70.1032 110.817C70.0011 111.378 72.1843 116.4 72.1843 116.4C72.1843 116.4 79.3964 129.243 82.3414 129.905L92.2915 122.797L89.6529 119.447C89.6529 119.447 88.7393 119.091 88.5102 119.447C88.5102 119.447 83.6111 111.019 83.1032 110.409C82.5954 109.799 82.6947 108.582 82.6947 108.582C82.6947 108.582 81.9329 107.771 82.1869 107.009C82.4408 106.248 80.7157 103.607 80.7157 103.607L82.289 102.136L73.4954 103.709Z" fill="black"/>
<path d="M70.763 97.7704L70.0012 98.3775L69.0876 106.604C69.0876 106.604 69.5955 110.257 69.4934 110.817C69.3913 111.378 71.5772 116.4 71.5772 116.4C71.5772 116.4 78.7866 129.243 81.7316 129.905L91.6844 122.797L89.043 119.447C89.043 119.447 88.1295 119.091 87.9004 119.447C87.9004 119.447 83.0012 111.019 82.4934 110.409C81.9855 109.799 82.0876 108.582 82.0876 108.582C82.0876 108.582 81.3259 107.771 81.5798 107.009C81.8337 106.248 80.1059 103.607 80.1059 103.607L81.6791 102.136L70.763 97.7704Z" fill="white"/>
<path opacity="0.1" d="M118.035 129.996C118.587 130.667 118.239 133.677 118.239 133.677L116.716 136.2C116.716 136.2 116.807 137.828 116.812 140.022L114.251 140.822C114.019 140.894 113.774 140.91 113.535 140.868C113.296 140.826 113.071 140.728 112.878 140.581C112.685 140.435 112.529 140.244 112.425 140.025C112.32 139.806 112.27 139.566 112.277 139.323L112.719 125.082L118.695 127.366C118.187 127.72 118.744 128.586 118.744 128.586C118.744 128.586 117.477 129.326 118.035 129.996Z" fill="black"/>
<path d="M118.341 129.69C118.893 130.361 118.546 133.374 118.546 133.374L117.022 135.896C117.022 135.896 117.113 137.522 117.121 139.718L114.513 140.532C114.286 140.603 114.046 140.618 113.812 140.577C113.579 140.536 113.358 140.439 113.169 140.296C112.98 140.152 112.828 139.965 112.726 139.751C112.623 139.537 112.574 139.301 112.581 139.064L113.025 124.778L119.004 127.063C118.493 127.416 119.051 128.28 119.051 128.28C119.051 128.28 117.789 129.022 118.341 129.69Z" fill="white"/>
<path d="M120.32 122.902C120.32 122.902 119.915 125.493 118.899 125.644C117.883 125.796 117.428 129.836 116.415 129.693C115.402 129.549 116.072 125.937 116.108 125.236C116.144 124.535 115.004 121.632 115.857 120.973C116.71 120.313 119.409 120.973 119.409 120.973L120.32 122.902Z" fill="#CF6F80"/>
<path opacity="0.1" d="M122.481 102.947L124.397 99.084C124.397 99.084 125.159 102.028 125.159 103.601C125.159 105.174 126.224 105.329 126.224 105.329C126.224 105.329 127.392 106.709 126.776 107.713C126.161 108.717 125.912 111.218 125.912 111.218C125.912 111.218 126.114 115.989 125.2 116.648C124.286 117.308 124.096 118.884 124.096 118.884C124.096 118.884 122.418 121.878 122.47 122.59C122.523 123.302 120.135 128.123 120.135 128.123C120.135 128.123 121.303 122.132 114.499 119.543C114.499 119.543 114.447 117.509 114.955 116.952C115.462 116.395 116.255 116.141 115.758 113.323C115.261 110.506 115.614 107.139 115.614 106.463C115.614 105.787 117.138 101.57 117.138 101.57L122.481 102.947Z" fill="black"/>
<path d="M123.309 98.532L124.982 99.084C124.982 99.084 125.746 102.028 125.746 103.601C125.746 105.174 126.812 105.329 126.812 105.329C126.812 105.329 127.979 106.709 127.364 107.713C126.748 108.717 126.503 111.218 126.503 111.218C126.503 111.218 126.704 115.989 125.791 116.648C124.877 117.308 124.673 118.884 124.673 118.884C124.673 118.884 122.997 121.878 123.05 122.59C123.102 123.302 120.712 128.123 120.712 128.123C120.712 128.123 121.882 122.132 115.076 119.543C115.076 119.543 115.026 117.509 115.534 116.952C116.042 116.395 116.834 116.141 116.337 113.323C115.841 110.506 116.194 107.139 116.194 106.463C116.194 105.787 117.717 101.57 117.717 101.57L123.309 98.532Z" fill="white"/>
<path opacity="0.1" d="M86.3657 198.667C86.3657 198.667 89.032 196.992 90.7819 198.209C92.5318 199.426 86.3657 198.667 86.3657 198.667Z" fill="black"/>
<path opacity="0.1" d="M107.083 193.488C107.083 193.488 109.443 193.184 111.424 195.317C113.406 197.45 107.083 193.488 107.083 193.488Z" fill="black"/>
<g opacity="0.1">
<path opacity="0.1" d="M110.536 60.0338C110.196 60.3263 109.76 60.536 109.534 60.9251C109.341 61.259 109.335 61.6702 109.181 62.0289C109.026 62.3876 108.576 62.6802 108.264 62.4539C108.192 59.9703 106.967 57.6385 105.463 55.6516C105.042 55.052 104.531 54.5213 103.947 54.0787C103.357 53.6346 102.621 53.427 101.886 53.4964C101.058 53.6095 100.329 54.1725 99.4926 54.2415C98.3886 54.3353 97.3977 53.5709 96.302 53.5323C95.8567 53.5367 95.4175 53.6363 95.0138 53.8243C94.6101 54.0122 94.2513 54.2843 93.9614 54.6223C93.3852 55.3018 92.9575 56.0941 92.7056 56.9486C92.2719 58.2452 92.0355 59.5996 92.0045 60.9665C91.988 61.7364 91.9162 62.6967 91.2041 62.9837C91.2207 63.1876 91.2207 63.3924 91.2041 63.5963C91.9217 63.3204 91.9935 62.349 92.01 61.5763C92.0408 60.2095 92.2771 58.855 92.7111 57.5584C92.963 56.7032 93.3908 55.9099 93.9669 55.2294C94.2575 54.8923 94.6164 54.6211 95.02 54.4336C95.4236 54.2461 95.8625 54.1468 96.3075 54.1421C97.4115 54.1808 98.4052 54.9424 99.4981 54.8513C100.326 54.7823 101.06 54.2166 101.891 54.1063C102.627 54.0368 103.362 54.2445 103.953 54.6885C104.536 55.1312 105.048 55.6618 105.468 56.2615C106.972 58.2456 108.198 60.5719 108.27 63.061C108.582 63.29 109.031 62.992 109.186 62.6388C109.341 62.2855 109.346 61.8716 109.539 61.5349C109.766 61.1458 110.202 60.9389 110.541 60.6464C111.402 59.9041 111.618 58.654 111.585 57.5198C111.585 57.4839 111.585 57.4481 111.585 57.4149C111.532 58.3973 111.27 59.3991 110.536 60.0338Z" fill="black"/>
<path opacity="0.1" d="M90.1608 59.8378C89.5259 59.1397 88.6593 58.6733 88.0769 57.9337C87.5865 57.279 87.3064 56.4909 87.2737 55.6737C87.1869 56.695 87.4721 57.7132 88.0769 58.5408C88.6593 59.2831 89.5259 59.7495 90.1608 60.4477C90.7703 61.1306 91.1362 61.9962 91.2013 62.9092C91.2436 62.3536 91.1732 61.7951 90.9944 61.2674C90.8156 60.7396 90.5321 60.2534 90.1608 59.8378Z" fill="black"/>
<path opacity="0.1" d="M112.123 51.5068C111.96 52.1829 111.67 52.8258 111.538 53.5074C111.459 53.9629 111.43 54.4255 111.452 54.8872C111.461 54.6242 111.49 54.3623 111.538 54.1035C111.67 53.4191 111.96 52.7789 112.123 52.1028C112.218 51.7299 112.248 51.3436 112.214 50.9604C112.197 51.1445 112.166 51.3271 112.123 51.5068Z" fill="black"/>
</g>
<path opacity="0.1" d="M36.6346 209.888C51.4879 209.888 63.5288 207.954 63.5288 205.569C63.5288 203.184 51.4879 201.25 36.6346 201.25C21.7813 201.25 9.74036 203.184 9.74036 205.569C9.74036 207.954 21.7813 209.888 36.6346 209.888Z" fill="#36ADEF"/>
<path d="M37.5012 122.838H35.7706V161.794H37.5012V122.838Z" fill="#535461"/>
<path d="M48.3759 161.676L48.2683 163.431L48.1137 165.914L48.0502 166.946L47.8984 169.43L47.8322 170.462L47.6776 172.946L45.9333 201.112C45.8574 202.324 45.3226 203.462 44.4376 204.293C43.5525 205.125 42.3839 205.588 41.1694 205.588H32.0997C30.8855 205.588 29.7172 205.125 28.8326 204.293C27.948 203.461 27.4137 202.324 27.3386 201.112L25.6025 172.926L25.4479 170.443L25.3845 169.411L25.2299 166.927L25.1664 165.895L25.0119 163.411L24.9015 161.656C24.8823 161.319 24.9323 160.98 25.0486 160.663C25.1648 160.345 25.3447 160.054 25.5773 159.809C25.8099 159.563 26.0903 159.367 26.4012 159.234C26.7122 159.1 27.0471 159.032 27.3855 159.032H45.936C46.2731 159.035 46.6061 159.107 46.9143 159.244C47.2226 159.38 47.4996 159.578 47.7282 159.826C47.9568 160.074 48.1322 160.366 48.2437 160.684C48.3551 161.002 48.4001 161.34 48.3759 161.676Z" fill="#3F3D56"/>
<path d="M48.2683 163.431L48.1138 165.906H25.1554L25.0009 163.431H48.2683Z" fill="#9D9CB5"/>
<path d="M48.0503 166.938L47.8985 169.416H25.3734L25.2189 166.938H48.0503Z" fill="#9D9CB5"/>
<path d="M47.8322 170.451L47.6804 172.926H25.5915L25.4369 170.451H47.8322Z" fill="#9D9CB5"/>
<path d="M22.3594 137.439C32.4365 144.729 36.6428 156.132 36.6428 156.132C36.6428 156.132 24.4985 155.715 14.4186 148.424C4.33883 141.134 0.140747 129.734 0.140747 129.734C0.140747 129.734 12.2796 130.148 22.3594 137.439Z" fill="#006DAA"/>
<path d="M0.132446 129.734C0.132446 129.734 12.7405 136.73 16.784 142.522C20.8275 148.314 36.6428 156.132 36.6428 156.132" stroke="#535461" stroke-width="2" stroke-miterlimit="10"/>
<path d="M28.8649 122.752C34.3492 126.718 36.6428 132.924 36.6428 132.924C36.6428 132.924 30.0324 132.698 24.5454 128.732C19.0584 124.767 16.7703 118.558 16.7703 118.558C16.7703 118.558 23.3779 118.784 28.8649 122.752Z" fill="#006DAA"/>
<path d="M16.7703 118.558C16.7703 118.558 23.6318 122.366 25.8316 125.518C28.0314 128.669 36.6428 132.924 36.6428 132.924" stroke="#535461" stroke-width="2" stroke-miterlimit="10"/>
<path d="M44.6057 132.61C38.3044 139.533 36.9713 148.582 36.9713 148.582C36.9713 148.582 45.856 146.402 52.1518 139.475C58.4475 132.549 59.7861 123.503 59.7861 123.503C59.7861 123.503 50.907 125.686 44.6057 132.61Z" fill="#006DAA"/>
<path d="M59.7917 123.506C59.7917 123.506 51.5832 130.603 49.4966 135.493C47.4099 140.383 36.9713 148.582 36.9713 148.582" stroke="#535461" stroke-width="2" stroke-miterlimit="10"/>
<path d="M275.917 130.173C275.917 130.173 271.36 107.506 273.104 104.686C273.104 104.686 273.168 102.064 273.063 98.7225C273.063 98.5955 273.063 98.4686 273.063 98.3389C273.37 98.5435 273.69 98.7278 274.021 98.8908C275.628 99.7163 277.473 99.9545 279.237 99.5641L277.857 98.0271C277.526 97.66 277.181 97.2627 277.109 96.777C277.038 96.2913 277.236 95.8581 277.407 95.4248C278.719 92.1134 278.787 87.9492 276.262 85.4215C274.128 83.2966 273.61 80.5537 271.294 78.6137C269.602 77.1926 268.672 75.1091 267.794 73.0946C267.052 71.392 266.304 69.6756 265.879 67.8708C265.547 66.4607 265.415 65.0009 264.959 63.6239C264.504 62.2469 263.651 60.9085 262.318 60.2931C261.843 60.0751 261.316 59.951 260.883 59.6612C260.314 59.2776 259.972 58.654 259.561 58.1076C257.471 55.3481 250.475 56.9734 247.162 58.0938C246.262 58.3759 245.428 58.8378 244.712 59.4515L244.742 59.4018C244.767 59.3604 244.797 59.319 244.825 59.2776C244.462 59.5707 244.149 59.9201 243.897 60.3125C243.414 61.0768 243.213 61.9682 242.81 62.796C242.324 63.7757 239.622 66.5104 240.784 67.6114C240.865 67.6854 240.959 67.7451 241.06 67.788C241.496 67.9696 241.976 68.0176 242.44 67.926L242.39 68.0447C241.993 69.0161 241.79 70.0557 241.791 71.105C241.791 75.6389 245.531 79.3146 250.149 79.3146C251.017 79.3155 251.88 79.1824 252.707 78.92C252.727 79.0249 252.743 79.1297 252.763 79.2346C252.763 79.276 252.776 79.3174 252.782 79.3588L252.636 79.563C252.628 79.5504 252.62 79.5384 252.611 79.5271L248.278 85.5815C247.615 86.0479 243.801 88.8074 243.585 90.8771C243.359 93.1427 243.133 95.7946 243.133 95.7946L243.102 96.3631C242.913 96.5213 242.692 96.6365 242.453 96.7008C242.215 96.7652 241.966 96.777 241.722 96.7356C240.37 96.5148 240.37 101.703 240.37 101.703C240.37 101.703 239.47 102.531 238.852 101.813C238.234 101.096 236.6 103.527 236.6 103.527L226.36 103.968L226.125 103.982L225.573 102.274C225.514 102.094 225.386 101.944 225.217 101.858C225.048 101.772 224.851 101.756 224.671 101.813C224.628 101.827 224.586 101.845 224.546 101.866L224.508 101.888L224.436 101.937L224.4 101.97C224.38 101.988 224.362 102.008 224.345 102.028L224.312 102.067L224.295 102.084C224.231 102.172 224.189 102.273 224.172 102.381C224.155 102.488 224.163 102.598 224.196 102.702L224.671 104.167C222.694 104.564 220.674 105.685 222.322 108.77L213.97 107.227L216.672 109.496L230.621 112.374C230.436 112.705 230.558 113.185 231.135 113.861C233.619 116.778 238.145 117.57 239.967 117.774C240.448 118.85 241.049 119.869 241.758 120.81L241.601 123.716C241.601 123.716 236.989 145.864 236.144 146.987C236.571 146.504 236.961 145.99 237.312 145.45C235.973 150 234.102 156.228 233.61 157.161C232.821 158.651 232.09 164.681 232.989 165.067C233.265 165.186 234.055 165.128 235.181 165.042V165.542L235.131 184.47C235.131 184.47 235.358 196.079 234.737 197.186C234.116 198.292 233.95 200.613 233.95 200.613C233.95 200.613 231.466 205.191 229.498 207.032C229.485 207.046 229.47 207.059 229.454 207.07L229.393 206.64C229.393 206.64 227.028 209.626 221.795 209.457C221.795 209.457 218.645 211.505 223.315 211.615C227.985 211.726 233.95 211.45 233.95 211.45C233.95 211.45 238.115 205.103 241.604 205.93V210.74H242.672V205.853C243.167 205.527 243.591 205.104 243.918 204.609C244.245 204.114 244.468 203.559 244.574 202.975C244.665 202.374 244.598 201.759 244.379 201.191C244.16 200.623 243.797 200.123 243.326 199.738C243.114 199.547 242.944 199.313 242.827 199.053C242.71 198.793 242.647 198.511 242.644 198.226L242.606 198.259C242.606 198.162 242.581 198.063 242.57 197.961C242.263 195.477 241.88 190.353 243.235 186.561C245.092 181.362 245.655 174.121 244.303 169.811C243.867 168.433 243.508 167.032 243.229 165.614C243.196 165.434 243.166 165.263 243.138 165.103C244.063 165.228 244.978 165.413 245.879 165.655C249.012 166.519 255.865 166.679 261.716 166.632C261.73 166.792 261.747 166.96 261.766 167.129C261.87 168.299 262.089 169.456 262.417 170.584C263.152 172.791 263.488 182.524 263.488 182.524C263.488 182.524 264.435 190.527 263.919 193.783C263.643 195.593 263.367 197.412 263.21 199.239V199.274C263.21 199.274 261.658 203.69 260.524 206.088C260.496 206.149 260.466 206.209 260.438 206.267C260.136 206.295 259.838 206.361 259.552 206.463C259.552 206.463 258.032 209.499 256.516 210.001C255.001 210.503 255.503 212.156 258.934 211.549C262.365 210.942 267.546 210.445 267.546 210.445L267.769 207.349L268.824 206.03L268.548 209.118L269.671 208.897L269.522 205.141L271.247 202.983C271.247 202.983 273.331 201.129 270.234 197.481V197.561C270.201 197.508 270.171 197.453 270.135 197.401V197.384C269.621 196.589 269.213 195.108 269.961 192.478C271.313 187.726 272.1 183.413 272.1 183.413C272.1 183.413 275.119 171.858 271.49 166.392H271.65C271.278 165.623 271.015 164.805 270.869 163.963C270.85 163.864 270.834 163.762 270.819 163.657C273.505 163.503 276.141 163.017 278.291 161.968C278.282 161.957 276.988 134.538 275.917 130.173ZM241.822 111.049V111.105L241.27 111.132L241.822 111.049ZM239.928 111.311C239.838 111.332 239.753 111.372 239.68 111.43C239.443 111.766 239.294 112.156 239.247 112.564L238.385 112.371C238.385 112.371 237.781 112.241 236.912 112.095L236.5 111.681C237.632 111.587 238.808 111.449 239.928 111.311Z" fill="url(#paint1_linear)"/>
<path d="M268.421 205.18L268.092 209.09L269.193 208.869L269.028 204.628L268.421 205.18Z" fill="#1D2366"/>
<path d="M243.296 186.614C241.968 190.394 242.343 195.497 242.641 197.975C242.752 198.891 242.854 199.448 242.854 199.448C242.854 199.448 240.869 203.968 240.704 204.139C240.538 204.311 234.864 207.774 234.864 207.774L230.897 210.089C230.897 210.089 226.873 208.326 228.802 207.719C229.197 207.56 229.552 207.318 229.843 207.009C231.775 205.174 234.201 200.613 234.201 200.613C234.201 200.613 234.367 198.298 234.974 197.196C235.581 196.095 235.36 184.525 235.36 184.525L235.407 165.663V163.205L242.956 163.26C243.004 164.094 243.113 164.925 243.282 165.743C243.553 167.157 243.904 168.553 244.333 169.927C245.664 174.229 245.112 181.434 243.296 186.614Z" fill="#FFB0B1"/>
<path opacity="0.1" d="M242.854 199.448C242.854 199.448 240.87 203.968 240.704 204.14C240.538 204.311 234.864 207.774 234.864 207.774L230.897 210.089C230.897 210.089 226.873 208.326 228.802 207.719C229.197 207.56 229.552 207.318 229.843 207.009L230.014 208.215L231.336 208.16L242.653 197.98C242.752 198.891 242.854 199.448 242.854 199.448Z" fill="black"/>
<path d="M242.716 198.237L231.336 208.486L230.014 208.541L229.738 206.609C229.738 206.609 227.425 209.584 222.286 209.419C222.286 209.419 219.2 211.458 223.774 211.568C228.347 211.679 234.187 211.403 234.187 211.403C234.187 211.403 238.267 205.056 241.681 205.884V210.677H242.73V205.839C243.217 205.511 243.634 205.088 243.953 204.595C244.273 204.101 244.49 203.549 244.59 202.969C244.681 202.373 244.617 201.763 244.404 201.199C244.19 200.634 243.835 200.134 243.373 199.746C243.166 199.553 243.002 199.319 242.889 199.059C242.776 198.8 242.717 198.52 242.716 198.237Z" fill="#006DAA"/>
<path d="M269.469 192.508C268.735 195.13 269.136 196.606 269.638 197.398V197.415C270.282 198.392 270.73 199.486 270.957 200.635L271.001 200.883L265.823 208.431L263.014 209.534C263.014 209.534 258.495 207.992 259.321 207.55C259.528 207.443 259.851 206.869 260.22 206.077C261.324 203.69 262.848 199.285 262.848 199.285V199.25C263.008 197.431 263.262 195.618 263.544 193.813C264.049 190.565 263.121 182.593 263.121 182.593C263.121 182.593 262.79 172.899 262.072 170.694C261.748 169.573 261.533 168.423 261.429 167.261C261.28 165.881 261.247 164.744 261.247 164.744C261.247 164.744 264.223 160.605 269.677 165.076C270.113 165.432 270.496 165.848 270.816 166.312C274.584 171.671 271.551 183.476 271.551 183.476C271.551 183.476 270.792 187.77 269.469 192.508Z" fill="#FFB0B1"/>
<path opacity="0.1" d="M271.01 200.883L265.832 208.431L263.022 209.534C263.022 209.534 258.504 207.992 259.329 207.55C259.536 207.443 259.859 206.869 260.229 206.077C262.141 206.06 263.132 207.881 263.132 207.881L265.556 207.495C265.556 207.495 268.752 201.214 269.469 200.831C270.187 200.447 269.58 197.964 269.58 197.964V197.332C269.599 197.354 269.616 197.379 269.638 197.401V197.417C270.282 198.395 270.73 199.489 270.957 200.638L271.01 200.883Z" fill="black"/>
<path d="M263.298 208.044C263.298 208.044 261.918 205.511 259.274 206.446C259.274 206.446 257.786 209.482 256.298 209.973C254.811 210.464 255.307 212.12 258.669 211.516C262.031 210.911 267.099 210.412 267.099 210.412L267.319 207.324L270.736 202.972C270.736 202.972 272.773 201.126 269.743 197.492V198.124C269.743 198.124 270.35 200.607 269.632 200.991C268.915 201.374 265.73 207.658 265.73 207.658L263.298 208.044Z" fill="#006DAA"/>
<path opacity="0.1" d="M242.964 163.254C243.012 164.089 243.121 164.919 243.29 165.738C240.182 165.282 237.298 165.509 235.407 165.658V163.199L242.964 163.254Z" fill="black"/>
<path opacity="0.1" d="M271.123 166.999C271.123 166.999 266.707 167.214 261.44 167.258C261.291 165.879 261.258 164.742 261.258 164.742C261.258 164.742 264.234 160.602 269.688 165.073C270.124 165.429 270.507 165.845 270.827 166.309C270.913 166.544 271.012 166.775 271.123 166.999Z" fill="black"/>
<path d="M271.123 166.502C271.123 166.502 251.78 167.438 245.885 165.785C239.989 164.132 234.146 165.564 233.265 165.18C232.385 164.797 233.1 158.789 233.873 157.302C234.646 155.814 238.885 140.772 238.885 140.772L242.964 119.507L247.262 118.323L247.565 118.238L255.054 116.174L260.541 114.659C260.541 114.659 271.451 157.247 270.516 160.387C270.176 161.59 270.121 162.855 270.355 164.082C270.498 164.92 270.757 165.735 271.123 166.502Z" fill="#006DAA"/>
<path d="M228.744 104.965C228.744 104.965 224.88 109.104 227.806 111.411C230.732 113.718 232.655 111.632 232.655 111.632L228.744 104.965Z" fill="#C7DAF5"/>
<path opacity="0.1" d="M228.744 104.965C228.744 104.965 224.88 109.104 227.806 111.411C230.732 113.718 232.655 111.632 232.655 111.632L228.744 104.965Z" fill="black"/>
<path d="M259.964 77.75C259.964 77.75 259.511 78.1804 258.829 78.8151C257.858 79.723 256.42 81.0504 255.145 82.1624C253.378 83.6995 251.921 84.8282 252.442 83.8651C252.964 82.902 252.865 81.2242 252.605 79.654C252.586 79.5492 252.569 79.4443 252.55 79.3422C252.335 78.189 252.05 77.05 251.697 75.9314C251.697 75.9314 254.551 72.2447 256.13 70.7904C256.718 70.2385 257.129 70.0122 257.154 70.3958C257.182 70.9118 257.568 72.0515 258.048 73.2602C258.062 73.2988 258.076 73.3347 258.092 73.3733C258.413 74.2012 258.774 75.0511 259.092 75.7852C259.577 76.9111 259.964 77.75 259.964 77.75Z" fill="#FFB0B1"/>
<path opacity="0.1" d="M258.092 73.3733C257.824 74.8156 257.173 76.1593 256.208 77.2642C255.243 78.369 253.999 79.1944 252.605 79.6541C252.386 78.3944 252.083 77.1507 251.697 75.9314C251.697 75.9314 257.071 68.9912 257.154 70.3958C257.173 70.9284 257.593 72.1095 258.092 73.3733Z" fill="black"/>
<path opacity="0.1" d="M252.07 81.5084L252.765 80.5288C252.765 80.5288 253.226 83.338 254.921 82.099C256.616 80.86 256.699 91.4235 256.699 91.4235L254.88 118.613L241.736 117.827L242.109 104.689L243.596 98.0657L247.276 88.4376L249.464 85.2559L252.07 81.5084Z" fill="black"/>
<path d="M256.699 91.5918L255.042 116.176L254.869 118.782L247.541 118.343L247.265 118.326L241.744 117.995L242.117 104.854L243.605 98.2312L247.284 88.6032L249.473 85.4215L252.078 81.6602L252.774 80.6833C252.774 80.6833 253.235 83.4926 254.929 82.2535L254.965 82.2287C256.621 81.1801 256.699 91.5918 256.699 91.5918Z" fill="#006DAA"/>
<path d="M243.79 95.9298C243.79 95.9298 243.13 97.3096 241.805 97.0861C240.48 96.8625 240.483 102.053 240.483 102.053C240.483 102.053 239.603 102.881 238.995 102.164C238.388 101.446 236.787 103.872 236.787 103.872L226.757 104.313C226.757 104.313 231.22 106.353 230.345 112.523C230.345 112.523 245.498 111.585 245.995 110.152C246.492 108.72 243.79 95.9298 243.79 95.9298Z" fill="white"/>
<path opacity="0.03" d="M243.79 95.9298C243.79 95.9298 243.13 97.3096 241.805 97.0861C240.48 96.8625 240.483 102.053 240.483 102.053C240.483 102.053 239.603 102.881 238.995 102.164C238.388 101.446 236.787 103.872 236.787 103.872L226.757 104.313C226.757 104.313 231.22 106.353 230.345 112.523C230.345 112.523 245.498 111.585 245.995 110.152C246.492 108.72 243.79 95.9298 243.79 95.9298Z" fill="black"/>
<path d="M214.641 107.556L217.285 109.813L239.051 114.386L236.351 111.632L214.641 107.556Z" fill="white"/>
<path d="M252.111 82.3777C251.75 82.9296 250.715 85.7554 249.851 88.2224C249.13 90.2782 248.529 92.0857 248.529 92.0857C248.529 92.0857 247.124 101.231 246.406 102.884C245.689 104.537 246.078 110.983 246.078 110.983L243.403 126.903C243.403 126.903 242.192 135.112 240.32 140.016C238.474 144.843 236.417 147.105 236.354 147.177C237.182 146.057 241.695 123.997 241.695 123.997L243.185 96.1754C243.185 96.1754 243.403 93.5317 243.624 91.2717C243.845 89.0116 248.316 85.9265 248.316 85.9265L252.627 79.7975C253.061 80.377 252.771 81.387 252.111 82.3777Z" fill="white"/>
<path d="M240.869 118.133C240.869 118.133 234.521 117.857 231.446 114.165C228.372 110.473 238.554 112.691 238.554 112.691L241.201 113.298L240.869 118.133Z" fill="#FFB0B1"/>
<path opacity="0.1" d="M270.516 160.39C270.176 161.592 270.121 162.857 270.355 164.085C263.43 164.576 256.022 162.705 256.022 162.705C254.642 163.974 251.007 165.845 251.007 165.845L249.026 141.286C247.759 137.974 247.262 120.625 247.262 120.625C247.262 120.625 247.375 119.717 247.538 118.357C247.538 118.323 247.538 118.288 247.552 118.254C248.046 114.455 249.026 107.321 249.506 106.358C250.168 105.034 247.469 101.51 247.469 101.51L248.697 91.0371L248.846 89.7733C251.435 88.617 253.42 84.9248 253.42 84.9248L254.943 82.2563C256.599 81.1939 256.685 91.6056 256.685 91.6056L255.029 116.19L260.516 114.675C260.516 114.675 271.451 157.249 270.516 160.39Z" fill="black"/>
<path d="M277.623 162.087C270.074 165.834 256.354 162.363 256.354 162.363C254.973 163.632 251.338 165.503 251.338 165.503L249.354 140.943C248.09 137.632 247.593 120.283 247.593 120.283C247.593 120.283 249.188 107.338 249.851 106.016C250.044 105.63 249.95 105.056 249.721 104.437C248.595 101.495 248.181 98.3285 248.512 95.1957L249.042 90.6949L249.188 89.4338C251.78 88.2748 253.765 84.5826 253.765 84.5826L255.145 82.1652L257.684 77.7113L258.887 75.603L259.092 75.7879L260.651 77.2008C260.651 77.2008 261.313 77.7527 262.307 78.5806C264.468 80.4019 268.203 83.6084 270.129 85.5705C271.824 87.2979 272.359 94.0174 272.514 99.0757C272.616 102.406 272.555 105.017 272.555 105.017C270.847 107.829 275.315 130.405 275.315 130.405C276.356 134.768 277.623 162.087 277.623 162.087Z" fill="white"/>
<path opacity="0.03" d="M263.132 84.5274C263.132 84.5274 257.952 94.3872 258.553 98.1347C259.155 101.882 260.866 106.124 260.041 107.114C259.758 107.49 259.391 107.794 258.97 108.004C258.549 108.215 258.085 108.324 257.615 108.326C256.787 108.381 254.579 109.923 254.579 110.089C254.579 110.255 252.539 110.255 250.715 111.027C248.89 111.8 246.197 112.239 246.197 112.239C246.197 112.239 240.952 112.073 240.464 112.57C239.975 113.067 239.473 116.039 240.519 118.409C241.565 120.779 242.727 122.548 243.605 122.871C244.483 123.194 250.052 121.329 254.571 120.887C259.089 120.446 263.994 116.866 263.994 116.866C263.994 116.866 269.395 114.935 270.342 111.687C271.288 108.439 269.185 90.5873 269.185 90.5873C269.185 90.5873 267.595 82.2673 263.132 84.5274Z" fill="black"/>
<path opacity="0.03" d="M262.47 83.6995C262.47 83.6995 257.289 93.5621 257.896 97.3068C258.504 101.051 260.209 105.296 259.381 106.289C259.099 106.665 258.733 106.97 258.312 107.18C257.892 107.39 257.428 107.5 256.958 107.501C256.13 107.556 253.922 109.098 253.922 109.264C253.922 109.429 251.882 109.429 250.058 110.199C248.233 110.969 245.54 111.411 245.54 111.411C245.54 111.411 240.295 111.245 239.81 111.742C239.324 112.239 238.816 115.213 239.865 117.581C240.914 119.949 242.073 121.72 242.951 122.043C243.828 122.366 249.398 120.501 253.916 120.062C258.435 119.623 263.339 116.039 263.339 116.039C263.339 116.039 268.738 114.107 269.674 110.862C270.609 107.616 268.517 89.7595 268.517 89.7595C268.517 89.7595 266.933 81.4422 262.47 83.6995Z" fill="black"/>
<path d="M262.969 84.0307C262.969 84.0307 257.789 93.8932 258.396 97.6379C259.003 101.383 260.709 105.627 259.884 106.617C259.601 106.994 259.235 107.3 258.814 107.511C258.393 107.721 257.928 107.831 257.458 107.832C256.63 107.887 254.422 109.429 254.422 109.592C254.422 109.755 252.385 109.758 250.557 110.53C248.73 111.303 246.039 111.742 246.039 111.742C246.039 111.742 240.795 111.576 240.306 112.073C239.818 112.57 239.316 115.545 240.362 117.912C241.408 120.28 242.57 122.052 243.447 122.374C244.325 122.697 249.895 120.832 254.413 120.39C258.931 119.949 263.836 116.37 263.836 116.37C263.836 116.37 269.238 114.438 270.184 111.19C271.131 107.942 269.042 90.0906 269.042 90.0906C269.042 90.0906 267.43 81.7844 262.969 84.0307Z" fill="white"/>
<path opacity="0.1" d="M262.856 110.484C262.856 110.484 258.716 109.656 260.157 111.035C261.598 112.415 261.589 113.624 263.353 113.569C265.117 113.514 262.856 110.484 262.856 110.484Z" fill="black"/>
<path opacity="0.1" d="M269.853 140.171C269.853 140.171 267.982 141.437 271.562 144.357C275.142 147.276 269.853 140.171 269.853 140.171Z" fill="black"/>
<path opacity="0.1" d="M266.282 150.582C266.282 150.748 265.619 156.653 268.098 158.13C270.576 159.606 266.282 150.582 266.282 150.582Z" fill="black"/>
<path d="M226.928 104.299C224.93 104.368 220.613 104.978 222.852 109.153C224.831 112.849 228.157 110.379 230.028 108.505C229.571 106.758 228.462 105.253 226.928 104.299Z" fill="#FFB0B1"/>
<path d="M230.053 108.472L230.136 108.386L230.053 108.472Z" fill="#FFB0B1"/>
<path opacity="0.1" d="M262.307 78.7489C260.187 80.1977 258.41 81.4202 258.062 81.674C257.113 82.3777 255.302 86.5087 254.134 88.617C253.204 90.3142 250.182 90.7502 249.042 90.8578L249.188 89.5967C251.78 88.4377 253.765 84.7454 253.765 84.7454L258.887 75.7659L260.651 77.3692C260.651 77.3692 261.313 77.9211 262.307 78.7489Z" fill="black"/>
<path d="M262.307 78.5833C260.187 80.0321 258.41 81.2546 258.062 81.5112C257.113 82.2121 255.302 86.3432 254.134 88.4514C253.204 90.1486 250.182 90.5846 249.042 90.6922L249.188 89.4311C251.78 88.2721 253.765 84.5798 253.765 84.5798L258.887 75.6003L260.651 77.1981C260.651 77.1981 261.313 77.7444 262.307 78.5833Z" fill="#DCE7FF"/>
<path d="M258.228 71.552C258.229 73.2086 257.726 74.8263 256.787 76.1908C255.677 77.8041 254.026 78.9664 252.133 79.4666C250.24 79.9668 248.23 79.7719 246.468 78.9173C244.706 78.0626 243.309 76.6049 242.53 74.8084C241.751 73.012 241.642 70.996 242.223 69.1262C242.804 67.2564 244.036 65.6566 245.695 64.6172C247.355 63.5778 249.332 63.1677 251.268 63.4611C253.204 63.7546 254.971 64.7323 256.248 66.2167C257.525 67.7012 258.227 69.5941 258.228 71.552Z" fill="#FFB0B1"/>
<path opacity="0.1" d="M272.514 99.0784C271.393 98.3891 270.48 97.4086 269.872 96.2416C269.411 95.331 269.105 94.2796 268.318 93.6339C267.609 93.0543 266.662 92.9136 265.779 92.6542C262.876 91.796 260.441 89.1468 260.35 86.1224C260.306 84.6985 260.75 83.2773 260.549 81.8672C260.434 81.0691 260.117 80.3138 259.627 79.6734C259.384 79.3671 259.117 79.0801 258.829 78.8151C258.443 78.4509 258.037 78.0977 257.684 77.7113C257.461 77.4721 257.267 77.2082 257.104 76.9249C256.973 76.693 256.867 76.4478 256.787 76.1936C256.235 74.5047 256.737 72.5013 256.13 70.7932L256.097 70.6993C255.868 70.0922 255.401 69.4851 254.753 69.4382C254.104 69.3913 253.549 69.9294 252.931 70.1695C251.637 70.6717 250.24 69.8163 249.161 68.9443C248.082 68.0723 246.864 67.0761 245.493 67.2692C244.585 67.3989 243.867 68.0171 243.031 68.3372C242.842 68.4103 242.647 68.4666 242.448 68.5055C243.156 66.7408 244.456 65.2776 246.126 64.3673C247.795 63.4571 249.73 63.1565 251.597 63.5173C253.464 63.8781 255.147 64.8778 256.357 66.3445C257.567 67.8112 258.229 69.6535 258.228 71.5548C258.229 72.1289 258.168 72.7015 258.048 73.2629C258.062 73.3016 258.076 73.3375 258.092 73.3761C258.413 74.2039 258.774 75.0539 259.092 75.7879L260.651 77.2008C260.651 77.2008 261.313 77.7527 262.307 78.5806C264.468 80.4019 268.203 83.6085 270.129 85.5705C271.824 87.3035 272.354 94.0202 272.514 99.0784Z" fill="black"/>
<path d="M242.934 63.2955C243.329 62.4925 243.525 61.5929 243.997 60.8312C244.69 59.7274 245.898 59.021 247.14 58.5932C250.384 57.4756 257.237 55.853 259.285 58.5932C259.688 59.1452 260.022 59.7578 260.579 60.1386C261.004 60.4283 261.518 60.5525 261.984 60.7705C263.29 61.3831 264.123 62.7188 264.568 64.082C265.012 65.4452 265.144 66.9077 265.47 68.3123C265.887 70.1143 266.618 71.8225 267.347 73.5196C268.205 75.523 269.116 77.6009 270.772 79.0166C273.033 80.9483 273.532 83.683 275.63 85.8023C278.114 88.319 278.034 92.4721 276.753 95.7697C276.585 96.203 276.395 96.6555 276.461 97.1164C276.527 97.5772 276.869 97.9967 277.192 98.3637L278.55 99.8952C275.337 100.671 271.702 98.9929 270.206 96.0485C269.746 95.1378 269.439 94.0892 268.65 93.4407C267.943 92.8612 266.994 92.7232 266.113 92.4638C263.21 91.6028 260.775 88.9509 260.684 85.9265C260.64 84.5053 261.084 83.0841 260.883 81.6768C260.771 80.8734 260.452 80.1127 259.958 79.4691C259.199 78.4785 258.054 77.8134 257.436 76.7096C256.39 74.8635 257.184 72.4654 256.431 70.4841C256.199 69.877 255.735 69.2699 255.087 69.223C254.438 69.1761 253.883 69.7142 253.262 69.9543C251.971 70.4565 250.574 69.6038 249.495 68.729C248.416 67.8543 247.198 66.8608 245.824 67.0568C244.916 67.1837 244.201 67.8018 243.365 68.1247C242.746 68.362 241.493 68.5745 240.952 68.0529C239.81 67.0016 242.457 64.2779 242.934 63.2955Z" fill="#591D4B"/>
<path opacity="0.1" d="M270.974 95.1378C270.51 94.2272 270.206 93.1785 269.417 92.5328C268.71 91.9533 267.761 91.8126 266.878 91.5532C263.977 90.6949 261.542 88.043 261.449 85.0186C261.404 83.5974 261.849 82.1735 261.65 80.7661C261.535 79.9679 261.216 79.2125 260.726 78.5723C259.964 77.5816 258.818 76.9166 258.203 75.8128C257.157 73.9694 257.952 71.5713 257.195 69.5872C256.966 68.9829 256.5 68.3758 255.854 68.3261C255.208 68.2765 254.648 68.8201 254.03 69.0602C252.738 69.5624 251.338 68.707 250.262 67.8349C249.186 66.9629 247.963 65.9667 246.591 66.1599C245.683 66.2896 244.965 66.9077 244.132 67.2278C243.514 67.4652 242.258 67.6804 241.717 67.1589C240.58 66.055 243.227 63.3369 243.701 62.36C244.096 61.5542 244.292 60.6574 244.767 59.8958C244.792 59.8544 244.819 59.813 244.847 59.7716C244.492 60.0657 244.185 60.414 243.939 60.8036C243.467 61.5653 243.271 62.4594 242.876 63.2679C242.399 64.2448 239.752 66.9712 240.892 68.0667C241.444 68.5911 242.686 68.3758 243.304 68.1385C244.132 67.8156 244.855 67.1975 245.763 67.0705C247.143 66.8746 248.358 67.8708 249.434 68.7428C250.51 69.6148 251.918 70.4703 253.204 69.9681C253.823 69.728 254.364 69.1871 255.026 69.2368C255.688 69.2865 256.13 69.8908 256.37 70.4979C257.124 72.4792 256.329 74.8773 257.375 76.7234C257.993 77.8079 259.138 78.4868 259.897 79.4829C260.391 80.1265 260.71 80.8871 260.822 81.6906C261.024 83.0979 260.579 84.5191 260.623 85.9403C260.714 88.9757 263.149 91.6166 266.052 92.4776C266.927 92.737 267.882 92.875 268.589 93.4545C269.381 94.103 269.693 95.1516 270.146 96.0622C271.642 99.0067 275.277 100.684 278.489 99.909L277.849 99.186C275.064 99.2274 272.246 97.6435 270.974 95.1378Z" fill="black"/>
<path opacity="0.1" d="M251.946 82.5433C251.584 83.0952 250.549 85.9209 249.685 88.388C248.877 88.0734 248.142 86.0672 248.142 86.0672L252.454 79.9355C252.895 80.5426 252.605 81.5498 251.946 82.5433Z" fill="black"/>
<path d="M252.111 82.3777C251.75 82.9296 250.715 85.7554 249.851 88.2224C249.042 87.9106 248.308 85.9016 248.308 85.9016L252.619 79.7727C253.061 80.377 252.771 81.387 252.111 82.3777Z" fill="#DCE7FF"/>
<path d="M227.044 110.569L224.654 103.033C224.626 102.945 224.615 102.852 224.623 102.759C224.631 102.667 224.656 102.577 224.699 102.495C224.742 102.412 224.8 102.339 224.871 102.28C224.942 102.22 225.024 102.175 225.112 102.147C225.29 102.092 225.483 102.108 225.648 102.194C225.813 102.28 225.938 102.428 225.995 102.605L228.386 110.133L228.148 111.709L227.044 110.569Z" fill="#BE8B87"/>
<path opacity="0.1" d="M224.88 102.371C225.059 102.314 225.252 102.331 225.418 102.417C225.584 102.502 225.709 102.651 225.766 102.829L228.157 110.357L227.977 111.538L228.151 111.72L228.388 110.144L225.984 102.616C225.927 102.439 225.803 102.291 225.637 102.205C225.472 102.12 225.279 102.103 225.101 102.158C224.952 102.207 224.822 102.304 224.734 102.434C224.781 102.409 224.83 102.388 224.88 102.371Z" fill="white"/>
<path d="M227.044 110.569L228.386 110.144L228.19 111.436L228.148 111.72L227.756 111.311L227.044 110.569Z" fill="#EFC8C4"/>
<path d="M227.756 111.311C227.78 111.282 227.809 111.258 227.842 111.24C227.861 111.227 227.884 111.221 227.907 111.221C227.93 111.221 227.952 111.227 227.972 111.24C227.99 111.262 228.006 111.287 228.019 111.314C228.037 111.345 228.062 111.371 228.091 111.39C228.121 111.41 228.154 111.423 228.19 111.427L228.148 111.703L227.756 111.311Z" fill="#727A9C"/>
<path d="M224.64 105.71C224.64 105.71 229.434 105.682 228.306 107.721C227.177 109.761 225.413 110.006 225.413 110.006L224.64 105.71Z" fill="#FFB0B1"/>
<path d="M194.823 14.1895H194.616C186.38 14.1895 179.096 18.5469 174.906 24.9766C170.716 18.5469 163.433 14.1895 155.197 14.1895H154.99C148.809 14.2484 142.901 16.7438 138.55 21.1333C134.198 25.5228 131.756 31.4518 131.752 37.6318C131.752 45.3061 135.114 56.1952 141.669 65.1554C154.159 82.2287 174.906 97.1661 174.906 97.1661C174.906 97.1661 195.654 82.2314 208.14 65.1554C214.698 56.1952 218.057 45.3061 218.057 37.6318C218.054 31.4523 215.612 25.5237 211.261 21.1343C206.911 16.7448 201.004 14.2492 194.823 14.1895ZM191.861 66.469C190.923 66.4654 190.008 66.1783 189.237 65.6455C188.465 65.1126 187.872 64.3589 187.536 63.4831H182.612C182.288 63.4811 181.973 63.3779 181.71 63.188C181.447 62.998 181.25 62.7307 181.147 62.4235L179.634 57.8675L174.848 74.5875C174.755 74.9094 174.56 75.1923 174.292 75.3939C174.024 75.5954 173.699 75.7046 173.363 75.7051H173.267C172.917 75.6882 172.584 75.5519 172.323 75.3188C172.061 75.0858 171.888 74.7702 171.832 74.4247L166.899 44.7652L163.295 62.3159C163.212 62.6493 163.02 62.9454 162.749 63.157C162.479 63.3685 162.145 63.4834 161.801 63.4831H154.865C154.657 63.4919 154.45 63.4586 154.255 63.3851C154.06 63.3116 153.883 63.1995 153.732 63.0555C153.582 62.9116 153.463 62.7387 153.381 62.5473C153.299 62.3559 153.257 62.15 153.257 61.9419C153.257 61.7339 153.299 61.528 153.381 61.3366C153.463 61.1452 153.582 60.9723 153.732 60.8284C153.883 60.6844 154.06 60.5723 154.255 60.4988C154.45 60.4253 154.657 60.392 154.865 60.4007H160.587L165.693 36.8039C165.777 36.4551 165.979 36.1461 166.266 35.93C166.552 35.7138 166.905 35.6038 167.263 35.6188C167.622 35.6338 167.964 35.7728 168.232 36.0122C168.499 36.2515 168.675 36.5762 168.729 36.9309L173.766 67.1865L178.056 52.227C178.145 51.9119 178.334 51.6342 178.594 51.4353C178.854 51.2363 179.172 51.1269 179.499 51.1232H179.529C179.854 51.1233 180.17 51.2258 180.433 51.4161C180.695 51.6063 180.891 51.8747 180.992 52.1828L183.728 60.409H187.476C187.742 59.5996 188.227 58.8794 188.877 58.3281C189.527 57.7769 190.317 57.4158 191.159 57.2849C192.001 57.154 192.863 57.2583 193.65 57.5863C194.437 57.9143 195.118 58.4533 195.617 59.1437C196.117 59.8341 196.416 60.6491 196.482 61.4987C196.548 62.3484 196.377 63.1997 195.989 63.9586C195.602 64.7176 195.012 65.3547 194.285 65.7996C193.558 66.2445 192.722 66.48 191.87 66.48L191.861 66.469Z" fill="#006DAA"/>
</g>
<defs>
<linearGradient id="paint0_linear" x1="98.35" y1="213.828" x2="98.35" y2="44.0229" gradientUnits="userSpaceOnUse">
<stop stop-color="#808080" stop-opacity="0.25"/>
<stop offset="0.54" stop-color="#808080" stop-opacity="0.12"/>
<stop offset="1" stop-color="#808080" stop-opacity="0.1"/>
</linearGradient>
<linearGradient id="paint1_linear" x1="61609.3" y1="128120" x2="61609.3" y2="40957.8" gradientUnits="userSpaceOnUse">
<stop stop-color="#808080" stop-opacity="0.25"/>
<stop offset="0.54" stop-color="#808080" stop-opacity="0.12"/>
<stop offset="1" stop-color="#808080" stop-opacity="0.1"/>
</linearGradient>
<clipPath id="clip0">
<rect width="305" height="216" fill="white"/>
</clipPath>
</defs>
</svg>
