<svg width="305" height="221" viewBox="0 0 305 221" fill="none" xmlns="http://www.w3.org/2000/svg">
<g clip-path="url(#clip0)">
<path d="M304.559 218.632H0.440751C0.323857 218.632 0.21175 218.585 0.129093 218.503C0.0464358 218.42 0 218.308 0 218.191C0 218.074 0.0464358 217.962 0.129093 217.879C0.21175 217.797 0.323857 217.75 0.440751 217.75H304.559C304.676 217.75 304.788 217.797 304.871 217.879C304.954 217.962 305 218.074 305 218.191C305 218.308 304.954 218.42 304.871 218.503C304.788 218.585 304.676 218.632 304.559 218.632Z" fill="#CCCCCC"/>
<path d="M274.458 141.764H95.5128C94.753 141.764 94.0243 142.066 93.4871 142.603C92.9498 143.14 92.6479 143.869 92.6479 144.629C92.6479 145.389 92.9498 146.117 93.4871 146.655C94.0243 147.192 94.753 147.494 95.5128 147.494H100.581V216.031C100.581 216.79 100.883 217.519 101.421 218.056C101.958 218.594 102.687 218.895 103.446 218.895C104.206 218.895 104.935 218.594 105.472 218.056C106.009 217.519 106.311 216.79 106.311 216.031L106.355 147.494H263.219V216.031C263.219 216.79 263.521 217.519 264.058 218.056C264.595 218.594 265.324 218.895 266.084 218.895C266.843 218.895 267.572 218.594 268.109 218.056C268.647 217.519 268.949 216.79 268.949 216.031V149.004L269.782 147.494H274.458C275.218 147.494 275.946 147.192 276.484 146.655C277.021 146.117 277.323 145.389 277.323 144.629C277.323 143.869 277.021 143.14 276.484 142.603C275.946 142.066 275.218 141.764 274.458 141.764Z" fill="#CCCCCC"/>
<path d="M194.721 143.263H140.517C139.467 143.262 138.461 142.845 137.719 142.102C136.977 141.36 136.559 140.354 136.558 139.304V109.462C136.559 108.412 136.977 107.406 137.719 106.664C138.461 105.921 139.467 105.504 140.517 105.503H194.721C195.771 105.504 196.777 105.921 197.519 106.664C198.261 107.406 198.679 108.412 198.68 109.462V139.304C198.679 140.354 198.261 141.36 197.519 142.102C196.777 142.845 195.771 143.262 194.721 143.263Z" fill="#3F3D56"/>
<path d="M194.721 108.55H140.517C140.275 108.55 140.044 108.646 139.873 108.817C139.702 108.988 139.605 109.22 139.605 109.462V139.305C139.605 139.547 139.702 139.779 139.873 139.95C140.044 140.121 140.275 140.217 140.517 140.218H194.721C194.963 140.217 195.195 140.121 195.366 139.95C195.537 139.779 195.633 139.547 195.633 139.305V109.462C195.633 109.22 195.537 108.988 195.366 108.817C195.195 108.646 194.963 108.55 194.721 108.55Z" fill="white"/>
<path d="M172.242 129.678C172.242 129.678 165.753 128.183 162.184 130.924C158.616 133.666 166.727 139.896 166.727 139.896L172.242 129.678Z" fill="#2F2E41"/>
<path d="M167.937 126.853C171.317 126.853 174.058 124.113 174.058 120.733C174.058 117.352 171.317 114.612 167.937 114.612C164.557 114.612 161.816 117.352 161.816 120.733C161.816 124.113 164.557 126.853 167.937 126.853Z" fill="#A0616A"/>
<path d="M163.204 112.14C163.612 111.448 164.204 110.881 164.914 110.503C165.624 110.126 166.424 109.952 167.227 110C168.066 110.106 168.885 110.335 169.657 110.681L173.659 112.242C174.694 112.645 175.828 113.14 176.277 114.157C176.694 115.1 176.383 116.19 176.068 117.172L174.571 121.841C174.405 120.784 174.121 119.75 173.723 118.757C173.319 117.757 172.588 116.924 171.649 116.393C170.61 115.859 169.385 115.87 168.218 115.927C166.566 116.006 164.769 116.216 163.595 117.382C162.972 118.044 162.549 118.869 162.377 119.762C162.207 120.649 162.121 121.551 162.121 122.455C161.444 121.291 160.873 120.067 160.416 118.799C160.04 117.855 159.826 116.855 159.782 115.84C159.743 114.816 160.083 113.813 160.736 113.024C161.068 112.639 161.501 112.354 161.986 112.201C162.471 112.048 162.989 112.034 163.482 112.16L163.204 112.14Z" fill="#2F2E41"/>
<path d="M182.552 134.986C182.494 134.779 182.377 134.594 182.215 134.454C182.052 134.313 181.852 134.224 181.639 134.197C181.625 134.187 181.611 134.178 181.595 134.17L172.458 129.05C172.197 128.904 171.89 128.864 171.6 128.938C171.31 129.013 171.061 129.196 170.903 129.45L168.404 133.496L164.64 129.732L164.58 129.672C164.387 129.479 164.132 129.36 163.86 129.336C163.587 129.313 163.316 129.385 163.092 129.542L155.582 134.801C155.569 134.801 155.556 134.805 155.543 134.805C155.183 134.865 154.855 135.046 154.612 135.317C154.369 135.589 154.226 135.935 154.207 136.299L154.013 140.218H184.002L182.552 134.986Z" fill="#006DAA"/>
<path d="M199.289 139.609H193.503C193.503 139.447 193.439 139.293 193.325 139.178C193.211 139.064 193.056 139 192.894 139H191.067C190.906 139 190.751 139.064 190.636 139.178C190.522 139.293 190.458 139.447 190.458 139.609H188.631C188.631 139.447 188.567 139.293 188.453 139.178C188.338 139.064 188.183 139 188.022 139H186.195C186.033 139 185.878 139.064 185.764 139.178C185.65 139.293 185.586 139.447 185.586 139.609H183.759C183.759 139.447 183.694 139.293 183.58 139.178C183.466 139.064 183.311 139 183.15 139H181.323C181.161 139 181.006 139.064 180.892 139.178C180.778 139.293 180.713 139.447 180.713 139.609H178.886C178.886 139.447 178.822 139.293 178.708 139.178C178.594 139.064 178.439 139 178.277 139H176.45C176.289 139 176.134 139.064 176.02 139.178C175.905 139.293 175.841 139.447 175.841 139.609H174.014C174.014 139.447 173.95 139.293 173.836 139.178C173.721 139.064 173.567 139 173.405 139H171.578C171.416 139 171.261 139.064 171.147 139.178C171.033 139.293 170.969 139.447 170.969 139.609H169.142C169.142 139.447 169.078 139.293 168.963 139.178C168.849 139.064 168.694 139 168.533 139H166.706C166.544 139 166.389 139.064 166.275 139.178C166.161 139.293 166.097 139.447 166.097 139.609H164.269C164.269 139.447 164.205 139.293 164.091 139.178C163.977 139.064 163.822 139 163.66 139H161.833C161.672 139 161.517 139.064 161.403 139.178C161.288 139.293 161.224 139.447 161.224 139.609H159.397C159.397 139.447 159.333 139.293 159.219 139.178C159.105 139.064 158.95 139 158.788 139H156.961C156.799 139 156.645 139.064 156.53 139.178C156.416 139.293 156.352 139.447 156.352 139.609H154.525C154.525 139.447 154.461 139.293 154.346 139.178C154.232 139.064 154.077 139 153.916 139H152.089C151.927 139 151.772 139.064 151.658 139.178C151.544 139.293 151.48 139.447 151.48 139.609H149.653C149.653 139.447 149.588 139.293 149.474 139.178C149.36 139.064 149.205 139 149.043 139H147.216C147.055 139 146.9 139.064 146.786 139.178C146.672 139.293 146.607 139.447 146.607 139.609H144.78C144.78 139.447 144.716 139.293 144.602 139.178C144.488 139.064 144.333 139 144.171 139H142.344C142.183 139 142.028 139.064 141.913 139.178C141.799 139.293 141.735 139.447 141.735 139.609H135.949C135.465 139.61 135.001 139.803 134.659 140.145C134.317 140.488 134.125 140.952 134.125 141.436C134.125 141.92 134.317 142.385 134.659 142.727C135.001 143.07 135.465 143.262 135.949 143.263H199.289C199.774 143.263 200.238 143.071 200.581 142.728C200.924 142.385 201.116 141.921 201.116 141.436C201.116 140.952 200.924 140.487 200.581 140.144C200.238 139.801 199.774 139.609 199.289 139.609Z" fill="#3F3D56"/>
<path d="M126.53 128.998V141.13H96.1353C95.3209 141.159 94.5092 141.023 93.7485 140.731C92.9878 140.439 92.2937 139.996 91.7076 139.43C91.1214 138.864 90.6553 138.186 90.3369 137.436C90.0186 136.686 89.8545 135.879 89.8545 135.064C89.8545 134.25 90.0186 133.443 90.3369 132.693C90.6553 131.943 91.1214 131.265 91.7076 130.698C92.2937 130.132 92.9878 129.69 93.7485 129.398C94.5092 129.106 95.3209 128.97 96.1353 128.998H126.53Z" fill="#F2F2F2"/>
<path d="M127.277 141.037C127.277 141.161 127.228 141.279 127.14 141.367C127.053 141.454 126.934 141.504 126.81 141.504H95.5939C93.8985 141.504 92.2725 140.83 91.0737 139.631C89.8748 138.432 89.2013 136.806 89.2013 135.111C89.2013 133.416 89.8748 131.79 91.0737 130.591C92.2725 129.392 93.8985 128.718 95.5939 128.718H126.81C126.934 128.718 127.053 128.768 127.14 128.855C127.228 128.943 127.277 129.061 127.277 129.185C127.277 129.309 127.228 129.427 127.14 129.515C127.053 129.602 126.934 129.652 126.81 129.652H95.5939C94.1469 129.653 92.7595 130.229 91.7367 131.252C90.7139 132.276 90.1394 133.664 90.1394 135.111C90.1394 136.558 90.7139 137.946 91.7367 138.97C92.7595 139.993 94.1469 140.569 95.5939 140.57H126.81C126.934 140.57 127.053 140.62 127.14 140.707C127.228 140.795 127.277 140.913 127.277 141.037Z" fill="#36ADEF"/>
<path d="M126.53 131.798H93.8674C93.8551 131.798 93.8429 131.796 93.8315 131.791C93.8201 131.786 93.8097 131.78 93.801 131.771C93.7923 131.762 93.7853 131.752 93.7806 131.741C93.7759 131.729 93.7734 131.717 93.7734 131.705C93.7734 131.692 93.7759 131.68 93.7806 131.669C93.7853 131.658 93.7923 131.647 93.801 131.639C93.8097 131.63 93.8201 131.623 93.8315 131.618C93.8429 131.614 93.8551 131.611 93.8674 131.611H126.53C126.555 131.612 126.579 131.621 126.596 131.639C126.613 131.656 126.623 131.68 126.623 131.705C126.623 131.729 126.613 131.753 126.596 131.771C126.579 131.788 126.555 131.798 126.53 131.798Z" fill="#CCCCCC"/>
<path d="M126.53 134.038H93.8674C93.8551 134.038 93.8429 134.036 93.8315 134.031C93.8201 134.026 93.8097 134.019 93.801 134.011C93.7923 134.002 93.7853 133.992 93.7806 133.98C93.7759 133.969 93.7734 133.957 93.7734 133.945C93.7734 133.932 93.7759 133.92 93.7806 133.909C93.7853 133.897 93.7923 133.887 93.801 133.878C93.8097 133.87 93.8201 133.863 93.8315 133.858C93.8429 133.853 93.8551 133.851 93.8674 133.851H126.53C126.555 133.851 126.579 133.861 126.596 133.879C126.613 133.896 126.623 133.92 126.623 133.945C126.623 133.969 126.613 133.993 126.596 134.01C126.579 134.028 126.555 134.038 126.53 134.038Z" fill="#CCCCCC"/>
<path d="M126.53 136.278H93.8674C93.8551 136.278 93.8429 136.275 93.8315 136.271C93.8201 136.266 93.8097 136.259 93.801 136.25C93.7923 136.242 93.7853 136.232 93.7806 136.22C93.7759 136.209 93.7734 136.197 93.7734 136.184C93.7734 136.172 93.7759 136.16 93.7806 136.148C93.7853 136.137 93.7923 136.127 93.801 136.118C93.8097 136.109 93.8201 136.103 93.8315 136.098C93.8429 136.093 93.8551 136.091 93.8674 136.091H126.53C126.555 136.091 126.579 136.101 126.596 136.119C126.613 136.136 126.623 136.16 126.623 136.184C126.623 136.209 126.613 136.233 126.596 136.25C126.579 136.268 126.555 136.277 126.53 136.278Z" fill="#CCCCCC"/>
<path d="M126.53 138.517H93.8674C93.8551 138.517 93.8429 138.515 93.8315 138.51C93.8201 138.506 93.8097 138.499 93.801 138.49C93.7923 138.482 93.7853 138.471 93.7806 138.46C93.7759 138.448 93.7734 138.436 93.7734 138.424C93.7734 138.412 93.7759 138.4 93.7806 138.388C93.7853 138.377 93.7923 138.366 93.801 138.358C93.8097 138.349 93.8201 138.342 93.8315 138.338C93.8429 138.333 93.8551 138.331 93.8674 138.331H126.53C126.555 138.331 126.579 138.341 126.596 138.358C126.613 138.376 126.623 138.399 126.623 138.424C126.623 138.449 126.613 138.472 126.596 138.49C126.579 138.507 126.555 138.517 126.53 138.517Z" fill="#CCCCCC"/>
<path d="M120.801 116.217V128.349H90.4055C89.5912 128.377 88.7794 128.241 88.0187 127.949C87.258 127.657 86.5639 127.215 85.9778 126.648C85.3917 126.082 84.9256 125.404 84.6072 124.654C84.2888 123.904 84.1248 123.097 84.1248 122.283C84.1248 121.468 84.2888 120.661 84.6072 119.911C84.9256 119.161 85.3917 118.483 85.9778 117.917C86.5639 117.351 87.258 116.908 88.0187 116.616C88.7794 116.324 89.5912 116.188 90.4055 116.217H120.801Z" fill="#F2F2F2"/>
<path d="M121.547 128.255C121.547 128.379 121.498 128.498 121.411 128.585C121.323 128.673 121.204 128.722 121.081 128.722H89.8642C89.0247 128.722 88.1934 128.557 87.4178 128.235C86.6422 127.914 85.9375 127.443 85.3439 126.85C84.7503 126.256 84.2794 125.551 83.9582 124.776C83.6369 124 83.4716 123.169 83.4716 122.329C83.4716 121.49 83.6369 120.658 83.9582 119.883C84.2794 119.107 84.7503 118.403 85.3439 117.809C85.9375 117.215 86.6422 116.744 87.4178 116.423C88.1934 116.102 89.0247 115.937 89.8642 115.937H121.081C121.205 115.937 121.323 115.986 121.411 116.073C121.498 116.161 121.547 116.279 121.547 116.403C121.547 116.527 121.498 116.646 121.411 116.733C121.323 116.821 121.205 116.87 121.081 116.87H89.8642C88.4171 116.871 87.0298 117.447 86.007 118.471C84.9842 119.494 84.4097 120.882 84.4097 122.329C84.4097 123.776 84.9842 125.164 86.007 126.188C87.0298 127.212 88.4171 127.787 89.8642 127.789H121.081C121.204 127.789 121.323 127.838 121.411 127.925C121.498 128.013 121.547 128.132 121.547 128.255Z" fill="#3F3D56"/>
<path d="M120.801 119.016H88.1377C88.1254 119.016 88.1132 119.014 88.1018 119.009C88.0904 119.005 88.08 118.998 88.0713 118.989C88.0625 118.98 88.0556 118.97 88.0509 118.959C88.0461 118.947 88.0437 118.935 88.0437 118.923C88.0437 118.911 88.0461 118.898 88.0509 118.887C88.0556 118.876 88.0625 118.865 88.0713 118.857C88.08 118.848 88.0904 118.841 88.1018 118.837C88.1132 118.832 88.1254 118.83 88.1377 118.83H120.801C120.825 118.83 120.849 118.84 120.866 118.857C120.884 118.875 120.893 118.898 120.893 118.923C120.893 118.948 120.884 118.971 120.866 118.989C120.849 119.006 120.825 119.016 120.801 119.016Z" fill="#CCCCCC"/>
<path d="M120.801 121.256H88.1377C88.1254 121.256 88.1132 121.254 88.1018 121.249C88.0904 121.244 88.08 121.238 88.0713 121.229C88.0625 121.22 88.0556 121.21 88.0509 121.199C88.0461 121.187 88.0437 121.175 88.0437 121.163C88.0437 121.15 88.0461 121.138 88.0509 121.127C88.0556 121.115 88.0625 121.105 88.0713 121.097C88.08 121.088 88.0904 121.081 88.1018 121.076C88.1132 121.072 88.1254 121.069 88.1377 121.069H120.801C120.825 121.07 120.849 121.079 120.866 121.097C120.884 121.114 120.893 121.138 120.893 121.163C120.893 121.187 120.884 121.211 120.866 121.228C120.849 121.246 120.825 121.256 120.801 121.256Z" fill="#CCCCCC"/>
<path d="M120.801 123.496H88.1377C88.1254 123.496 88.1132 123.494 88.1018 123.489C88.0904 123.484 88.08 123.477 88.0713 123.469C88.0625 123.46 88.0556 123.45 88.0509 123.438C88.0461 123.427 88.0437 123.415 88.0437 123.402C88.0437 123.39 88.0461 123.378 88.0509 123.367C88.0556 123.355 88.0625 123.345 88.0713 123.336C88.08 123.328 88.0904 123.321 88.1018 123.316C88.1132 123.311 88.1254 123.309 88.1377 123.309H120.801C120.825 123.309 120.849 123.319 120.866 123.337C120.884 123.354 120.893 123.378 120.893 123.402C120.893 123.427 120.884 123.451 120.866 123.468C120.849 123.486 120.825 123.496 120.801 123.496Z" fill="#CCCCCC"/>
<path d="M120.801 125.736H88.1377C88.1254 125.736 88.1132 125.733 88.1018 125.729C88.0904 125.724 88.08 125.717 88.0713 125.708C88.0625 125.7 88.0556 125.689 88.0509 125.678C88.0461 125.667 88.0437 125.655 88.0437 125.642C88.0437 125.63 88.0461 125.618 88.0509 125.606C88.0556 125.595 88.0625 125.585 88.0713 125.576C88.08 125.567 88.0904 125.56 88.1018 125.556C88.1132 125.551 88.1254 125.549 88.1377 125.549H120.801C120.825 125.549 120.849 125.559 120.866 125.576C120.884 125.594 120.893 125.618 120.893 125.642C120.893 125.667 120.884 125.69 120.866 125.708C120.849 125.725 120.825 125.735 120.801 125.736Z" fill="#CCCCCC"/>
<path d="M156.16 184.253V173.675C156.16 173.207 155.974 172.759 155.643 172.428C155.313 172.098 154.864 171.912 154.397 171.912H114.288C113.821 171.912 113.372 172.098 113.042 172.428C112.711 172.759 112.525 173.207 112.525 173.675V184.253H156.16Z" fill="#CCCCCC"/>
<path d="M156.16 188.22H112.525V201.883H156.16V188.22Z" fill="#CCCCCC"/>
<path d="M112.525 205.85V216.428C112.525 216.896 112.711 217.344 113.042 217.675C113.372 218.005 113.821 218.191 114.288 218.191H154.397C154.864 218.191 155.313 218.005 155.643 217.675C155.974 217.344 156.16 216.896 156.16 216.428V205.85H112.525Z" fill="#CCCCCC"/>
<path d="M134.122 179.846C134.852 179.846 135.444 179.254 135.444 178.523C135.444 177.793 134.852 177.201 134.122 177.201C133.392 177.201 132.8 177.793 132.8 178.523C132.8 179.254 133.392 179.846 134.122 179.846Z" fill="white"/>
<path d="M134.122 197.476C134.852 197.476 135.444 196.884 135.444 196.153C135.444 195.423 134.852 194.831 134.122 194.831C133.392 194.831 132.8 195.423 132.8 196.153C132.8 196.884 133.392 197.476 134.122 197.476Z" fill="white"/>
<path d="M134.193 214.732C134.923 214.732 135.515 214.14 135.515 213.41C135.515 212.68 134.923 212.088 134.193 212.088C133.463 212.088 132.871 212.68 132.871 213.41C132.871 214.14 133.463 214.732 134.193 214.732Z" fill="white"/>
<path d="M151.213 159.851V171.983H120.817C120.003 172.011 119.191 171.875 118.431 171.583C117.67 171.291 116.976 170.849 116.39 170.283C115.804 169.717 115.337 169.039 115.019 168.288C114.701 167.538 114.537 166.732 114.537 165.917C114.537 165.102 114.701 164.296 115.019 163.546C115.337 162.795 115.804 162.117 116.39 161.551C116.976 160.985 117.67 160.543 118.431 160.251C119.191 159.959 120.003 159.823 120.817 159.851H151.213Z" fill="#F2F2F2"/>
<path d="M151.959 171.89C151.959 172.013 151.91 172.132 151.822 172.22C151.735 172.307 151.616 172.356 151.493 172.356H120.276C119.436 172.357 118.604 172.192 117.828 171.871C117.052 171.55 116.346 171.079 115.752 170.486C115.158 169.892 114.687 169.187 114.365 168.411C114.044 167.635 113.878 166.804 113.878 165.964C113.878 165.124 114.044 164.292 114.365 163.516C114.687 162.74 115.158 162.035 115.752 161.441C116.346 160.848 117.052 160.377 117.828 160.056C118.604 159.735 119.436 159.57 120.276 159.571H151.493C151.616 159.571 151.735 159.62 151.822 159.708C151.91 159.795 151.959 159.914 151.959 160.038C151.959 160.161 151.91 160.28 151.822 160.368C151.735 160.455 151.616 160.504 151.493 160.504H120.276C118.829 160.506 117.442 161.081 116.419 162.105C115.396 163.129 114.821 164.517 114.821 165.964C114.821 167.411 115.396 168.799 116.419 169.822C117.442 170.846 118.829 171.422 120.276 171.423H151.493C151.616 171.423 151.735 171.472 151.822 171.56C151.91 171.647 151.959 171.766 151.959 171.89Z" fill="#3F3D56"/>
<path d="M151.213 162.651H118.55C118.537 162.651 118.525 162.648 118.514 162.644C118.502 162.639 118.492 162.632 118.483 162.624C118.474 162.615 118.467 162.605 118.463 162.593C118.458 162.582 118.456 162.57 118.456 162.557C118.456 162.545 118.458 162.533 118.463 162.521C118.467 162.51 118.474 162.5 118.483 162.491C118.492 162.482 118.502 162.476 118.514 162.471C118.525 162.466 118.537 162.464 118.55 162.464H151.213C151.237 162.464 151.261 162.474 151.278 162.492C151.296 162.509 151.305 162.533 151.305 162.557C151.305 162.582 151.296 162.606 151.278 162.623C151.261 162.641 151.237 162.65 151.213 162.651Z" fill="#CCCCCC"/>
<path d="M151.213 164.89H118.55C118.537 164.891 118.525 164.888 118.514 164.884C118.502 164.879 118.492 164.872 118.483 164.863C118.474 164.855 118.467 164.844 118.463 164.833C118.458 164.822 118.456 164.809 118.456 164.797C118.456 164.785 118.458 164.773 118.463 164.761C118.467 164.75 118.474 164.74 118.483 164.731C118.492 164.722 118.502 164.715 118.514 164.711C118.525 164.706 118.537 164.704 118.55 164.704H151.213C151.237 164.704 151.261 164.714 151.278 164.731C151.296 164.749 151.305 164.772 151.305 164.797C151.305 164.822 151.296 164.845 151.278 164.863C151.261 164.88 151.237 164.89 151.213 164.89Z" fill="#CCCCCC"/>
<path d="M151.213 167.13H118.55C118.537 167.13 118.525 167.128 118.514 167.123C118.502 167.119 118.492 167.112 118.483 167.103C118.474 167.094 118.467 167.084 118.463 167.073C118.458 167.061 118.456 167.049 118.456 167.037C118.456 167.025 118.458 167.012 118.463 167.001C118.467 166.99 118.474 166.979 118.483 166.971C118.492 166.962 118.502 166.955 118.514 166.95C118.525 166.946 118.537 166.943 118.55 166.944H151.213C151.237 166.944 151.261 166.954 151.278 166.971C151.296 166.989 151.305 167.012 151.305 167.037C151.305 167.061 151.296 167.085 151.278 167.103C151.261 167.12 151.237 167.13 151.213 167.13Z" fill="#CCCCCC"/>
<path d="M151.213 169.37H118.55C118.537 169.37 118.525 169.368 118.514 169.363C118.502 169.358 118.492 169.351 118.483 169.343C118.474 169.334 118.467 169.324 118.463 169.312C118.458 169.301 118.456 169.289 118.456 169.277C118.456 169.264 118.458 169.252 118.463 169.241C118.467 169.229 118.474 169.219 118.483 169.21C118.492 169.202 118.502 169.195 118.514 169.19C118.525 169.186 118.537 169.183 118.55 169.183H151.213C151.237 169.183 151.261 169.193 151.278 169.211C151.296 169.228 151.305 169.252 151.305 169.277C151.305 169.301 151.296 169.325 151.278 169.342C151.261 169.36 151.237 169.37 151.213 169.37Z" fill="#CCCCCC"/>
<path d="M110.236 80.6669V3.31508C110.237 2.43617 110.587 1.59355 111.209 0.972065C111.83 0.350584 112.673 0.0009921 113.552 -7.62939e-06H174.696C175.575 0.00099792 176.418 0.350592 177.039 0.972072C177.661 1.59355 178.01 2.43617 178.011 3.31508V80.6669C178.01 81.5459 177.661 82.3885 177.039 83.01C176.418 83.6314 175.575 83.981 174.696 83.982H113.552C112.673 83.981 111.83 83.6314 111.209 83.01C110.587 82.3885 110.237 81.5459 110.236 80.6669ZM113.552 0.736679C112.868 0.737444 112.213 1.00934 111.729 1.49272C111.246 1.9761 110.974 2.63148 110.973 3.31508V80.6669C110.974 81.3505 111.246 82.0059 111.729 82.4893C112.213 82.9727 112.868 83.2446 113.552 83.2453H174.696C175.38 83.2446 176.035 82.9727 176.519 82.4893C177.002 82.0059 177.274 81.3505 177.275 80.6669V3.31508C177.274 2.63148 177.002 1.9761 176.519 1.49272C176.035 1.00934 175.38 0.737445 174.696 0.736679H113.552Z" fill="#E6E6E6"/>
<path d="M147.553 35.5236V19.6408C147.553 19.2013 147.728 18.78 148.039 18.4693C148.349 18.1585 148.771 17.9837 149.21 17.9832H162.669C163.109 17.9837 163.53 18.1585 163.841 18.4693C164.152 18.78 164.327 19.2013 164.327 19.6408V35.5236C164.327 35.963 164.152 36.3843 163.841 36.6951C163.53 37.0058 163.109 37.1806 162.669 37.1811H149.21C148.771 37.1806 148.349 37.0058 148.039 36.6951C147.728 36.3843 147.553 35.963 147.553 35.5236Z" fill="#006DAA"/>
<path d="M121.401 42.8904V27.0076C121.401 26.5682 121.576 26.1469 121.887 25.8361C122.197 25.5254 122.619 25.3506 123.058 25.3501H136.517C136.957 25.3506 137.378 25.5254 137.689 25.8361C138 26.1469 138.174 26.5682 138.175 27.0076V42.8904C138.174 43.3299 138 43.7512 137.689 44.0619C137.378 44.3727 136.957 44.5475 136.517 44.548H123.058C122.619 44.5475 122.197 44.3727 121.887 44.0619C121.576 43.7512 121.401 43.3299 121.401 42.8904Z" fill="#CCCCCC"/>
<path d="M142.396 65.3593V49.4765C142.396 49.037 142.571 48.6157 142.882 48.305C143.193 47.9942 143.614 47.8194 144.054 47.819H157.513C157.952 47.8194 158.374 47.9942 158.684 48.305C158.995 48.6157 159.17 49.037 159.17 49.4765V65.3593C159.17 65.7987 158.995 66.2201 158.684 66.5308C158.374 66.8416 157.952 67.0163 157.513 67.0168H144.054C143.614 67.0163 143.193 66.8416 142.882 66.5308C142.571 66.2201 142.396 65.7987 142.396 65.3593Z" fill="#FF6584"/>
<path d="M222.828 137.974H208.979C208.848 137.974 208.718 138.004 208.6 138.062L205.105 139.812C204.99 139.861 204.892 139.943 204.823 140.047C204.754 140.151 204.717 140.273 204.717 140.398C204.717 140.523 204.754 140.646 204.823 140.75C204.892 140.854 204.99 140.936 205.105 140.985L208.6 142.734C208.718 142.792 208.848 142.823 208.979 142.822H222.828C223.018 142.834 223.206 142.769 223.349 142.643C223.493 142.516 223.581 142.339 223.595 142.148V138.649C223.581 138.458 223.493 138.28 223.349 138.154C223.206 138.028 223.018 137.963 222.828 137.974Z" fill="#3F3D56"/>
<path d="M223.595 138.649V142.148C223.581 142.339 223.493 142.516 223.35 142.643C223.206 142.769 223.018 142.833 222.828 142.822H220.069V137.974H222.828C223.018 137.963 223.206 138.028 223.35 138.154C223.493 138.28 223.581 138.458 223.595 138.649Z" fill="#006DAA"/>
<path d="M222.723 111.793C223.351 111.523 224.028 111.388 224.711 111.397C225.394 111.406 226.068 111.56 226.687 111.848C227.307 112.135 227.859 112.551 228.307 113.067C228.755 113.583 229.089 114.187 229.286 114.841C229.348 115.048 229.395 115.26 229.428 115.474L248.793 125.077L253.275 122.107L258.851 128.526L252.008 134.084C251.185 134.747 250.17 135.127 249.114 135.168C248.058 135.209 247.017 134.908 246.146 134.31L226.497 120.723C226.351 120.785 226.202 120.839 226.05 120.886C225.396 121.084 224.708 121.141 224.03 121.054C223.352 120.967 222.7 120.738 222.117 120.382C221.534 120.026 221.033 119.55 220.647 118.987C220.26 118.424 219.997 117.785 219.875 117.113C219.839 116.918 219.815 116.72 219.803 116.522C219.749 115.53 219.999 114.545 220.521 113.7C221.044 112.854 221.812 112.189 222.723 111.793Z" fill="#FFB8B8"/>
<path d="M263.059 170.92H241.898C241.898 171.528 220.09 172.022 220.09 172.022C219.748 172.279 219.436 172.575 219.16 172.903C218.332 173.891 217.879 175.14 217.882 176.429V177.311C217.882 178.772 218.463 180.173 219.496 181.206C220.529 182.239 221.93 182.819 223.391 182.82H263.059C264.519 182.819 265.92 182.238 266.953 181.205C267.986 180.172 268.567 178.771 268.568 177.311V176.429C268.566 174.969 267.985 173.568 266.952 172.536C265.919 171.503 264.519 170.922 263.059 170.92Z" fill="#3F3D56"/>
<path d="M240.041 219.624H245.771V182.601H240.041V219.624Z" fill="#3F3D56"/>
<path d="M223.733 219.423C223.733 220.042 232.416 219.662 243.126 219.662C253.837 219.662 262.519 220.042 262.519 219.423C262.519 218.804 253.837 213.894 243.126 213.894C232.416 213.894 223.733 218.804 223.733 219.423Z" fill="#3F3D56"/>
<path d="M228.906 215.084L223.502 215.083L220.932 201.069L228.906 201.069L228.906 215.084Z" fill="#FFB8B8"/>
<path d="M230.284 220.321L212.861 220.321V220.1C212.861 219.21 213.036 218.328 213.377 217.505C213.718 216.682 214.217 215.935 214.847 215.305C215.477 214.675 216.224 214.176 217.047 213.835C217.87 213.494 218.752 213.319 219.642 213.319H219.643L230.284 213.319L230.284 220.321Z" fill="#2F2E41"/>
<path d="M220.824 206.393L210.051 182.236C209.152 180.2 209.053 177.9 209.773 175.794C210.493 173.688 211.98 171.931 213.938 170.872L237.304 158.342L247.966 157.435L257.802 156.541L257.872 156.662C257.963 156.815 260.078 160.467 258.648 164.472C257.564 167.51 254.744 169.883 250.266 171.525C239.814 175.358 227.739 178.633 223.033 179.863C222.825 179.917 222.631 180.013 222.463 180.147C222.295 180.281 222.157 180.448 222.059 180.639C221.96 180.828 221.901 181.034 221.886 181.247C221.872 181.459 221.901 181.672 221.972 181.873L231.98 204.357C232.085 204.643 232.122 204.948 232.09 205.25C232.058 205.552 231.957 205.843 231.795 206.099C231.633 206.356 231.414 206.572 231.155 206.731C230.896 206.89 230.604 206.987 230.301 207.015L222.823 207.559C222.76 207.565 222.697 207.568 222.634 207.568C222.251 207.568 221.876 207.457 221.555 207.249C221.234 207.04 220.98 206.743 220.824 206.393Z" fill="#2F2E41"/>
<path d="M231.55 215.084L226.147 215.083L223.576 201.069L231.551 201.069L231.55 215.084Z" fill="#FFB8B8"/>
<path d="M232.928 220.321L215.505 220.321V220.1C215.505 219.21 215.681 218.328 216.021 217.505C216.362 216.682 216.862 215.935 217.491 215.305C218.121 214.675 218.869 214.176 219.692 213.835C220.514 213.494 221.396 213.319 222.287 213.319H222.287L232.929 213.319L232.928 220.321Z" fill="#2F2E41"/>
<path d="M223.909 207.715L213.137 183.559C212.237 181.523 212.138 179.222 212.858 177.116C213.579 175.01 215.066 173.253 217.024 172.194L240.389 159.665L251.052 158.758L260.887 157.864L260.958 157.984C261.048 158.137 263.163 161.79 261.734 165.795C260.649 168.833 257.829 171.205 253.351 172.848C242.899 176.68 230.825 179.956 226.119 181.186C225.911 181.239 225.716 181.335 225.548 181.469C225.38 181.603 225.243 181.771 225.144 181.961C225.045 182.15 224.987 182.357 224.972 182.569C224.957 182.781 224.986 182.994 225.058 183.195L235.066 205.68C235.17 205.965 235.208 206.27 235.176 206.572C235.143 206.874 235.042 207.165 234.88 207.422C234.718 207.678 234.499 207.894 234.24 208.053C233.981 208.212 233.689 208.309 233.387 208.337L225.909 208.882C225.845 208.888 225.782 208.891 225.719 208.891C225.336 208.89 224.961 208.779 224.64 208.571C224.319 208.362 224.065 208.065 223.909 207.715Z" fill="#2F2E41"/>
<path d="M218.54 133.92C214.013 127.899 210.435 121.22 207.928 114.116C207.783 113.691 207.794 113.228 207.958 112.81C208.122 112.392 208.429 112.046 208.824 111.833L224.314 103.533C224.565 103.398 224.843 103.322 225.128 103.31C225.412 103.298 225.696 103.352 225.956 103.467C226.222 103.582 226.458 103.756 226.646 103.977C226.834 104.197 226.969 104.457 227.041 104.738C228.844 111.583 232.233 117.908 236.934 123.201C237.128 123.416 237.269 123.673 237.349 123.952C237.428 124.23 237.443 124.523 237.392 124.808C237.343 125.089 237.23 125.354 237.063 125.585C236.896 125.816 236.678 126.005 236.427 126.139L220.936 134.439C220.54 134.65 220.082 134.714 219.643 134.619C219.204 134.524 218.813 134.276 218.54 133.92Z" fill="#CCCCCC"/>
<path d="M219.597 133.125C219.68 133.229 219.797 133.301 219.928 133.328C220.058 133.355 220.194 133.336 220.312 133.273L235.802 124.973C235.877 124.934 235.942 124.878 235.992 124.809C236.042 124.74 236.076 124.661 236.09 124.578C236.106 124.489 236.101 124.398 236.077 124.312C236.052 124.226 236.007 124.147 235.946 124.08C231.107 118.632 227.618 112.12 225.762 105.073C225.741 104.986 225.699 104.905 225.641 104.837C225.583 104.768 225.51 104.714 225.428 104.679C225.35 104.644 225.266 104.628 225.181 104.631C225.096 104.635 225.013 104.658 224.939 104.699L209.449 112.999C209.331 113.062 209.24 113.165 209.19 113.288C209.14 113.412 209.135 113.549 209.175 113.676C211.637 120.653 215.151 127.212 219.597 133.125Z" fill="white"/>
<path d="M270.001 131.706L257.87 136.316L254.908 128.088C254.514 126.996 254.52 125.8 254.923 124.711C255.327 123.622 256.102 122.711 257.112 122.138C258.134 121.559 259.33 121.365 260.482 121.59C261.635 121.815 262.669 122.445 263.399 123.366L270.001 131.706Z" fill="#36ADEF"/>
<path d="M239.144 164.304C238.889 164.123 238.675 163.89 238.516 163.621C238.358 163.351 238.259 163.051 238.226 162.74C236.672 148.235 237.754 136.883 241.534 128.037C242.2 126.511 243.203 125.156 244.467 124.074C245.732 122.991 247.226 122.21 248.836 121.787L258.642 121.292L258.693 121.317C260.906 122.401 262.711 124.169 263.84 126.359C264.969 128.55 265.362 131.045 264.96 133.477C261.806 141.791 259.165 150.447 261.179 157.43C261.264 157.722 261.288 158.028 261.252 158.329C261.215 158.631 261.118 158.922 260.966 159.185C260.819 159.44 260.621 159.661 260.385 159.836C260.149 160.011 259.879 160.136 259.593 160.203L240.914 164.646C240.612 164.718 240.298 164.725 239.992 164.666C239.687 164.607 239.398 164.483 239.144 164.304Z" fill="#006DAA"/>
<path d="M255.37 117.63C261.348 117.63 266.195 112.783 266.195 106.804C266.195 100.826 261.348 95.979 255.37 95.979C249.391 95.979 244.544 100.826 244.544 106.804C244.544 112.783 249.391 117.63 255.37 117.63Z" fill="#FFB8B8"/>
<path d="M225.331 115.378L216.895 119.102C216.574 119.244 216.21 119.252 215.883 119.125C215.556 118.998 215.293 118.747 215.151 118.427L214.942 117.954C214.801 117.633 214.793 117.269 214.92 116.943C215.046 116.616 215.297 116.352 215.618 116.21L224.055 112.486C224.375 112.345 224.739 112.337 225.066 112.464C225.393 112.59 225.656 112.841 225.798 113.162L226.007 113.635C226.148 113.956 226.156 114.319 226.03 114.646C225.903 114.973 225.652 115.236 225.331 115.378Z" fill="#CCCCCC"/>
<path d="M228.417 121.108L219.98 124.832C219.659 124.973 219.295 124.982 218.968 124.855C218.641 124.728 218.378 124.477 218.236 124.156L218.028 123.684C217.886 123.363 217.878 122.999 218.005 122.672C218.132 122.345 218.383 122.082 218.703 121.94L227.14 118.216C227.461 118.075 227.825 118.067 228.151 118.193C228.478 118.32 228.742 118.571 228.884 118.892L229.092 119.364C229.233 119.685 229.242 120.049 229.115 120.376C228.988 120.703 228.737 120.966 228.417 121.108Z" fill="#CCCCCC"/>
<path d="M234.923 143.488L216.114 128.65C215.964 128.702 215.812 128.747 215.657 128.785C214.994 128.94 214.304 128.954 213.635 128.825C212.965 128.697 212.33 128.429 211.771 128.039C211.208 127.649 210.735 127.143 210.383 126.555C210.031 125.967 209.809 125.311 209.732 124.631C209.606 123.543 209.851 122.444 210.428 121.513C211.004 120.582 211.879 119.873 212.909 119.501C213.552 119.27 214.237 119.178 214.918 119.23C215.599 119.283 216.262 119.478 216.862 119.804C217.462 120.131 217.987 120.58 218.401 121.123C218.816 121.666 219.111 122.29 219.268 122.955C219.316 123.166 219.35 123.38 219.369 123.595L238.092 134.397L242.752 131.714L247.913 138.472L240.679 143.628C239.832 144.227 238.814 144.537 237.778 144.512C236.741 144.486 235.74 144.127 234.923 143.488Z" fill="#FFB8B8"/>
<path d="M250.208 140.576L239.477 133.279L244.52 126.136C245.19 125.187 246.173 124.506 247.297 124.212C248.42 123.919 249.611 124.032 250.659 124.531C251.719 125.037 252.564 125.904 253.04 126.978C253.517 128.052 253.594 129.26 253.257 130.386L250.208 140.576Z" fill="#006DAA"/>
<path d="M251.401 105.192C248.619 107.096 244.965 109.054 242.123 107.026C240.258 105.694 239.67 103.229 240.426 101.065C241.787 97.1735 245.526 95.4604 249.101 94.1473C253.748 92.4402 258.808 91.0822 263.606 92.3047C268.404 93.5272 272.644 98.1724 271.778 103.047C271.081 106.967 267.384 110.229 267.909 114.176C268.437 118.148 272.904 120.239 276.848 120.949C280.791 121.659 285.205 121.887 288.039 124.719C291.654 128.333 290.751 134.792 287.349 138.607C283.947 142.423 278.813 144.152 273.839 145.328C267.247 146.885 260.118 147.704 253.858 145.119C247.598 142.534 242.727 135.575 244.54 129.049C245.306 126.293 247.111 123.963 248.855 121.695C250.599 119.428 252.364 117.056 253.03 114.274C253.584 111.955 253.174 109.263 251.636 107.524C251.356 107.219 251.18 106.834 251.133 106.423C251.086 106.013 251.171 105.598 251.374 105.238L251.401 105.192Z" fill="#2F2E41"/>
<path d="M48.0738 157.788C45.2843 158.769 42.2893 159.014 39.3774 158.502C36.4654 157.989 33.7347 156.734 31.4481 154.86C25.6249 149.972 23.7992 141.92 22.3136 134.464C20.849 127.113 19.3843 119.762 17.9197 112.411L27.1189 118.745C33.7344 123.3 40.499 128.001 45.0795 134.599C49.6601 141.197 51.6595 150.204 47.9792 157.343" fill="#E6E6E6"/>
<path d="M47.2874 184.488C48.2185 177.706 49.1759 170.837 48.5228 163.982C47.9428 157.895 46.0855 151.949 42.3043 147.073C40.2972 144.49 37.855 142.277 35.0875 140.534C34.3658 140.078 33.7016 141.222 34.4201 141.675C39.2088 144.702 42.9126 149.171 44.9977 154.438C47.3005 160.295 47.6704 166.68 47.2735 172.903C47.0335 176.665 46.5249 180.404 46.0124 184.137C45.972 184.306 45.9972 184.484 46.0829 184.635C46.1686 184.786 46.3084 184.898 46.4741 184.95C46.6432 184.996 46.8234 184.973 46.9756 184.886C47.1279 184.8 47.2399 184.657 47.2874 184.488H47.2874Z" fill="#F2F2F2"/>
<path d="M38.3195 172.487C37.1231 174.306 35.4786 175.785 33.5445 176.783C31.6103 177.782 29.4517 178.265 27.2765 178.187C21.6864 177.922 17.0261 174.02 12.8308 170.316L0.422241 159.36L8.63468 158.967C14.5406 158.684 20.5988 158.421 26.224 160.242C31.8492 162.063 37.037 166.446 38.0656 172.269" fill="#E6E6E6"/>
<path d="M49.9186 188.387C45.4372 180.457 40.2391 171.645 30.951 168.828C28.3684 168.047 25.6605 167.768 22.9729 168.004C22.1259 168.077 22.3374 169.383 23.1829 169.31C27.6878 168.936 32.1841 170.125 35.9147 172.678C39.5045 175.122 42.2996 178.519 44.6654 182.121C46.1145 184.328 47.4125 186.628 48.7108 188.926C49.1257 189.66 50.3384 189.13 49.9186 188.387Z" fill="#F2F2F2"/>
<path d="M57.0993 196.734C56.9483 194.984 56.3201 193.309 55.2832 191.892C54.2462 190.475 52.8403 189.369 51.2184 188.696V184.111H43.5296V188.84C41.9876 189.547 40.6605 190.65 39.6837 192.036C38.7068 193.423 38.1152 195.044 37.969 196.734L36.161 217.75H58.9073L57.0993 196.734Z" fill="#F2F2F2"/>
</g>
<defs>
<clipPath id="clip0">
<rect width="305" height="220.321" fill="white"/>
</clipPath>
</defs>
</svg>
