<svg width="305" height="222" viewBox="0 0 305 222" fill="none" xmlns="http://www.w3.org/2000/svg">
<g clip-path="url(#clip0)">
<path opacity="0.1" d="M299.832 177.29C292.278 192.88 276.93 203.304 261.031 210.179C248.301 215.646 234.845 219.237 221.083 220.839C218.448 221.152 215.803 221.394 213.151 221.567C206.372 222.009 199.572 222.001 192.794 221.544C188.718 221.273 184.655 220.84 180.607 220.244C166.54 218.192 152.826 214.199 139.857 208.378C136.114 206.692 132.447 204.852 128.856 202.857C122.857 199.533 117.11 195.774 111.659 191.611C110.453 190.69 109.263 189.748 108.087 188.787L107.604 188.392C106.679 187.629 105.763 186.85 104.833 186.093C103.287 184.798 101.646 183.621 99.9241 182.572C99.8075 182.504 99.6908 182.436 99.5714 182.37C99.2528 182.185 98.9286 182.012 98.5986 181.847C97.919 181.504 97.2222 181.197 96.511 180.925C93.2259 179.674 89.7075 179.219 86.1408 179.296C85.5492 179.296 84.9576 179.336 84.3632 179.375C83.5327 179.432 82.6993 179.518 81.8688 179.626L81.5616 179.668C78.9151 180.043 76.2984 180.605 73.7314 181.349C69.7665 182.487 65.8727 183.909 61.9534 185.192C60.2895 185.741 58.6228 186.264 56.9418 186.733L56.5721 186.836C54.1813 187.508 51.7477 188.018 49.2879 188.36C43.6983 189.075 38.0211 188.618 32.6178 187.018L32.4301 186.964L32.0831 186.861L31.6081 186.714C30.8117 186.463 30.022 186.189 29.2388 185.892L28.7639 185.709C28.0054 185.417 27.263 185.104 26.5368 184.768L26.0618 184.552C25.3034 184.199 24.561 183.827 23.8348 183.434C23.5731 183.298 23.3143 183.15 23.0583 183.01C22.2847 182.578 21.5262 182.125 20.7829 181.651C19.9941 181.148 19.2223 180.624 18.4677 180.078C18.1188 179.828 17.7737 179.571 17.4324 179.307C15.4648 177.802 13.6224 176.14 11.9231 174.338C11.8292 174.244 11.741 174.148 11.6529 174.054C11.2006 173.565 10.7569 173.067 10.3274 172.558C10.1682 172.37 10.0089 172.182 9.85245 171.989C9.34238 171.367 8.85032 170.731 8.37628 170.08C8.30518 169.986 8.23692 169.89 8.16865 169.796C6.22529 167.108 4.61417 164.195 3.37041 161.121C3.33059 161.027 3.29361 160.93 3.25948 160.837C2.88025 159.86 2.5342 158.867 2.22133 157.859C2.09334 157.438 1.97104 157.005 1.86296 156.584C1.82598 156.459 1.79185 156.331 1.76056 156.206C0.190539 150.026 0.0113525 143.6 0.0113525 137.212C0.0113525 136.467 0.0113525 135.723 0.0113525 134.979C0.0568605 124.646 0.216138 114.137 1.74065 103.946C1.74065 103.875 1.76056 103.804 1.77194 103.735C2.28219 100.305 2.97624 96.9037 3.85109 93.5473C4.7667 90.0256 5.93687 86.5749 7.35236 83.2227C10.8593 74.9744 15.9591 67.4684 21.6219 60.5114C28.4481 52.1408 36.2698 44.4158 44.9817 38.0418C46.2332 37.126 47.5018 36.2367 48.7873 35.3739L49.3818 34.9843C49.5894 34.8449 49.7971 34.6998 50.0047 34.5775C50.4313 34.2931 50.858 34.0258 51.2903 33.7555L51.7738 33.4541L52.6953 32.8852L52.9798 32.7231L53.4718 32.4387L53.9582 32.1542C54.527 31.8186 55.1025 31.4906 55.6846 31.1701C58.1705 29.784 60.7152 28.5174 63.3186 27.3702C64.0866 27.0308 64.8592 26.7037 65.6367 26.3889C69.1663 24.9514 72.792 23.7625 76.4875 22.8308C77.8527 22.4857 79.2265 22.1823 80.6088 21.9206C82.2395 21.6059 83.8787 21.3451 85.5265 21.1385C88.1486 20.8086 90.7858 20.612 93.4278 20.5497C112.006 20.0975 130.773 26.1443 145.332 37.7347C151.135 42.3537 156.348 47.8232 162.864 51.3643C168.553 54.4474 175.211 55.7245 181.304 53.2984C186.338 51.2932 189.615 50.2977 195.269 50.602C206.969 51.2611 218.504 53.6734 229.488 57.7581C229.932 57.9203 230.375 58.0881 230.816 58.2559C259.461 69.2205 284.089 90.9932 296.883 118.972C297.22 119.712 297.549 120.457 297.869 121.208C305.501 139.027 308.254 159.918 299.832 177.29Z" fill="#36ADEF"/>
<path opacity="0.1" d="M56.9333 78.8966V186.739L56.5635 186.841C54.1728 187.514 51.7391 188.023 49.2794 188.366C43.6897 189.081 38.0125 188.623 32.6093 187.023L32.4215 186.969L32.0745 186.867L31.5995 186.719C30.8032 186.469 30.0134 186.195 29.2303 185.897L28.7553 185.715C27.9968 185.423 27.2545 185.109 26.5283 184.774L26.0533 184.558C25.2948 184.205 24.5525 183.832 23.8262 183.44C23.5646 183.303 23.3057 183.155 23.0497 183.016C22.2761 182.584 21.5176 182.13 20.7743 181.656C19.9855 181.154 19.2138 180.63 18.4591 180.084C18.1102 179.833 17.7651 179.576 17.4238 179.313C15.4563 177.808 13.6138 176.146 11.9145 174.344C11.8207 174.25 11.7325 174.153 11.6443 174.059C11.1921 173.57 10.7484 173.072 10.3189 172.563C10.1596 172.376 10.0003 172.188 9.8439 171.994C9.33383 171.373 8.84178 170.736 8.36774 170.086C8.29663 169.992 8.22837 169.895 8.16011 169.802C6.21674 167.114 4.60562 164.201 3.36186 161.127C3.32204 161.033 3.28507 160.936 3.25094 160.842C2.87171 159.866 2.52565 158.873 2.21279 157.864C2.0848 157.443 1.96249 157.011 1.85441 156.59C1.81744 156.465 1.78331 156.337 1.75202 156.212C0.181995 150.031 0.00280762 143.606 0.00280762 137.218C0.00280762 136.473 0.00280762 135.728 0.00280762 134.985C0.0483156 124.652 0.207593 114.142 1.73211 103.952C1.73211 103.88 1.75202 103.809 1.7634 103.741C2.27364 100.31 2.96769 96.9093 3.84254 93.553H32.888V78.8966H38.6789V67.1242H51.1424V78.8966H56.9333Z" fill="#36ADEF"/>
<path opacity="0.1" d="M299.832 177.29C292.278 192.88 276.93 203.304 261.031 210.178C248.301 215.646 234.845 219.237 221.083 220.839C218.448 221.152 215.803 221.394 213.151 221.567C206.372 222.009 199.572 222.001 192.794 221.544C188.718 221.273 184.655 220.84 180.607 220.244C166.54 218.192 152.826 214.199 139.857 208.378C136.114 206.692 132.447 204.852 128.856 202.857C122.857 199.533 117.11 195.774 111.659 191.611C110.453 190.69 109.263 189.748 108.087 188.787L107.604 188.392C106.679 187.629 105.763 186.85 104.833 186.093C103.287 184.798 101.646 183.621 99.9241 182.572C99.8075 182.504 99.6909 182.436 99.5714 182.37C99.2528 182.185 98.9286 182.012 98.5987 181.847C97.919 181.504 97.2222 181.197 96.511 180.925V136.808H149.297V146.629H172.464V74.7895H199.732V103.516H213.219V86.5078H224.363V68.3387H229.482V57.7581C229.926 57.9202 230.37 58.0881 230.811 58.2559V68.3387H235.794V86.5191H246.929V103.528H263.349V168.328H289.448V121.202H297.858C305.501 139.027 308.254 159.918 299.832 177.29Z" fill="#36ADEF"/>
<path opacity="0.1" d="M192.8 85.6005H180.613V97.7881H192.8V85.6005Z" fill="#36ADEF"/>
<path opacity="0.1" d="M192.8 110.863H180.613V123.051H192.8V110.863Z" fill="#36ADEF"/>
<path opacity="0.1" d="M192.8 136.129H180.613V148.316H192.8V136.129Z" fill="#36ADEF"/>
<path opacity="0.1" d="M192.8 161.394H180.613V173.582H192.8V161.394Z" fill="#36ADEF"/>
<path opacity="0.1" d="M192.8 186.657H180.613V198.844H192.8V186.657Z" fill="#36ADEF"/>
<path opacity="0.1" d="M192.8 211.916V221.541C188.723 221.27 184.661 220.837 180.613 220.241V211.916H192.8Z" fill="#36ADEF"/>
<path opacity="0.1" d="M143.191 152.56H100.53V158.08H143.191V152.56Z" fill="#36ADEF"/>
<path opacity="0.1" d="M143.191 169.327H100.53V174.847H143.191V169.327Z" fill="#36ADEF"/>
<path opacity="0.1" d="M143.191 186.093V191.611H111.665C110.459 190.69 109.268 189.748 108.093 188.787L107.609 188.392C106.685 187.629 105.769 186.85 104.839 186.093H143.191Z" fill="#36ADEF"/>
<path opacity="0.1" d="M143.191 202.857V208.378H139.863C136.12 206.692 132.453 204.852 128.861 202.857H143.191Z" fill="#36ADEF"/>
<path opacity="0.1" d="M221.089 118.602H213.156V126.535H221.089V118.602Z" fill="#36ADEF"/>
<path opacity="0.1" d="M49.2965 81.6328H41.3639V89.5654H49.2965V81.6328Z" fill="#36ADEF"/>
<path opacity="0.1" d="M49.2965 100.063H41.3639V107.996H49.2965V100.063Z" fill="#36ADEF"/>
<path opacity="0.1" d="M49.2965 118.491H41.3639V126.424H49.2965V118.491Z" fill="#36ADEF"/>
<path opacity="0.1" d="M49.2965 136.922H41.3639V144.855H49.2965V136.922Z" fill="#36ADEF"/>
<path opacity="0.1" d="M49.2965 155.353H41.3639V163.285H49.2965V155.353Z" fill="#36ADEF"/>
<path opacity="0.1" d="M49.2965 173.781H41.3639V181.713H49.2965V173.781Z" fill="#36ADEF"/>
<path opacity="0.1" d="M251.377 118.602H243.445V126.535H251.377V118.602Z" fill="#36ADEF"/>
<path opacity="0.1" d="M221.089 138.171H213.156V146.103H221.089V138.171Z" fill="#36ADEF"/>
<path opacity="0.1" d="M251.377 138.171H243.445V146.103H251.377V138.171Z" fill="#36ADEF"/>
<path opacity="0.1" d="M221.089 157.742H213.156V165.675H221.089V157.742Z" fill="#36ADEF"/>
<path opacity="0.1" d="M251.377 157.742H243.445V165.675H251.377V157.742Z" fill="#36ADEF"/>
<path opacity="0.1" d="M221.089 177.313H213.156V185.246H221.089V177.313Z" fill="#36ADEF"/>
<path opacity="0.1" d="M251.377 177.313H243.445V185.246H251.377V177.313Z" fill="#36ADEF"/>
<path opacity="0.1" d="M221.089 196.882H213.156V204.814H221.089V196.882Z" fill="#36ADEF"/>
<path opacity="0.1" d="M251.377 196.882H243.445V204.814H251.377V196.882Z" fill="#36ADEF"/>
<path opacity="0.1" d="M213.156 221.567V216.45H221.089V220.839L213.156 221.567Z" fill="#36ADEF"/>
<path opacity="0.1" d="M1.73499 103.744V108.295H32.0746V103.744H1.73499ZM4.43702 108.01H2.20997V104.028H4.43702V108.01ZM7.13906 108.01H4.91201V104.028H7.13906V108.01ZM9.84109 108.01H7.61405V104.028H9.84109V108.01ZM12.5431 108.01H10.3161V104.028H12.5431V108.01ZM15.2452 108.01H13.0181V104.028H15.2452V108.01ZM17.9472 108.01H15.7202V104.028H17.9472V108.01ZM20.6492 108.01H18.4222V104.028H20.6492V108.01ZM23.3513 108.01H21.1242V104.028H23.3513V108.01ZM26.0533 108.01H23.8263V104.028H26.0533V108.01ZM28.7553 108.01H26.5283V104.028H28.7553V108.01ZM31.5996 108.01H29.2303V104.028H31.5996V108.01Z" fill="#36ADEF"/>
<path opacity="0.1" d="M1.73499 116.958V121.495H32.0746V116.958H1.73499ZM4.43702 121.21H2.20997V117.243H4.43702V121.21ZM7.13906 121.21H4.91201V117.243H7.13906V121.21ZM9.84109 121.21H7.61405V117.243H9.84109V121.21ZM12.5431 121.21H10.3161V117.243H12.5431V121.21ZM15.2452 121.21H13.0181V117.243H15.2452V121.21ZM17.9472 121.21H15.7202V117.243H17.9472V121.21ZM20.6492 121.21H18.4222V117.243H20.6492V121.21ZM23.3513 121.21H21.1242V117.243H23.3513V121.21ZM26.0533 121.21H23.8263V117.243H26.0533V121.21ZM28.7553 121.21H26.5283V117.243H28.7553V121.21ZM31.5996 121.21H29.2303V117.243H31.5996V121.21Z" fill="#36ADEF"/>
<path opacity="0.1" d="M1.73499 130.17V134.706H32.0746V130.17H1.73499ZM4.43702 134.422H2.20997V130.454H4.43702V134.422ZM7.13906 134.422H4.91201V130.454H7.13906V134.422ZM9.84109 134.422H7.61405V130.454H9.84109V134.422ZM12.5431 134.422H10.3161V130.454H12.5431V134.422ZM15.2452 134.422H13.0181V130.454H15.2452V134.422ZM17.9472 134.422H15.7202V130.454H17.9472V134.422ZM20.6492 134.422H18.4222V130.454H20.6492V134.422ZM23.3513 134.422H21.1242V130.454H23.3513V134.422ZM26.0533 134.422H23.8263V130.454H26.0533V134.422ZM28.7553 134.422H26.5283V130.454H28.7553V134.422ZM31.5996 134.422H29.2303V130.454H31.5996V134.422Z" fill="#36ADEF"/>
<path opacity="0.1" d="M1.73499 143.37V147.921H32.0746V143.37H1.73499ZM4.43702 147.636H2.20997V143.654H4.43702V147.636ZM7.13906 147.636H4.91201V143.654H7.13906V147.636ZM9.84109 147.636H7.61405V143.654H9.84109V147.636ZM12.5431 147.636H10.3161V143.654H12.5431V147.636ZM15.2452 147.636H13.0181V143.654H15.2452V147.636ZM17.9472 147.636H15.7202V143.654H17.9472V147.636ZM20.6492 147.636H18.4222V143.654H20.6492V147.636ZM23.3513 147.636H21.1242V143.654H23.3513V147.636ZM26.0533 147.636H23.8263V143.654H26.0533V147.636ZM28.7553 147.636H26.5283V143.654H28.7553V147.636ZM31.5996 147.636H29.2303V143.654H31.5996V147.636Z" fill="#36ADEF"/>
<path opacity="0.1" d="M1.85156 156.593C1.95964 157.02 2.08195 157.446 2.20994 157.867V156.877H4.43698V160.859H3.24809C3.28222 160.953 3.31919 161.05 3.35901 161.144H32.0859V156.593H1.85156ZM7.13902 160.859H4.91197V156.877H7.13902V160.859ZM9.84105 160.859H7.61401V156.877H9.84105V160.859ZM12.5431 160.859H10.316V156.877H12.5431V160.859ZM15.2451 160.859H13.0181V156.877H15.2451V160.859ZM17.9472 160.859H15.7201V156.877H17.9472V160.859ZM20.6492 160.859H18.4221V156.877H20.6492V160.859ZM23.3512 160.859H21.1242V156.877H23.3512V160.859ZM26.0533 160.859H23.8262V156.877H26.0533V160.859ZM28.7553 160.859H26.5283V156.877H28.7553V160.859ZM31.5995 160.859H29.2303V156.877H31.5995V160.859Z" fill="#36ADEF"/>
<path opacity="0.1" d="M8.15723 169.804C8.22549 169.898 8.29375 169.995 8.36486 170.089H9.84102V171.997C9.99745 172.188 10.1567 172.376 10.316 172.566V170.092H12.5431V174.074H11.6414C11.7296 174.167 11.8178 174.264 11.9116 174.358H32.0745V169.807L8.15723 169.804ZM15.2451 174.071H13.018V170.089H15.2451V174.071ZM17.9471 174.071H15.7201V170.089H17.9471V174.071ZM20.6492 174.071H18.4221V170.089H20.6492V174.071ZM23.3512 174.071H21.1241V170.089H23.3512V174.071ZM26.0532 174.071H23.8262V170.089H26.0532V174.071ZM28.7553 174.071H26.5282V170.089H28.7553V174.071ZM31.5995 174.071H29.2303V170.089H31.5995V174.071Z" fill="#36ADEF"/>
<path opacity="0.1" d="M23.0498 183.016C23.3058 183.161 23.5646 183.3 23.8263 183.44V183.3H26.0533V184.558L26.5283 184.774V183.3H28.7554V185.715L29.2304 185.897V183.3H31.5996V186.713L32.0746 186.861V183.016H23.0498Z" fill="#36ADEF"/>
<path opacity="0.1" d="M116.603 64.3482C116.603 64.3482 109.822 63.9387 110.63 68.6886C110.588 68.93 110.624 69.1783 110.733 69.398C110.841 69.6177 111.016 69.7975 111.233 69.9116C111.233 69.9116 111.233 69.5589 111.927 69.6784C112.17 69.7184 112.417 69.7298 112.663 69.7125C112.996 69.6906 113.313 69.5608 113.565 69.3427C113.565 69.3427 115.471 68.5549 116.213 65.4404C116.213 65.4404 116.759 64.7607 116.739 64.5872L115.602 65.0764C115.602 65.0764 115.994 65.9012 115.687 66.5867C115.687 66.5867 115.65 65.1077 115.428 65.1418C115.385 65.1418 114.834 65.4262 114.834 65.4262C114.834 65.4262 115.508 66.8654 114.999 67.9092C114.999 67.9092 115.192 66.1401 114.626 65.5314L113.801 66.0064C113.801 66.0064 114.589 67.4911 114.054 68.7028C114.054 68.7028 114.194 66.8455 113.633 66.1231L112.902 66.6919C112.902 66.6919 113.642 68.1538 113.187 69.1607C113.187 69.1607 113.127 66.9962 112.74 66.8313C112.463 67.0652 112.215 67.3327 112.004 67.6277C112.004 67.6277 112.51 68.6886 112.197 69.2489C112.197 69.2489 112.004 67.8097 111.844 67.8012C111.844 67.8012 111.21 68.7568 111.145 69.411C111.174 68.8041 111.362 68.2156 111.691 67.7045C111.324 67.7738 110.986 67.9488 110.718 68.2079C110.718 68.2079 110.818 67.5338 111.856 67.4741C111.856 67.4741 112.382 66.7516 112.524 66.7061C112.524 66.7061 111.497 66.6208 110.874 66.8967C110.874 66.8967 111.423 66.2596 112.712 66.5497L113.431 65.9609C113.431 65.9609 112.08 65.7761 111.509 65.9808C111.509 65.9808 112.166 65.412 113.625 65.8273L114.41 65.358C113.807 65.2259 113.189 65.1724 112.572 65.1987C112.572 65.1987 113.295 64.809 114.64 65.2328L115.209 64.9797C115.209 64.9797 114.356 64.8147 114.12 64.7891C113.884 64.7635 113.858 64.6952 113.858 64.6952C114.392 64.6062 114.941 64.6672 115.442 64.8716C115.442 64.8716 116.623 64.4222 116.603 64.3482Z" fill="#36ADEF"/>
<path opacity="0.1" d="M98.8034 87.4634C98.8034 87.4634 96.4854 93.8459 101.269 94.429C101.488 94.5368 101.736 94.5725 101.977 94.5311C102.217 94.4898 102.439 94.3734 102.609 94.1986C102.609 94.1986 102.276 94.0877 102.583 93.4648C102.691 93.2435 102.773 93.0107 102.828 92.7708C102.9 92.445 102.864 92.1046 102.726 91.8009C102.726 91.8009 102.512 89.7502 99.7363 88.1546C99.7363 88.1546 99.2414 87.435 99.0679 87.4066L99.2101 88.6438C99.2101 88.6438 100.112 88.5016 100.683 88.9908C100.683 88.9908 99.2613 88.6068 99.2243 88.8287C99.2243 88.8713 99.3296 89.48 99.3296 89.48C99.3296 89.48 100.9 89.2411 101.756 90.0261C101.756 90.0261 100.112 89.3378 99.3694 89.7104L99.5913 90.6149C99.5913 90.6149 101.238 90.2849 102.248 91.1382C102.248 91.1382 100.507 90.4812 99.6538 90.8111L99.9923 91.6644C99.9923 91.6644 101.605 91.38 102.441 92.0882C102.441 92.0882 100.348 91.5193 100.083 91.855C100.229 92.1861 100.414 92.4984 100.635 92.785C100.635 92.785 101.798 92.603 102.245 93.0694C102.245 93.0694 100.809 92.8447 100.757 92.9926C100.757 92.9926 101.494 93.8744 102.103 94.1303C101.531 93.9281 101.022 93.58 100.627 93.1206C100.589 93.4925 100.661 93.8673 100.834 94.1986C100.834 94.1986 100.214 93.9142 100.45 92.9045C100.45 92.9045 99.9041 92.1963 99.9041 92.0512C99.9041 92.0512 99.5287 93.0097 99.6197 93.6866C99.6197 93.6866 99.1646 92.9784 99.8074 91.8265L99.449 90.9732C99.449 90.9732 98.8802 92.2162 98.92 92.8248C98.92 92.8248 98.5673 92.0313 99.3751 90.7485L99.1504 89.864C98.8527 90.4012 98.6262 90.9749 98.4763 91.5705C98.4763 91.5705 98.3057 90.7656 99.0935 89.5966L99.011 88.988C99.011 88.988 98.6128 89.7502 98.519 89.9806C98.4251 90.211 98.354 90.2024 98.354 90.2024C98.4195 89.6646 98.6332 89.1555 98.9712 88.732C98.9712 88.732 98.8802 87.4634 98.8034 87.4634Z" fill="#36ADEF"/>
<path opacity="0.1" d="M143.751 82.0821C143.751 82.0821 141.436 88.476 146.217 89.0449C146.437 89.1525 146.685 89.1879 146.926 89.146C147.167 89.1041 147.389 88.9871 147.56 88.8116C147.56 88.8116 147.224 88.7007 147.534 88.0806C147.642 87.859 147.724 87.625 147.776 87.3838C147.849 87.0583 147.814 86.7179 147.676 86.4139C147.676 86.4139 147.463 84.3632 144.687 82.7676C144.687 82.7676 144.189 82.0508 144.016 82.0224L144.161 83.2568C144.161 83.2568 145.062 83.1174 145.634 83.6066C145.634 83.6066 144.212 83.2227 144.172 83.4417C144.172 83.4872 144.277 84.093 144.277 84.093C144.277 84.093 145.847 83.8569 146.706 84.6391C146.706 84.6391 145.062 83.9536 144.317 84.3234L144.542 85.2307C144.542 85.2307 146.189 84.8979 147.198 85.7541C147.198 85.7541 145.455 85.0942 144.602 85.4241L144.94 86.2774C144.94 86.2774 146.553 85.993 147.389 86.7012C147.389 86.7012 145.298 86.1323 145.031 86.4708C145.181 86.8033 145.372 87.1157 145.6 87.4009C145.6 87.4009 146.76 87.216 147.21 87.6853C147.21 87.6853 145.773 87.4606 145.722 87.6114C145.722 87.6114 146.456 88.4902 147.065 88.7491C146.493 88.5476 145.985 88.1994 145.591 87.7393C145.554 88.1109 145.625 88.4855 145.796 88.8173C145.796 88.8173 145.179 88.5329 145.415 87.526C145.415 87.526 144.869 86.815 144.866 86.6728C144.866 86.6728 144.493 87.6341 144.582 88.3082C144.582 88.3082 144.127 87.6028 144.769 86.4481L144.411 85.5948C144.411 85.5948 143.842 86.8377 143.882 87.4435C143.882 87.4435 143.529 86.6528 144.337 85.3701L144.109 84.4827C143.812 85.0199 143.585 85.5936 143.435 86.1892C143.435 86.1892 143.268 85.3843 144.055 84.2153L143.973 83.6066C143.973 83.6066 143.575 84.3689 143.478 84.5993C143.381 84.8297 143.313 84.8211 143.313 84.8211C143.38 84.2832 143.595 83.7744 143.933 83.3507C143.933 83.3507 143.831 82.085 143.751 82.0821Z" fill="#36ADEF"/>
<path opacity="0.1" d="M79.4996 134.268C79.4996 134.268 77.1815 140.654 81.9655 141.237C82.1848 141.345 82.4326 141.38 82.6733 141.338C82.9141 141.296 83.1353 141.179 83.3052 141.004C83.3052 141.004 82.9724 140.893 83.2796 140.273C83.3889 140.051 83.471 139.817 83.5242 139.576C83.5976 139.25 83.5616 138.909 83.4218 138.606C83.4218 138.606 83.2085 136.555 80.4325 134.962C80.4325 134.962 79.9376 134.243 79.7641 134.214L79.9063 135.449C79.9063 135.449 80.8108 135.309 81.3796 135.799C81.3796 135.799 79.9575 135.415 79.9205 135.634C79.9205 135.679 80.0258 136.285 80.0258 136.285C80.0258 136.285 81.5958 136.049 82.4519 136.831C82.4519 136.831 80.8079 136.146 80.0656 136.515L80.2874 137.423C80.2874 137.423 81.9343 137.09 82.944 137.946C82.944 137.946 81.2033 137.286 80.35 137.616L80.6885 138.469C80.6885 138.469 82.3012 138.185 83.1374 138.893C83.1374 138.893 81.0468 138.324 80.7795 138.663C80.9252 138.994 81.1104 139.306 81.3313 139.593C81.3313 139.593 82.4946 139.408 82.944 139.877C82.944 139.877 81.5048 139.653 81.4536 139.803C81.4536 139.803 82.1902 140.682 82.7989 140.941C82.2272 140.74 81.7182 140.393 81.3227 139.934C81.2851 140.305 81.3573 140.679 81.5304 141.009C81.5304 141.009 80.9103 140.725 81.1464 139.718C81.1464 139.718 80.6031 139.007 80.6003 138.865C80.6003 138.865 80.2249 139.826 80.3159 140.5C80.3159 140.5 79.8608 139.795 80.5036 138.64L80.1452 137.787C80.1452 137.787 79.5764 139.03 79.619 139.636C79.619 139.636 79.2663 138.845 80.0741 137.562L79.8466 136.677C79.5484 137.214 79.3217 137.788 79.1725 138.384C79.1725 138.384 79.0018 137.576 79.7897 136.41L79.7072 135.799C79.7072 135.799 79.309 136.561 79.2151 136.791C79.1213 137.022 79.0502 137.013 79.0502 137.013C79.1159 136.475 79.3307 135.965 79.6702 135.543C79.6702 135.543 79.5764 134.268 79.4996 134.268Z" fill="#36ADEF"/>
<path opacity="0.1" d="M70.3013 74.0869C70.3013 74.0869 67.986 80.4694 72.7672 81.0525C72.9868 81.1601 73.2347 81.1957 73.4757 81.1544C73.7167 81.113 73.9385 80.9967 74.1097 80.8221C74.1097 80.8221 73.7741 80.7112 74.0841 80.0883C74.1914 79.8662 74.2725 79.6323 74.3259 79.3915C74.3987 79.0669 74.3637 78.7274 74.2263 78.4244C74.2263 78.4244 74.013 76.3737 71.2342 74.7781C71.2342 74.7781 70.7393 74.0585 70.5658 74.0301L70.7108 75.2673C70.7108 75.2673 71.6124 75.1251 72.1813 75.6143C72.1813 75.6143 70.7592 75.2303 70.7222 75.4522C70.7222 75.4948 70.8274 76.1035 70.8274 76.1035C70.8274 76.1035 72.3975 75.8646 73.2564 76.6496C73.2564 76.6496 71.6124 75.9613 70.8673 76.3339L71.0891 77.2384C71.0891 77.2384 72.7359 76.9056 73.7485 77.7617C73.7485 77.7617 72.005 77.1018 71.1517 77.4346L71.4901 78.2879C71.4901 78.2879 73.1028 78.0035 73.939 78.7145C73.939 78.7145 71.8485 78.1457 71.5812 78.4813C71.7268 78.8125 71.9121 79.1248 72.1329 79.4114C72.1329 79.4114 73.2962 79.2293 73.7456 79.6958C73.7456 79.6958 72.3093 79.4711 72.2581 79.619C72.2581 79.619 72.9919 80.5007 73.6006 80.7567C73.0293 80.5537 72.5207 80.2058 72.1244 79.747C72.0867 80.1189 72.1589 80.4937 72.332 80.825C72.332 80.825 71.712 80.5405 71.9509 79.5308C71.9509 79.5308 71.4048 78.8226 71.402 78.6776C71.402 78.6776 71.0294 79.6361 71.1175 80.313C71.1175 80.313 70.6596 79.6048 71.3053 78.4529L70.9441 77.5996C70.9441 77.5996 70.3752 78.8425 70.4179 79.4512C70.4179 79.4512 70.0652 78.6577 70.8729 77.3749L70.6454 76.4903C70.3477 77.0276 70.1212 77.6012 69.9713 78.1969C69.9713 78.1969 69.8035 77.392 70.5885 76.223L70.5089 75.6143C70.5089 75.6143 70.1078 76.3766 70.014 76.6041C69.9201 76.8316 69.849 76.8288 69.849 76.8288C69.9148 76.2905 70.1295 75.7812 70.4691 75.3583C70.4691 75.3583 70.3809 74.0869 70.3013 74.0869Z" fill="#36ADEF"/>
<path opacity="0.1" d="M87.4919 108.844C87.4919 108.844 89.281 115.385 93.5246 113.11C93.7657 113.072 93.9886 112.958 94.1613 112.785C94.3339 112.613 94.4476 112.39 94.4859 112.149C94.4859 112.149 94.1503 112.251 94.0451 111.566C94.005 111.322 93.9362 111.085 93.8403 110.857C93.7142 110.549 93.4891 110.29 93.2004 110.124C93.2004 110.124 91.8436 108.571 88.6496 108.866C88.6496 108.866 87.8304 108.568 87.6711 108.645L88.5016 109.569C88.5016 109.569 89.1587 108.935 89.9067 109C89.9067 109 88.5159 109.512 88.6183 109.708C88.641 109.748 89.079 110.18 89.079 110.18C89.079 110.18 90.2167 109.08 91.3772 109.225C91.3772 109.225 89.6393 109.612 89.2468 110.345L89.9494 110.957C89.9494 110.957 91.1041 109.737 92.4239 109.851C92.4239 109.851 90.6178 110.317 90.1115 111.079L90.8851 111.588C90.8851 111.588 92.0228 110.419 93.1321 110.525C93.1321 110.525 91.1013 111.273 91.07 111.694C91.3807 111.88 91.7131 112.029 92.0598 112.134C92.0598 112.134 92.9131 111.315 93.536 111.432C93.536 111.432 92.2305 112.078 92.276 112.228C92.276 112.228 93.3852 112.513 94.0252 112.376C93.4425 112.541 92.8267 112.551 92.239 112.405C92.4219 112.73 92.697 112.994 93.0297 113.164C93.0297 113.164 92.3585 113.286 91.9716 112.328C91.9716 112.328 91.1184 112.063 91.0273 111.944C91.0273 111.944 91.2776 112.945 91.7384 113.446C91.7384 113.446 90.9591 113.13 90.8197 111.816L90.0319 111.324C90.0319 111.324 90.2907 112.663 90.6661 113.138C90.6661 113.138 89.9209 112.695 89.8413 111.182L89.1473 110.59C89.2149 111.204 89.3621 111.806 89.5853 112.382C89.5853 112.382 88.9852 111.813 88.9539 110.414L88.5358 109.961C88.5358 109.961 88.6496 110.815 88.7036 111.056C88.7576 111.298 88.7036 111.341 88.7036 111.341C88.4474 110.863 88.3292 110.323 88.3623 109.782C88.3623 109.782 87.5574 108.801 87.4919 108.844Z" fill="#36ADEF"/>
<path opacity="0.1" d="M136.026 114.686C136.026 114.686 137.815 121.228 142.056 118.952C142.298 118.915 142.521 118.801 142.695 118.629C142.868 118.456 142.982 118.233 143.02 117.991C143.02 117.991 142.682 118.093 142.576 117.422C142.539 117.178 142.471 116.941 142.374 116.714C142.246 116.405 142.021 116.147 141.732 115.98C141.732 115.98 140.375 114.427 137.181 114.726C137.181 114.726 136.362 114.424 136.205 114.501L137.033 115.425C137.033 115.425 137.69 114.791 138.438 114.856C138.438 114.856 137.047 115.368 137.152 115.565C137.172 115.604 137.613 116.037 137.613 116.037C137.613 116.037 138.751 114.936 139.911 115.081C139.911 115.081 138.171 115.468 137.778 116.202L138.484 116.813C138.484 116.813 139.621 115.593 140.955 115.707C140.955 115.707 139.152 116.173 138.646 116.936L139.419 117.445C139.419 117.445 140.557 116.276 141.663 116.381C141.663 116.381 139.633 117.129 139.604 117.55C139.914 117.737 140.245 117.885 140.591 117.991C140.591 117.991 141.444 117.172 142.067 117.288C142.067 117.288 140.765 117.934 140.807 118.085C140.807 118.085 141.917 118.369 142.559 118.233C141.976 118.398 141.359 118.407 140.77 118.261C140.954 118.586 141.229 118.85 141.561 119.02C141.561 119.02 140.89 119.143 140.503 118.184C140.503 118.184 139.65 117.92 139.562 117.8C139.562 117.8 139.809 118.801 140.27 119.302C140.27 119.302 139.49 118.986 139.351 117.672L138.563 117.174C138.563 117.174 138.822 118.514 139.2 118.989C139.2 118.989 138.455 118.545 138.375 117.032L137.679 116.441C137.746 117.055 137.894 117.657 138.119 118.233C138.119 118.233 137.517 117.664 137.485 116.264L137.067 115.812C137.067 115.812 137.181 116.665 137.235 116.907C137.289 117.149 137.235 117.192 137.235 117.192C136.979 116.714 136.861 116.174 136.894 115.633C136.894 115.633 136.092 114.643 136.026 114.686Z" fill="#36ADEF"/>
<path d="M117.817 180.382C117.817 180.382 132.573 175.413 129.518 157.807L110.775 152.941L106.423 167.387L117.817 180.382Z" fill="#CED7E7"/>
<path opacity="0.1" d="M106.423 167.387L117.814 180.382C117.814 180.382 132.57 175.413 129.516 157.807L106.423 167.387Z" fill="black"/>
<path d="M44.4185 37.3194C44.4185 37.3194 46.4095 40.559 49.1314 38.9406C51.8534 37.3222 49.2424 32.8511 49.2424 32.8511C49.2424 32.8511 44.0288 32.1372 44.4185 37.3194Z" fill="#FED253"/>
<path opacity="0.1" d="M49.1315 38.9406C48.8104 39.1483 48.4503 39.2883 48.0732 39.3519C47.6961 39.4155 47.31 39.4013 46.9386 39.3103C45.9403 39.0572 45.1723 38.2893 44.7599 37.7858C44.6369 37.6383 44.5229 37.4835 44.4186 37.3222C44.2792 35.4735 44.8538 34.3727 45.6502 33.7242C46.7452 32.834 48.2612 32.797 48.9153 32.8255C49.1173 32.8255 49.2339 32.8539 49.2339 32.8539L49.2879 32.9449C49.3647 33.09 49.5326 33.4114 49.7117 33.8409C50.3204 35.2488 51.0457 37.8 49.1315 38.9406Z" fill="#36ADEF"/>
<path d="M119.268 156.98L129.507 157.807L148.564 157.964L133.549 176.451C133.549 176.451 128.785 176.71 127.803 177.381C126.822 178.053 113.045 177.694 113.045 177.694L110.82 168.217L119.268 156.98Z" fill="#FFA2A2"/>
<path opacity="0.05" d="M119.268 156.98L129.507 157.807L148.564 157.964L133.549 176.451C133.549 176.451 128.785 176.71 127.803 177.381C126.822 178.053 113.045 177.694 113.045 177.694L110.82 168.217L119.268 156.98Z" fill="black"/>
<path d="M108.912 107.274L111.293 111.312L111.81 118.355C111.81 118.355 113.468 124.359 114.711 126.12C115.954 127.88 116.472 132.542 116.472 132.542C116.472 132.542 116.99 136.891 117.61 137.821C118.23 138.751 119.06 145.5 119.06 145.5C119.06 145.5 124.55 156.476 129.519 157.822C129.519 157.822 104.873 165.899 117.817 180.396C117.817 180.396 108.602 182.672 106.426 180.086C104.25 177.501 98.556 139.183 98.556 139.183L100.317 106.873L108.912 107.274Z" fill="#CED7E7"/>
<path opacity="0.05" d="M108.912 107.274L111.293 111.312L111.81 118.355C111.81 118.355 113.468 124.359 114.711 126.12C115.954 127.88 116.472 132.542 116.472 132.542C116.472 132.542 116.99 136.891 117.61 137.821C118.23 138.751 119.06 145.5 119.06 145.5C119.06 145.5 124.55 156.476 129.519 157.822C129.519 157.822 104.873 165.899 117.817 180.396C117.817 180.396 108.602 182.672 106.426 180.086C104.25 177.501 98.556 139.183 98.556 139.183L100.317 106.873L108.912 107.274Z" fill="black"/>
<path d="M79.0104 67.9121C78.3188 71.4997 78.524 75.2026 79.6077 78.6918L75.7737 89.6677C75.7737 89.6677 46.5718 73.41 49.0576 69.4736C50.4655 67.2409 50.6447 61.3334 50.531 56.6403C50.4485 53.0737 50.1953 50.2123 50.1953 50.2123C50.1953 50.2123 86.0329 53.7364 81.2631 61.9164C80.1836 63.7756 79.4223 65.8021 79.0104 67.9121Z" fill="#FFA2A2"/>
<path opacity="0.1" d="M81.263 61.9164C80.1836 63.7756 79.4223 65.8021 79.0104 67.9121C73.692 69.6135 67.9485 69.4203 62.7564 67.3654C57.5644 65.3105 53.2444 61.5206 50.5309 56.6403C50.4485 53.0737 50.1953 50.2123 50.1953 50.2123C50.1953 50.2123 86.0243 53.7364 81.263 61.9164Z" fill="black"/>
<path d="M95.7601 44.3105C95.7626 48.1072 94.8691 51.851 93.1524 55.2374C91.4356 58.6238 88.944 61.5573 85.8801 63.7995C82.8162 66.0417 79.2664 67.5292 75.5194 68.1412C71.7723 68.7533 67.9337 68.4725 64.3156 67.3217C60.6975 66.171 57.402 64.1827 54.697 61.5185C51.9919 58.8544 49.9537 55.5895 48.748 51.9893C47.5423 48.3891 47.2031 44.5553 47.758 40.7993C48.313 37.0434 49.7463 33.4714 51.9416 30.3737C52.2829 29.894 52.6422 29.4256 53.0196 28.9687C55.1696 26.3554 57.8452 24.2235 60.8726 22.7113C62.515 21.8896 64.2474 21.2616 66.0349 20.8398C69.2624 20.0752 72.6127 19.9829 75.8774 20.5686C79.1421 21.1544 82.2514 22.4056 85.0118 24.2445C87.7722 26.0835 90.1247 28.4707 91.9229 31.2578C93.7211 34.0449 94.9265 37.1722 95.4643 40.4452C95.6652 41.7238 95.7641 43.0163 95.7601 44.3105Z" fill="#FFA2A2"/>
<path d="M105.286 143.521C104.924 145.449 105.377 148.973 106.062 152.56C106.09 152.716 106.122 152.873 106.153 153.029C106.184 153.185 106.23 153.427 106.27 153.623C106.585 155.165 106.93 156.692 107.265 158.08C107.601 159.468 107.902 160.657 108.158 161.636C108.545 163.1 108.81 164.022 108.81 164.022C108.81 164.022 108.844 164.927 108.889 166.366C108.915 167.196 108.943 168.209 108.972 169.327C108.972 169.651 108.992 169.981 109 170.322C109.014 170.916 109.029 171.534 109.043 172.165C109.043 172.37 109.043 172.575 109.057 172.782C109.057 173.462 109.083 174.156 109.094 174.847C109.108 175.797 109.12 176.747 109.125 177.669C109.125 178.021 109.125 178.368 109.125 178.71C109.125 179.591 109.125 180.436 109.125 181.213C109.094 183.417 109.006 185.081 108.818 185.562C108.753 185.727 108.693 185.906 108.636 186.093C108.389 186.976 108.211 187.877 108.101 188.787L107.618 188.392C106.693 187.629 105.778 186.85 104.848 186.093C103.302 184.798 101.661 183.621 99.9384 182.572C99.8217 182.504 99.7051 182.436 99.5857 182.37C99.2671 182.185 98.9429 182.012 98.6129 181.847C97.9332 181.504 97.2364 181.197 96.5253 180.925C93.2402 179.674 89.7218 179.219 86.1551 179.296C84.733 179.839 83.8086 180.229 83.8086 180.229L81.9997 180.775L81.6982 180.866C79.7385 181.463 76.9824 182.311 75.9898 182.663C74.3856 183.232 60.4574 186.13 60.4574 186.13C59.1849 186.478 57.8851 186.716 56.5721 186.841C54.1814 187.514 51.7477 188.023 49.288 188.366C43.6983 189.081 38.0211 188.623 32.6179 187.023C32.4566 187.033 32.2948 187.028 32.1343 187.009C32.2339 187.009 32.3306 186.986 32.4188 186.969L32.0718 186.867L31.5968 186.719C30.8004 186.469 30.0106 186.195 29.2275 185.897L28.7525 185.715C27.9941 185.423 27.2517 185.109 26.5255 184.774L26.0505 184.558C25.292 184.205 24.5497 183.832 23.8234 183.44C23.5618 183.303 23.3029 183.155 23.047 183.016C22.2733 182.584 21.5149 182.13 20.7716 181.656C20.6464 180.584 20.581 179.867 20.581 179.867L19.4717 174.344L19.4149 174.059L18.6185 170.077L18.5616 169.793L16.8294 161.129L16.7726 160.845L15.9762 156.863L15.9193 156.579L14.1644 147.921L14.1075 147.636L13.3111 143.654L13.2542 143.37L11.5135 134.695L11.4567 134.411L10.6603 130.443L10.6034 130.158L10.2877 128.594L9.81268 126.225C9.81268 126.225 8.2967 124.058 6.59015 121.495L6.39958 121.21C5.91322 120.491 5.41263 119.743 4.92626 119.009C4.76414 118.767 4.60771 118.528 4.45127 118.292C4.21425 117.934 3.98481 117.584 3.76296 117.243L3.60937 117.007L3.57809 116.958C1.12635 113.164 2.76748 111.514 2.76748 111.514C2.76748 111.514 3.79709 110.121 5.12536 108.278C5.19078 108.184 5.25904 108.09 5.33014 107.993C5.89899 107.197 6.52473 106.326 7.13909 105.456L7.61407 104.779C7.79326 104.526 7.96961 104.273 8.14026 104.023C8.20852 103.929 8.27394 103.832 8.33651 103.738C9.64771 101.844 10.7285 100.191 10.9504 99.6055C11.2974 98.6811 13.5102 95.9478 15.7145 93.5501C17.4523 91.6559 19.1816 89.9721 19.9581 89.5682C21.7187 88.6381 22.444 85.6317 22.444 85.6317C22.444 85.6317 26.2752 84.2893 26.7928 83.254C27.3105 82.2186 34.5605 77.5655 34.5605 77.5655C34.5605 77.5655 37.4929 75.6769 38.6789 74.5392C38.8468 74.3904 38.9933 74.2191 39.1141 74.0301C39.5265 73.2905 42.22 72.6819 43.3151 72.4629C43.5995 72.406 43.7758 72.3747 43.7758 72.3747C44.2179 71.5714 44.7767 70.8381 45.434 70.1989C45.8806 69.8035 46.4381 68.4411 46.9074 67.1214C47.4165 65.6822 47.8118 64.297 47.8118 64.297C48.6423 61.5011 50.2977 62.3288 50.2977 62.3288C50.2954 62.7107 50.3317 63.0919 50.4058 63.4665C51.0969 66.8796 54.8513 68.3017 56.8224 69.8974C58.9982 71.6551 62.4142 76.2144 65.1077 77.1445C67.3376 77.9153 69.923 80.8221 70.7421 81.792L70.8047 81.866C70.9412 82.0252 71.0095 82.1163 71.0095 82.1163C71.0095 82.1163 72.5369 82.0366 73.4669 82.0195H73.8054C73.9946 82.0006 74.1743 81.9275 74.3231 81.8091C75.2474 81.1805 76.6241 79.3374 77.2242 78.9136C77.9466 78.3931 78.6748 70.0054 78.6748 70.0054L78.7117 69.9884C81.2915 68.7796 84.0589 80.879 84.0589 80.879C84.0589 80.879 88.9254 82.3296 89.3407 83.3649C89.4203 83.5697 89.7872 83.9337 90.339 84.3746C92.8514 86.2946 95.5256 87.9933 98.3313 89.4516C98.3939 89.4828 98.4537 89.5141 98.5162 89.5397C98.5726 89.5701 98.6305 89.5977 98.6897 89.6222C98.795 89.6734 98.8974 89.7189 98.9941 89.7616C99.1477 89.8298 99.2899 89.8867 99.4207 89.9322L99.5914 89.992C99.999 90.1276 100.383 90.3263 100.729 90.5807C100.831 90.6547 100.934 90.7315 101.033 90.814C101.421 91.1363 101.777 91.4944 102.097 91.8834C102.145 91.9403 102.191 92 102.237 92.0569C102.453 92.3271 102.646 92.5945 102.805 92.8419C103.067 93.2237 103.305 93.6207 103.519 94.0308C103.519 94.0308 107.763 101.281 109.111 102.106C110.459 102.93 111.287 111.324 111.287 111.324L106.736 128.193C106.736 128.193 106.523 132.459 106.125 136.811C105.903 139.251 105.621 141.735 105.286 143.521Z" fill="#CED7E7"/>
<path d="M71.0095 82.6282C71.0095 82.6282 67.9576 84.2836 65.5741 84.44C65.2621 84.4546 64.9495 84.4364 64.6412 84.386C62.144 84.0077 58.4806 81.9541 58.4806 81.9541L62.7782 77.2412L68.006 79.8323L69.9287 81.6214L71.0095 82.6282Z" fill="#63667E"/>
<path opacity="0.1" d="M95.453 40.4452C95.3449 40.5981 95.222 40.7401 95.0861 40.869C93.59 42.2911 90.9335 41.7023 88.8942 41.3724C87.1221 41.0827 85.391 40.5824 83.7376 39.882C82.2984 39.2677 80.5719 38.5168 79.2778 39.3985C78.78 39.7341 78.4387 40.2717 77.9211 40.5675C77.4034 40.8633 76.7436 40.8832 76.132 40.8917C74.1411 40.8917 72.1501 40.9145 70.2075 40.4651C67.3092 39.7882 64.3113 38.0845 61.5553 39.2079C59.3993 40.084 58.2304 42.4305 57.6473 44.686C57.3629 45.7924 57.1524 46.9614 56.5096 47.9C55.8668 48.8386 54.6238 49.5041 53.5658 49.0633C52.0043 48.4119 51.7739 45.7611 49.891 45.6274C47.8233 45.4824 47.8488 47.6184 48.4518 49.1628C49.3449 51.4382 50.5139 53.7136 50.5651 56.0857C48.3428 52.1054 47.2927 47.5773 47.5363 43.0251C47.78 38.4729 49.3073 34.0827 51.9417 30.3623C52.4002 30.0784 52.759 29.659 52.9685 29.1621C52.9896 29.0949 53.0067 29.0265 53.0197 28.9573C53.1761 28.1637 52.7353 27.3304 52.7097 26.4998C52.6101 24.4719 54.8059 23.0583 56.8196 22.8023C58.1592 22.6317 59.5302 22.7625 60.8727 22.7198C61.5489 22.7049 62.2214 22.6153 62.8778 22.4525C64.0104 22.1131 65.0709 21.5684 66.0065 20.8455C69.234 20.0809 72.5843 19.9886 75.8491 20.5743C79.1138 21.16 82.223 22.4113 84.9834 24.2502C87.7438 26.0891 90.0963 28.4764 91.8945 31.2635C93.6927 34.0506 94.8982 37.1779 95.4359 40.4509L95.453 40.4452Z" fill="black"/>
<path d="M95.9393 38.7699C95.7975 39.3325 95.5021 39.8446 95.086 40.249C93.59 41.6711 90.9334 41.0795 88.8941 40.7495C87.1219 40.4661 85.3905 39.9695 83.7375 39.2705C82.2983 38.659 80.5718 37.9081 79.2777 38.7899C78.78 39.1255 78.4387 39.663 77.921 39.9588C77.4034 40.2546 76.7435 40.2746 76.132 40.2802C74.141 40.2945 72.15 40.3058 70.2074 39.8564C67.3091 39.1767 64.3113 37.4758 61.5552 38.5964C59.3993 39.4725 58.2303 41.8218 57.6472 44.0773C57.3628 45.1837 57.1523 46.3527 56.5095 47.2885C55.8667 48.2242 54.6238 48.8955 53.5657 48.4546C52.0042 47.8033 51.7739 45.1524 49.891 45.0188C47.8232 44.8737 47.8488 47.0097 48.4518 48.5542C49.5098 51.2477 50.949 53.9269 50.4769 56.7826C50.0076 56.7826 49.2311 56.7655 48.7703 56.7541C49.1287 56.1426 48.4461 55.4145 47.7663 55.2069C47.0865 54.9992 46.293 55.0021 45.7753 54.5072C45.2577 54.0123 45.2548 53.2472 45.3089 52.5617C45.4269 51.0966 45.7853 49.661 46.3698 48.3124C46.7424 47.4591 47.2231 46.5347 46.9386 45.6416C46.7679 45.2368 46.5624 44.8476 46.3243 44.4784C45.7327 43.3407 45.872 41.9185 46.3783 40.7439C46.5945 40.2433 46.7509 39.7711 46.9301 39.3217C47.1564 38.6829 47.4839 38.0847 47.9 37.5498C48.5513 36.7392 49.1884 35.519 48.4688 34.7652C48.2868 34.5747 48.6509 34.4438 48.5343 34.1964C48.5136 34.1541 48.4993 34.1091 48.4916 34.0627C48.4582 33.7631 48.5306 33.4612 48.6964 33.2094C48.73 33.144 48.767 33.0804 48.8073 33.0189C48.84 32.9539 48.8771 32.8912 48.9182 32.8312C49.548 31.7796 50.3851 30.8671 51.3785 30.149C51.9957 29.7025 52.7181 29.273 52.9627 28.5506C53.2472 27.6973 52.7466 26.79 52.7039 25.8884C52.6044 23.8604 54.8001 22.4468 56.8139 22.1908C58.8276 21.9348 60.9153 22.3586 62.8778 21.8381C65.6623 21.1043 67.6192 18.6469 70.1477 17.2674C71.5309 16.5278 73.0649 16.1141 74.6325 16.0579C76.2001 16.0017 77.7597 16.3045 79.1924 16.9432C82.1447 18.2914 84.3718 21.0162 87.4549 22.0401C88.5471 22.4041 89.7303 22.5492 90.7144 23.1522C91.8521 23.8519 92.5433 25.0749 93.1349 26.2809C94.0365 28.1097 94.2185 29.9471 94.8414 31.884C95.3363 33.4199 96.0218 35.428 96.0787 37.1971C96.1107 37.7254 96.0637 38.2555 95.9393 38.7699Z" fill="#896363"/>
<g opacity="0.1">
<path opacity="0.1" d="M48.8387 35.2061C48.8842 35.024 48.8887 34.8341 48.8518 34.6502C48.8149 34.4662 48.7375 34.2927 48.6253 34.1423C48.6993 34.3642 48.3779 34.4921 48.5542 34.677C48.6947 34.8247 48.793 35.0074 48.8387 35.2061Z" fill="black"/>
<path opacity="0.1" d="M48.6167 33.491C48.5832 33.5903 48.5631 33.6936 48.557 33.7982C48.611 33.7072 48.685 33.6133 48.6167 33.491Z" fill="black"/>
<path opacity="0.1" d="M95.1658 39.555C93.6669 40.9771 91.0132 40.3883 88.9682 40.0555C87.1972 39.7704 85.4675 39.2709 83.8172 38.568C82.3752 37.9536 80.6516 37.2028 79.3546 38.0845C78.8597 38.4201 78.5184 38.9577 77.9979 39.2535C77.4774 39.5493 76.8204 39.5692 76.2089 39.5749C74.2179 39.5749 72.2269 39.6005 70.2815 39.1482C67.386 38.4713 64.3882 36.7733 61.6321 37.8911C59.4762 38.7699 58.3072 41.1164 57.7241 43.3719C57.4397 44.4783 57.232 45.6473 56.5864 46.5859C55.9408 47.5245 54.6978 48.1901 53.6426 47.7521C52.0811 47.0979 51.8507 44.4499 49.9678 44.3162C48.4974 44.211 48.0878 45.2634 48.1873 46.4323C48.2727 45.5393 48.7562 44.8509 49.9678 44.9363C51.8507 45.07 52.0811 47.7208 53.6426 48.3721C54.6978 48.813 55.9436 48.1503 56.5864 47.206C57.2292 46.2617 57.4397 45.0984 57.7241 43.9948C58.3072 41.7393 59.4762 39.39 61.6321 38.514C64.3882 37.3933 67.386 39.0828 70.2815 39.7711C72.2155 40.2234 74.2236 40.2091 76.2089 40.1949C76.8204 40.1949 77.466 40.1778 77.9979 39.8764C78.5298 39.5749 78.8512 39.043 79.3546 38.7045C80.6516 37.8257 82.3752 38.5765 83.8172 39.188C85.4679 39.8906 87.1974 40.391 88.9682 40.6784C91.0132 41.0084 93.6669 41.6028 95.1658 40.175C95.9792 39.3985 96.2238 38.275 96.1698 37.0463C96.1243 38.0219 95.8399 38.9065 95.1658 39.555Z" fill="black"/>
<path opacity="0.1" d="M52.8035 25.3735C52.7878 25.5151 52.7821 25.6577 52.7865 25.8001C52.8149 26.3917 53.0396 26.9833 53.1107 27.5607C53.2159 26.8525 52.8888 26.113 52.8035 25.3735Z" fill="black"/>
<path opacity="0.1" d="M47.024 45.5535C47.0474 45.6385 47.0655 45.725 47.078 45.8123C47.1241 45.5189 47.1057 45.219 47.024 44.9334C46.8544 44.5272 46.6488 44.1369 46.4096 43.7673C46.196 43.3465 46.0692 42.8871 46.037 42.4163C45.9792 43.0959 46.108 43.7784 46.4096 44.3902C46.6494 44.7585 46.855 45.1478 47.024 45.5535Z" fill="black"/>
<path opacity="0.1" d="M50.5537 56.0715L48.8898 56.0459C48.9286 56.1464 48.9442 56.2544 48.9353 56.3618C48.9265 56.4691 48.8934 56.5731 48.8386 56.6659C49.3079 56.6659 50.0873 56.683 50.5452 56.6943C50.6247 56.2075 50.6524 55.7137 50.6277 55.221C50.6212 55.5058 50.5965 55.7899 50.5537 56.0715Z" fill="black"/>
<path opacity="0.1" d="M47.8318 54.4986C47.152 54.2938 46.3613 54.291 45.855 53.7932C45.557 53.4672 45.389 53.0431 45.3829 52.6015C45.3402 53.2556 45.3829 53.961 45.855 54.4161C46.3613 54.9138 47.152 54.9167 47.8318 55.1215C48.0529 55.1858 48.2586 55.2947 48.4362 55.4414C48.6137 55.5882 48.7594 55.7697 48.8642 55.9748C49.1515 55.386 48.4916 54.6948 47.8318 54.4986Z" fill="black"/>
</g>
<path opacity="0.1" d="M99.5771 182.37C99.2585 182.185 98.9343 182.012 98.6043 181.847C97.9246 181.504 97.2278 181.197 96.5167 180.925C93.2316 179.674 89.7132 179.219 86.1465 179.296C84.7244 179.839 83.8 180.229 83.8 180.229L81.9911 180.775L81.6896 180.866C81.6697 180.667 81.6469 180.467 81.627 180.266C81.6071 180.064 81.5843 179.87 81.5616 179.671C80.9245 173.638 80.4239 167.441 80.4239 167.441V162.088V161.465L80.3898 145.694L80.1053 140.494L79.9717 138.193L79.9461 137.755L79.8949 136.857L79.8664 136.322C79.8036 136.152 79.7505 135.98 79.7071 135.804C79.6872 135.733 79.6673 135.654 79.6503 135.571C79.5792 135.287 79.5024 134.92 79.4227 134.522C78.9022 131.905 78.2509 127.493 78.2111 126.597C78.1599 125.403 77.1246 118.258 77.1246 118.258C77.0193 114.325 73.7115 106.918 72.8781 105.522C72.0447 104.125 71.1147 95.7345 71.4275 95.2823C71.5897 95.0405 71.6949 93.6099 71.7603 92.2901C71.7603 92.1394 71.7745 91.9915 71.7802 91.8464C71.8229 90.814 71.8428 89.9522 71.8428 89.9522L75.0966 89.3094L75.9698 89.1387L76.0381 89.1245L76.0665 89.1814C76.1604 89.3549 76.4533 89.9095 76.7975 90.6376C76.8373 90.7144 76.8743 90.7969 76.9141 90.8794C76.9312 90.9192 76.9511 90.959 76.971 90.9988C77.6081 92.3925 78.3448 94.2271 78.3135 95.2823C78.2623 97.1481 80.3869 101.653 80.3869 101.653C80.5917 102.689 85.097 112.991 85.097 112.991C85.097 112.991 88.7746 123.088 88.567 124.746C88.3594 126.404 90.3276 137.38 90.3276 137.38L92.347 148.669C93.3283 150.893 94.6224 156.018 94.6224 156.018L95.1144 158.925L95.2083 159.48L96.5195 167.236L97.1623 171.036C97.1623 171.036 97.4325 173.055 97.8421 175.302C97.8762 175.504 97.916 175.709 97.9558 175.914C98.2082 177.393 98.5665 178.852 99.0281 180.28C99.257 180.964 99.4404 181.662 99.5771 182.37Z" fill="black"/>
<path d="M99.9297 182.572C99.8131 182.504 99.6965 182.436 99.577 182.37C99.2585 182.185 98.9342 182.012 98.6043 181.847C97.9246 181.504 97.2278 181.197 96.5166 180.925C93.2315 179.674 89.7132 179.219 86.1465 179.296C84.7244 179.839 83.8 180.229 83.8 180.229L81.9911 180.775C81.9683 180.576 81.9484 180.376 81.9256 180.175C81.9029 179.973 81.8858 179.81 81.8688 179.628C81.2316 173.61 80.7311 167.441 80.7311 167.441V162.037V161.414L80.6969 145.682L80.4125 140.716L80.3556 139.687L80.3158 138.99L80.2646 138.068L80.2134 137.133L80.1764 136.458V136.311C80.1764 136.296 80.1764 136.279 80.1565 136.262C80.1025 136.109 80.0371 135.875 79.966 135.58L79.9318 135.437C79.9176 135.372 79.9005 135.301 79.8863 135.23C79.3516 132.804 78.5666 127.573 78.5239 126.592C78.4727 125.397 77.4374 118.252 77.4374 118.252C77.3322 114.319 74.0243 106.912 73.191 105.516C72.3576 104.119 71.4304 95.7288 71.7404 95.2766C71.9196 94.9922 72.0248 93.2657 72.0931 91.8407C72.0931 91.727 72.0931 91.6161 72.0931 91.5108C72.13 90.6319 72.1443 89.9465 72.1443 89.9465L75.1705 89.3492L75.9385 89.1984L76.058 89.1757L76.3424 89.1188C76.3424 89.1188 76.715 89.8071 77.1615 90.7542L77.2184 90.8737C77.8697 92.2788 78.6405 94.1901 78.6178 95.2766C78.5666 97.1424 80.6912 101.648 80.6912 101.648C80.896 102.683 85.4013 112.985 85.4013 112.985C85.4013 112.985 89.0789 123.082 88.8713 124.74C88.6637 126.398 90.6319 137.374 90.6319 137.374L92.6513 148.663C93.6326 150.887 94.9267 156.013 94.9267 156.013L95.3846 158.72L95.4785 159.269L96.5109 165.39L97.4638 171.03C97.4638 171.03 97.7482 173.041 98.1407 175.297C98.1777 175.501 98.2146 175.706 98.2545 175.914C98.5064 177.4 98.8647 178.865 99.3267 180.3C99.5789 181.043 99.7803 181.802 99.9297 182.572Z" fill="#63667E"/>
<path d="M97.3643 36.4945C97.3643 36.4945 96.2778 37.8939 95.2965 37.8939C94.3152 37.8939 90.4954 37.7375 88.5044 37.1174C86.5135 36.4974 76.752 36.0281 76.752 36.0281C76.752 36.0281 62.929 36.0793 62.4625 35.6128C61.996 35.1464 53.8672 32.6605 53.0395 32.8169C52.866 32.8511 52.4422 32.925 51.8762 33.0189L51.2277 33.1241C50.2465 33.2805 49.0206 33.4626 47.9 33.5963C46.5148 33.7584 45.2975 33.8409 44.9106 33.6986V32.5069C44.9106 32.5069 46.5148 30.1746 46.6172 29.5062C46.7196 28.8378 48.0678 19.1475 51.5889 15.6803C53.0436 12.8995 55.3977 10.6938 58.2672 9.423C63.0313 7.34954 67.7955 5.5918 67.7955 5.5918L68.6288 5.47234L71.3166 5.07414C71.3983 4.99281 71.4868 4.91859 71.5812 4.85229C72.3264 4.28344 74.5847 3.0462 77.5285 5.70557L78.049 6.53609C78.049 6.53609 87.1079 8.6579 91.3003 16.0615C95.4927 23.465 95.7032 30.715 96.0132 34.0286C96.0132 34.0286 95.8056 34.9615 96.2209 35.3227C96.3712 35.4555 96.5146 35.596 96.6504 35.7437C96.6873 35.7806 96.7243 35.8176 96.7584 35.8574C96.8779 35.9769 96.9888 36.102 97.0798 36.2044C97.0907 36.2124 97.1003 36.222 97.1083 36.2329C97.1305 36.2598 97.1542 36.2854 97.1794 36.3097L97.3643 36.4945Z" fill="#006DAA"/>
<path opacity="0.05" d="M97.3643 36.4946C97.3643 36.4946 96.2778 37.8939 95.2966 37.8939C94.3153 37.8939 90.4955 37.7375 88.5045 37.1174C86.5135 36.4974 76.7521 36.0281 76.7521 36.0281C76.7521 36.0281 62.929 36.0793 62.4626 35.6128C61.9961 35.1464 53.8673 32.6605 53.0396 32.817C52.8661 32.8511 52.4423 32.925 51.8763 33.0189L51.7284 32.1087L51.6914 31.884C51.6914 31.884 67.3803 28.5193 77.8386 30.2827C88.2969 32.0462 96.0133 34.0087 96.0133 34.0087C96.0133 34.0087 95.8057 34.9416 96.2209 35.3028C96.3713 35.4356 96.5146 35.5761 96.6504 35.7238C96.6874 35.7607 96.7244 35.7977 96.7585 35.8375C96.878 35.957 96.9889 36.0821 97.0799 36.1845C97.0908 36.1925 97.1004 36.2021 97.1083 36.213C97.1306 36.2399 97.1543 36.2655 97.1795 36.2898L97.3643 36.4946Z" fill="black"/>
<path opacity="0.1" d="M95.9393 38.7699C94.0024 38.9207 90.4328 38.4485 88.8713 38.2181C88.4276 38.1527 87.9925 38.0731 87.5544 37.9764C85.8792 37.6123 80.7283 36.5912 77.5996 37.0634C73.8196 37.6322 63.1536 36.5969 63.1536 36.5969C63.1536 36.5969 56.5777 35.2516 53.9354 34.1651C52.9655 33.764 51.3443 33.6389 49.7316 33.838C49.3204 33.8893 48.9121 33.9624 48.5086 34.057C46.3072 34.5775 44.4499 35.7635 44.7713 37.7858C44.6482 37.6383 44.5342 37.4835 44.4299 37.3222C44.2906 35.4734 44.8651 34.3727 45.6615 33.7242L45.8492 33.6474C46.8221 33.371 47.8121 33.1591 48.8129 33.0132C48.9694 32.9876 49.1315 32.9648 49.2965 32.9449C52.1265 32.5638 56.2194 32.4784 59.6723 34.2163C59.6723 34.2163 62.8806 35.7209 65.0564 35.7209C67.2323 35.7209 84.9377 35.8773 89.0818 37.0662C89.9068 37.3046 90.7481 37.4823 91.599 37.5981C93.1098 37.7929 94.6451 37.6481 96.0929 37.1743C96.1225 37.7109 96.0707 38.2488 95.9393 38.7699Z" fill="black"/>
<path opacity="0.1" d="M97.3643 36.4946C97.3643 36.4946 96.2778 37.8939 95.2965 37.8939C94.3152 37.8939 90.4954 37.7375 88.5044 37.1174C86.5135 36.4974 76.752 36.0281 76.752 36.0281C76.752 36.0281 62.929 36.0793 62.4625 35.6128C61.996 35.1464 53.8672 32.6605 53.0395 32.8169C52.866 32.8511 52.4422 32.925 51.8762 33.0189L51.2277 33.1241C50.1014 33.1184 48.9802 33.2774 47.9 33.5963C46.5148 33.7584 45.2975 33.8409 44.9106 33.6987V33.4626C45.2089 33.2895 45.5198 33.1393 45.8407 33.0132C47.76 32.4757 49.7364 32.1683 51.7283 32.0974C54.2113 32.0063 57.1153 32.2965 59.6666 33.582C59.6666 33.582 62.8749 35.0867 65.0508 35.0867C67.2266 35.0867 84.9321 35.2402 89.0761 36.432C89.9015 36.6681 90.7427 36.8449 91.5933 36.961C93.4597 37.1962 95.355 36.924 97.0798 36.1732C97.0907 36.1811 97.1003 36.1907 97.1083 36.2016C97.1305 36.2285 97.1543 36.2541 97.1794 36.2784L97.3643 36.4946Z" fill="black"/>
<path d="M44.8111 37.7375C44.8111 37.7375 41.3411 35.0952 45.8464 33.3346C45.8464 33.3346 53.7164 30.9027 59.6723 33.9034C59.6723 33.9034 62.8806 35.4023 65.0565 35.4023C67.2323 35.4023 84.9377 35.5588 89.0818 36.7505C89.9071 36.9869 90.7483 37.1637 91.599 37.2795C93.8037 37.5469 96.037 37.1225 97.99 36.065C98.2744 35.9086 98.5304 35.829 98.6072 35.92C98.866 36.2329 98.6612 38.0446 96.383 38.4059C94.6054 38.6903 90.5665 38.1527 88.8685 37.9053C88.4276 37.8399 87.9896 37.7574 87.5545 37.6635C85.8792 37.2995 80.7283 36.2784 77.5854 36.7505C73.8082 37.3194 63.1394 36.2841 63.1394 36.2841C63.1394 36.2841 56.5664 34.9387 53.9241 33.8494C51.2818 32.76 43.827 33.6986 44.8111 37.7375Z" fill="#004B75"/>
<path opacity="0.1" d="M74.0642 9.97476C73.7798 9.56519 70.1249 6.63846 68.6345 5.45525L71.3223 5.05706C71.404 4.97572 71.4925 4.9015 71.5868 4.83521C73.5408 6.88591 74.0642 9.97476 74.0642 9.97476Z" fill="black"/>
<path opacity="0.1" d="M62.2093 25.6722L61.0176 27.4328L65.5741 27.2792L65.6765 25.311L62.2093 25.6722Z" fill="black"/>
<path opacity="0.1" d="M90.012 27.7968L90.5296 29.401L93.4307 29.8674L92.1878 27.9504L90.012 27.7968Z" fill="black"/>
<path opacity="0.1" d="M40.2035 81.6498C40.5135 82.1675 50.713 95.5866 53.4065 95.214C56.1 94.8414 40.2035 81.6498 40.2035 81.6498Z" fill="black"/>
<path opacity="0.1" d="M74.3771 93.9142C74.3771 93.9142 76.8629 96.2977 76.4989 97.2277C76.1348 98.1578 74.3771 93.9142 74.3771 93.9142Z" fill="black"/>
<path opacity="0.1" d="M47.2457 110.277C47.2457 110.277 45.0699 120.477 46.2104 120.801C47.351 121.125 47.2457 110.277 47.2457 110.277Z" fill="black"/>
<path opacity="0.1" d="M75.2047 149.886C75.5659 150.921 78.5695 157.654 79.2435 158.015C79.9176 158.376 75.2047 149.886 75.2047 149.886Z" fill="black"/>
<path opacity="0.1" d="M110.104 122.237C109.998 122.598 107.41 124.723 107.979 125.5C108.548 126.276 110.104 122.237 110.104 122.237Z" fill="black"/>
<path opacity="0.1" d="M90.0118 141.134C89.9607 141.396 89.443 146.823 90.4271 147.867C91.4112 148.911 90.0118 141.134 90.0118 141.134Z" fill="black"/>
<path opacity="0.1" d="M116.543 169.327C115.792 169.745 115.016 170.149 114.225 170.535C113.372 170.951 112.518 171.346 111.648 171.719C111.301 171.869 110.954 172.017 110.61 172.159C110.087 172.376 109.569 172.583 109.057 172.782C107.501 173.391 106.002 173.92 104.668 174.367C104.151 174.54 103.656 174.699 103.195 174.847C100.874 175.584 99.3326 175.985 99.3326 175.985C98.9804 175.91 98.62 175.88 98.2603 175.897C98.1607 175.897 98.0583 175.897 97.9531 175.897C97.4714 175.932 96.9919 175.992 96.5168 176.079C93.3397 176.648 88.8515 178.243 86.1466 179.287C84.7245 179.83 83.8001 180.22 83.8001 180.22L81.9912 180.766L81.6897 180.857C79.73 181.454 76.9739 182.302 75.9813 182.655C74.3771 183.224 60.4489 186.122 60.4489 186.122C59.1764 186.469 57.8766 186.707 56.5636 186.833C53.3282 187.13 50.0762 187.204 46.8306 187.055C43.5711 187.265 38.2979 186.548 35.2289 186.065L34.7397 185.988C33.5537 185.795 32.7999 185.655 32.7999 185.655L33.1981 185.106L41.364 173.84L41.4123 173.772L49.0207 163.28L49.3051 162.899L49.9962 161.946C49.9962 161.946 50.4115 161.377 52.01 161.34C52.1977 161.34 52.4025 161.34 52.6272 161.34C53.9699 161.448 55.2945 161.718 56.5721 162.145L56.9419 162.256C62.4512 163.834 70.9669 163.439 70.9669 163.439C70.9669 163.439 76.2657 162.586 80.4297 162.074L80.7397 162.034C82.1004 161.842 83.4705 161.723 84.844 161.678C87.381 161.73 92.8704 160.384 92.8704 160.384C94.0508 160.131 94.5485 159.918 95.2141 159.443C95.3023 159.38 95.3961 159.312 95.4985 159.238C95.7829 159.025 96.11 158.763 96.531 158.439C97.2989 157.85 98.3769 157.051 100.072 155.93C100.22 155.833 100.376 155.737 100.544 155.646C100.712 155.555 100.925 155.432 101.13 155.33C102.772 154.553 104.503 153.979 106.284 153.623C107.761 153.306 109.261 153.1 110.769 153.006H110.994C115.26 152.779 119.618 153.51 122.166 155.907C122.612 156.329 123 156.807 123.321 157.33C123.477 157.578 123.615 157.836 123.736 158.103C123.969 158.612 124.141 159.147 124.251 159.696C124.272 159.798 124.289 159.901 124.302 160.003C124.302 160.034 124.302 160.063 124.302 160.094C124.302 160.177 124.319 160.259 124.325 160.342C124.552 163.746 121.02 166.824 116.543 169.327Z" fill="black"/>
<path d="M32.7999 185.044C32.7999 185.044 42.0153 186.75 46.8306 186.44C46.8306 186.44 55.6847 186.907 60.4489 185.51C60.4489 185.51 74.3857 182.609 75.9813 182.04C77.5769 181.472 83.8001 179.606 83.8001 179.606C83.8001 179.606 95.9166 174.532 99.3326 175.359C99.3326 175.359 126.154 168.422 124.237 159.05C122.32 149.679 105.391 151.803 100.061 155.322C94.7306 158.84 95.5099 159.207 92.8647 159.776C92.8647 159.776 87.3753 161.121 84.8383 161.07C82.3012 161.019 70.9612 162.83 70.9612 162.83C70.9612 162.83 62.0559 163.246 56.5693 161.536C51.0828 159.827 49.9934 161.329 49.9934 161.329L32.7999 185.044Z" fill="#FFA2A2"/>
<path opacity="0.1" d="M52.7836 160.72C52.785 160.731 52.785 160.743 52.7836 160.754C52.7637 160.965 52.709 161.172 52.6215 161.366C51.5293 164.045 45.3288 171.272 45.3288 171.272C45.0461 172.131 44.705 172.969 44.3077 173.781C43.4534 175.516 42.4693 177.185 41.3639 178.772C39.7254 181.147 37.9365 183.415 36.0082 185.562H35.994C35.7486 185.744 35.4932 185.912 35.2289 186.065C34.5605 186.463 33.5565 186.955 32.6093 187.015C32.4481 187.025 32.2863 187.02 32.1258 187.001C32.2254 187.001 32.3221 186.978 32.4102 186.961L32.0632 186.859L31.5883 186.711C30.7919 186.46 30.0021 186.186 29.219 185.889L28.744 185.707C27.9855 185.415 27.2432 185.101 26.517 184.765L26.042 184.549C25.2835 184.196 24.5412 183.824 23.8149 183.431C23.5533 183.295 23.2944 183.147 23.0385 183.007C22.2648 182.575 21.5064 182.122 20.7631 181.648C19.9742 181.145 19.2025 180.621 18.4478 180.075C17.879 179.02 17.4097 178.084 17.1537 177.581C16.6872 176.645 16.6474 175.305 16.7043 174.335C16.7043 174.236 16.7043 174.142 16.7214 174.051C16.7697 173.442 16.8437 173.024 16.8437 173.024C16.4222 172.461 16.042 171.868 15.706 171.249C15.5129 170.942 15.4031 170.59 15.3874 170.228C15.4003 170.083 15.3868 169.936 15.3476 169.796C15.1286 168.897 14.1872 167.353 13.3168 166.383C12.6683 165.669 12.6285 163.001 12.6911 161.11C12.7281 159.972 12.7992 159.136 12.7992 159.136C12.6717 159.053 12.5763 158.93 12.529 158.786C12.3003 158.163 12.1456 157.516 12.0682 156.857C12.0682 156.764 12.0426 156.67 12.0284 156.573C11.8463 155.267 11.7639 153.956 11.7639 153.956C9.65911 152.423 8.65794 150.031 8.19148 147.898L8.13175 147.614C7.87558 146.303 7.76682 144.967 7.80751 143.632C7.80751 143.504 7.80751 143.407 7.80751 143.347C7.80751 143.287 7.80751 143.276 7.80751 143.276C7.80751 143.276 8.08624 137.113 8.86557 134.706C8.89685 134.604 8.93098 134.51 8.96512 134.422C9.02253 134.271 9.09696 134.127 9.18697 133.993C9.47139 133.614 9.67333 132.9 9.84114 132.056C9.95776 131.47 10.0545 130.818 10.1256 130.17C10.191 129.629 10.2422 129.092 10.282 128.594C10.3929 127.263 10.4271 126.225 10.4271 126.225L9.90087 123.631C9.75582 122.923 9.64489 122.209 9.5681 121.495C9.5681 121.401 9.54534 121.307 9.53397 121.21C9.40094 119.892 9.37716 118.565 9.46286 117.243C9.46286 117.146 9.46286 117.052 9.47993 116.958C9.70201 113.947 10.4894 111.004 11.8008 108.283L11.943 107.999C12.1327 107.62 12.3318 107.247 12.5403 106.881C12.6911 106.611 12.8504 106.344 13.0153 106.079C13.4526 105.371 13.9274 104.686 14.4374 104.028C14.5114 103.932 14.5882 103.838 14.665 103.744C15.5525 102.644 16.5388 101.627 17.6116 100.706C20.4843 98.2375 23.1209 97.1652 25.5158 97.0827C35.9883 96.7129 41.8617 115.235 42.8117 118.48C42.9027 118.793 42.9482 118.963 42.9482 118.963C42.9482 118.963 47.1918 123.21 45.9489 125.073C45.7079 125.483 45.5612 125.942 45.5194 126.415C45.1781 128.921 46.1565 133.048 46.1565 133.048C46.1565 133.048 46.5035 134.186 47.516 136.911L47.8147 137.707C48.449 139.414 48.5969 142.278 48.2328 144.843C47.8829 147.301 47.061 149.474 45.7441 150.031C43.0506 151.169 43.7759 152.307 44.3959 153.242C44.7644 153.913 45.0718 154.616 45.3146 155.341C45.7043 156.391 46.0655 157.495 46.202 157.924C46.2418 158.043 46.2617 158.109 46.2617 158.109C46.639 157.963 47.0309 157.858 47.4307 157.796C47.9398 157.725 48.4433 157.776 48.54 158.211C48.5912 158.444 48.8841 158.72 49.2965 158.996C50.5196 159.838 52.7836 160.72 52.7836 160.72Z" fill="black"/>
<path d="M52.1635 160.72C52.1461 160.936 52.0913 161.148 52.0014 161.346C50.9149 164.028 44.7087 171.272 44.7087 171.272C44.4248 172.13 44.0837 172.968 43.6877 173.781C43.0013 175.182 42.2251 176.538 41.3639 177.839C39.5809 180.529 37.6057 183.086 35.4536 185.49L35.3881 185.562C35.3881 185.562 35.1378 185.752 34.7397 185.997C34.0281 186.451 33.2441 186.78 32.4216 186.969L32.0746 186.867L31.5996 186.719C30.8032 186.469 30.0135 186.195 29.2303 185.897L28.7554 185.715C27.9969 185.423 27.2545 185.109 26.5283 184.774L26.0533 184.558C25.2949 184.205 24.5525 183.832 23.8263 183.44C23.5646 183.303 23.3058 183.155 23.0498 183.016C22.2762 182.584 21.5177 182.13 20.7744 181.656C19.9856 181.154 19.2139 180.63 18.4592 180.084C18.1103 179.833 17.7652 179.576 17.4239 179.313C17.0399 178.585 16.7327 177.97 16.5422 177.589C16.0757 176.653 16.0359 175.314 16.0928 174.344C16.0928 174.244 16.0928 174.15 16.1098 174.059C16.1582 173.451 16.2321 173.033 16.2321 173.033C16.2321 173.033 16.0018 172.723 15.723 172.302C15.5666 172.068 15.3988 171.798 15.248 171.531C14.9636 171.03 14.7418 170.524 14.7844 170.237C14.7902 170.188 14.7902 170.138 14.7844 170.089C14.7801 169.993 14.7658 169.897 14.7418 169.804C14.5227 168.906 13.5785 167.361 12.7081 166.391C12.0596 165.677 12.0198 163.009 12.0795 161.118C12.0795 161.021 12.0795 160.928 12.0795 160.834C12.1194 159.852 12.1791 159.144 12.1791 159.144C11.8577 159.005 11.6102 157.972 11.451 156.869L11.4083 156.584C11.2263 155.279 11.1438 153.968 11.1438 153.968C9.03904 152.435 8.03786 150.043 7.57425 147.909C7.25127 146.415 7.12694 144.885 7.2045 143.359C7.2045 143.313 7.2045 143.287 7.2045 143.287C7.2045 143.287 7.4491 137.093 8.22843 134.684C8.25971 134.581 8.29384 134.487 8.32797 134.399C8.39623 134.252 8.48116 134.112 8.58111 133.984C9.01344 133.381 9.30071 131.93 9.48843 130.446L9.52256 130.161C9.75863 128.17 9.82405 126.216 9.82405 126.216L9.29502 123.622C9.15091 122.911 9.03998 122.199 8.96224 121.486C8.94802 121.392 8.93949 121.296 8.92811 121.202C8.79511 119.884 8.77133 118.556 8.85701 117.234C8.85701 117.137 8.85701 117.044 8.87691 116.95C9.09765 113.938 9.88507 110.995 11.1978 108.275C11.2433 108.178 11.2888 108.084 11.34 107.99C11.7057 107.252 12.1121 106.534 12.5574 105.84C12.711 105.598 12.8674 105.359 13.0324 105.123C13.2912 104.748 13.5614 104.378 13.843 104.02L14.0705 103.735C14.9504 102.639 15.9281 101.625 16.9916 100.706C20.1202 98.0241 22.9645 96.9888 25.5243 97.0827C35.6072 97.4439 41.2672 115.3 42.1973 118.48C42.2883 118.793 42.3338 118.963 42.3338 118.963C42.3338 118.963 46.5803 123.21 45.3373 125.073C45.0963 125.483 44.9496 125.942 44.9078 126.415C44.5637 128.921 45.545 133.048 45.545 133.048C45.545 133.048 45.8919 134.186 46.9045 136.911C46.9955 137.164 47.0951 137.428 47.1889 137.707C47.8232 139.414 47.9711 142.278 47.607 144.843C47.2572 147.304 46.438 149.474 45.1183 150.031C42.4277 151.169 43.1501 152.307 43.773 153.242C44.1414 153.913 44.4489 154.616 44.6917 155.341C45.1837 156.681 45.636 158.109 45.636 158.109C45.8221 158.037 46.012 157.975 46.2048 157.924C46.6005 157.794 47.0195 157.75 47.4335 157.796C47.5481 157.805 47.6569 157.85 47.7443 157.924C47.8317 157.999 47.8932 158.099 47.9199 158.211C47.9967 158.553 48.5854 158.976 49.2994 159.377C50.2263 159.882 51.1828 160.33 52.1635 160.72Z" fill="#CED7E7"/>
<path opacity="0.1" d="M14.7275 133.37C15.7116 133.318 26.2752 129.228 28.451 130.625C30.6269 132.021 44.0944 141.083 44.0944 141.083C44.0944 141.083 35.6555 130.056 28.3031 127.468C20.9508 124.88 14.7275 133.37 14.7275 133.37Z" fill="black"/>
<path opacity="0.1" d="M29.913 150.043C29.913 150.043 40.4765 152.164 42.0807 153.615L29.913 150.043Z" fill="black"/>
<path opacity="0.1" d="M27.8793 165.84C27.7257 165.996 23.8974 174.588 24.2045 174.588C24.5117 174.588 27.7769 169.469 27.7769 169.469L27.8793 165.84Z" fill="black"/>
<path opacity="0.1" d="M35.0781 155.529C35.0781 155.529 31.9722 156.618 32.3334 156.721C32.6946 156.823 34.9729 155.996 35.0781 155.529Z" fill="black"/>
<path opacity="0.1" d="M31.9722 168.527C32.4898 169.614 34.1452 172.876 34.5092 172.359C34.8733 171.841 31.9722 168.527 31.9722 168.527Z" fill="black"/>
<path opacity="0.1" d="M70.745 82.4092L70.3013 83.0407C70.3013 83.0407 66.7772 80.5576 65.3295 79.3147C63.8818 78.0718 60.463 83.7659 57.7695 85.3189C55.076 86.8719 50.5224 87.2871 50.5224 87.2871C50.5224 87.2871 47.0012 83.7659 47.1093 82.7363C47.2174 81.7067 45.4539 81.391 45.3487 80.6657C45.2435 79.9404 44.6234 77.8698 43.7957 76.8345C43.3577 76.2884 43.2951 74.579 43.335 73.0915C43.6194 73.0346 43.7957 73.0033 43.7957 73.0033C44.2378 72.2 44.7966 71.4667 45.4539 70.8275C46.3868 69.9998 47.8346 64.9256 47.8346 64.9256C48.6622 62.1297 50.3176 62.9574 50.3176 62.9574C50.3176 67.2039 54.6693 68.7568 56.8423 70.5174C59.0153 72.278 62.4341 76.8345 65.1276 77.7674C67.3376 78.5211 69.923 81.4365 70.745 82.4092Z" fill="black"/>
<path d="M70.7449 81.7863L70.3012 82.4206C70.3012 82.4206 66.763 79.9433 65.3152 78.6918C63.8675 77.4403 60.4487 83.143 57.7552 84.696C55.0617 86.2489 50.5081 86.6671 50.5081 86.6671C50.5081 86.6671 46.9869 83.143 47.095 82.1163C47.2031 81.0895 45.4396 80.7709 45.3344 80.0428C45.2292 79.3147 44.6091 77.2469 43.7814 76.2116C43.3434 75.6655 43.2809 73.9561 43.3207 72.4686L43.7814 72.3833C44.2235 71.5799 44.7823 70.8467 45.4396 70.2074C46.3726 69.3769 47.8203 64.3056 47.8203 64.3056C48.648 61.5097 50.3033 62.3345 50.3033 62.3345C50.3033 66.581 54.655 68.1368 56.828 69.8974C59.001 71.658 62.4198 76.2116 65.1133 77.1445C67.3375 77.9096 69.9229 80.8136 70.7449 81.7863Z" fill="#CED7E7"/>
<path opacity="0.1" d="M71.0095 82.6282C71.0095 82.6282 67.9576 84.2836 65.5741 84.44C65.2621 84.4546 64.9495 84.4365 64.6412 84.386C64.6412 84.386 67.2722 82.4206 69.7154 82.0196L71.0095 82.6282Z" fill="black"/>
<path opacity="0.1" d="M77.2241 91.0671C77.2241 91.0671 73.3759 89.5682 72.1045 91.8237C72.1472 90.7884 72.1642 89.9294 72.1642 89.9294L76.3595 89.0989C76.3595 89.0989 76.7634 89.8469 77.2355 90.8538C77.2241 90.9875 77.2241 91.0671 77.2241 91.0671Z" fill="black"/>
<path d="M64.6412 84.386C64.6412 84.386 69.2518 81.6185 71.4674 81.8518C73.7912 82.0935 78.2936 82.2642 78.2936 82.2642C78.2936 82.2642 76.7407 85.7853 76.9483 86.5106C77.1559 87.2359 77.2071 90.7571 77.2071 90.7571C77.2071 90.7571 72.5482 88.9453 71.7718 92.3101C71.7718 92.3101 69.2347 88.53 67.5253 87.3895C66.391 86.57 65.414 85.5525 64.6412 84.386Z" fill="#63667E"/>
<path opacity="0.1" d="M90.686 87.6C89.3407 87.6 84.5766 84.5936 83.5413 82.6282C82.506 80.6628 81.0554 82.833 79.7101 83.5611C78.8568 84.0276 75.475 83.052 73.6519 82.3438C74.5762 81.7152 76.6241 79.9461 77.2242 79.5223C77.9467 79.0018 78.6748 70.6141 78.6748 70.6141C81.2631 69.2688 84.0589 81.4877 84.0589 81.4877C84.0589 81.4877 88.9283 82.9382 89.3407 83.9736C89.4204 84.1783 89.7873 84.5424 90.339 84.9833C90.9079 86.4168 91.2208 87.6 90.686 87.6Z" fill="black"/>
<path d="M90.6859 86.9771C89.3406 86.9771 84.5765 83.9736 83.5412 82.0082C82.5059 80.0428 81.0553 82.213 79.71 82.9382C78.8567 83.4047 76.1462 82.5031 74.323 81.8005C75.2474 81.1748 76.624 79.3317 77.2241 78.9051C77.9466 78.3875 78.6747 69.9998 78.6747 69.9998C81.263 68.6544 84.0588 80.8733 84.0588 80.8733C84.0588 80.8733 88.9282 82.3239 89.3406 83.3592C89.4202 83.564 89.7872 83.928 90.3389 84.3689C90.9078 85.7939 91.2207 86.9771 90.6859 86.9771Z" fill="#CED7E7"/>
<path d="M109.085 177.7L154.113 140.156C154.562 139.776 155.135 139.574 155.723 139.587L172.521 140.028C172.521 140.028 173.684 140.881 171.977 142.747L129.501 177.603C129.042 177.979 128.473 178.192 127.88 178.212L109.512 178.821C109.38 178.825 109.25 178.788 109.14 178.715C109.031 178.641 108.946 178.536 108.899 178.412C108.852 178.289 108.845 178.154 108.878 178.026C108.912 177.899 108.984 177.785 109.085 177.7Z" fill="#006DAA"/>
<path d="M130.867 173.081C130.867 173.081 140.702 187.166 151.63 174.065C162.557 160.964 159.397 154.081 156.084 153.717C152.77 153.353 134.126 167.697 130.867 173.081Z" fill="#FFA2A2"/>
<path opacity="0.1" d="M197.203 15.5495C197.203 15.5495 209.88 -9.05324 224.863 3.63494C224.863 3.63494 228.134 4.82668 227.887 8.28529C227.887 8.28529 226.627 7.59413 225.626 10.2364C225.258 11.174 224.781 12.0648 224.204 12.8901C223.437 14.0051 222.329 14.8414 221.046 15.2736C221.046 15.2736 214.323 20.3108 201.868 16.4255C201.868 16.4255 198.347 16.9318 197.778 16.4938L201.871 13.5016C201.871 13.5016 203.95 16.5876 206.99 16.9403C206.99 16.9403 201.871 13.7263 202.456 13.0295C202.576 12.8873 204.698 11.542 204.698 11.542C204.698 11.542 208.335 16.892 213.051 17.2873C213.051 17.2873 206.444 14.2753 205.497 11.03L208.816 9.17838C208.816 9.17838 212.383 15.0233 217.739 15.6775C217.739 15.6775 210.941 12.29 209.57 8.82285L213.083 7.45192C213.083 7.45192 216.675 13.0835 221.132 13.5983C221.132 13.5983 213.674 8.89111 213.907 7.19025C213.907 7.19025 217.21 6.1265 218.222 6.26587C218.222 6.26587 220.893 10.2478 223.51 10.3189C223.51 10.3189 218.859 6.64416 219.166 6.07815C219.166 6.07815 223.837 5.83639 226.277 6.96556C226.277 6.96556 222.807 5.03431 219.166 5.34718C219.166 5.34718 220.813 3.41025 222.961 2.98361C222.961 2.98361 220.387 1.92555 218.034 5.41829C218.034 5.41829 214.402 5.75106 213.953 6.15495C213.953 6.15495 215.79 2.37778 218.051 0.770785C218.051 0.770785 214.681 1.36523 213.011 6.48488L209.45 7.7847C209.45 7.7847 211.615 2.66505 213.523 1.08365C213.523 1.08365 210.179 2.22135 208.58 8.19427L205.304 9.97477C205.304 9.97477 206.831 5.42397 208.574 3.20262C208.574 3.20262 205.699 4.92623 204.382 10.518L202.334 11.9601C202.334 11.9601 203.509 8.65504 203.933 7.73635C204.356 6.81765 204.143 6.62709 204.143 6.62709C202.72 8.31008 201.791 10.3551 201.461 12.5346C201.461 12.5346 197.439 15.777 197.203 15.5495Z" fill="#36ADEF"/>
<path opacity="0.1" d="M249.631 28.707C249.631 28.707 255.359 17.5889 262.129 23.3229C262.129 23.3229 263.608 23.8604 263.494 25.4219C263.494 25.4219 262.925 25.1119 262.473 26.3065C262.309 26.7296 262.095 27.1316 261.836 27.5039C261.49 28.0065 260.991 28.3844 260.414 28.5819C260.414 28.5819 257.373 30.8573 251.744 29.1024C251.744 29.1024 250.154 29.3299 249.898 29.1337L251.747 27.7798C251.747 27.7798 252.686 29.1763 254.062 29.3328C254.062 29.3328 251.753 27.8822 252.015 27.5665C252.066 27.5039 253.024 26.8952 253.024 26.8952C253.024 26.8952 254.668 29.3128 256.801 29.492C256.801 29.492 253.815 28.1296 253.388 26.6478L254.89 25.8144C254.89 25.8144 256.5 28.4567 258.92 28.7525C258.92 28.7525 255.849 27.2223 255.223 25.6551L256.81 25.0351C256.81 25.0351 258.431 27.5807 260.445 27.8139C260.445 27.8139 257.074 25.6864 257.183 24.9185C257.183 24.9185 258.673 24.4378 259.131 24.5004C259.131 24.5004 260.337 26.3008 261.52 26.3292C261.52 26.3292 259.418 24.671 259.558 24.4151C259.558 24.4151 261.668 24.307 262.766 24.8161C262.766 24.8161 261.199 23.9429 259.558 24.0851C260.01 23.5702 260.603 23.1986 261.264 23.0157C261.264 23.0157 260.101 22.5378 259.037 24.1164C259.037 24.1164 257.396 24.2671 257.194 24.4492C257.194 24.4492 258.024 22.7426 259.046 22.0173C259.046 22.0173 257.521 22.2847 256.77 24.5999L255.177 25.1972C255.177 25.1972 256.153 22.8848 257.018 22.1681C257.018 22.1681 255.504 22.6829 254.782 25.3793L253.303 26.1813C253.303 26.1813 253.991 24.1221 254.779 23.1209C254.779 23.1209 253.479 23.9002 252.888 26.4259L251.961 27.0773C251.961 27.0773 252.492 25.584 252.683 25.1688C252.874 24.7535 252.777 24.6682 252.777 24.6682C252.134 25.4313 251.714 26.3577 251.565 27.3446C251.565 27.3446 249.731 28.8094 249.631 28.707Z" fill="#36ADEF"/>
<path opacity="0.1" d="M187.561 41.6426C187.561 41.6426 193.289 30.5245 200.076 36.2585C200.076 36.2585 201.552 36.796 201.441 38.3604C201.441 38.3604 200.872 38.0475 200.42 39.2421C200.255 39.6647 200.041 40.0666 199.783 40.4395C199.433 40.9445 198.929 41.3227 198.346 41.5175C198.346 41.5175 195.309 43.7929 189.68 42.038C189.68 42.038 188.09 42.2684 187.834 42.0693L189.683 40.7154C189.683 40.7154 190.621 42.1119 191.995 42.2712C191.995 42.2712 189.686 40.8178 189.947 40.5021C190.001 40.4395 190.96 39.8308 190.96 39.8308C190.96 39.8308 192.604 42.2484 194.734 42.4276C194.734 42.4276 191.751 41.0652 191.321 39.5834L192.823 38.7529C192.823 38.7529 194.436 41.3923 196.856 41.6881C196.856 41.6881 193.784 40.1579 193.159 38.5907L194.746 37.9707C194.746 37.9707 196.37 40.5163 198.383 40.7495C198.383 40.7495 195.013 38.622 195.118 37.8541C195.118 37.8541 196.611 37.3734 197.069 37.436C197.069 37.436 198.275 39.2364 199.459 39.2677C199.459 39.2677 197.357 37.6066 197.496 37.3507C197.496 37.3507 199.604 37.2426 200.704 37.7517C200.704 37.7517 199.134 36.8785 197.493 37.0207C197.946 36.5058 198.539 36.1342 199.2 35.9513C199.2 35.9513 198.039 35.4735 196.975 37.052C196.975 37.052 195.334 37.2028 195.132 37.3848C195.132 37.3848 195.96 35.6782 196.984 34.953C196.984 34.953 195.46 35.2203 194.709 37.5355L193.096 38.1328C193.096 38.1328 194.074 35.8205 194.936 35.1065C194.936 35.1065 193.426 35.6185 192.703 38.3149L191.222 39.1169C191.222 39.1169 191.913 37.0577 192.701 36.0565C192.701 36.0565 191.401 36.8358 190.806 39.3615L189.879 40.0129C189.879 40.0129 190.411 38.5196 190.602 38.1044C190.792 37.6891 190.698 37.6038 190.698 37.6038C190.054 38.3661 189.634 39.2929 189.487 40.2802C189.487 40.2802 187.661 41.745 187.561 41.6426Z" fill="#36ADEF"/>
</g>
<defs>
<clipPath id="clip0">
<rect width="305" height="221.891" fill="white"/>
</clipPath>
</defs>
</svg>
