<svg width="800" height="558" viewBox="0 0 800 558" fill="none" xmlns="http://www.w3.org/2000/svg">
<g clip-path="url(#clip0)">
<path d="M201.482 299.831C210.27 299.831 217.394 292.707 217.394 283.918C217.394 275.13 210.27 268.006 201.482 268.006C192.693 268.006 185.569 275.13 185.569 283.918C185.569 292.707 192.693 299.831 201.482 299.831Z" fill="#F2F2F2"/>
<path d="M147.024 477.033C152.471 477.033 156.886 472.618 156.886 467.171C156.886 461.725 152.471 457.309 147.024 457.309C141.578 457.309 137.162 461.725 137.162 467.171C137.162 472.618 141.578 477.033 147.024 477.033Z" fill="#F2F2F2"/>
<path d="M449.486 18.5846H328.47V20.3134H449.486V18.5846Z" fill="#F2F2F2"/>
<path d="M363.046 3.02539H361.317V19.0168H363.046V3.02539Z" fill="#F2F2F2"/>
<path d="M415.774 3.02539H414.045V19.0168H415.774V3.02539Z" fill="#F2F2F2"/>
<path d="M644.84 436.954H523.824V438.683H644.84V436.954Z" fill="#F2F2F2"/>
<path d="M558.4 421.395H556.671V437.387H558.4V421.395Z" fill="#F2F2F2"/>
<path d="M611.128 421.395H609.4V437.387H611.128V421.395Z" fill="#F2F2F2"/>
<path d="M650.891 173.312H529.875V175.041H650.891V173.312Z" fill="#F2F2F2"/>
<path d="M564.451 157.753H562.722V173.744H564.451V157.753Z" fill="#F2F2F2"/>
<path d="M617.179 157.753H615.45V173.744H617.179V157.753Z" fill="#F2F2F2"/>
<path d="M650.891 111.075H529.875V112.804H650.891V111.075Z" fill="#F2F2F2"/>
<path d="M564.451 95.5162H562.722V111.508H564.451V95.5162Z" fill="#F2F2F2"/>
<path d="M617.179 95.5162H615.45V111.508H617.179V95.5162Z" fill="#F2F2F2"/>
<path d="M385.52 119.719H264.504V121.448H385.52V119.719Z" fill="#F2F2F2"/>
<path d="M299.08 104.16H297.351V120.152H299.08V104.16Z" fill="#F2F2F2"/>
<path d="M351.808 104.16H350.08V120.152H351.808V104.16Z" fill="#F2F2F2"/>
<path d="M297.351 79.0927H176.335V80.8214H297.351V79.0927Z" fill="#F2F2F2"/>
<path d="M210.911 63.5334H209.182V79.5249H210.911V63.5334Z" fill="#F2F2F2"/>
<path d="M263.64 63.5334H261.911V79.5249H263.64V63.5334Z" fill="#F2F2F2"/>
<path d="M242.894 239.007H121.878V240.736H242.894V239.007Z" fill="#F2F2F2"/>
<path d="M156.454 223.448H154.725V239.439H156.454V223.448Z" fill="#F2F2F2"/>
<path d="M209.182 223.448H207.453V239.439H209.182V223.448Z" fill="#F2F2F2"/>
<path d="M182.386 415.344H61.3699V417.073H182.386V415.344Z" fill="#F2F2F2"/>
<path d="M95.9458 399.785H94.217V415.777H95.9458V399.785Z" fill="#F2F2F2"/>
<path d="M148.674 399.785H146.945V415.777H148.674V399.785Z" fill="#F2F2F2"/>
<path d="M754.619 342.735H633.603V344.464H754.619V342.735Z" fill="#F2F2F2"/>
<path d="M668.179 327.176H666.45V343.167H668.179V327.176Z" fill="#F2F2F2"/>
<path d="M720.907 327.176H719.179V343.167H720.907V327.176Z" fill="#F2F2F2"/>
<path d="M719.179 232.092H598.162V233.82H719.179V232.092Z" fill="#F2F2F2"/>
<path d="M686.331 233.388H684.603V249.379H686.331V233.388Z" fill="#F2F2F2"/>
<path d="M633.603 233.388H631.874V249.379H633.603V233.388Z" fill="#F2F2F2"/>
<path d="M133.115 102.431H12.099V104.16H133.115V102.431Z" fill="#F2F2F2"/>
<path d="M100.268 103.728H98.5391V119.719H100.268V103.728Z" fill="#F2F2F2"/>
<path d="M47.5395 103.728H45.8107V119.719H47.5395V103.728Z" fill="#F2F2F2"/>
<path d="M140.895 328.904H19.8787V330.633H140.895V328.904Z" fill="#F2F2F2"/>
<path d="M108.047 330.201H106.319V346.192H108.047V330.201Z" fill="#F2F2F2"/>
<path d="M55.319 330.201H53.5902V346.192H55.319V330.201Z" fill="#F2F2F2"/>
<path d="M522.095 46.2454H401.079V47.9742H522.095V46.2454Z" fill="#F2F2F2"/>
<path d="M489.248 47.542H487.519V63.5334H489.248V47.542Z" fill="#F2F2F2"/>
<path d="M436.52 47.542H434.791V63.5334H436.52V47.542Z" fill="#F2F2F2"/>
<path d="M182.386 166.397H61.3699V168.126H182.386V166.397Z" fill="#F2F2F2"/>
<path d="M95.9458 150.838H94.217V166.829H95.9458V150.838Z" fill="#F2F2F2"/>
<path d="M148.674 150.838H146.945V166.829H148.674V150.838Z" fill="#F2F2F2"/>
<path d="M201.835 149.541V556.674H578.714V149.541H201.835ZM390.274 178.931C387.71 178.931 385.203 178.17 383.071 176.746C380.938 175.321 379.277 173.296 378.295 170.927C377.314 168.558 377.057 165.951 377.557 163.435C378.058 160.92 379.293 158.61 381.106 156.797C382.919 154.983 385.23 153.748 387.745 153.248C390.26 152.748 392.867 153.004 395.236 153.986C397.605 154.967 399.63 156.629 401.055 158.761C402.48 160.894 403.24 163.4 403.24 165.965C403.24 169.404 401.874 172.702 399.443 175.133C397.011 177.565 393.713 178.931 390.274 178.931Z" fill="#1E1C33"/>
<path d="M301.977 236V220.295H305.307V233.25H311.677V236H301.977ZM314.019 220.886C314.019 219.819 314.613 219.285 315.802 219.285C316.991 219.285 317.585 219.819 317.585 220.886C317.585 221.394 317.435 221.792 317.134 222.078C316.84 222.357 316.396 222.497 315.802 222.497C314.613 222.497 314.019 221.96 314.019 220.886ZM317.435 236H314.158V223.99H317.435V236ZM323.74 236L319.164 223.99H322.591L324.911 230.833C325.169 231.7 325.33 232.52 325.395 233.293H325.459C325.495 232.605 325.656 231.785 325.942 230.833L328.252 223.99H331.679L327.103 236H323.74ZM338.382 226.096C337.687 226.096 337.143 226.318 336.749 226.762C336.355 227.199 336.13 227.822 336.072 228.631H340.67C340.656 227.822 340.444 227.199 340.036 226.762C339.628 226.318 339.076 226.096 338.382 226.096ZM338.844 236.215C336.91 236.215 335.399 235.681 334.311 234.614C333.222 233.547 332.678 232.036 332.678 230.081C332.678 228.069 333.179 226.515 334.182 225.419C335.191 224.316 336.584 223.765 338.36 223.765C340.058 223.765 341.379 224.248 342.324 225.215C343.27 226.182 343.742 227.517 343.742 229.222V230.812H335.997C336.033 231.743 336.309 232.469 336.824 232.992C337.34 233.515 338.063 233.776 338.994 233.776C339.717 233.776 340.401 233.701 341.046 233.551C341.69 233.4 342.364 233.16 343.065 232.831V235.366C342.493 235.653 341.88 235.864 341.229 236C340.577 236.143 339.782 236.215 338.844 236.215ZM361.649 231.639C361.649 233.057 361.137 234.174 360.113 234.99C359.096 235.807 357.678 236.215 355.859 236.215C354.184 236.215 352.701 235.9 351.412 235.27V232.176C352.472 232.648 353.367 232.981 354.098 233.175C354.835 233.368 355.508 233.465 356.117 233.465C356.848 233.465 357.406 233.325 357.793 233.046C358.187 232.767 358.384 232.351 358.384 231.8C358.384 231.492 358.298 231.22 358.126 230.983C357.954 230.74 357.7 230.507 357.363 230.285C357.034 230.063 356.357 229.709 355.333 229.222C354.373 228.771 353.654 228.337 353.174 227.922C352.694 227.507 352.311 227.023 352.024 226.472C351.738 225.92 351.595 225.276 351.595 224.538C351.595 223.149 352.064 222.057 353.002 221.262C353.947 220.467 355.251 220.069 356.912 220.069C357.729 220.069 358.506 220.166 359.243 220.359C359.988 220.553 360.765 220.825 361.574 221.176L360.5 223.765C359.662 223.421 358.967 223.181 358.416 223.045C357.872 222.909 357.335 222.841 356.805 222.841C356.174 222.841 355.691 222.988 355.354 223.281C355.018 223.575 354.85 223.958 354.85 224.431C354.85 224.724 354.918 224.982 355.054 225.204C355.19 225.419 355.405 225.63 355.698 225.838C355.999 226.038 356.704 226.404 357.814 226.934C359.283 227.635 360.289 228.341 360.833 229.05C361.377 229.752 361.649 230.615 361.649 231.639ZM369.212 226.096C368.517 226.096 367.973 226.318 367.579 226.762C367.185 227.199 366.96 227.822 366.902 228.631H371.5C371.486 227.822 371.274 227.199 370.866 226.762C370.458 226.318 369.907 226.096 369.212 226.096ZM369.674 236.215C367.74 236.215 366.229 235.681 365.141 234.614C364.052 233.547 363.508 232.036 363.508 230.081C363.508 228.069 364.009 226.515 365.012 225.419C366.021 224.316 367.414 223.765 369.19 223.765C370.888 223.765 372.209 224.248 373.154 225.215C374.1 226.182 374.572 227.517 374.572 229.222V230.812H366.827C366.863 231.743 367.139 232.469 367.654 232.992C368.17 233.515 368.893 233.776 369.824 233.776C370.548 233.776 371.231 233.701 371.876 233.551C372.521 233.4 373.194 233.16 373.896 232.831V235.366C373.323 235.653 372.71 235.864 372.059 236C371.407 236.143 370.612 236.215 369.674 236.215ZM385.615 232.434C385.615 233.665 385.186 234.604 384.326 235.248C383.474 235.893 382.196 236.215 380.491 236.215C379.618 236.215 378.873 236.154 378.257 236.032C377.641 235.918 377.064 235.746 376.527 235.517V232.81C377.136 233.096 377.82 233.336 378.579 233.529C379.345 233.723 380.019 233.819 380.599 233.819C381.787 233.819 382.382 233.476 382.382 232.788C382.382 232.53 382.303 232.323 382.146 232.165C381.988 232 381.716 231.818 381.329 231.617C380.942 231.41 380.427 231.17 379.782 230.897C378.858 230.511 378.178 230.153 377.741 229.823C377.312 229.494 376.996 229.118 376.796 228.695C376.603 228.266 376.506 227.739 376.506 227.116C376.506 226.049 376.918 225.226 377.741 224.646C378.572 224.058 379.746 223.765 381.265 223.765C382.711 223.765 384.118 224.08 385.486 224.71L384.498 227.073C383.896 226.815 383.334 226.604 382.812 226.439C382.289 226.275 381.755 226.192 381.211 226.192C380.244 226.192 379.761 226.454 379.761 226.977C379.761 227.27 379.915 227.524 380.223 227.739C380.538 227.954 381.222 228.273 382.274 228.695C383.213 229.075 383.9 229.429 384.337 229.759C384.774 230.088 385.096 230.468 385.304 230.897C385.511 231.327 385.615 231.839 385.615 232.434ZM396.551 232.434C396.551 233.665 396.121 234.604 395.262 235.248C394.41 235.893 393.131 236.215 391.427 236.215C390.553 236.215 389.808 236.154 389.192 236.032C388.576 235.918 388 235.746 387.463 235.517V232.81C388.072 233.096 388.756 233.336 389.515 233.529C390.281 233.723 390.954 233.819 391.534 233.819C392.723 233.819 393.317 233.476 393.317 232.788C393.317 232.53 393.239 232.323 393.081 232.165C392.924 232 392.651 231.818 392.265 231.617C391.878 231.41 391.362 231.17 390.718 230.897C389.794 230.511 389.114 230.153 388.677 229.823C388.247 229.494 387.932 229.118 387.731 228.695C387.538 228.266 387.441 227.739 387.441 227.116C387.441 226.049 387.853 225.226 388.677 224.646C389.507 224.058 390.682 223.765 392.2 223.765C393.647 223.765 395.054 224.08 396.422 224.71L395.434 227.073C394.832 226.815 394.27 226.604 393.747 226.439C393.224 226.275 392.691 226.192 392.146 226.192C391.18 226.192 390.696 226.454 390.696 226.977C390.696 227.27 390.85 227.524 391.158 227.739C391.473 227.954 392.157 228.273 393.21 228.695C394.148 229.075 394.836 229.429 395.272 229.759C395.709 230.088 396.032 230.468 396.239 230.897C396.447 231.327 396.551 231.839 396.551 232.434ZM398.968 220.886C398.968 219.819 399.562 219.285 400.751 219.285C401.94 219.285 402.534 219.819 402.534 220.886C402.534 221.394 402.384 221.792 402.083 222.078C401.789 222.357 401.345 222.497 400.751 222.497C399.562 222.497 398.968 221.96 398.968 220.886ZM402.384 236H399.107V223.99H402.384V236ZM408.442 229.974C408.442 231.162 408.636 232.061 409.022 232.67C409.416 233.279 410.054 233.583 410.935 233.583C411.808 233.583 412.435 233.282 412.814 232.681C413.201 232.072 413.395 231.17 413.395 229.974C413.395 228.785 413.201 227.893 412.814 227.299C412.428 226.704 411.794 226.407 410.913 226.407C410.039 226.407 409.409 226.704 409.022 227.299C408.636 227.886 408.442 228.778 408.442 229.974ZM416.746 229.974C416.746 231.929 416.23 233.458 415.199 234.561C414.168 235.663 412.732 236.215 410.892 236.215C409.739 236.215 408.722 235.964 407.841 235.463C406.96 234.954 406.283 234.228 405.811 233.282C405.338 232.337 405.102 231.234 405.102 229.974C405.102 228.011 405.614 226.486 406.638 225.397C407.662 224.309 409.101 223.765 410.956 223.765C412.109 223.765 413.126 224.015 414.007 224.517C414.888 225.018 415.564 225.738 416.037 226.676C416.51 227.614 416.746 228.713 416.746 229.974ZM430.539 236H427.263V228.985C427.263 228.119 427.109 227.471 426.801 227.041C426.493 226.604 426.002 226.386 425.329 226.386C424.412 226.386 423.75 226.694 423.342 227.31C422.934 227.918 422.729 228.932 422.729 230.35V236H419.453V223.99H421.956L422.396 225.526H422.579C422.944 224.946 423.446 224.509 424.083 224.216C424.728 223.915 425.458 223.765 426.274 223.765C427.671 223.765 428.731 224.144 429.454 224.903C430.177 225.655 430.539 226.744 430.539 228.169V236ZM442.291 232.434C442.291 233.665 441.861 234.604 441.002 235.248C440.15 235.893 438.871 236.215 437.167 236.215C436.293 236.215 435.549 236.154 434.933 236.032C434.317 235.918 433.74 235.746 433.203 235.517V232.81C433.812 233.096 434.496 233.336 435.255 233.529C436.021 233.723 436.694 233.819 437.274 233.819C438.463 233.819 439.058 233.476 439.058 232.788C439.058 232.53 438.979 232.323 438.821 232.165C438.664 232 438.392 231.818 438.005 231.617C437.618 231.41 437.103 231.17 436.458 230.897C435.534 230.511 434.854 230.153 434.417 229.823C433.987 229.494 433.672 229.118 433.472 228.695C433.278 228.266 433.182 227.739 433.182 227.116C433.182 226.049 433.593 225.226 434.417 224.646C435.248 224.058 436.422 223.765 437.94 223.765C439.387 223.765 440.794 224.08 442.162 224.71L441.174 227.073C440.572 226.815 440.01 226.604 439.487 226.439C438.965 226.275 438.431 226.192 437.887 226.192C436.92 226.192 436.437 226.454 436.437 226.977C436.437 227.27 436.59 227.524 436.898 227.739C437.214 227.954 437.897 228.273 438.95 228.695C439.888 229.075 440.576 229.429 441.013 229.759C441.45 230.088 441.772 230.468 441.979 230.897C442.187 231.327 442.291 231.839 442.291 232.434Z" fill="#F98900"/>
<path d="M305.307 289.267H306.381C307.434 289.267 308.211 289.091 308.712 288.74C309.213 288.389 309.464 287.838 309.464 287.086C309.464 286.341 309.206 285.811 308.69 285.496C308.182 285.181 307.391 285.023 306.316 285.023H305.307V289.267ZM305.307 291.974V298H301.977V282.295H306.553C308.687 282.295 310.266 282.685 311.29 283.466C312.314 284.239 312.826 285.417 312.826 287C312.826 287.924 312.572 288.747 312.063 289.471C311.555 290.187 310.835 290.749 309.904 291.157C312.268 294.688 313.807 296.969 314.523 298H310.828L307.079 291.974H305.307ZM321.216 288.096C320.521 288.096 319.977 288.318 319.583 288.762C319.189 289.199 318.964 289.822 318.906 290.631H323.504C323.49 289.822 323.278 289.199 322.87 288.762C322.462 288.318 321.91 288.096 321.216 288.096ZM321.678 298.215C319.744 298.215 318.233 297.681 317.145 296.614C316.056 295.547 315.512 294.036 315.512 292.081C315.512 290.069 316.013 288.515 317.016 287.419C318.025 286.316 319.418 285.765 321.194 285.765C322.892 285.765 324.213 286.248 325.158 287.215C326.104 288.182 326.576 289.517 326.576 291.222V292.812H318.831C318.867 293.743 319.143 294.469 319.658 294.992C320.174 295.515 320.897 295.776 321.828 295.776C322.551 295.776 323.235 295.701 323.88 295.551C324.524 295.4 325.198 295.16 325.899 294.831V297.366C325.326 297.653 324.714 297.864 324.062 298C323.411 298.143 322.616 298.215 321.678 298.215ZM334.117 298.215C330.379 298.215 328.51 296.163 328.51 292.06C328.51 290.019 329.018 288.461 330.035 287.387C331.052 286.305 332.509 285.765 334.407 285.765C335.797 285.765 337.043 286.037 338.146 286.581L337.179 289.116C336.663 288.909 336.183 288.74 335.739 288.611C335.295 288.475 334.851 288.407 334.407 288.407C332.703 288.407 331.851 289.618 331.851 292.038C331.851 294.387 332.703 295.562 334.407 295.562C335.037 295.562 335.621 295.479 336.158 295.314C336.695 295.143 337.232 294.878 337.77 294.52V297.323C337.24 297.66 336.702 297.893 336.158 298.021C335.621 298.15 334.941 298.215 334.117 298.215ZM343.173 291.974C343.173 293.162 343.366 294.061 343.753 294.67C344.147 295.279 344.784 295.583 345.665 295.583C346.539 295.583 347.165 295.282 347.545 294.681C347.932 294.072 348.125 293.17 348.125 291.974C348.125 290.785 347.932 289.893 347.545 289.299C347.158 288.704 346.524 288.407 345.644 288.407C344.77 288.407 344.14 288.704 343.753 289.299C343.366 289.886 343.173 290.778 343.173 291.974ZM351.477 291.974C351.477 293.929 350.961 295.458 349.93 296.561C348.898 297.663 347.463 298.215 345.622 298.215C344.469 298.215 343.452 297.964 342.571 297.463C341.69 296.954 341.014 296.228 340.541 295.282C340.068 294.337 339.832 293.234 339.832 291.974C339.832 290.011 340.344 288.486 341.368 287.397C342.392 286.309 343.832 285.765 345.687 285.765C346.84 285.765 347.856 286.015 348.737 286.517C349.618 287.018 350.295 287.738 350.768 288.676C351.24 289.614 351.477 290.713 351.477 291.974ZM360.887 285.765C361.331 285.765 361.7 285.797 361.993 285.861L361.746 288.934C361.481 288.862 361.159 288.826 360.779 288.826C359.734 288.826 358.917 289.095 358.33 289.632C357.75 290.169 357.46 290.921 357.46 291.888V298H354.184V285.99H356.665L357.148 288.01H357.31C357.682 287.337 358.183 286.796 358.813 286.388C359.451 285.972 360.142 285.765 360.887 285.765ZM367.977 298.215C366.566 298.215 365.456 297.667 364.646 296.571C363.844 295.476 363.443 293.957 363.443 292.017C363.443 290.047 363.852 288.515 364.668 287.419C365.492 286.316 366.623 285.765 368.062 285.765C369.574 285.765 370.727 286.352 371.521 287.526H371.629C371.464 286.631 371.382 285.833 371.382 285.131V281.285H374.669V298H372.155L371.521 296.442H371.382C370.637 297.624 369.502 298.215 367.977 298.215ZM369.126 295.604C369.964 295.604 370.576 295.361 370.963 294.874C371.357 294.387 371.572 293.56 371.607 292.393V292.038C371.607 290.749 371.407 289.825 371.006 289.267C370.612 288.708 369.967 288.429 369.072 288.429C368.342 288.429 367.772 288.74 367.364 289.363C366.963 289.979 366.763 290.878 366.763 292.06C366.763 293.241 366.967 294.129 367.375 294.724C367.783 295.311 368.367 295.604 369.126 295.604ZM383.069 288.096C382.375 288.096 381.83 288.318 381.437 288.762C381.043 289.199 380.817 289.822 380.76 290.631H385.357C385.343 289.822 385.132 289.199 384.724 288.762C384.315 288.318 383.764 288.096 383.069 288.096ZM383.531 298.215C381.598 298.215 380.087 297.681 378.998 296.614C377.91 295.547 377.365 294.036 377.365 292.081C377.365 290.069 377.867 288.515 378.869 287.419C379.879 286.316 381.272 285.765 383.048 285.765C384.745 285.765 386.066 286.248 387.012 287.215C387.957 288.182 388.43 289.517 388.43 291.222V292.812H380.685C380.72 293.743 380.996 294.469 381.512 294.992C382.027 295.515 382.751 295.776 383.682 295.776C384.405 295.776 385.089 295.701 385.733 295.551C386.378 295.4 387.051 295.16 387.753 294.831V297.366C387.18 297.653 386.568 297.864 385.916 298C385.264 298.143 384.469 298.215 383.531 298.215ZM394.896 298.215C393.486 298.215 392.376 297.667 391.566 296.571C390.764 295.476 390.363 293.957 390.363 292.017C390.363 290.047 390.771 288.515 391.588 287.419C392.411 286.316 393.543 285.765 394.982 285.765C396.493 285.765 397.646 286.352 398.441 287.526H398.549C398.384 286.631 398.302 285.833 398.302 285.131V281.285H401.589V298H399.075L398.441 296.442H398.302C397.557 297.624 396.422 298.215 394.896 298.215ZM396.046 295.604C396.884 295.604 397.496 295.361 397.883 294.874C398.277 294.387 398.492 293.56 398.527 292.393V292.038C398.527 290.749 398.327 289.825 397.926 289.267C397.532 288.708 396.887 288.429 395.992 288.429C395.262 288.429 394.692 288.74 394.284 289.363C393.883 289.979 393.683 290.878 393.683 292.06C393.683 293.241 393.887 294.129 394.295 294.724C394.703 295.311 395.287 295.604 396.046 295.604ZM410.988 298V282.295H414.318V295.25H420.688V298H410.988ZM428.144 288.096C427.449 288.096 426.905 288.318 426.511 288.762C426.117 289.199 425.891 289.822 425.834 290.631H430.432C430.417 289.822 430.206 289.199 429.798 288.762C429.39 288.318 428.838 288.096 428.144 288.096ZM428.605 298.215C426.672 298.215 425.161 297.681 424.072 296.614C422.984 295.547 422.439 294.036 422.439 292.081C422.439 290.069 422.941 288.515 423.943 287.419C424.953 286.316 426.346 285.765 428.122 285.765C429.819 285.765 431.141 286.248 432.086 287.215C433.031 288.182 433.504 289.517 433.504 291.222V292.812H425.759C425.795 293.743 426.07 294.469 426.586 294.992C427.102 295.515 427.825 295.776 428.756 295.776C429.479 295.776 430.163 295.701 430.808 295.551C431.452 295.4 432.125 295.16 432.827 294.831V297.366C432.254 297.653 431.642 297.864 430.99 298C430.339 298.143 429.544 298.215 428.605 298.215ZM441.045 298.215C437.307 298.215 435.438 296.163 435.438 292.06C435.438 290.019 435.946 288.461 436.963 287.387C437.98 286.305 439.437 285.765 441.335 285.765C442.724 285.765 443.97 286.037 445.073 286.581L444.106 289.116C443.591 288.909 443.111 288.74 442.667 288.611C442.223 288.475 441.779 288.407 441.335 288.407C439.631 288.407 438.778 289.618 438.778 292.038C438.778 294.387 439.631 295.562 441.335 295.562C441.965 295.562 442.549 295.479 443.086 295.314C443.623 295.143 444.16 294.878 444.697 294.52V297.323C444.167 297.66 443.63 297.893 443.086 298.021C442.549 298.15 441.868 298.215 441.045 298.215ZM452.55 295.604C453.123 295.604 453.81 295.479 454.612 295.229V297.667C453.796 298.032 452.793 298.215 451.604 298.215C450.294 298.215 449.338 297.885 448.736 297.227C448.142 296.561 447.845 295.565 447.845 294.24V288.45H446.276V287.064L448.081 285.969L449.026 283.434H451.121V285.99H454.483V288.45H451.121V294.24C451.121 294.706 451.25 295.049 451.508 295.271C451.773 295.493 452.12 295.604 452.55 295.604ZM465.559 298L465.118 296.464H464.946C464.595 297.022 464.098 297.456 463.453 297.764C462.809 298.064 462.075 298.215 461.251 298.215C459.84 298.215 458.777 297.839 458.061 297.087C457.344 296.328 456.986 295.239 456.986 293.821V285.99H460.263V293.005C460.263 293.871 460.417 294.523 460.725 294.96C461.033 295.39 461.523 295.604 462.196 295.604C463.113 295.604 463.775 295.3 464.184 294.691C464.592 294.076 464.796 293.059 464.796 291.641V285.99H468.072V298H465.559ZM478.213 285.765C478.657 285.765 479.026 285.797 479.319 285.861L479.072 288.934C478.807 288.862 478.485 288.826 478.105 288.826C477.06 288.826 476.243 289.095 475.656 289.632C475.076 290.169 474.786 290.921 474.786 291.888V298H471.51V285.99H473.991L474.475 288.01H474.636C475.008 287.337 475.509 286.796 476.14 286.388C476.777 285.972 477.468 285.765 478.213 285.765ZM486.474 288.096C485.779 288.096 485.235 288.318 484.841 288.762C484.447 289.199 484.221 289.822 484.164 290.631H488.762C488.747 289.822 488.536 289.199 488.128 288.762C487.72 288.318 487.168 288.096 486.474 288.096ZM486.936 298.215C485.002 298.215 483.491 297.681 482.402 296.614C481.314 295.547 480.77 294.036 480.77 292.081C480.77 290.069 481.271 288.515 482.273 287.419C483.283 286.316 484.676 285.765 486.452 285.765C488.149 285.765 489.471 286.248 490.416 287.215C491.361 288.182 491.834 289.517 491.834 291.222V292.812H484.089C484.125 293.743 484.4 294.469 484.916 294.992C485.432 295.515 486.155 295.776 487.086 295.776C487.809 295.776 488.493 295.701 489.138 295.551C489.782 295.4 490.455 295.16 491.157 294.831V297.366C490.584 297.653 489.972 297.864 489.32 298C488.669 298.143 487.874 298.215 486.936 298.215ZM502.877 294.434C502.877 295.665 502.447 296.604 501.588 297.248C500.736 297.893 499.457 298.215 497.753 298.215C496.879 298.215 496.134 298.154 495.519 298.032C494.903 297.918 494.326 297.746 493.789 297.517V294.81C494.398 295.096 495.082 295.336 495.841 295.529C496.607 295.723 497.28 295.819 497.86 295.819C499.049 295.819 499.644 295.476 499.644 294.788C499.644 294.53 499.565 294.323 499.407 294.165C499.25 294 498.978 293.818 498.591 293.617C498.204 293.41 497.688 293.17 497.044 292.897C496.12 292.511 495.44 292.153 495.003 291.823C494.573 291.494 494.258 291.118 494.058 290.695C493.864 290.266 493.768 289.739 493.768 289.116C493.768 288.049 494.179 287.226 495.003 286.646C495.834 286.058 497.008 285.765 498.526 285.765C499.973 285.765 501.38 286.08 502.748 286.71L501.76 289.073C501.158 288.815 500.596 288.604 500.073 288.439C499.55 288.275 499.017 288.192 498.473 288.192C497.506 288.192 497.022 288.454 497.022 288.977C497.022 289.27 497.176 289.524 497.484 289.739C497.799 289.954 498.483 290.273 499.536 290.695C500.474 291.075 501.162 291.429 501.599 291.759C502.035 292.088 502.358 292.468 502.565 292.897C502.773 293.327 502.877 293.839 502.877 294.434Z" fill="#F98900"/>
<path d="M311.591 360L310.452 356.262H304.727L303.588 360H300L305.543 344.23H309.614L315.179 360H311.591ZM309.657 353.469C308.604 350.081 308.01 348.166 307.874 347.722C307.745 347.278 307.652 346.927 307.595 346.669C307.358 347.586 306.682 349.852 305.564 353.469H309.657ZM323.547 350.45H320.711V360H317.435V350.45H315.63V348.871L317.435 347.99V347.109C317.435 345.742 317.771 344.743 318.444 344.112C319.118 343.482 320.195 343.167 321.678 343.167C322.809 343.167 323.815 343.335 324.696 343.672L323.858 346.078C323.2 345.87 322.591 345.767 322.032 345.767C321.567 345.767 321.23 345.906 321.022 346.186C320.815 346.458 320.711 346.809 320.711 347.238V347.99H323.547V350.45ZM332.065 350.45H329.229V360H325.953V350.45H324.148V348.871L325.953 347.99V347.109C325.953 345.742 326.29 344.743 326.963 344.112C327.636 343.482 328.714 343.167 330.196 343.167C331.328 343.167 332.334 343.335 333.215 343.672L332.377 346.078C331.718 345.87 331.109 345.767 330.551 345.767C330.085 345.767 329.749 345.906 329.541 346.186C329.333 346.458 329.229 346.809 329.229 347.238V347.99H332.065V350.45ZM336.556 353.974C336.556 355.162 336.749 356.061 337.136 356.67C337.53 357.279 338.167 357.583 339.048 357.583C339.922 357.583 340.548 357.282 340.928 356.681C341.314 356.072 341.508 355.17 341.508 353.974C341.508 352.785 341.314 351.893 340.928 351.299C340.541 350.704 339.907 350.407 339.026 350.407C338.153 350.407 337.522 350.704 337.136 351.299C336.749 351.886 336.556 352.778 336.556 353.974ZM344.859 353.974C344.859 355.929 344.344 357.458 343.312 358.561C342.281 359.663 340.845 360.215 339.005 360.215C337.852 360.215 336.835 359.964 335.954 359.463C335.073 358.954 334.396 358.228 333.924 357.282C333.451 356.337 333.215 355.234 333.215 353.974C333.215 352.011 333.727 350.486 334.751 349.397C335.775 348.309 337.215 347.765 339.069 347.765C340.222 347.765 341.239 348.015 342.12 348.517C343.001 349.018 343.678 349.738 344.15 350.676C344.623 351.614 344.859 352.713 344.859 353.974ZM354.27 347.765C354.714 347.765 355.082 347.797 355.376 347.861L355.129 350.934C354.864 350.862 354.542 350.826 354.162 350.826C353.117 350.826 352.3 351.095 351.713 351.632C351.133 352.169 350.843 352.921 350.843 353.888V360H347.566V347.99H350.048L350.531 350.01H350.692C351.065 349.337 351.566 348.796 352.196 348.388C352.834 347.972 353.525 347.765 354.27 347.765ZM361.359 360.215C359.949 360.215 358.839 359.667 358.029 358.571C357.227 357.476 356.826 355.957 356.826 354.017C356.826 352.047 357.234 350.515 358.051 349.419C358.874 348.316 360.006 347.765 361.445 347.765C362.956 347.765 364.109 348.352 364.904 349.526H365.012C364.847 348.631 364.765 347.833 364.765 347.131V343.285H368.052V360H365.538L364.904 358.442H364.765C364.02 359.624 362.885 360.215 361.359 360.215ZM362.509 357.604C363.347 357.604 363.959 357.361 364.346 356.874C364.74 356.387 364.954 355.56 364.99 354.393V354.038C364.99 352.749 364.79 351.825 364.389 351.267C363.995 350.708 363.35 350.429 362.455 350.429C361.725 350.429 361.155 350.74 360.747 351.363C360.346 351.979 360.146 352.878 360.146 354.06C360.146 355.241 360.35 356.129 360.758 356.724C361.166 357.311 361.75 357.604 362.509 357.604ZM379.105 360L378.472 358.367H378.386C377.834 359.062 377.265 359.545 376.678 359.817C376.098 360.082 375.339 360.215 374.4 360.215C373.247 360.215 372.338 359.885 371.672 359.227C371.013 358.568 370.684 357.63 370.684 356.412C370.684 355.137 371.128 354.199 372.016 353.598C372.911 352.989 374.257 352.652 376.055 352.588L378.139 352.523V351.997C378.139 350.78 377.516 350.171 376.27 350.171C375.31 350.171 374.182 350.461 372.886 351.041L371.801 348.828C373.183 348.105 374.715 347.743 376.398 347.743C378.01 347.743 379.245 348.094 380.104 348.796C380.964 349.498 381.394 350.565 381.394 351.997V360H379.105ZM378.139 354.436L376.871 354.479C375.919 354.507 375.21 354.679 374.744 354.994C374.279 355.309 374.046 355.789 374.046 356.434C374.046 357.357 374.576 357.819 375.636 357.819C376.395 357.819 377 357.601 377.451 357.164C377.91 356.727 378.139 356.147 378.139 355.424V354.436ZM391.459 347.765C392.877 347.765 393.987 348.32 394.789 349.43C395.591 350.533 395.992 352.047 395.992 353.974C395.992 355.957 395.577 357.493 394.746 358.582C393.923 359.671 392.798 360.215 391.373 360.215C389.962 360.215 388.856 359.703 388.054 358.679H387.828L387.28 360H384.777V343.285H388.054V347.174C388.054 347.668 388.011 348.459 387.925 349.548H388.054C388.82 348.359 389.955 347.765 391.459 347.765ZM390.406 350.386C389.597 350.386 389.006 350.636 388.634 351.138C388.261 351.632 388.068 352.452 388.054 353.598V353.952C388.054 355.241 388.243 356.165 388.623 356.724C389.01 357.282 389.618 357.562 390.449 357.562C391.122 357.562 391.656 357.254 392.05 356.638C392.451 356.015 392.651 355.112 392.651 353.931C392.651 352.749 392.451 351.865 392.05 351.277C391.649 350.683 391.101 350.386 390.406 350.386ZM401.976 360H398.699V343.285H401.976V360ZM410.397 350.096C409.703 350.096 409.159 350.318 408.765 350.762C408.371 351.199 408.145 351.822 408.088 352.631H412.686C412.671 351.822 412.46 351.199 412.052 350.762C411.644 350.318 411.092 350.096 410.397 350.096ZM410.859 360.215C408.926 360.215 407.415 359.681 406.326 358.614C405.238 357.547 404.693 356.036 404.693 354.081C404.693 352.069 405.195 350.515 406.197 349.419C407.207 348.316 408.6 347.765 410.376 347.765C412.073 347.765 413.395 348.248 414.34 349.215C415.285 350.182 415.758 351.517 415.758 353.222V354.812H408.013C408.049 355.743 408.324 356.469 408.84 356.992C409.355 357.515 410.079 357.776 411.01 357.776C411.733 357.776 412.417 357.701 413.062 357.551C413.706 357.4 414.379 357.16 415.081 356.831V359.366C414.508 359.653 413.896 359.864 413.244 360C412.592 360.143 411.798 360.215 410.859 360.215ZM427.671 360H424.395V344.295H433.396V347.023H427.671V351.073H432.999V353.791H427.671V360ZM441.185 350.096C440.49 350.096 439.946 350.318 439.552 350.762C439.158 351.199 438.932 351.822 438.875 352.631H443.473C443.458 351.822 443.247 351.199 442.839 350.762C442.431 350.318 441.879 350.096 441.185 350.096ZM441.646 360.215C439.713 360.215 438.202 359.681 437.113 358.614C436.025 357.547 435.48 356.036 435.48 354.081C435.48 352.069 435.982 350.515 436.984 349.419C437.994 348.316 439.387 347.765 441.163 347.765C442.86 347.765 444.182 348.248 445.127 349.215C446.072 350.182 446.545 351.517 446.545 353.222V354.812H438.8C438.836 355.743 439.111 356.469 439.627 356.992C440.143 357.515 440.866 357.776 441.797 357.776C442.52 357.776 443.204 357.701 443.849 357.551C444.493 357.4 445.166 357.16 445.868 356.831V359.366C445.295 359.653 444.683 359.864 444.031 360C443.38 360.143 442.585 360.215 441.646 360.215ZM454.183 350.096C453.488 350.096 452.944 350.318 452.55 350.762C452.156 351.199 451.93 351.822 451.873 352.631H456.471C456.456 351.822 456.245 351.199 455.837 350.762C455.429 350.318 454.877 350.096 454.183 350.096ZM454.645 360.215C452.711 360.215 451.2 359.681 450.111 358.614C449.023 357.547 448.479 356.036 448.479 354.081C448.479 352.069 448.98 350.515 449.982 349.419C450.992 348.316 452.385 347.765 454.161 347.765C455.858 347.765 457.18 348.248 458.125 349.215C459.07 350.182 459.543 351.517 459.543 353.222V354.812H451.798C451.834 355.743 452.109 356.469 452.625 356.992C453.141 357.515 453.864 357.776 454.795 357.776C455.518 357.776 456.202 357.701 456.847 357.551C457.491 357.4 458.164 357.16 458.866 356.831V359.366C458.293 359.653 457.681 359.864 457.029 360C456.378 360.143 455.583 360.215 454.645 360.215ZM470.586 356.434C470.586 357.665 470.156 358.604 469.297 359.248C468.445 359.893 467.166 360.215 465.462 360.215C464.588 360.215 463.843 360.154 463.228 360.032C462.612 359.918 462.035 359.746 461.498 359.517V356.81C462.107 357.096 462.791 357.336 463.55 357.529C464.316 357.723 464.989 357.819 465.569 357.819C466.758 357.819 467.353 357.476 467.353 356.788C467.353 356.53 467.274 356.323 467.116 356.165C466.959 356 466.687 355.818 466.3 355.617C465.913 355.41 465.397 355.17 464.753 354.897C463.829 354.511 463.149 354.153 462.712 353.823C462.282 353.494 461.967 353.118 461.767 352.695C461.573 352.266 461.477 351.739 461.477 351.116C461.477 350.049 461.888 349.226 462.712 348.646C463.543 348.058 464.717 347.765 466.235 347.765C467.682 347.765 469.089 348.08 470.457 348.71L469.469 351.073C468.867 350.815 468.305 350.604 467.782 350.439C467.259 350.275 466.726 350.192 466.182 350.192C465.215 350.192 464.731 350.454 464.731 350.977C464.731 351.27 464.885 351.524 465.193 351.739C465.508 351.954 466.192 352.273 467.245 352.695C468.183 353.075 468.871 353.429 469.308 353.759C469.744 354.088 470.067 354.468 470.274 354.897C470.482 355.327 470.586 355.839 470.586 356.434Z" fill="#F98900"/>
<path d="M315.007 413.997C315.007 416.582 314.269 418.562 312.794 419.938C311.326 421.312 309.202 422 306.424 422H301.977V406.295H306.907C309.471 406.295 311.462 406.972 312.88 408.325C314.298 409.679 315.007 411.569 315.007 413.997ZM311.548 414.083C311.548 410.71 310.058 409.023 307.079 409.023H305.307V419.25H306.735C309.944 419.25 311.548 417.528 311.548 414.083ZM320.614 415.974C320.614 417.162 320.808 418.061 321.194 418.67C321.588 419.279 322.226 419.583 323.106 419.583C323.98 419.583 324.607 419.282 324.986 418.681C325.373 418.072 325.566 417.17 325.566 415.974C325.566 414.785 325.373 413.893 324.986 413.299C324.6 412.704 323.966 412.407 323.085 412.407C322.211 412.407 321.581 412.704 321.194 413.299C320.808 413.886 320.614 414.778 320.614 415.974ZM328.918 415.974C328.918 417.929 328.402 419.458 327.371 420.561C326.34 421.663 324.904 422.215 323.063 422.215C321.91 422.215 320.894 421.964 320.013 421.463C319.132 420.954 318.455 420.228 317.982 419.282C317.51 418.337 317.273 417.234 317.273 415.974C317.273 414.011 317.785 412.486 318.81 411.397C319.834 410.309 321.273 409.765 323.128 409.765C324.281 409.765 325.298 410.015 326.179 410.517C327.06 411.018 327.736 411.738 328.209 412.676C328.682 413.614 328.918 414.713 328.918 415.974ZM340.133 422L339.692 420.464H339.521C339.17 421.022 338.672 421.456 338.027 421.764C337.383 422.064 336.649 422.215 335.825 422.215C334.414 422.215 333.351 421.839 332.635 421.087C331.919 420.328 331.561 419.239 331.561 417.821V409.99H334.837V417.005C334.837 417.871 334.991 418.523 335.299 418.96C335.607 419.39 336.097 419.604 336.771 419.604C337.687 419.604 338.35 419.3 338.758 418.691C339.166 418.076 339.37 417.059 339.37 415.641V409.99H342.646V422H340.133ZM352.766 409.765C354.184 409.765 355.294 410.32 356.096 411.43C356.898 412.533 357.299 414.047 357.299 415.974C357.299 417.957 356.883 419.493 356.053 420.582C355.229 421.671 354.105 422.215 352.68 422.215C351.269 422.215 350.162 421.703 349.36 420.679H349.135L348.587 422H346.084V405.285H349.36V409.174C349.36 409.668 349.317 410.459 349.231 411.548H349.36C350.127 410.359 351.262 409.765 352.766 409.765ZM351.713 412.386C350.904 412.386 350.313 412.636 349.94 413.138C349.568 413.632 349.375 414.452 349.36 415.598V415.952C349.36 417.241 349.55 418.165 349.93 418.724C350.316 419.282 350.925 419.562 351.756 419.562C352.429 419.562 352.963 419.254 353.356 418.638C353.757 418.015 353.958 417.112 353.958 415.931C353.958 414.749 353.757 413.865 353.356 413.277C352.955 412.683 352.408 412.386 351.713 412.386ZM365.065 419.604C365.638 419.604 366.326 419.479 367.128 419.229V421.667C366.312 422.032 365.309 422.215 364.12 422.215C362.81 422.215 361.854 421.885 361.252 421.227C360.658 420.561 360.36 419.565 360.36 418.24V412.45H358.792V411.064L360.597 409.969L361.542 407.434H363.637V409.99H366.999V412.45H363.637V418.24C363.637 418.706 363.766 419.049 364.023 419.271C364.288 419.493 364.636 419.604 365.065 419.604ZM384.81 417.639C384.81 419.057 384.298 420.174 383.273 420.99C382.257 421.807 380.839 422.215 379.02 422.215C377.344 422.215 375.861 421.9 374.572 421.27V418.176C375.632 418.648 376.527 418.981 377.258 419.175C377.995 419.368 378.669 419.465 379.277 419.465C380.008 419.465 380.566 419.325 380.953 419.046C381.347 418.767 381.544 418.351 381.544 417.8C381.544 417.492 381.458 417.22 381.286 416.983C381.114 416.74 380.86 416.507 380.523 416.285C380.194 416.063 379.517 415.709 378.493 415.222C377.534 414.771 376.814 414.337 376.334 413.922C375.854 413.507 375.471 413.023 375.185 412.472C374.898 411.92 374.755 411.276 374.755 410.538C374.755 409.149 375.224 408.057 376.162 407.262C377.107 406.467 378.411 406.069 380.072 406.069C380.889 406.069 381.666 406.166 382.403 406.359C383.148 406.553 383.925 406.825 384.734 407.176L383.66 409.765C382.822 409.421 382.128 409.181 381.576 409.045C381.032 408.909 380.495 408.841 379.965 408.841C379.335 408.841 378.851 408.988 378.515 409.281C378.178 409.575 378.01 409.958 378.01 410.431C378.01 410.724 378.078 410.982 378.214 411.204C378.35 411.419 378.565 411.63 378.858 411.838C379.159 412.038 379.865 412.404 380.975 412.934C382.443 413.635 383.449 414.341 383.993 415.05C384.537 415.752 384.81 416.615 384.81 417.639ZM390.009 415.974C390.009 417.162 390.202 418.061 390.589 418.67C390.983 419.279 391.62 419.583 392.501 419.583C393.375 419.583 394.001 419.282 394.381 418.681C394.768 418.072 394.961 417.17 394.961 415.974C394.961 414.785 394.768 413.893 394.381 413.299C393.994 412.704 393.36 412.407 392.479 412.407C391.606 412.407 390.976 412.704 390.589 413.299C390.202 413.886 390.009 414.778 390.009 415.974ZM398.312 415.974C398.312 417.929 397.797 419.458 396.766 420.561C395.734 421.663 394.299 422.215 392.458 422.215C391.305 422.215 390.288 421.964 389.407 421.463C388.526 420.954 387.85 420.228 387.377 419.282C386.904 418.337 386.668 417.234 386.668 415.974C386.668 414.011 387.18 412.486 388.204 411.397C389.228 410.309 390.668 409.765 392.522 409.765C393.675 409.765 394.692 410.015 395.573 410.517C396.454 411.018 397.131 411.738 397.604 412.676C398.076 413.614 398.312 414.713 398.312 415.974ZM404.296 422H401.02V405.285H404.296V422ZM410.602 422L406.025 409.99H409.452L411.772 416.833C412.03 417.7 412.191 418.52 412.256 419.293H412.32C412.356 418.605 412.517 417.785 412.804 416.833L415.113 409.99H418.54L413.964 422H410.602ZM420.13 406.886C420.13 405.819 420.724 405.285 421.913 405.285C423.102 405.285 423.696 405.819 423.696 406.886C423.696 407.394 423.546 407.792 423.245 408.078C422.951 408.357 422.507 408.497 421.913 408.497C420.724 408.497 420.13 407.96 420.13 406.886ZM423.546 422H420.27V409.99H423.546V422ZM438.08 422H434.804V414.985C434.804 414.119 434.65 413.471 434.342 413.041C434.034 412.604 433.543 412.386 432.87 412.386C431.953 412.386 431.291 412.694 430.883 413.31C430.475 413.918 430.271 414.932 430.271 416.35V422H426.994V409.99H429.497L429.938 411.526H430.12C430.485 410.946 430.987 410.509 431.624 410.216C432.269 409.915 432.999 409.765 433.815 409.765C435.212 409.765 436.272 410.144 436.995 410.903C437.718 411.655 438.08 412.744 438.08 414.169V422ZM451.905 409.99V411.655L450.025 412.139C450.369 412.676 450.541 413.277 450.541 413.943C450.541 415.232 450.09 416.239 449.188 416.962C448.292 417.678 447.046 418.036 445.449 418.036L444.858 418.004L444.375 417.95C444.038 418.208 443.87 418.494 443.87 418.81C443.87 419.282 444.472 419.519 445.675 419.519H447.716C449.034 419.519 450.036 419.801 450.724 420.367C451.418 420.933 451.766 421.764 451.766 422.859C451.766 424.263 451.178 425.352 450.004 426.125C448.837 426.898 447.157 427.285 444.966 427.285C443.29 427.285 442.008 426.992 441.12 426.404C440.239 425.824 439.799 425.008 439.799 423.955C439.799 423.232 440.024 422.627 440.476 422.14C440.927 421.653 441.589 421.305 442.463 421.098C442.126 420.954 441.833 420.722 441.582 420.399C441.331 420.07 441.206 419.723 441.206 419.357C441.206 418.899 441.339 418.52 441.604 418.219C441.868 417.911 442.252 417.61 442.753 417.316C442.123 417.044 441.621 416.607 441.249 416.006C440.884 415.404 440.701 414.695 440.701 413.879C440.701 412.568 441.127 411.555 441.979 410.839C442.832 410.123 444.049 409.765 445.632 409.765C445.968 409.765 446.366 409.797 446.824 409.861C447.29 409.919 447.587 409.962 447.716 409.99H451.905ZM442.635 423.697C442.635 424.148 442.85 424.503 443.279 424.761C443.716 425.019 444.325 425.147 445.105 425.147C446.28 425.147 447.2 424.986 447.866 424.664C448.532 424.342 448.865 423.901 448.865 423.343C448.865 422.892 448.668 422.58 448.274 422.408C447.881 422.236 447.272 422.15 446.448 422.15H444.751C444.149 422.15 443.645 422.29 443.236 422.569C442.835 422.856 442.635 423.232 442.635 423.697ZM443.827 413.922C443.827 414.574 443.974 415.089 444.268 415.469C444.568 415.848 445.023 416.038 445.632 416.038C446.248 416.038 446.699 415.848 446.985 415.469C447.272 415.089 447.415 414.574 447.415 413.922C447.415 412.475 446.821 411.752 445.632 411.752C444.429 411.752 443.827 412.475 443.827 413.922ZM469.136 417.639C469.136 419.057 468.624 420.174 467.6 420.99C466.583 421.807 465.165 422.215 463.346 422.215C461.67 422.215 460.188 421.9 458.898 421.27V418.176C459.958 418.648 460.854 418.981 461.584 419.175C462.322 419.368 462.995 419.465 463.604 419.465C464.334 419.465 464.893 419.325 465.279 419.046C465.673 418.767 465.87 418.351 465.87 417.8C465.87 417.492 465.784 417.22 465.612 416.983C465.44 416.74 465.186 416.507 464.85 416.285C464.52 416.063 463.843 415.709 462.819 415.222C461.86 414.771 461.14 414.337 460.66 413.922C460.18 413.507 459.797 413.023 459.511 412.472C459.224 411.92 459.081 411.276 459.081 410.538C459.081 409.149 459.55 408.057 460.488 407.262C461.434 406.467 462.737 406.069 464.398 406.069C465.215 406.069 465.992 406.166 466.729 406.359C467.474 406.553 468.251 406.825 469.061 407.176L467.986 409.765C467.148 409.421 466.454 409.181 465.902 409.045C465.358 408.909 464.821 408.841 464.291 408.841C463.661 408.841 463.177 408.988 462.841 409.281C462.504 409.575 462.336 409.958 462.336 410.431C462.336 410.724 462.404 410.982 462.54 411.204C462.676 411.419 462.891 411.63 463.185 411.838C463.485 412.038 464.191 412.404 465.301 412.934C466.769 413.635 467.775 414.341 468.319 415.05C468.864 415.752 469.136 416.615 469.136 417.639ZM476.698 412.096C476.004 412.096 475.459 412.318 475.065 412.762C474.672 413.199 474.446 413.822 474.389 414.631H478.986C478.972 413.822 478.761 413.199 478.353 412.762C477.944 412.318 477.393 412.096 476.698 412.096ZM477.16 422.215C475.227 422.215 473.715 421.681 472.627 420.614C471.538 419.547 470.994 418.036 470.994 416.081C470.994 414.069 471.495 412.515 472.498 411.419C473.508 410.316 474.901 409.765 476.677 409.765C478.374 409.765 479.695 410.248 480.641 411.215C481.586 412.182 482.059 413.517 482.059 415.222V416.812H474.313C474.349 417.743 474.625 418.469 475.141 418.992C475.656 419.515 476.38 419.776 477.311 419.776C478.034 419.776 478.718 419.701 479.362 419.551C480.007 419.4 480.68 419.16 481.382 418.831V421.366C480.809 421.653 480.197 421.864 479.545 422C478.893 422.143 478.098 422.215 477.16 422.215ZM489.6 422.215C485.861 422.215 483.992 420.163 483.992 416.06C483.992 414.019 484.501 412.461 485.518 411.387C486.535 410.305 487.992 409.765 489.89 409.765C491.279 409.765 492.525 410.037 493.628 410.581L492.661 413.116C492.146 412.909 491.666 412.74 491.222 412.611C490.778 412.475 490.334 412.407 489.89 412.407C488.185 412.407 487.333 413.618 487.333 416.038C487.333 418.387 488.185 419.562 489.89 419.562C490.52 419.562 491.104 419.479 491.641 419.314C492.178 419.143 492.715 418.878 493.252 418.52V421.323C492.722 421.66 492.185 421.893 491.641 422.021C491.104 422.15 490.423 422.215 489.6 422.215ZM501.104 419.604C501.677 419.604 502.365 419.479 503.167 419.229V421.667C502.351 422.032 501.348 422.215 500.159 422.215C498.849 422.215 497.893 421.885 497.291 421.227C496.697 420.561 496.399 419.565 496.399 418.24V412.45H494.831V411.064L496.636 409.969L497.581 407.434H499.676V409.99H503.038V412.45H499.676V418.24C499.676 418.706 499.805 419.049 500.062 419.271C500.327 419.493 500.675 419.604 501.104 419.604ZM505.466 406.886C505.466 405.819 506.06 405.285 507.249 405.285C508.438 405.285 509.032 405.819 509.032 406.886C509.032 407.394 508.882 407.792 508.581 408.078C508.287 408.357 507.843 408.497 507.249 408.497C506.06 408.497 505.466 407.96 505.466 406.886ZM508.882 422H505.605V409.99H508.882V422ZM514.94 415.974C514.94 417.162 515.134 418.061 515.521 418.67C515.914 419.279 516.552 419.583 517.433 419.583C518.306 419.583 518.933 419.282 519.312 418.681C519.699 418.072 519.893 417.17 519.893 415.974C519.893 414.785 519.699 413.893 519.312 413.299C518.926 412.704 518.292 412.407 517.411 412.407C516.537 412.407 515.907 412.704 515.521 413.299C515.134 413.886 514.94 414.778 514.94 415.974ZM523.244 415.974C523.244 417.929 522.729 419.458 521.697 420.561C520.666 421.663 519.23 422.215 517.39 422.215C516.237 422.215 515.22 421.964 514.339 421.463C513.458 420.954 512.781 420.228 512.309 419.282C511.836 418.337 511.6 417.234 511.6 415.974C511.6 414.011 512.112 412.486 513.136 411.397C514.16 410.309 515.599 409.765 517.454 409.765C518.607 409.765 519.624 410.015 520.505 410.517C521.386 411.018 522.062 411.738 522.535 412.676C523.008 413.614 523.244 414.713 523.244 415.974ZM537.037 422H533.761V414.985C533.761 414.119 533.607 413.471 533.299 413.041C532.991 412.604 532.5 412.386 531.827 412.386C530.91 412.386 530.248 412.694 529.84 413.31C529.432 413.918 529.228 414.932 529.228 416.35V422H525.951V409.99H528.454L528.895 411.526H529.077C529.442 410.946 529.944 410.509 530.581 410.216C531.226 409.915 531.956 409.765 532.772 409.765C534.169 409.765 535.229 410.144 535.952 410.903C536.675 411.655 537.037 412.744 537.037 414.169V422Z" fill="#F98900"/>
<path d="M305.307 475.267H306.381C307.434 475.267 308.211 475.091 308.712 474.74C309.213 474.389 309.464 473.838 309.464 473.086C309.464 472.341 309.206 471.811 308.69 471.496C308.182 471.181 307.391 471.023 306.316 471.023H305.307V475.267ZM305.307 477.974V484H301.977V468.295H306.553C308.687 468.295 310.266 468.685 311.29 469.466C312.314 470.239 312.826 471.417 312.826 473C312.826 473.924 312.572 474.747 312.063 475.471C311.555 476.187 310.835 476.749 309.904 477.157C312.268 480.688 313.807 482.969 314.523 484H310.828L307.079 477.974H305.307ZM321.216 474.096C320.521 474.096 319.977 474.318 319.583 474.762C319.189 475.199 318.964 475.822 318.906 476.631H323.504C323.49 475.822 323.278 475.199 322.87 474.762C322.462 474.318 321.91 474.096 321.216 474.096ZM321.678 484.215C319.744 484.215 318.233 483.681 317.145 482.614C316.056 481.547 315.512 480.036 315.512 478.081C315.512 476.069 316.013 474.515 317.016 473.419C318.025 472.316 319.418 471.765 321.194 471.765C322.892 471.765 324.213 472.248 325.158 473.215C326.104 474.182 326.576 475.517 326.576 477.222V478.812H318.831C318.867 479.743 319.143 480.469 319.658 480.992C320.174 481.515 320.897 481.776 321.828 481.776C322.551 481.776 323.235 481.701 323.88 481.551C324.524 481.4 325.198 481.16 325.899 480.831V483.366C325.326 483.653 324.714 483.864 324.062 484C323.411 484.143 322.616 484.215 321.678 484.215ZM339.692 471.99V473.655L337.812 474.139C338.156 474.676 338.328 475.277 338.328 475.943C338.328 477.232 337.877 478.239 336.975 478.962C336.079 479.678 334.833 480.036 333.236 480.036L332.646 480.004L332.162 479.95C331.826 480.208 331.657 480.494 331.657 480.81C331.657 481.282 332.259 481.519 333.462 481.519H335.503C336.821 481.519 337.823 481.801 338.511 482.367C339.205 482.933 339.553 483.764 339.553 484.859C339.553 486.263 338.965 487.352 337.791 488.125C336.624 488.898 334.944 489.285 332.753 489.285C331.077 489.285 329.795 488.992 328.907 488.404C328.026 487.824 327.586 487.008 327.586 485.955C327.586 485.232 327.812 484.627 328.263 484.14C328.714 483.653 329.376 483.305 330.25 483.098C329.913 482.954 329.62 482.722 329.369 482.399C329.118 482.07 328.993 481.723 328.993 481.357C328.993 480.899 329.126 480.52 329.391 480.219C329.656 479.911 330.039 479.61 330.54 479.316C329.91 479.044 329.409 478.607 329.036 478.006C328.671 477.404 328.488 476.695 328.488 475.879C328.488 474.568 328.914 473.555 329.767 472.839C330.619 472.123 331.836 471.765 333.419 471.765C333.756 471.765 334.153 471.797 334.611 471.861C335.077 471.919 335.374 471.962 335.503 471.99H339.692ZM330.422 485.697C330.422 486.148 330.637 486.503 331.066 486.761C331.503 487.019 332.112 487.147 332.893 487.147C334.067 487.147 334.987 486.986 335.653 486.664C336.319 486.342 336.652 485.901 336.652 485.343C336.652 484.892 336.455 484.58 336.062 484.408C335.668 484.236 335.059 484.15 334.235 484.15H332.538C331.937 484.15 331.432 484.29 331.023 484.569C330.622 484.856 330.422 485.232 330.422 485.697ZM331.614 475.922C331.614 476.574 331.761 477.089 332.055 477.469C332.355 477.848 332.81 478.038 333.419 478.038C334.035 478.038 334.486 477.848 334.772 477.469C335.059 477.089 335.202 476.574 335.202 475.922C335.202 474.475 334.608 473.752 333.419 473.752C332.216 473.752 331.614 474.475 331.614 475.922ZM350.188 484L349.747 482.464H349.575C349.224 483.022 348.727 483.456 348.082 483.764C347.438 484.064 346.703 484.215 345.88 484.215C344.469 484.215 343.406 483.839 342.689 483.087C341.973 482.328 341.615 481.239 341.615 479.821V471.99H344.892V479.005C344.892 479.871 345.046 480.523 345.354 480.96C345.661 481.39 346.152 481.604 346.825 481.604C347.742 481.604 348.404 481.3 348.812 480.691C349.221 480.076 349.425 479.059 349.425 477.641V471.99H352.701V484H350.188ZM359.415 484H356.139V467.285H359.415V484ZM370.49 484L369.856 482.367H369.771C369.219 483.062 368.65 483.545 368.062 483.817C367.482 484.082 366.723 484.215 365.785 484.215C364.632 484.215 363.723 483.885 363.057 483.227C362.398 482.568 362.068 481.63 362.068 480.412C362.068 479.137 362.512 478.199 363.4 477.598C364.296 476.989 365.642 476.652 367.439 476.588L369.523 476.523V475.997C369.523 474.78 368.9 474.171 367.654 474.171C366.695 474.171 365.567 474.461 364.271 475.041L363.186 472.828C364.568 472.105 366.1 471.743 367.783 471.743C369.395 471.743 370.63 472.094 371.489 472.796C372.349 473.498 372.778 474.565 372.778 475.997V484H370.49ZM369.523 478.436L368.256 478.479C367.303 478.507 366.594 478.679 366.129 478.994C365.663 479.309 365.431 479.789 365.431 480.434C365.431 481.357 365.961 481.819 367.021 481.819C367.78 481.819 368.385 481.601 368.836 481.164C369.294 480.727 369.523 480.147 369.523 479.424V478.436ZM382.865 471.765C383.309 471.765 383.678 471.797 383.972 471.861L383.725 474.934C383.46 474.862 383.137 474.826 382.758 474.826C381.712 474.826 380.896 475.095 380.309 475.632C379.729 476.169 379.438 476.921 379.438 477.888V484H376.162V471.99H378.644L379.127 474.01H379.288C379.66 473.337 380.162 472.796 380.792 472.388C381.429 471.972 382.12 471.765 382.865 471.765ZM398.184 484H394.854V471.066H390.589V468.295H402.448V471.066H398.184V484ZM409.581 474.096C408.886 474.096 408.342 474.318 407.948 474.762C407.554 475.199 407.329 475.822 407.271 476.631H411.869C411.855 475.822 411.644 475.199 411.235 474.762C410.827 474.318 410.276 474.096 409.581 474.096ZM410.043 484.215C408.109 484.215 406.598 483.681 405.51 482.614C404.421 481.547 403.877 480.036 403.877 478.081C403.877 476.069 404.378 474.515 405.381 473.419C406.391 472.316 407.784 471.765 409.56 471.765C411.257 471.765 412.578 472.248 413.523 473.215C414.469 474.182 414.941 475.517 414.941 477.222V478.812H407.196C407.232 479.743 407.508 480.469 408.023 480.992C408.539 481.515 409.262 481.776 410.193 481.776C410.917 481.776 411.601 481.701 412.245 481.551C412.89 481.4 413.563 481.16 414.265 480.831V483.366C413.692 483.653 413.079 483.864 412.428 484C411.776 484.143 410.981 484.215 410.043 484.215ZM425.984 480.434C425.984 481.665 425.555 482.604 424.695 483.248C423.843 483.893 422.565 484.215 420.86 484.215C419.987 484.215 419.242 484.154 418.626 484.032C418.01 483.918 417.434 483.746 416.896 483.517V480.81C417.505 481.096 418.189 481.336 418.948 481.529C419.715 481.723 420.388 481.819 420.968 481.819C422.157 481.819 422.751 481.476 422.751 480.788C422.751 480.53 422.672 480.323 422.515 480.165C422.357 480 422.085 479.818 421.698 479.617C421.312 479.41 420.796 479.17 420.151 478.897C419.228 478.511 418.547 478.153 418.11 477.823C417.681 477.494 417.366 477.118 417.165 476.695C416.972 476.266 416.875 475.739 416.875 475.116C416.875 474.049 417.287 473.226 418.11 472.646C418.941 472.058 420.116 471.765 421.634 471.765C423.08 471.765 424.488 472.08 425.855 472.71L424.867 475.073C424.266 474.815 423.703 474.604 423.181 474.439C422.658 474.275 422.124 474.192 421.58 474.192C420.613 474.192 420.13 474.454 420.13 474.977C420.13 475.27 420.284 475.524 420.592 475.739C420.907 475.954 421.591 476.273 422.644 476.695C423.582 477.075 424.269 477.429 424.706 477.759C425.143 478.088 425.465 478.468 425.673 478.897C425.881 479.327 425.984 479.839 425.984 480.434ZM433.601 481.604C434.174 481.604 434.861 481.479 435.663 481.229V483.667C434.847 484.032 433.844 484.215 432.655 484.215C431.345 484.215 430.389 483.885 429.787 483.227C429.193 482.561 428.896 481.565 428.896 480.24V474.45H427.327V473.064L429.132 471.969L430.077 469.434H432.172V471.99H435.534V474.45H432.172V480.24C432.172 480.706 432.301 481.049 432.559 481.271C432.824 481.493 433.171 481.604 433.601 481.604ZM453.345 479.639C453.345 481.057 452.833 482.174 451.809 482.99C450.792 483.807 449.374 484.215 447.555 484.215C445.879 484.215 444.396 483.9 443.107 483.27V480.176C444.167 480.648 445.062 480.981 445.793 481.175C446.531 481.368 447.204 481.465 447.812 481.465C448.543 481.465 449.102 481.325 449.488 481.046C449.882 480.767 450.079 480.351 450.079 479.8C450.079 479.492 449.993 479.22 449.821 478.983C449.649 478.74 449.395 478.507 449.059 478.285C448.729 478.063 448.052 477.709 447.028 477.222C446.069 476.771 445.349 476.337 444.869 475.922C444.389 475.507 444.006 475.023 443.72 474.472C443.433 473.92 443.29 473.276 443.29 472.538C443.29 471.149 443.759 470.057 444.697 469.262C445.643 468.467 446.946 468.069 448.607 468.069C449.424 468.069 450.201 468.166 450.938 468.359C451.683 468.553 452.46 468.825 453.27 469.176L452.195 471.765C451.357 471.421 450.663 471.181 450.111 471.045C449.567 470.909 449.03 470.841 448.5 470.841C447.87 470.841 447.386 470.988 447.05 471.281C446.713 471.575 446.545 471.958 446.545 472.431C446.545 472.724 446.613 472.982 446.749 473.204C446.885 473.419 447.1 473.63 447.394 473.838C447.694 474.038 448.4 474.404 449.51 474.934C450.978 475.635 451.984 476.341 452.528 477.05C453.073 477.752 453.345 478.615 453.345 479.639ZM460.907 474.096C460.213 474.096 459.668 474.318 459.274 474.762C458.881 475.199 458.655 475.822 458.598 476.631H463.195C463.181 475.822 462.97 475.199 462.562 474.762C462.153 474.318 461.602 474.096 460.907 474.096ZM461.369 484.215C459.436 484.215 457.924 483.681 456.836 482.614C455.747 481.547 455.203 480.036 455.203 478.081C455.203 476.069 455.704 474.515 456.707 473.419C457.717 472.316 459.11 471.765 460.886 471.765C462.583 471.765 463.904 472.248 464.85 473.215C465.795 474.182 466.268 475.517 466.268 477.222V478.812H458.522C458.558 479.743 458.834 480.469 459.35 480.992C459.865 481.515 460.589 481.776 461.52 481.776C462.243 481.776 462.927 481.701 463.571 481.551C464.216 481.4 464.889 481.16 465.591 480.831V483.366C465.018 483.653 464.406 483.864 463.754 484C463.102 484.143 462.307 484.215 461.369 484.215ZM475.635 471.765C476.079 471.765 476.448 471.797 476.741 471.861L476.494 474.934C476.229 474.862 475.907 474.826 475.527 474.826C474.482 474.826 473.665 475.095 473.078 475.632C472.498 476.169 472.208 476.921 472.208 477.888V484H468.932V471.99H471.413L471.896 474.01H472.058C472.43 473.337 472.931 472.796 473.562 472.388C474.199 471.972 474.89 471.765 475.635 471.765ZM478.782 468.886C478.782 467.819 479.377 467.285 480.565 467.285C481.754 467.285 482.349 467.819 482.349 468.886C482.349 469.394 482.198 469.792 481.897 470.078C481.604 470.357 481.16 470.497 480.565 470.497C479.377 470.497 478.782 469.96 478.782 468.886ZM482.198 484H478.922V471.99H482.198V484ZM490.62 474.096C489.925 474.096 489.381 474.318 488.987 474.762C488.593 475.199 488.368 475.822 488.311 476.631H492.908C492.894 475.822 492.683 475.199 492.274 474.762C491.866 474.318 491.315 474.096 490.62 474.096ZM491.082 484.215C489.148 484.215 487.637 483.681 486.549 482.614C485.46 481.547 484.916 480.036 484.916 478.081C484.916 476.069 485.417 474.515 486.42 473.419C487.43 472.316 488.823 471.765 490.599 471.765C492.296 471.765 493.617 472.248 494.562 473.215C495.508 474.182 495.98 475.517 495.98 477.222V478.812H488.235C488.271 479.743 488.547 480.469 489.062 480.992C489.578 481.515 490.301 481.776 491.232 481.776C491.956 481.776 492.64 481.701 493.284 481.551C493.929 481.4 494.602 481.16 495.304 480.831V483.366C494.731 483.653 494.118 483.864 493.467 484C492.815 484.143 492.02 484.215 491.082 484.215ZM507.023 480.434C507.023 481.665 506.594 482.604 505.734 483.248C504.882 483.893 503.604 484.215 501.899 484.215C501.026 484.215 500.281 484.154 499.665 484.032C499.049 483.918 498.473 483.746 497.936 483.517V480.81C498.544 481.096 499.228 481.336 499.987 481.529C500.754 481.723 501.427 481.819 502.007 481.819C503.196 481.819 503.79 481.476 503.79 480.788C503.79 480.53 503.711 480.323 503.554 480.165C503.396 480 503.124 479.818 502.737 479.617C502.351 479.41 501.835 479.17 501.19 478.897C500.267 478.511 499.586 478.153 499.149 477.823C498.72 477.494 498.405 477.118 498.204 476.695C498.011 476.266 497.914 475.739 497.914 475.116C497.914 474.049 498.326 473.226 499.149 472.646C499.98 472.058 501.155 471.765 502.673 471.765C504.119 471.765 505.527 472.08 506.895 472.71L505.906 475.073C505.305 474.815 504.743 474.604 504.22 474.439C503.697 474.275 503.163 474.192 502.619 474.192C501.652 474.192 501.169 474.454 501.169 474.977C501.169 475.27 501.323 475.524 501.631 475.739C501.946 475.954 502.63 476.273 503.683 476.695C504.621 477.075 505.308 477.429 505.745 477.759C506.182 478.088 506.504 478.468 506.712 478.897C506.92 479.327 507.023 479.839 507.023 480.434Z" fill="#F98900"/>
<path d="M32.2032 521.923C38.1797 544.015 58.6504 557.698 58.6504 557.698C58.6504 557.698 69.4313 535.561 63.4549 513.468C57.4784 491.376 37.0077 477.693 37.0077 477.693C37.0077 477.693 26.2268 499.83 32.2032 521.923Z" fill="#3F3D56"/>
<path d="M40.9852 517.175C57.3846 533.139 59.3877 557.68 59.3877 557.68C59.3877 557.68 34.802 556.337 18.4025 540.373C2.00307 524.409 0 499.868 0 499.868C0 499.868 24.5857 501.211 40.9852 517.175Z" fill="#F98900"/>
<path d="M800 555.809H14.26V557.538H800V555.809Z" fill="#3F3D56"/>
<path d="M165.962 502.509C165.957 498.678 164.797 494.938 162.634 491.776C160.47 488.615 157.403 486.18 153.834 484.789C157.968 483.182 161.411 480.181 163.566 476.304C165.722 472.427 166.454 467.919 165.637 463.559C164.819 459.199 162.504 455.263 159.09 452.43C155.677 449.597 151.381 448.047 146.945 448.047C142.51 448.047 138.214 449.597 134.8 452.43C131.387 455.263 129.072 459.199 128.254 463.559C127.437 467.919 128.169 472.427 130.325 476.304C132.48 480.181 135.923 483.182 140.057 484.789C136.485 486.176 133.415 488.61 131.251 491.772C129.087 494.934 127.929 498.677 127.929 502.509C127.929 506.341 129.087 510.083 131.251 513.246C133.415 516.408 136.485 518.842 140.057 520.229C135.923 521.836 132.48 524.837 130.325 528.714C128.169 532.591 127.437 537.099 128.254 541.459C129.072 545.818 131.387 549.755 134.8 552.588C138.214 555.421 142.51 556.971 146.945 556.971C151.381 556.971 155.677 555.421 159.09 552.588C162.504 549.755 164.819 545.818 165.637 541.459C166.454 537.099 165.722 532.591 163.566 528.714C161.411 524.837 157.968 521.836 153.834 520.229C157.403 518.838 160.47 516.403 162.634 513.242C164.797 510.08 165.957 506.34 165.962 502.509ZM129.657 467.069C129.655 463.816 130.57 460.629 132.297 457.873C134.024 455.117 136.494 452.904 139.422 451.489C142.35 450.073 145.619 449.513 148.851 449.871C152.084 450.23 155.15 451.493 157.697 453.516C160.244 455.539 162.169 458.239 163.25 461.306C164.331 464.374 164.525 467.684 163.81 470.857C163.095 474.03 161.499 476.936 159.205 479.243C156.912 481.549 154.015 483.162 150.846 483.896C148.274 483.357 145.617 483.357 143.044 483.896C139.242 483.012 135.851 480.869 133.42 477.814C130.99 474.759 129.664 470.972 129.657 467.069ZM164.233 537.949C164.236 541.202 163.321 544.389 161.594 547.145C159.867 549.901 157.397 552.114 154.469 553.529C151.54 554.944 148.272 555.505 145.039 555.147C141.807 554.788 138.741 553.525 136.194 551.502C133.647 549.479 131.722 546.779 130.641 543.712C129.56 540.644 129.365 537.334 130.081 534.161C130.796 530.988 132.392 528.082 134.685 525.775C136.979 523.469 139.876 521.856 143.044 521.122C145.617 521.66 148.274 521.66 150.846 521.122C154.649 522.006 158.04 524.149 160.471 527.204C162.901 530.259 164.227 534.046 164.233 537.949ZM150.846 519.337C148.274 518.798 145.617 518.798 143.044 519.337C139.239 518.459 135.844 516.317 133.412 513.26C130.981 510.204 129.657 506.414 129.657 502.509C129.657 498.604 130.981 494.814 133.412 491.757C135.844 488.701 139.239 486.559 143.044 485.681C145.617 486.22 148.274 486.22 150.846 485.681C154.652 486.559 158.047 488.701 160.478 491.757C162.91 494.814 164.233 498.604 164.233 502.509C164.233 506.414 162.91 510.204 160.478 513.26C158.047 516.317 154.652 518.459 150.846 519.337Z" fill="#3F3D56"/>
<path d="M263.729 222.583H262V234.685H263.729V222.583Z" fill="#F98900"/>
<path d="M248.915 235.549C247.547 235.549 246.211 235.144 245.073 234.384C243.936 233.624 243.05 232.544 242.526 231.28C242.003 230.017 241.866 228.626 242.133 227.285C242.4 225.943 243.058 224.711 244.025 223.744C244.993 222.777 246.225 222.118 247.566 221.852C248.908 221.585 250.298 221.722 251.562 222.245C252.825 222.769 253.905 223.655 254.665 224.792C255.425 225.929 255.83 227.266 255.83 228.634C255.828 230.467 255.099 232.225 253.803 233.521C252.506 234.818 250.749 235.547 248.915 235.549ZM248.915 223.448C247.889 223.448 246.887 223.752 246.034 224.322C245.181 224.892 244.516 225.702 244.124 226.649C243.731 227.597 243.628 228.64 243.828 229.646C244.029 230.652 244.523 231.576 245.248 232.301C245.973 233.027 246.897 233.521 247.903 233.721C248.909 233.921 249.952 233.818 250.9 233.426C251.848 233.033 252.658 232.368 253.228 231.515C253.797 230.662 254.102 229.66 254.102 228.634C254.1 227.259 253.553 225.941 252.581 224.968C251.609 223.996 250.29 223.449 248.915 223.448Z" fill="#F98900"/>
<path d="M263.729 284.82H262V296.922H263.729V284.82Z" fill="#F98900"/>
<path d="M263.729 347.057H262V359.158H263.729V347.057Z" fill="#F98900"/>
<path d="M263.729 409.294H262V421.395H263.729V409.294Z" fill="#F98900"/>
<path d="M248.915 422.26C247.547 422.26 246.211 421.854 245.073 421.094C243.936 420.334 243.05 419.254 242.526 417.991C242.003 416.727 241.866 415.337 242.133 413.995C242.4 412.654 243.058 411.422 244.025 410.455C244.993 409.487 246.225 408.829 247.566 408.562C248.908 408.295 250.298 408.432 251.562 408.956C252.825 409.479 253.905 410.365 254.665 411.503C255.425 412.64 255.83 413.977 255.83 415.344C255.828 417.178 255.099 418.936 253.803 420.232C252.506 421.528 250.749 422.258 248.915 422.26ZM248.915 410.158C247.889 410.158 246.887 410.462 246.034 411.032C245.181 411.602 244.516 412.412 244.124 413.36C243.731 414.307 243.628 415.35 243.828 416.356C244.029 417.362 244.523 418.286 245.248 419.012C245.973 419.737 246.897 420.231 247.903 420.431C248.909 420.631 249.952 420.529 250.9 420.136C251.848 419.743 252.658 419.079 253.228 418.226C253.797 417.373 254.102 416.37 254.102 415.344C254.1 413.969 253.553 412.651 252.581 411.679C251.609 410.706 250.29 410.159 248.915 410.158Z" fill="#F98900"/>
<path d="M263.729 471.53H262V483.632H263.729V471.53Z" fill="#F98900"/>
<path d="M248.915 484.496C247.547 484.496 246.211 484.091 245.073 483.331C243.936 482.571 243.05 481.491 242.526 480.228C242.003 478.964 241.866 477.574 242.133 476.232C242.4 474.891 243.058 473.659 244.025 472.691C244.993 471.724 246.225 471.066 247.566 470.799C248.908 470.532 250.298 470.669 251.562 471.192C252.825 471.716 253.905 472.602 254.665 473.739C255.425 474.877 255.83 476.214 255.83 477.581C255.828 479.415 255.099 481.172 253.803 482.469C252.506 483.765 250.749 484.494 248.915 484.496ZM248.915 472.395C247.889 472.395 246.887 472.699 246.034 473.269C245.181 473.839 244.516 474.649 244.124 475.596C243.731 476.544 243.628 477.587 243.828 478.593C244.029 479.599 244.523 480.523 245.248 481.249C245.973 481.974 246.897 482.468 247.903 482.668C248.909 482.868 249.952 482.765 250.9 482.373C251.848 481.98 252.658 481.316 253.228 480.463C253.797 479.61 254.102 478.607 254.102 477.581C254.1 476.206 253.553 474.888 252.581 473.916C251.609 472.943 250.29 472.396 248.915 472.395Z" fill="#F98900"/>
<path d="M248.915 232.091C250.825 232.091 252.373 230.543 252.373 228.634C252.373 226.724 250.825 225.176 248.915 225.176C247.006 225.176 245.458 226.724 245.458 228.634C245.458 230.543 247.006 232.091 248.915 232.091Z" fill="#F98900"/>
<path d="M249.04 297.83C247.673 297.83 246.336 297.425 245.199 296.665C244.061 295.905 243.175 294.825 242.652 293.562C242.128 292.298 241.991 290.908 242.258 289.566C242.525 288.225 243.184 286.993 244.151 286.025C245.118 285.058 246.35 284.4 247.691 284.133C249.033 283.866 250.423 284.003 251.687 284.526C252.95 285.05 254.03 285.936 254.79 287.073C255.55 288.211 255.956 289.548 255.956 290.915C255.954 292.749 255.224 294.506 253.928 295.803C252.631 297.099 250.874 297.828 249.04 297.83ZM249.04 285.729C248.015 285.729 247.012 286.033 246.159 286.603C245.306 287.173 244.641 287.983 244.249 288.93C243.856 289.878 243.754 290.921 243.954 291.927C244.154 292.933 244.648 293.857 245.373 294.583C246.098 295.308 247.023 295.802 248.029 296.002C249.035 296.202 250.078 296.099 251.025 295.707C251.973 295.314 252.783 294.65 253.353 293.797C253.923 292.944 254.227 291.941 254.227 290.915C254.225 289.54 253.678 288.222 252.706 287.25C251.734 286.277 250.415 285.73 249.04 285.729Z" fill="#F98900"/>
<path d="M249.041 294.373C250.95 294.373 252.498 292.825 252.498 290.915C252.498 289.006 250.95 287.458 249.041 287.458C247.131 287.458 245.583 289.006 245.583 290.915C245.583 292.825 247.131 294.373 249.041 294.373Z" fill="#F98900"/>
<path d="M248.915 418.802C250.825 418.802 252.373 417.254 252.373 415.344C252.373 413.435 250.825 411.887 248.915 411.887C247.006 411.887 245.458 413.435 245.458 415.344C245.458 417.254 247.006 418.802 248.915 418.802Z" fill="#F98900"/>
<path d="M248.915 481.039C250.825 481.039 252.373 479.491 252.373 477.581C252.373 475.672 250.825 474.124 248.915 474.124C247.006 474.124 245.458 475.672 245.458 477.581C245.458 479.491 247.006 481.039 248.915 481.039Z" fill="#F98900"/>
<path d="M390.274 172.016C393.616 172.016 396.325 169.307 396.325 165.965C396.325 162.623 393.616 159.914 390.274 159.914C386.932 159.914 384.223 162.623 384.223 165.965C384.223 169.307 386.932 172.016 390.274 172.016Z" fill="#3F3D56"/>
<path d="M390.274 12.1016C393.616 12.1016 396.325 9.39257 396.325 6.0508C396.325 2.70904 393.616 0 390.274 0C386.932 0 384.223 2.70904 384.223 6.0508C384.223 9.39257 386.932 12.1016 390.274 12.1016Z" fill="#1E1C33"/>
<path d="M391.139 6.05078H389.41V165.965H391.139V6.05078Z" fill="#1E1C33"/>
<path d="M740.457 332.344V353.759C740.457 353.759 745.613 388.262 745.613 418.402C745.613 448.542 737.284 518.737 737.284 518.737C737.284 518.737 720.628 524.686 719.438 515.565C718.248 506.443 715.076 458.06 715.076 450.922C715.076 443.783 701.195 389.452 701.195 389.452L692.471 449.732C692.471 449.732 695.247 521.117 692.471 523.1C689.695 525.082 676.211 528.652 674.624 525.082C673.038 521.513 664.71 444.973 664.71 444.973C664.71 444.973 657.968 345.034 661.934 339.086C665.9 333.137 669.469 328.378 669.469 328.378C669.469 328.378 726.18 314.498 740.457 332.344Z" fill="#2F2E41"/>
<path d="M735.302 516.358L736.296 522.822C736.629 525.028 736.846 527.249 736.946 529.477C737.101 532.725 737.641 537.728 739.492 538.521C742.268 539.711 760.286 554.907 747.596 555.7C734.905 556.493 728.556 557.863 724.797 554.945C720.353 551.495 725.387 553.057 723.404 553.057C721.421 553.057 719.042 553.057 718.249 549.884C717.455 546.712 719.438 541.159 719.438 541.159V516.358H735.302Z" fill="#2F2E41"/>
<path d="M676.087 516.047L675.092 522.512C674.759 524.717 674.542 526.939 674.442 529.167C674.287 532.414 673.747 537.418 671.896 538.211C669.12 539.401 651.102 554.596 663.792 555.389C676.483 556.183 682.832 557.553 686.591 554.634C691.035 551.184 686.001 552.746 687.984 552.746C689.967 552.746 692.346 552.746 693.14 549.574C693.933 546.401 691.95 540.849 691.95 540.849V516.047H676.087Z" fill="#2F2E41"/>
<path d="M687.315 160.227C687.315 160.227 694.057 176.884 698.816 179.66C703.575 182.436 701.195 195.127 701.195 195.127L689.298 211.783H679.78L668.279 191.954C668.279 191.954 667.486 178.867 665.107 175.694C662.727 172.521 687.315 160.227 687.315 160.227Z" fill="#FFB9B9"/>
<path opacity="0.1" d="M687.315 160.227C687.315 160.227 694.057 176.884 698.816 179.66C703.575 182.436 701.195 195.127 701.195 195.127L689.298 211.783H679.78L668.279 191.954C668.279 191.954 667.486 178.867 665.107 175.694C662.727 172.521 687.315 160.227 687.315 160.227Z" fill="black"/>
<path d="M697.23 194.333L715.076 198.299L728.163 329.964C728.163 329.964 721.025 331.154 713.886 340.672C706.748 350.19 698.023 348.604 693.66 346.224C689.298 343.845 671.848 337.103 671.452 334.327C671.055 331.551 672.245 282.771 672.245 282.771L661.141 206.627L666.693 198.299H676.607L684.539 205.041L697.23 194.333Z" fill="#F98900"/>
<path d="M670.262 180.85C681.652 180.85 690.884 171.617 690.884 160.227C690.884 148.838 681.652 139.605 670.262 139.605C658.873 139.605 649.64 148.838 649.64 160.227C649.64 171.617 658.873 180.85 670.262 180.85Z" fill="#FFB9B9"/>
<path d="M700.006 187.592C700.006 187.592 738.871 191.557 742.44 199.886C746.009 208.214 740.061 245.096 740.061 245.096C740.061 245.096 754.338 277.219 753.941 284.754C753.544 292.289 767.425 343.845 752.355 337.896C737.284 331.947 742.044 316.481 734.508 327.585C726.973 338.689 723.801 337.103 723.801 337.103C723.801 337.103 716.266 349.397 713.886 348.207C711.507 347.017 709.92 337.896 715.076 333.534C720.232 329.171 719.438 321.636 709.524 307.359C699.609 293.082 689.298 218.128 695.247 206.627C701.196 195.127 700.006 187.592 700.006 187.592Z" fill="#575A89"/>
<path d="M740.458 339.879L733.715 346.224L725.387 340.672L728.957 332.344L740.458 339.879Z" fill="#FFB9B9"/>
<path d="M671.452 194.333C671.452 194.333 641.312 205.438 641.312 217.335C641.312 229.233 659.554 281.185 659.554 281.185C659.554 281.185 659.554 294.669 658.761 297.841C657.968 301.014 645.49 328.685 656.382 331.154C663.18 332.695 668.766 336.743 669.271 342.457C669.87 349.241 664.676 357.804 665.107 359.311C665.9 362.087 670.659 366.053 670.262 364.07C669.866 362.087 673.435 333.534 678.987 320.843C684.539 308.152 676.607 222.887 675.021 211.783C674.256 205.888 673.063 200.056 671.452 194.333Z" fill="#575A89"/>
<path d="M655.589 339.085L662.727 356.139L668.081 345.233L661.934 331.55L655.589 339.085Z" fill="#FFB9B9"/>
<path d="M693.495 173.004C693.495 173.004 700.006 175.694 703.971 175.694C707.937 175.694 724.197 184.022 718.645 189.178C713.093 194.333 704.765 195.523 700.799 203.058C696.833 210.593 694.85 211.783 694.85 211.783L687.79 202.298C687.79 202.298 697.626 191.161 697.23 187.591C696.833 184.022 693.495 173.004 693.495 173.004Z" fill="#F98900"/>
<path d="M667.208 182.539C667.208 182.539 662.33 184.419 661.141 187.592C659.951 190.764 652.416 196.713 655.589 198.299C658.761 199.886 672.642 206.231 675.418 207.421C678.194 208.61 683.367 204.045 683.367 204.045C683.367 204.045 676.409 200.084 676.409 197.308C676.409 194.532 667.208 182.539 667.208 182.539Z" fill="#F98900"/>
<path d="M650.83 211.783L641.312 214.162C641.312 214.162 628.224 272.857 632.19 287.53C636.156 302.204 654.795 346.224 654.795 346.224L666.693 332.344C666.693 332.344 661.503 300.78 658.546 298.716C655.589 296.651 657.572 292.289 657.572 291.099C657.572 289.91 658.761 290.703 655.985 287.927C653.209 285.151 666.296 269.684 662.727 265.321C659.158 260.959 650.83 211.783 650.83 211.783Z" fill="#575A89"/>
<path opacity="0.1" d="M744.621 222.689L738.871 201.075C738.871 201.075 754.338 212.18 757.51 228.439C760.683 244.699 772.977 277.219 765.045 291.496C757.114 305.773 743.233 347.017 738.474 346.224C733.715 345.431 722.214 335.517 721.818 333.93C721.421 332.344 742.44 295.858 739.267 293.082C736.095 290.306 736.888 283.168 739.267 281.581C741.647 279.995 744.423 272.46 742.44 272.857C740.457 273.253 734.508 269.287 735.698 264.925C736.888 260.563 729.749 231.216 729.749 231.216L744.621 222.689Z" fill="black"/>
<path d="M736.888 198.299L742.44 199.886C742.44 199.886 757.907 210.99 761.079 227.25C764.252 243.509 776.546 276.029 768.614 290.306C760.683 304.583 746.802 345.828 742.043 345.034C737.284 344.241 725.784 334.327 725.387 332.74C724.99 331.154 746.009 294.669 742.837 291.892C739.664 289.116 740.457 281.978 742.837 280.392C745.216 278.805 747.992 271.27 746.009 271.667C744.026 272.063 738.078 268.098 739.267 263.735C740.457 259.373 733.319 230.026 733.319 230.026L736.888 198.299Z" fill="#575A89"/>
<path d="M686.265 141.613L690.133 140.206C690.133 140.206 682.046 132.119 670.794 132.822L673.959 129.657C673.959 129.657 666.223 126.844 659.191 134.228C655.494 138.11 651.217 142.673 648.55 147.812H644.408L646.137 151.27L640.086 154.728L646.296 154.107C645.708 157.092 645.911 160.179 646.884 163.061L648.29 166.929C648.29 166.929 653.916 155.677 653.916 154.271V157.787C653.916 157.787 657.784 154.622 657.784 152.513L659.894 154.974L660.949 151.106L673.959 154.974L671.849 151.81L679.936 152.864L676.772 148.997C676.772 148.997 685.914 153.568 686.266 157.435C686.617 161.303 691.188 166.226 691.188 166.226L693.298 162.71C693.298 162.71 696.463 146.887 686.265 141.613Z" fill="#2F2E41"/>
<path d="M685.467 162.507C687.138 162.507 688.492 160.379 688.492 157.753C688.492 155.127 687.138 152.999 685.467 152.999C683.796 152.999 682.442 155.127 682.442 157.753C682.442 160.379 683.796 162.507 685.467 162.507Z" fill="#FFB9B9"/>
<path d="M249.04 359.83C247.673 359.83 246.336 359.425 245.199 358.665C244.061 357.905 243.175 356.825 242.652 355.562C242.128 354.298 241.991 352.908 242.258 351.566C242.525 350.225 243.184 348.993 244.151 348.025C245.118 347.058 246.35 346.4 247.691 346.133C249.033 345.866 250.423 346.003 251.687 346.526C252.95 347.05 254.03 347.936 254.79 349.073C255.55 350.211 255.956 351.548 255.956 352.915C255.954 354.749 255.224 356.506 253.928 357.803C252.631 359.099 250.874 359.828 249.04 359.83ZM249.04 347.729C248.015 347.729 247.012 348.033 246.159 348.603C245.306 349.173 244.641 349.983 244.249 350.93C243.856 351.878 243.754 352.921 243.954 353.927C244.154 354.933 244.648 355.857 245.373 356.583C246.098 357.308 247.023 357.802 248.029 358.002C249.035 358.202 250.078 358.099 251.025 357.707C251.973 357.314 252.783 356.65 253.353 355.797C253.923 354.944 254.227 353.941 254.227 352.915C254.225 351.54 253.678 350.222 252.706 349.25C251.734 348.277 250.415 347.73 249.04 347.729Z" fill="#F98900"/>
<path d="M249.041 356.373C250.95 356.373 252.498 354.825 252.498 352.915C252.498 351.006 250.95 349.458 249.041 349.458C247.131 349.458 245.583 351.006 245.583 352.915C245.583 354.825 247.131 356.373 249.041 356.373Z" fill="#F98900"/>
</g>
<defs>
<clipPath id="clip0">
<rect width="800" height="557.698" fill="white"/>
</clipPath>
</defs>
</svg>
