<svg width="305" height="222" viewBox="0 0 305 222" fill="none" xmlns="http://www.w3.org/2000/svg">
<g clip-path="url(#clip0)">
<path d="M194.361 165.736V219.029H60.8423C45.6296 219.029 33.2524 207.075 33.2524 192.382C33.2524 177.689 45.6296 165.736 60.8423 165.736H194.361Z" fill="#F2F2F2"/>
<path d="M197.641 218.619C197.641 219.162 197.425 219.683 197.04 220.068C196.656 220.452 196.135 220.668 195.591 220.668H58.4641C51.0165 220.668 43.8739 217.71 38.6076 212.443C33.3414 207.177 30.3828 200.035 30.3828 192.587C30.3828 185.139 33.3414 177.997 38.6076 172.73C43.8739 167.464 51.0165 164.506 58.4641 164.506H195.591C196.135 164.506 196.656 164.722 197.041 165.106C197.425 165.49 197.641 166.012 197.641 166.555C197.641 167.099 197.425 167.62 197.041 168.005C196.656 168.389 196.135 168.605 195.591 168.605H58.4641C52.1037 168.605 46.0039 171.132 41.5064 175.629C37.0089 180.127 34.4823 186.227 34.4823 192.587C34.4823 198.947 37.0089 205.047 41.5064 209.545C46.0039 214.042 52.1037 216.569 58.4641 216.569H195.591C196.135 216.569 196.656 216.785 197.04 217.169C197.425 217.554 197.641 218.075 197.641 218.619Z" fill="#006DAA"/>
<path d="M194.361 178.034H50.8802C50.7714 178.034 50.6672 177.991 50.5903 177.914C50.5134 177.837 50.4702 177.733 50.4702 177.624C50.4702 177.515 50.5134 177.411 50.5903 177.334C50.6672 177.257 50.7714 177.214 50.8802 177.214H194.361C194.47 177.214 194.574 177.257 194.651 177.334C194.728 177.411 194.771 177.515 194.771 177.624C194.771 177.733 194.728 177.837 194.651 177.914C194.574 177.991 194.47 178.034 194.361 178.034Z" fill="#CCCCCC"/>
<path d="M194.361 187.873H50.8802C50.7714 187.873 50.6672 187.829 50.5903 187.753C50.5134 187.676 50.4702 187.571 50.4702 187.463C50.4702 187.354 50.5134 187.25 50.5903 187.173C50.6672 187.096 50.7714 187.053 50.8802 187.053H194.361C194.47 187.053 194.574 187.096 194.651 187.173C194.728 187.25 194.771 187.354 194.771 187.463C194.771 187.571 194.728 187.676 194.651 187.753C194.574 187.829 194.47 187.873 194.361 187.873Z" fill="#CCCCCC"/>
<path d="M194.361 197.711H50.8802C50.7714 197.711 50.6672 197.668 50.5903 197.591C50.5134 197.514 50.4702 197.41 50.4702 197.301C50.4702 197.193 50.5134 197.088 50.5903 197.012C50.6672 196.935 50.7714 196.891 50.8802 196.891H194.361C194.47 196.891 194.574 196.935 194.651 197.012C194.728 197.088 194.771 197.193 194.771 197.301C194.771 197.41 194.728 197.514 194.651 197.591C194.574 197.668 194.47 197.711 194.361 197.711Z" fill="#CCCCCC"/>
<path d="M194.361 207.55H50.8802C50.7714 207.55 50.6672 207.507 50.5903 207.43C50.5134 207.353 50.4702 207.249 50.4702 207.14C50.4702 207.031 50.5134 206.927 50.5903 206.85C50.6672 206.773 50.7714 206.73 50.8802 206.73H194.361C194.47 206.73 194.574 206.773 194.651 206.85C194.728 206.927 194.771 207.031 194.771 207.14C194.771 207.249 194.728 207.353 194.651 207.43C194.574 207.507 194.47 207.55 194.361 207.55Z" fill="#CCCCCC"/>
<path d="M297.552 175.767L264.115 217.265L160.146 133.493C148.3 123.948 146.163 106.874 155.381 95.4333C164.599 83.9925 181.737 82.4499 193.583 91.9947L297.552 175.767Z" fill="#F2F2F2"/>
<path d="M266.926 219.004C266.584 219.427 266.089 219.697 265.549 219.755C265.008 219.814 264.467 219.655 264.044 219.314L157.265 133.278C151.466 128.605 147.761 121.82 146.964 114.415C146.167 107.01 148.345 99.5918 153.018 93.7924C157.691 87.9931 164.476 84.2876 171.881 83.491C179.286 82.6944 186.704 84.8721 192.503 89.5449L299.281 175.581C299.491 175.75 299.665 175.959 299.795 176.195C299.924 176.431 300.005 176.691 300.034 176.958C300.063 177.226 300.039 177.497 299.963 177.755C299.887 178.014 299.761 178.254 299.592 178.464C299.423 178.674 299.215 178.848 298.978 178.977C298.742 179.106 298.482 179.187 298.215 179.216C297.947 179.245 297.676 179.221 297.418 179.145C297.16 179.069 296.919 178.942 296.709 178.773L189.931 92.737C187.479 90.7596 184.661 89.2847 181.639 88.3965C178.616 87.5083 175.449 87.2242 172.317 87.5605C169.184 87.8968 166.149 88.8469 163.384 90.3565C160.62 91.8661 158.179 93.9057 156.203 96.3586C154.226 98.8116 152.752 101.63 151.865 104.653C150.978 107.675 150.696 110.843 151.033 113.975C151.371 117.107 152.322 120.142 153.833 122.906C155.343 125.67 157.384 128.11 159.838 130.085L266.616 216.122C267.039 216.463 267.309 216.958 267.367 217.499C267.425 218.039 267.267 218.581 266.926 219.004Z" fill="#CCCCCC"/>
<path d="M289.836 185.344L178.11 95.3207C178.068 95.2869 178.033 95.2452 178.007 95.1979C177.981 95.1507 177.965 95.0988 177.959 95.0453C177.954 94.9918 177.958 94.9377 177.974 94.886C177.989 94.8343 178.014 94.7862 178.048 94.7443C178.081 94.7023 178.123 94.6675 178.17 94.6417C178.218 94.6159 178.269 94.5996 178.323 94.5939C178.377 94.5881 178.431 94.5929 178.482 94.6081C178.534 94.6233 178.582 94.6485 178.624 94.6823L290.35 184.705C290.392 184.739 290.427 184.781 290.453 184.828C290.479 184.875 290.495 184.927 290.501 184.981C290.507 185.034 290.502 185.089 290.487 185.14C290.471 185.192 290.446 185.24 290.412 185.282C290.379 185.324 290.337 185.359 290.29 185.385C290.242 185.411 290.19 185.427 290.137 185.433C290.083 185.438 290.029 185.433 289.977 185.418C289.926 185.403 289.878 185.378 289.836 185.344V185.344Z" fill="#CCCCCC"/>
<path d="M283.663 193.005L171.937 102.982C171.852 102.914 171.798 102.815 171.787 102.707C171.775 102.599 171.807 102.49 171.875 102.406C171.943 102.321 172.042 102.267 172.15 102.255C172.258 102.244 172.366 102.275 172.451 102.343L284.177 192.367C284.219 192.4 284.254 192.442 284.28 192.489C284.306 192.537 284.322 192.588 284.328 192.642C284.334 192.696 284.329 192.75 284.314 192.801C284.298 192.853 284.273 192.901 284.239 192.943C284.206 192.985 284.164 193.02 284.117 193.046C284.069 193.072 284.017 193.088 283.964 193.094C283.91 193.099 283.856 193.095 283.804 193.079C283.753 193.064 283.705 193.039 283.663 193.005Z" fill="#CCCCCC"/>
<path d="M277.49 200.666L165.764 110.643C165.679 110.575 165.625 110.476 165.613 110.368C165.602 110.26 165.633 110.151 165.702 110.067C165.77 109.982 165.869 109.928 165.977 109.916C166.085 109.905 166.193 109.936 166.278 110.005L278.004 200.028C278.046 200.062 278.081 200.103 278.107 200.15C278.132 200.198 278.149 200.25 278.154 200.303C278.16 200.357 278.155 200.411 278.14 200.462C278.125 200.514 278.1 200.562 278.066 200.604C278.032 200.646 277.991 200.681 277.943 200.707C277.896 200.733 277.844 200.749 277.791 200.755C277.737 200.76 277.683 200.755 277.631 200.74C277.58 200.725 277.532 200.7 277.49 200.666V200.666Z" fill="#CCCCCC"/>
<path d="M271.317 208.327L159.591 118.304C159.549 118.271 159.514 118.229 159.488 118.182C159.462 118.134 159.446 118.082 159.44 118.029C159.435 117.975 159.439 117.921 159.455 117.87C159.47 117.818 159.495 117.77 159.529 117.728C159.563 117.686 159.604 117.651 159.651 117.625C159.699 117.6 159.751 117.583 159.804 117.578C159.858 117.572 159.912 117.577 159.963 117.592C160.015 117.607 160.063 117.632 160.105 117.666L271.831 207.689C271.873 207.723 271.908 207.764 271.934 207.812C271.96 207.859 271.976 207.911 271.982 207.964C271.988 208.018 271.983 208.072 271.968 208.124C271.953 208.176 271.927 208.224 271.894 208.266C271.86 208.308 271.818 208.343 271.771 208.368C271.723 208.394 271.671 208.41 271.618 208.416C271.564 208.422 271.51 208.417 271.458 208.402C271.407 208.387 271.359 208.361 271.317 208.327Z" fill="#CCCCCC"/>
<path d="M304.59 221.078H0.409946C0.301222 221.078 0.19695 221.035 0.12007 220.958C0.0431903 220.881 0 220.777 0 220.668C0 220.56 0.0431903 220.455 0.12007 220.378C0.19695 220.302 0.301222 220.258 0.409946 220.258H304.59C304.699 220.258 304.803 220.302 304.88 220.378C304.957 220.455 305 220.56 305 220.668C305 220.777 304.957 220.881 304.88 220.958C304.803 221.035 304.699 221.078 304.59 221.078Z" fill="#CCCCCC"/>
<path d="M138.595 160.134L133.909 160.134L131.68 142.057L138.597 142.057L138.595 160.134Z" fill="#FFB8B8"/>
<path d="M130.561 158.795H139.599V164.485H124.87C124.87 163.738 125.017 162.998 125.303 162.308C125.589 161.617 126.008 160.99 126.537 160.461C127.065 159.933 127.692 159.514 128.383 159.228C129.073 158.942 129.813 158.795 130.561 158.795Z" fill="#2F2E41"/>
<path d="M90.7154 160.134L86.0289 160.134L83.8 142.057L90.7171 142.057L90.7154 160.134Z" fill="#FFB8B8"/>
<path d="M82.6812 158.795H91.7196V164.485H76.9904C76.9904 163.738 77.1376 162.998 77.4235 162.308C77.7095 161.617 78.1287 160.99 78.6572 160.461C79.1856 159.933 79.813 159.514 80.5034 159.228C81.1939 158.942 81.9339 158.795 82.6812 158.795Z" fill="#2F2E41"/>
<path d="M106.369 26.0451V23.9954C106.369 20.489 107.762 17.1263 110.241 14.6469C112.721 12.1675 116.084 10.7746 119.59 10.7746H119.59C123.096 10.7746 126.459 12.1675 128.938 14.6469C131.418 17.1263 132.811 20.489 132.811 23.9954V26.0451C132.811 28.573 131.807 30.9973 130.019 32.7847C128.232 34.5722 125.807 35.5764 123.279 35.5764H115.9C114.649 35.5764 113.409 35.3299 112.253 34.8509C111.097 34.3719 110.046 33.6698 109.161 32.7847C108.276 31.8997 107.574 30.849 107.095 29.6926C106.616 28.5362 106.369 27.2968 106.369 26.0451Z" fill="#2F2E41"/>
<path d="M119.59 36.2817C125.151 36.2817 129.659 31.7738 129.659 26.213C129.659 20.6522 125.151 16.1443 119.59 16.1443C114.029 16.1443 109.521 20.6522 109.521 26.213C109.521 31.7738 114.029 36.2817 119.59 36.2817Z" fill="#FFB8B8"/>
<path d="M64.8226 60.8178C65.2312 60.432 65.7194 60.1404 66.2529 59.9637C66.7863 59.787 67.352 59.7293 67.9102 59.7949C68.4683 59.8605 69.0053 60.0476 69.4833 60.3431C69.9613 60.6387 70.3686 61.0354 70.6767 61.5054L79.308 59.8728L81.5794 64.876L69.358 67.0104C68.5342 67.4756 67.5682 67.6224 66.6433 67.4231C65.7184 67.2237 64.8988 66.6919 64.3397 65.9286C63.7807 65.1653 63.521 64.2234 63.61 63.2815C63.699 62.3395 64.1304 61.4629 64.8226 60.8178V60.8178Z" fill="#FFB8B8"/>
<path d="M111.74 42.6226L111.853 42.7936L97.6992 52.1176L73.8165 59.744C73.4999 59.8457 73.2283 60.054 73.0481 60.3334C72.8678 60.6128 72.7899 60.9461 72.8277 61.2765L73.3487 65.764C73.3718 65.9626 73.4361 66.1542 73.5376 66.3265C73.6391 66.4988 73.7755 66.6479 73.938 66.7644C74.1005 66.8809 74.2855 66.9622 74.4813 67.003C74.677 67.0438 74.8791 67.0433 75.0747 67.0014L97.5519 62.1834C98.6397 61.9516 99.6683 61.4987 100.574 60.8529L116.475 49.5397C117.051 49.1273 117.511 48.5728 117.81 47.9301C118.109 47.2873 118.236 46.5782 118.179 45.8717C118.121 45.1642 117.88 44.4841 117.479 43.8983C117.078 43.3124 116.531 42.841 115.893 42.5304C115.255 42.2199 114.547 42.0808 113.838 42.127C113.13 42.1731 112.446 42.4029 111.853 42.7936L111.74 42.6226Z" fill="#CCCCCC"/>
<path d="M133.992 155.004C133.632 155.004 133.281 154.9 132.979 154.703C132.678 154.506 132.441 154.226 132.296 153.897L110.811 100.808C110.761 100.693 110.676 100.596 110.569 100.53C110.462 100.465 110.338 100.433 110.212 100.44C110.087 100.447 109.967 100.492 109.868 100.57C109.769 100.647 109.696 100.753 109.659 100.873L92.1308 152.557C92.0568 152.797 91.9343 153.02 91.771 153.212C91.6077 153.403 91.407 153.559 91.1812 153.67C90.9553 153.781 90.7092 153.845 90.4578 153.857C90.2065 153.869 89.9553 153.83 89.7196 153.742L83.8417 151.538C83.5226 151.419 83.2427 151.214 83.033 150.946C82.8234 150.678 82.6922 150.357 82.654 150.019C80.0097 126.983 103.069 68.8375 103.303 68.253L103.367 68.091L124.388 72.741L124.432 72.7886C132.818 81.9377 139.712 139.643 141.009 151.119C141.057 151.533 140.963 151.952 140.741 152.305C140.52 152.659 140.185 152.927 139.791 153.064L134.602 154.899C134.406 154.969 134.2 155.004 133.992 155.004Z" fill="#2F2E41"/>
<path d="M115.88 74.6125C110.787 74.6125 105.109 73.5971 103.362 69.4059L103.321 69.3097L103.376 69.2204C104.755 66.9569 106.579 63.0956 105.599 62.3708C103.668 60.9434 102.731 58.5952 102.814 55.3913C102.995 48.4362 107.734 42.2612 114.607 40.0255H114.607C116.525 39.4116 118.478 38.9089 120.454 38.52C121.895 38.2293 123.382 38.2613 124.809 38.6137C126.236 38.9661 127.567 39.6301 128.707 40.5582C129.861 41.4923 130.794 42.6704 131.439 44.008C132.084 45.3456 132.424 46.8093 132.436 48.2941C132.508 55.7268 131.364 66.0789 125.503 73.1861C125.228 73.5159 124.846 73.7382 124.424 73.8139C121.604 74.3239 118.746 74.5911 115.88 74.6125Z" fill="#CCCCCC"/>
<path d="M113.986 74.3342C114.263 73.34 114.922 72.4953 115.818 71.9837C116.714 71.4722 117.777 71.3351 118.774 71.6023C118.977 71.6592 119.176 71.7327 119.367 71.8221L125.921 65.8579L130.479 68.9285L121.106 77.2221C120.683 77.9851 120.017 78.5847 119.214 78.9254C118.411 79.2661 117.516 79.3284 116.674 79.1023C116.183 78.968 115.723 78.7376 115.322 78.4246C114.921 78.1116 114.585 77.7222 114.335 77.2788C114.085 76.8354 113.926 76.3469 113.866 75.8415C113.806 75.3361 113.847 74.8238 113.986 74.3342Z" fill="#FFB8B8"/>
<path d="M124.883 74.41C124.457 74.4102 124.045 74.2632 123.716 73.9938L121.132 71.8818C120.916 71.7058 120.743 71.4832 120.626 71.2309C120.509 70.9786 120.45 70.7031 120.455 70.4249C120.459 70.1467 120.526 69.8731 120.651 69.6245C120.776 69.3759 120.956 69.1589 121.176 68.9896L132.016 60.676C132.145 60.5769 132.229 60.4312 132.251 60.2705C132.272 60.1097 132.23 59.9468 132.132 59.8172L125.442 50.9722C124.665 49.9479 124.275 48.6817 124.341 47.3977C124.408 46.1136 124.927 44.8946 125.806 43.9562C126.732 42.9563 127.999 42.341 129.358 42.2324C130.716 42.1237 132.066 42.5297 133.139 43.3697L133.181 43.4144L140.167 53.418C140.923 54.0104 141.531 54.7693 141.945 55.6356C142.358 56.5019 142.566 57.4521 142.552 58.412C142.538 59.3719 142.302 60.3155 141.862 61.1691C141.423 62.0227 140.792 62.7632 140.02 63.3328L125.981 74.0482C125.663 74.2832 125.278 74.41 124.883 74.41Z" fill="#CCCCCC"/>
<path d="M110.671 23.3805V18.3848L119.59 14.4903L128.094 18.3848V23.3805C128.094 23.5979 128.008 23.8065 127.854 23.9602C127.7 24.114 127.492 24.2004 127.274 24.2004H111.491C111.274 24.2004 111.065 24.114 110.911 23.9602C110.758 23.8065 110.671 23.5979 110.671 23.3805Z" fill="#2F2E41"/>
<path d="M119.18 11.4374C117.869 7.24012 120.623 2.42988 124.695 0.768505C128.766 -0.892872 133.637 0.268481 137.072 3.01333C140.508 5.75817 142.639 9.86943 143.769 14.1193C144.898 18.3691 145.112 22.8006 145.321 27.193C150.323 28.1118 153.726 34.0449 151.993 38.8266C150.26 43.6082 143.846 45.9837 139.417 43.4845C134.987 40.9853 133.704 34.267 136.901 30.3114C138.414 28.4397 139.259 26.1168 139.302 23.7107C139.346 21.3045 138.585 18.9527 137.141 17.0276C135.697 15.1024 133.652 13.7141 131.33 13.0826C129.008 12.451 126.541 12.6122 124.321 13.5406C121.856 14.5716 118.762 11.8929 119.18 11.4374Z" fill="#2F2E41"/>
<path d="M62.9736 41.4385C56.9845 41.3992 51.0704 40.1039 45.6131 37.6363C45.2883 37.4915 45.0126 37.2554 44.8195 36.9567C44.6265 36.6579 44.5245 36.3095 44.526 35.9539V21.0245C44.5266 20.5354 44.7211 20.0665 45.0669 19.7206C45.4128 19.3748 45.8817 19.1803 46.3708 19.1797H79.5764C80.0655 19.1803 80.5344 19.3748 80.8802 19.7207C81.2261 20.0665 81.4206 20.5354 81.4212 21.0245V35.9539C81.4226 36.3096 81.3207 36.658 81.1276 36.9567C80.9346 37.2554 80.6589 37.4915 80.334 37.6363C74.8768 40.1039 68.9626 41.3992 62.9736 41.4385Z" fill="#006DAA"/>
<path d="M62.969 29.3439C62.7228 29.3441 62.4791 29.2951 62.2521 29.1998L35.9205 18.0904C35.5809 17.9471 35.2921 17.7055 35.0911 17.3965C34.8902 17.0876 34.7864 16.7255 34.7932 16.357C34.7999 15.9885 34.9169 15.6305 35.129 15.3291C35.3411 15.0278 35.6387 14.7968 35.9832 14.6661L62.3152 4.67664C62.7394 4.51501 63.2083 4.51601 63.6317 4.67945L89.6109 14.6689C89.9535 14.8006 90.249 15.0316 90.4596 15.3323C90.6703 15.633 90.7864 15.9896 90.7932 16.3567C90.7999 16.7237 90.6971 17.0844 90.4977 17.3926C90.2983 17.7009 90.0115 17.9426 89.674 18.087L63.6946 29.1962C63.4652 29.2939 63.2183 29.3441 62.969 29.3439Z" fill="#006DAA"/>
<path d="M47.6005 38.6522C48.959 38.6522 50.0602 37.5509 50.0602 36.1925C50.0602 34.834 48.959 33.7328 47.6005 33.7328C46.2421 33.7328 45.1409 34.834 45.1409 36.1925C45.1409 37.5509 46.2421 38.6522 47.6005 38.6522Z" fill="#3F3D56"/>
<path opacity="0.2" d="M89.7638 16.5101L63.7843 27.6193C63.5817 27.7059 63.3638 27.7508 63.1435 27.7513C62.9233 27.7519 62.7051 27.708 62.5022 27.6224L36.1705 16.5133C35.8399 16.3772 35.564 16.1347 35.3865 15.8242C35.2704 16.0255 35.1984 16.2492 35.1754 16.4805C35.1524 16.7118 35.1788 16.9453 35.253 17.1656C35.3272 17.3858 35.4473 17.5878 35.6055 17.7581C35.7637 17.9283 35.9563 18.063 36.1705 18.1531L62.5022 29.2622C62.7051 29.3478 62.9233 29.3917 63.1435 29.3911C63.3638 29.3906 63.5817 29.3457 63.7843 29.2591L89.7638 18.1499C89.9769 18.059 90.1684 17.9239 90.3255 17.7535C90.4826 17.5832 90.6018 17.3815 90.6751 17.1617C90.7485 16.9419 90.7745 16.709 90.7513 16.4785C90.7281 16.2479 90.6562 16.0249 90.5405 15.8242C90.3643 16.1322 90.0912 16.3733 89.7638 16.5101Z" fill="black"/>
<path d="M47.8073 36.1829C47.916 36.1829 48.0203 36.1397 48.0972 36.0628C48.1741 35.9859 48.2172 35.8816 48.2172 35.7729V22.0555L61.7377 17.13C61.8465 17.1316 61.9514 17.09 62.0294 17.0142C62.1074 16.9385 62.1522 16.8349 62.1538 16.7261C62.1554 16.6174 62.1138 16.5125 62.0381 16.4345C61.9623 16.3565 61.8587 16.3117 61.75 16.3101L48.2294 21.2356C48.1206 21.2331 48.0125 21.2528 47.9115 21.2933C47.8105 21.3338 47.7187 21.3944 47.6418 21.4714C47.5641 21.5475 47.5025 21.6384 47.4605 21.7387C47.4185 21.8391 47.397 21.9468 47.3973 22.0555V35.7729C47.3973 35.8816 47.4405 35.9859 47.5174 36.0628C47.5943 36.1397 47.6986 36.1829 47.8073 36.1829Z" fill="#3F3D56"/>
</g>
<defs>
<clipPath id="clip0">
<rect width="305" height="221.078" fill="white"/>
</clipPath>
</defs>
</svg>
