<svg width="489" height="328" viewBox="0 0 489 328" fill="none" xmlns="http://www.w3.org/2000/svg">
<g clip-path="url(#clip0)">
<path d="M401.375 196.375C401.699 196.278 402.029 196.207 402.364 196.163L415.717 168.984L411.64 162.862L420.059 155.492L430.643 168.465L409.088 199.89C409.618 201.078 409.774 202.4 409.536 203.68C409.298 204.96 408.677 206.137 407.755 207.054C406.833 207.972 405.654 208.586 404.375 208.816C403.096 209.046 401.777 208.88 400.594 208.341C399.411 207.802 398.42 206.915 397.753 205.798C397.086 204.681 396.774 203.386 396.858 202.087C396.943 200.788 397.421 199.546 398.228 198.526C399.035 197.505 400.132 196.755 401.375 196.375V196.375Z" fill="#A0616A"/>
<path d="M424.17 159.247C423.988 159.439 423.779 159.604 423.55 159.736L409.888 167.67C409.56 167.86 409.195 167.981 408.818 168.023C408.441 168.066 408.059 168.029 407.697 167.916C407.334 167.803 406.999 167.616 406.712 167.367C406.426 167.118 406.194 166.811 406.032 166.468L399.387 152.405C399.104 151.814 399.043 151.14 399.216 150.507C399.388 149.874 399.781 149.324 400.324 148.957L408.793 143.186C409.322 142.826 409.96 142.662 410.597 142.723C411.233 142.784 411.829 143.065 412.28 143.519L424.118 155.418C424.621 155.924 424.908 156.607 424.918 157.322C424.928 158.036 424.659 158.727 424.17 159.247H424.17Z" fill="#CCCCCC"/>
<path d="M443.353 314.983L436.139 316.949L425.136 290.015L435.783 287.113L443.353 314.983Z" fill="#A0616A"/>
<path d="M430.426 316.289L444.337 312.498L446.721 321.272L424.05 327.45C423.737 326.298 423.654 325.095 423.805 323.911C423.956 322.726 424.338 321.583 424.93 320.547C425.522 319.511 426.313 318.601 427.255 317.871C428.198 317.14 429.276 316.603 430.426 316.289Z" fill="#2F2E41"/>
<path d="M381.687 320.497L374.212 320.496L370.655 291.613L381.688 291.613L381.687 320.497Z" fill="#A0616A"/>
<path d="M368.872 318.357H383.289V327.45H359.794C359.794 326.256 360.029 325.073 360.485 323.97C360.942 322.867 361.61 321.865 362.453 321.02C363.296 320.176 364.297 319.506 365.398 319.049C366.499 318.592 367.68 318.357 368.872 318.357Z" fill="#2F2E41"/>
<path d="M389.563 133.598C397.834 133.598 404.54 126.882 404.54 118.596C404.54 110.311 397.834 103.594 389.563 103.594C381.292 103.594 374.587 110.311 374.587 118.596C374.587 126.882 381.292 133.598 389.563 133.598Z" fill="#A0616A"/>
<path d="M381.229 299.903H371.014C370.315 299.902 369.644 299.635 369.135 299.156C368.626 298.677 368.317 298.022 368.272 297.324C365.228 248.85 367.009 214.078 373.876 187.897C373.906 187.782 373.943 187.67 373.987 187.56L374.534 186.19C374.736 185.679 375.088 185.24 375.542 184.932C375.997 184.624 376.533 184.46 377.082 184.462H398.09C398.485 184.461 398.877 184.547 399.236 184.713C399.596 184.878 399.916 185.12 400.173 185.422L403.026 188.757C403.082 188.822 403.134 188.888 403.184 188.958C416.051 206.931 427.582 242.069 440.936 289.299C441.133 289.985 441.055 290.722 440.718 291.351C440.381 291.98 439.812 292.453 439.132 292.668L428.153 296.188C427.523 296.386 426.843 296.352 426.236 296.091C425.628 295.829 425.135 295.358 424.846 294.763L396.356 235.572C396.157 235.159 395.83 234.82 395.423 234.607C395.017 234.394 394.553 234.318 394.1 234.389C393.648 234.461 393.23 234.677 392.909 235.005C392.588 235.333 392.381 235.756 392.319 236.211L383.948 297.527C383.856 298.184 383.531 298.786 383.031 299.223C382.532 299.659 381.892 299.901 381.229 299.903Z" fill="#2F2E41"/>
<path d="M401.875 189C401.846 189 401.817 189 401.788 188.999L376.271 188.192C375.615 188.174 374.987 187.92 374.503 187.476C374.018 187.033 373.709 186.43 373.631 185.777C370.397 159.548 379.268 152.522 383.232 150.719C383.564 150.569 383.851 150.336 384.066 150.042C384.281 149.749 384.416 149.405 384.459 149.043L384.802 146.294C384.861 145.808 385.048 145.347 385.345 144.959C391.56 136.893 400.048 134.311 404.554 133.489C404.919 133.423 405.294 133.433 405.656 133.517C406.018 133.6 406.359 133.757 406.658 133.977C406.958 134.197 407.209 134.475 407.398 134.796C407.587 135.116 407.708 135.472 407.756 135.84L408.27 139.788C408.322 140.165 408.472 140.521 408.705 140.821C421.667 157.797 407.226 182.861 404.2 187.713C403.952 188.107 403.609 188.431 403.203 188.657C402.796 188.882 402.339 189 401.875 189Z" fill="#CCCCCC"/>
<path d="M419.779 120.285C416.438 115.573 412.432 111.371 407.885 107.812C404.106 104.855 399.899 102.329 395.258 101.12C390.616 99.9118 385.49 100.117 381.255 102.372C377.02 104.626 372.642 109.106 372.615 113.91C372.607 115.453 372.999 117.541 374.516 117.274L374.955 117.332C378.615 116.592 382.275 115.851 385.935 115.111C387.494 120.53 389.053 125.949 390.611 131.367C390.94 132.51 391.381 133.787 392.463 134.274C393.482 134.733 394.661 134.3 395.692 133.869C395.862 133.798 397.319 130.521 397.319 130.521C397.356 130.418 397.419 130.328 397.502 130.258C397.585 130.188 397.686 130.142 397.793 130.124C397.9 130.106 398.01 130.117 398.111 130.156C398.213 130.195 398.302 130.26 398.37 130.345L399.236 131.429C399.401 131.636 399.629 131.783 399.886 131.849C400.142 131.915 400.413 131.895 400.658 131.793C406.626 129.297 412.595 126.801 418.564 124.305C419.388 123.96 420.31 123.51 420.55 122.647C420.779 121.82 420.274 120.985 419.779 120.285Z" fill="#2F2E41"/>
<path d="M488.39 328H304.852C304.69 328 304.535 327.936 304.421 327.821C304.306 327.707 304.242 327.551 304.242 327.389C304.242 327.227 304.306 327.072 304.421 326.957C304.535 326.843 304.69 326.778 304.852 326.778H488.39C488.552 326.778 488.707 326.843 488.821 326.957C488.936 327.072 489 327.227 489 327.389C489 327.551 488.936 327.707 488.821 327.821C488.707 327.936 488.552 328 488.39 328Z" fill="#3F3D56"/>
<path d="M388.887 232.815C388.473 232.814 388.069 232.68 387.736 232.433L384.96 230.413C384.73 230.245 384.452 230.154 384.167 230.154C383.882 230.154 383.604 230.245 383.373 230.413L380.598 232.433C380.263 232.677 379.86 232.808 379.446 232.808C379.032 232.808 378.629 232.677 378.294 232.433C377.96 232.19 377.711 231.846 377.583 231.452C377.455 231.058 377.455 230.633 377.582 230.239L378.643 226.971C378.731 226.699 378.732 226.406 378.644 226.135C378.555 225.863 378.383 225.627 378.152 225.459L375.377 223.439C375.042 223.195 374.793 222.852 374.665 222.457C374.537 222.063 374.537 221.639 374.665 221.244C374.793 220.85 375.042 220.507 375.377 220.263C375.712 220.019 376.115 219.888 376.528 219.888H379.959C380.244 219.889 380.522 219.799 380.753 219.631C380.984 219.463 381.155 219.226 381.243 218.954L382.303 215.686C382.431 215.291 382.68 214.948 383.015 214.704C383.35 214.461 383.753 214.329 384.167 214.329C384.58 214.329 384.984 214.461 385.318 214.704C385.653 214.948 385.902 215.291 386.03 215.686L387.09 218.954C387.178 219.226 387.349 219.463 387.58 219.631C387.811 219.799 388.089 219.889 388.374 219.888H391.805C392.218 219.888 392.622 220.019 392.956 220.263C393.291 220.507 393.54 220.85 393.668 221.244C393.796 221.639 393.796 222.063 393.668 222.457C393.54 222.852 393.291 223.195 392.956 223.439L390.181 225.459C389.95 225.626 389.778 225.863 389.69 226.135C389.602 226.406 389.602 226.699 389.691 226.971L390.751 230.239C390.883 230.633 390.886 231.059 390.757 231.454C390.629 231.849 390.377 232.193 390.039 232.433C389.705 232.68 389.302 232.814 388.887 232.815Z" fill="#F9A826"/>
<path d="M399.495 226.281C400.279 225.73 400.932 225.014 401.41 224.182C401.888 223.351 402.178 222.425 402.26 221.469C402.342 220.513 402.213 219.551 401.883 218.651C401.554 217.75 401.031 216.933 400.352 216.256L405.092 158.919L390.98 160.864L390.711 216.572C389.652 217.79 389.076 219.355 389.092 220.97C389.108 222.585 389.715 224.138 390.798 225.334C391.88 226.531 393.364 227.289 394.967 227.463C396.569 227.637 398.181 227.217 399.495 226.281Z" fill="#A0616A"/>
<path d="M406.014 167.176C405.75 167.176 405.487 167.138 405.233 167.062L390.083 162.599C389.719 162.492 389.381 162.31 389.091 162.065C388.8 161.82 388.564 161.518 388.396 161.177C388.228 160.836 388.133 160.463 388.116 160.084C388.099 159.704 388.162 159.324 388.299 158.97L393.905 144.461C394.139 143.848 394.585 143.34 395.162 143.029C395.739 142.718 396.408 142.626 397.047 142.768L407.056 144.948C407.681 145.084 408.239 145.434 408.633 145.939C409.027 146.443 409.234 147.069 409.216 147.709L408.75 164.502C408.731 165.216 408.434 165.895 407.923 166.394C407.412 166.893 406.728 167.173 406.014 167.176H406.014Z" fill="#CCCCCC"/>
<path d="M117.669 271.486C117.161 271.484 116.667 271.32 116.258 271.018L112.858 268.543C112.575 268.337 112.235 268.226 111.886 268.226C111.536 268.226 111.196 268.337 110.914 268.543L107.514 271.018C107.104 271.316 106.61 271.477 106.103 271.477C105.596 271.477 105.102 271.316 104.692 271.018C104.282 270.72 103.977 270.299 103.82 269.816C103.663 269.333 103.663 268.813 103.82 268.33L105.119 264.326C105.227 263.993 105.228 263.635 105.12 263.302C105.012 262.969 104.801 262.679 104.518 262.474L101.118 259.999C100.708 259.701 100.402 259.28 100.246 258.797C100.089 258.314 100.089 257.794 100.246 257.311C100.402 256.828 100.708 256.407 101.118 256.109C101.528 255.81 102.022 255.65 102.529 255.65H106.732C107.081 255.65 107.421 255.54 107.704 255.334C107.987 255.128 108.197 254.838 108.304 254.505L109.603 250.501C109.759 250.018 110.065 249.597 110.475 249.299C110.885 249 111.379 248.84 111.886 248.84C112.393 248.84 112.887 249 113.297 249.299C113.707 249.597 114.012 250.018 114.169 250.501L115.467 254.505C115.575 254.838 115.785 255.128 116.067 255.334C116.35 255.54 116.691 255.65 117.04 255.65H121.243C121.75 255.65 122.244 255.81 122.654 256.109C123.064 256.407 123.369 256.828 123.526 257.311C123.682 257.794 123.682 258.314 123.526 258.797C123.369 259.28 123.064 259.701 122.654 259.999L119.253 262.474C118.97 262.679 118.76 262.969 118.652 263.302C118.544 263.635 118.544 263.993 118.653 264.326L119.952 268.33C120.114 268.812 120.117 269.334 119.96 269.818C119.803 270.303 119.494 270.723 119.08 271.018C118.671 271.32 118.177 271.484 117.669 271.486Z" fill="#F9A826"/>
<path d="M152.125 271.486C151.617 271.484 151.123 271.32 150.714 271.018L147.314 268.543C147.032 268.337 146.692 268.226 146.342 268.226C145.993 268.226 145.653 268.337 145.371 268.543L141.97 271.018C141.56 271.316 141.066 271.477 140.559 271.477C140.052 271.477 139.559 271.316 139.149 271.018C138.738 270.72 138.433 270.299 138.276 269.816C138.12 269.333 138.12 268.813 138.276 268.33L139.575 264.326C139.684 263.993 139.684 263.635 139.576 263.302C139.468 262.969 139.258 262.679 138.975 262.474L135.574 259.999C135.164 259.701 134.859 259.28 134.702 258.797C134.546 258.314 134.546 257.794 134.702 257.311C134.859 256.828 135.164 256.407 135.574 256.109C135.985 255.81 136.478 255.65 136.985 255.65H141.188C141.537 255.65 141.878 255.54 142.161 255.334C142.443 255.128 142.653 254.838 142.761 254.505L144.059 250.501C144.216 250.018 144.521 249.597 144.931 249.299C145.341 249 145.835 248.84 146.342 248.84C146.849 248.84 147.343 249 147.753 249.299C148.163 249.597 148.469 250.018 148.625 250.501L149.924 254.505C150.031 254.838 150.241 255.128 150.524 255.334C150.807 255.54 151.147 255.65 151.496 255.65H155.699C156.206 255.65 156.7 255.81 157.11 256.109C157.52 256.407 157.826 256.828 157.982 257.311C158.139 257.794 158.139 258.314 157.982 258.797C157.826 259.28 157.52 259.701 157.11 259.999L153.71 262.474C153.427 262.679 153.216 262.969 153.108 263.302C153 263.635 153.001 263.993 153.109 264.326L154.408 268.33C154.571 268.812 154.573 269.334 154.416 269.818C154.259 270.303 153.951 270.723 153.536 271.018C153.127 271.32 152.633 271.484 152.125 271.486Z" fill="#F9A826"/>
<path d="M186.582 271.486C186.074 271.484 185.58 271.32 185.171 271.018L181.771 268.543C181.489 268.337 181.148 268.226 180.799 268.226C180.45 268.226 180.11 268.337 179.827 268.543L176.427 271.018C176.017 271.316 175.523 271.477 175.016 271.477C174.509 271.477 174.015 271.316 173.605 271.018C173.195 270.72 172.89 270.299 172.733 269.816C172.577 269.333 172.577 268.813 172.733 268.33L174.032 264.326C174.14 263.993 174.141 263.635 174.033 263.302C173.925 262.969 173.714 262.679 173.431 262.474L170.031 259.999C169.621 259.701 169.316 259.28 169.159 258.797C169.003 258.314 169.003 257.794 169.159 257.311C169.316 256.828 169.621 256.407 170.031 256.109C170.441 255.81 170.935 255.65 171.442 255.65H175.645C175.994 255.65 176.335 255.54 176.617 255.334C176.9 255.128 177.11 254.838 177.217 254.505L178.516 250.501C178.673 250.018 178.978 249.597 179.388 249.299C179.798 249 180.292 248.84 180.799 248.84C181.306 248.84 181.8 249 182.21 249.299C182.62 249.597 182.925 250.018 183.082 250.501L184.381 254.505C184.488 254.838 184.698 255.128 184.981 255.334C185.263 255.54 185.604 255.65 185.953 255.65H190.156C190.663 255.65 191.157 255.81 191.567 256.109C191.977 256.407 192.282 256.828 192.439 257.311C192.596 257.794 192.596 258.314 192.439 258.797C192.282 259.28 191.977 259.701 191.567 259.999L188.167 262.474C187.884 262.679 187.673 262.969 187.565 263.302C187.457 263.635 187.458 263.993 187.566 264.326L188.865 268.33C189.027 268.812 189.03 269.334 188.873 269.818C188.716 270.303 188.407 270.723 187.993 271.018C187.584 271.32 187.09 271.484 186.582 271.486Z" fill="#F9A826"/>
<path d="M221.039 271.486C220.531 271.484 220.037 271.32 219.628 271.018L216.228 268.543C215.945 268.337 215.605 268.226 215.256 268.226C214.906 268.226 214.566 268.337 214.284 268.543L210.884 271.018C210.474 271.316 209.98 271.477 209.473 271.477C208.966 271.477 208.472 271.316 208.062 271.018C207.652 270.719 207.347 270.299 207.19 269.816C207.033 269.333 207.033 268.813 207.19 268.33L208.489 264.326C208.597 263.993 208.598 263.635 208.49 263.302C208.382 262.969 208.171 262.679 207.888 262.474L204.488 259.999C204.078 259.701 203.772 259.28 203.616 258.797C203.459 258.314 203.459 257.794 203.616 257.311C203.772 256.828 204.078 256.407 204.488 256.109C204.898 255.81 205.392 255.65 205.899 255.65H210.102C210.451 255.65 210.791 255.54 211.074 255.334C211.357 255.128 211.567 254.838 211.674 254.505L212.973 250.501C213.129 250.018 213.435 249.597 213.845 249.299C214.255 249 214.749 248.84 215.256 248.84C215.763 248.84 216.257 249 216.667 249.299C217.077 249.597 217.382 250.018 217.539 250.501L218.837 254.505C218.945 254.838 219.155 255.128 219.437 255.334C219.72 255.54 220.061 255.65 220.41 255.65H224.613C225.12 255.65 225.613 255.81 226.024 256.109C226.434 256.407 226.739 256.828 226.896 257.311C227.052 257.794 227.052 258.314 226.896 258.797C226.739 259.28 226.434 259.701 226.024 259.999L222.623 262.474C222.34 262.679 222.13 262.969 222.022 263.302C221.914 263.635 221.914 263.993 222.023 264.326L223.322 268.33C223.484 268.812 223.487 269.334 223.33 269.818C223.173 270.303 222.864 270.723 222.45 271.018C222.041 271.32 221.547 271.484 221.039 271.486Z" fill="#F9A826"/>
<path d="M255.081 271.666C254.573 271.664 254.079 271.5 253.67 271.198L250.27 268.723C249.988 268.517 249.648 268.406 249.298 268.406C248.949 268.406 248.609 268.517 248.326 268.723L244.926 271.198C244.516 271.496 244.022 271.657 243.515 271.657C243.008 271.657 242.515 271.497 242.104 271.198C241.694 270.9 241.389 270.479 241.232 269.996C241.076 269.513 241.076 268.993 241.232 268.51L242.531 264.506C242.64 264.173 242.64 263.815 242.532 263.482C242.424 263.149 242.214 262.859 241.931 262.654L238.53 260.179C238.12 259.881 237.815 259.46 237.658 258.977C237.502 258.494 237.502 257.974 237.658 257.491C237.815 257.008 238.12 256.587 238.53 256.289C238.94 255.991 239.434 255.83 239.941 255.83H244.144C244.493 255.83 244.834 255.72 245.117 255.514C245.399 255.309 245.609 255.018 245.717 254.686L247.015 250.681C247.172 250.199 247.477 249.778 247.887 249.479C248.297 249.181 248.791 249.02 249.298 249.02C249.805 249.02 250.299 249.181 250.709 249.479C251.119 249.778 251.425 250.199 251.581 250.681L252.88 254.686C252.987 255.018 253.197 255.309 253.48 255.514C253.763 255.72 254.103 255.83 254.452 255.83H258.655C259.162 255.83 259.656 255.991 260.066 256.289C260.476 256.588 260.782 257.008 260.938 257.491C261.095 257.974 261.095 258.494 260.938 258.977C260.782 259.46 260.476 259.881 260.066 260.179L256.666 262.654C256.383 262.859 256.172 263.149 256.064 263.482C255.956 263.815 255.957 264.173 256.065 264.506L257.364 268.51C257.527 268.992 257.529 269.514 257.372 269.999C257.215 270.483 256.907 270.903 256.492 271.198C256.083 271.5 255.589 271.664 255.081 271.666Z" fill="#F9A826"/>
</g>
<defs>
<clipPath id="clip0">
<rect width="489" height="328" fill="white"/>
</clipPath>
</defs>
</svg>
